<svg width="1106" height="821" viewBox="0 0 1106 821" fill="none" xmlns="http://www.w3.org/2000/svg">
<g filter="url(#filter0_d)">
<path d="M356.059 101.262C314.996 122.847 281.703 153.028 256.794 191.532C236.283 222.536 223.413 256.375 218.25 292.647C183.022 308.587 153.344 332.566 129.712 364.261L129.653 364.34L129.594 364.42C101.653 402.31 87.5 445.373 87.5 492.464C87.5 532.355 97.7966 569.663 118.316 603.625L118.539 603.993L118.77 604.357C139.955 637.666 168.165 664.055 202.904 683.189C238.072 703.418 276.542 713.5 317.6 713.5H809.8C846.963 713.5 881.765 704.85 913.453 687.202C945.586 669.802 971.459 645.821 990.203 615.352L990.35 615.112L990.494 614.87C1009.11 583.563 1018.5 549.324 1018.5 512.857C1018.5 475.751 1007.86 441.16 987.226 409.87C972.632 386.101 954.044 366.231 931.72 350.428C932.508 343.458 932.9 336.42 932.9 329.321C932.9 296.889 924.289 266.394 907.417 238.525C890.545 210.658 867.372 188.665 838.566 172.828C809.784 157.005 778.593 149.071 745.6 149.071C727.859 149.071 710.536 151.468 693.72 156.221C671.786 131.916 645.548 112.148 615.287 96.9708C576 77.2668 533.66 67.5 488.8 67.5C441.657 67.5 397.214 78.7756 356.059 101.262Z" stroke="#359AB6" stroke-width="75"/>
</g>
<defs>
<filter id="filter0_d" x="0" y="0" width="1106" height="821" filterUnits="userSpaceOnUse" color-interpolation-filters="sRGB">
<feFlood flood-opacity="0" result="BackgroundImageFix"/>
<feColorMatrix in="SourceAlpha" type="matrix" values="0 0 0 0 0 0 0 0 0 0 0 0 0 0 0 0 0 0 127 0"/>
<feOffset dy="20"/>
<feGaussianBlur stdDeviation="25"/>
<feColorMatrix type="matrix" values="0 0 0 0 0 0 0 0 0 0 0 0 0 0 0 0 0 0 0.15 0"/>
<feBlend mode="normal" in2="BackgroundImageFix" result="effect1_dropShadow"/>
<feBlend mode="normal" in="SourceGraphic" in2="effect1_dropShadow" result="shape"/>
</filter>
</defs>
</svg>
