<svg width="1006" height="721" viewBox="0 0 1006 721" fill="none" xmlns="http://www.w3.org/2000/svg">
<path d="M79.7119 334.261L79.6525 334.34L79.5936 334.42C51.6533 372.31 37.5 415.373 37.5 462.464C37.5 502.355 47.7966 539.663 68.316 573.625L68.5388 573.993L68.7699 574.357C89.9539 607.665 118.163 634.053 152.9 653.187C188.069 673.417 226.54 683.5 267.6 683.5H759.8C796.962 683.5 831.764 674.851 863.451 657.203C895.585 639.803 921.459 615.822 940.203 585.352L940.35 585.112L940.494 584.87C959.111 553.563 968.5 519.323 968.5 482.857C968.5 445.751 957.862 411.16 937.226 379.87C922.632 356.101 904.044 336.231 881.72 320.428C882.508 313.458 882.9 306.42 882.9 299.321C882.9 266.889 874.289 236.394 857.417 208.525C840.545 180.658 817.372 158.665 788.566 142.828C759.784 127.005 728.593 119.071 695.6 119.071C677.859 119.071 660.536 121.468 643.72 126.221C621.786 101.916 595.548 82.148 565.287 66.9708L548.475 100.491L565.287 66.9708C526 47.2668 483.66 37.5 438.8 37.5C391.657 37.5 347.214 48.7756 306.06 71.2615C264.996 92.8466 231.704 123.027 206.794 161.531C186.283 192.536 173.413 226.374 168.25 262.647C133.022 278.587 103.344 302.566 79.7119 334.261Z" stroke="#359AB6" stroke-width="75"/>
</svg>
