<svg width="61" height="61" viewBox="0 0 61 61" fill="none" xmlns="http://www.w3.org/2000/svg">
<path d="M59.8281 2.72656C59.6719 2.17969 59.3203 1.82812 58.7734 1.67188C56.5859 1.125 54.8672 0.8125 53.6172 0.734375C52.5234 0.578125 50.9219 0.5 48.8125 0.5C41.9375 0.5 35.1406 4.25 28.4219 11.75H13.5391C12.8359 11.75 12.1719 11.9062 11.5469 12.2188C11 12.5312 10.5703 13 10.2578 13.625L1.46875 28.625C0.765625 29.875 0.765625 31.125 1.46875 32.375C2.25 33.625 3.34375 34.25 4.75 34.25H14.4766C13.6953 35.8906 12.9531 37.6484 12.25 39.5234C12.0156 40.0703 12.1328 40.5391 12.6016 40.9297L20.5703 48.8984C20.9609 49.3672 21.4297 49.4844 21.9766 49.25C23.7734 48.5469 25.5312 47.8047 27.25 47.0234V56.75C27.25 58.2344 27.875 59.3281 29.125 60.0312C30.375 60.7344 31.625 60.7344 32.875 60.0312L47.875 51.2422C48.4219 50.9297 48.8516 50.5 49.1641 49.9531C49.5547 49.3281 49.75 48.6641 49.75 47.9609V33.0781C57.25 26.3594 61 19.5625 61 12.6875C61 10.5781 60.9219 8.97656 60.7656 7.88281C60.6875 6.63281 60.375 4.91406 59.8281 2.72656ZM4.75 30.5L13.5391 15.5H25.375C22.0156 19.875 18.9688 24.875 16.2344 30.5H4.75ZM31 56.75V45.2656C36.625 42.5312 41.625 39.4844 46 36.125V47.9609L31 56.75ZM22.0938 45.1484L16.3516 39.4062C18.4609 34.0938 21 29.0547 23.9688 24.2891C27.5625 18.3516 31.2734 13.7031 35.1016 10.3438C39.7109 6.28125 44.2812 4.25 48.8125 4.25C50.5312 4.25 51.7812 4.28906 52.5625 4.36719C53.6562 4.44531 54.9844 4.64062 56.5469 4.95312C56.8594 6.51562 57.0547 7.88281 57.1328 9.05469C57.2109 9.75781 57.25 10.9688 57.25 12.6875C57.25 17.2188 55.2188 21.7891 51.1562 26.3984C47.7969 30.2266 43.1484 33.9375 37.2109 37.5312C32.4453 40.5 27.4062 43.0391 22.0938 45.1484ZM44.125 10.8125C42.3281 10.8125 40.7656 11.4766 39.4375 12.8047C38.1875 14.0547 37.5625 15.5781 37.5625 17.375C37.5625 19.1719 38.1875 20.7344 39.4375 22.0625C40.7656 23.3125 42.3281 23.9375 44.125 23.9375C45.9219 23.9375 47.4453 23.3125 48.6953 22.0625C50.0234 20.7344 50.6875 19.1719 50.6875 17.375C50.6875 15.5781 50.0234 14.0547 48.6953 12.8047C47.4453 11.4766 45.9219 10.8125 44.125 10.8125ZM44.125 20.1875C43.3438 20.1875 42.6797 19.9141 42.1328 19.3672C41.5859 18.8203 41.3125 18.1562 41.3125 17.375C41.3125 16.5938 41.5859 15.9297 42.1328 15.3828C42.6797 14.8359 43.3438 14.5625 44.125 14.5625C44.9062 14.5625 45.5703 14.8359 46.1172 15.3828C46.6641 15.9297 46.9375 16.5938 46.9375 17.375C46.9375 18.1562 46.6641 18.8203 46.1172 19.3672C45.5703 19.9141 44.9062 20.1875 44.125 20.1875Z" fill="#359AB6"/>
</svg>
