<svg width="60" height="61" viewBox="0 0 60 61" fill="none" xmlns="http://www.w3.org/2000/svg">
<path d="M50.625 41.75H37.5C35.9375 41.75 34.6094 41.2031 33.5156 40.1094C32.4219 39.0156 31.875 37.6875 31.875 36.125C31.875 34.5625 32.4219 33.2344 33.5156 32.1406C34.6094 31.0469 35.9375 30.5 37.5 30.5H48.75L51.6797 26.9844C53.8672 24.25 55.6641 21.7109 57.0703 19.3672C59.0234 16.1641 60 13.625 60 11.75C60 8.625 58.9062 5.96875 56.7188 3.78125C54.5312 1.59375 51.875 0.5 48.75 0.5C45.625 0.5 42.9688 1.59375 40.7812 3.78125C38.5938 5.96875 37.5 8.66406 37.5 11.8672C37.5 14.9922 40.1953 19.9531 45.5859 26.75H37.5C34.9219 26.75 32.6953 27.6875 30.8203 29.5625C29.0234 31.3594 28.125 33.5469 28.125 36.125C28.125 38.7031 29.0234 40.9297 30.8203 42.8047C32.6953 44.6016 34.9219 45.5 37.5 45.5H50.625C52.1875 45.5 53.5156 46.0469 54.6094 47.1406C55.7031 48.2344 56.25 49.5625 56.25 51.125C56.25 52.6875 55.7031 54.0156 54.6094 55.1094C53.5156 56.2031 52.1875 56.75 50.625 56.75H14.4141C19.8047 49.9531 22.5 44.9922 22.5 41.8672C22.5 38.6641 21.4062 35.9688 19.2188 33.7812C17.0312 31.5938 14.375 30.5 11.25 30.5C8.125 30.5 5.46875 31.5938 3.28125 33.7812C1.09375 35.9688 0 38.625 0 41.75C0 43.625 0.976562 46.1641 2.92969 49.3672C4.33594 51.7109 6.13281 54.25 8.32031 56.9844L11.25 60.5H50.625C53.2031 60.5 55.3906 59.5625 57.1875 57.6875C59.0625 55.8906 60 53.7031 60 51.125C60 48.5469 59.0625 46.3594 57.1875 44.5625C55.3906 42.6875 53.2031 41.75 50.625 41.75ZM41.25 11.75C41.25 9.71875 41.9922 7.96094 43.4766 6.47656C44.9609 4.99219 46.7188 4.25 48.75 4.25C50.7812 4.25 52.5391 4.99219 54.0234 6.47656C55.5078 7.96094 56.25 9.71875 56.25 11.75C56.25 12.9219 55.5078 14.7578 54.0234 17.2578C52.6172 19.5234 50.8594 21.9844 48.75 24.6406C46.6406 22.0625 44.8828 19.6016 43.4766 17.2578C41.9922 14.6797 41.25 12.8438 41.25 11.75ZM3.75 41.75C3.75 39.7188 4.49219 37.9609 5.97656 36.4766C7.46094 34.9922 9.21875 34.25 11.25 34.25C13.2812 34.25 15.0391 34.9922 16.5234 36.4766C18.0078 37.9609 18.75 39.7188 18.75 41.75C18.75 42.9219 18.0078 44.7578 16.5234 47.2578C15.1172 49.5234 13.3594 51.9844 11.25 54.6406C9.14062 52.0625 7.38281 49.6016 5.97656 47.2578C4.49219 44.6797 3.75 42.8438 3.75 41.75ZM11.25 39.875C10.4688 39.875 9.92188 40.1875 9.60938 40.8125C9.29688 41.4375 9.29688 42.0625 9.60938 42.6875C9.92188 43.3125 10.4688 43.625 11.25 43.625C12.0312 43.625 12.5781 43.3125 12.8906 42.6875C13.2031 42.0625 13.2031 41.4375 12.8906 40.8125C12.5781 40.1875 12.0312 39.875 11.25 39.875ZM48.75 9.875C47.9688 9.875 47.4219 10.1875 47.1094 10.8125C46.7969 11.4375 46.7969 12.0625 47.1094 12.6875C47.4219 13.3125 47.9688 13.625 48.75 13.625C49.5312 13.625 50.0781 13.3125 50.3906 12.6875C50.7031 12.0625 50.7031 11.4375 50.3906 10.8125C50.0781 10.1875 49.5312 9.875 48.75 9.875Z" fill="#359AB6"/>
</svg>
