<svg width="75" height="57" viewBox="0 0 75 57" fill="none" xmlns="http://www.w3.org/2000/svg">
<path d="M32.8125 19C33.0469 19 33.2422 18.9219 33.3984 18.7656C33.6328 18.5312 33.75 18.2969 33.75 18.0625V16.1875C33.75 15.9531 33.6328 15.7578 33.3984 15.6016C33.2422 15.3672 33.0469 15.25 32.8125 15.25H4.6875C4.45312 15.25 4.21875 15.3672 3.98438 15.6016C3.82812 15.7578 3.75 15.9531 3.75 16.1875V18.0625C3.75 18.2969 3.82812 18.5312 3.98438 18.7656C4.21875 18.9219 4.45312 19 4.6875 19H32.8125ZM74.0625 41.5H71.25V28.8438C71.25 26.7344 70.5078 24.9766 69.0234 23.5703L59.1797 13.7266C57.7734 12.2422 56.0156 11.5 53.9062 11.5H48.75V5.75781C48.75 4.19531 48.1641 2.90625 46.9922 1.89062C45.8984 0.796875 44.5703 0.25 43.0078 0.25H13.2422C11.6797 0.25 10.3125 0.796875 9.14062 1.89062C8.04688 2.90625 7.5 4.19531 7.5 5.75781V7.75H0.9375C0.703125 7.75 0.46875 7.86719 0.234375 8.10156C0.078125 8.25781 0 8.45312 0 8.6875V10.5625C0 10.7969 0.078125 11.0312 0.234375 11.2656C0.46875 11.4219 0.703125 11.5 0.9375 11.5H29.0625C29.2969 11.5 29.4922 11.4219 29.6484 11.2656C29.8828 11.0312 30 10.7969 30 10.5625V8.6875C30 8.45312 29.8828 8.25781 29.6484 8.10156C29.4922 7.86719 29.2969 7.75 29.0625 7.75H11.25V5.75781C11.25 5.28906 11.4453 4.89844 11.8359 4.58594C12.2266 4.19531 12.6953 4 13.2422 4H43.0078C43.5547 4 44.0234 4.19531 44.4141 4.58594C44.8047 4.89844 45 5.28906 45 5.75781V41.5H24.375C23.4375 40.3281 22.3047 39.4297 20.9766 38.8047C19.7266 38.1016 18.3594 37.75 16.875 37.75C14.8438 37.75 12.9688 38.375 11.25 39.625V30.25H7.5V47.125C7.5 49.7031 8.39844 51.8906 10.1953 53.6875C12.0703 55.5625 14.2969 56.5 16.875 56.5C19.4531 56.5 21.6406 55.5625 23.4375 53.6875C25.3125 51.8906 26.25 49.7031 26.25 47.125C26.25 46.5 26.1719 45.875 26.0156 45.25H48.9844C48.8281 45.875 48.75 46.5 48.75 47.125C48.75 49.7031 49.6484 51.8906 51.4453 53.6875C53.3203 55.5625 55.5469 56.5 58.125 56.5C60.7031 56.5 62.8906 55.5625 64.6875 53.6875C66.5625 51.8906 67.5 49.7031 67.5 47.125C67.5 46.5 67.4219 45.875 67.2656 45.25H74.0625C74.2969 45.25 74.4922 45.1719 74.6484 45.0156C74.8828 44.7812 75 44.5469 75 44.3125V42.4375C75 42.2031 74.8828 42.0078 74.6484 41.8516C74.4922 41.6172 74.2969 41.5 74.0625 41.5ZM16.875 52.75C15.3125 52.75 13.9844 52.2031 12.8906 51.1094C11.7969 50.0156 11.25 48.6875 11.25 47.125C11.25 45.5625 11.7969 44.2344 12.8906 43.1406C13.9844 42.0469 15.3125 41.5 16.875 41.5C18.4375 41.5 19.7656 42.0469 20.8594 43.1406C21.9531 44.2344 22.5 45.5625 22.5 47.125C22.5 48.6875 21.9531 50.0156 20.8594 51.1094C19.7656 52.2031 18.4375 52.75 16.875 52.75ZM48.75 15.25H53.9062C54.9219 15.25 55.8203 15.6016 56.6016 16.3047L66.4453 26.1484L66.5625 26.5H48.75V15.25ZM58.125 52.75C56.5625 52.75 55.2344 52.2031 54.1406 51.1094C53.0469 50.0156 52.5 48.6875 52.5 47.125C52.5 45.5625 53.0469 44.2344 54.1406 43.1406C55.2344 42.0469 56.5625 41.5 58.125 41.5C59.6875 41.5 61.0156 42.0469 62.1094 43.1406C63.2031 44.2344 63.75 45.5625 63.75 47.125C63.75 48.6875 63.2031 50.0156 62.1094 51.1094C61.0156 52.2031 59.6875 52.75 58.125 52.75ZM67.5 41.5H65.625C64.6875 40.3281 63.5547 39.4297 62.2266 38.8047C60.9766 38.1016 59.6094 37.75 58.125 37.75C56.6406 37.75 55.2344 38.1016 53.9062 38.8047C52.6562 39.4297 51.5625 40.3281 50.625 41.5H48.75V30.25H67.5V41.5ZM30 25.5625V23.6875C30 23.4531 29.8828 23.2578 29.6484 23.1016C29.4922 22.8672 29.2969 22.75 29.0625 22.75H0.9375C0.703125 22.75 0.46875 22.8672 0.234375 23.1016C0.078125 23.2578 0 23.4531 0 23.6875V25.5625C0 25.7969 0.078125 26.0312 0.234375 26.2656C0.46875 26.4219 0.703125 26.5 0.9375 26.5H29.0625C29.2969 26.5 29.4922 26.4219 29.6484 26.2656C29.8828 26.0312 30 25.7969 30 25.5625Z" fill="#359AB6"/>
</svg>
