<svg width="60" height="61" viewBox="0 0 60 61" fill="none" xmlns="http://www.w3.org/2000/svg">
<path d="M27.5391 23.8203L22.2656 22.2969C21.9531 22.2188 21.6797 22.0625 21.4453 21.8281C21.2891 21.5156 21.2109 21.1641 21.2109 20.7734C21.2109 20.3828 21.3281 20.0312 21.5625 19.7188C21.875 19.4062 22.2266 19.25 22.6172 19.25H25.8984C26.4453 19.25 26.9531 19.4062 27.4219 19.7188C27.8906 19.9531 28.2812 19.9141 28.5938 19.6016L30 18.3125C30.2344 18.0781 30.3125 17.8438 30.2344 17.6094C30.2344 17.2969 30.1172 17.0625 29.8828 16.9062C28.7891 16.0469 27.5781 15.5781 26.25 15.5V13.625C26.25 13.3906 26.1328 13.1953 25.8984 13.0391C25.7422 12.8047 25.5469 12.6875 25.3125 12.6875H23.4375C23.2031 12.6875 22.9688 12.8047 22.7344 13.0391C22.5781 13.1953 22.5 13.3906 22.5 13.625V15.5C21.0938 15.5781 19.8828 16.125 18.8672 17.1406C17.9297 18.1562 17.4609 19.3672 17.4609 20.7734C17.4609 21.9453 17.8125 23 18.5156 23.9375C19.2188 24.875 20.1172 25.5391 21.2109 25.9297L26.4844 27.4531C26.7969 27.5312 27.0312 27.7266 27.1875 28.0391C27.4219 28.2734 27.5391 28.5859 27.5391 28.9766C27.5391 29.3672 27.3828 29.7188 27.0703 30.0312C26.8359 30.3438 26.5234 30.5 26.1328 30.5H22.8516C22.3047 30.5 21.7969 30.3828 21.3281 30.1484C20.8594 29.8359 20.4688 29.8359 20.1562 30.1484L18.75 31.4375C18.5156 31.6719 18.3984 31.9453 18.3984 32.2578C18.4766 32.4922 18.6328 32.6875 18.8672 32.8438C19.9609 33.7031 21.1719 34.1719 22.5 34.25V36.125C22.5 36.3594 22.5781 36.5938 22.7344 36.8281C22.9688 36.9844 23.2031 37.0625 23.4375 37.0625H25.3125C25.5469 37.0625 25.7422 36.9844 25.8984 36.8281C26.1328 36.5938 26.25 36.3594 26.25 36.125V34.25C27.6562 34.1719 28.8281 33.625 29.7656 32.6094C30.7812 31.5938 31.2891 30.3828 31.2891 28.9766C31.2891 27.8047 30.9375 26.75 30.2344 25.8125C29.5312 24.875 28.6328 24.2109 27.5391 23.8203ZM59.5312 56.9844L44.4141 41.8672C44.1797 41.5547 43.8672 41.3984 43.4766 41.3984H42.3047C44.3359 39.2109 45.8984 36.7109 46.9922 33.8984C48.1641 31.0078 48.75 28 48.75 24.875C48.75 20.4219 47.6562 16.3594 45.4688 12.6875C43.2812 8.9375 40.3125 5.96875 36.5625 3.78125C32.8906 1.59375 28.8281 0.5 24.375 0.5C19.9219 0.5 15.8203 1.59375 12.0703 3.78125C8.39844 5.96875 5.46875 8.9375 3.28125 12.6875C1.09375 16.3594 0 20.4219 0 24.875C0 29.3281 1.09375 33.4297 3.28125 37.1797C5.46875 40.8516 8.39844 43.7812 12.0703 45.9688C15.8203 48.1562 19.9219 49.25 24.375 49.25C27.5 49.25 30.4688 48.7031 33.2812 47.6094C36.1719 46.4375 38.7109 44.8359 40.8984 42.8047V43.9766C40.8984 44.3672 41.0547 44.6797 41.3672 44.9141L56.4844 60.0312C56.7188 60.3438 57.0312 60.5 57.4219 60.5C57.8125 60.5 58.1641 60.3438 58.4766 60.0312L59.5312 58.9766C59.8438 58.6641 60 58.3125 60 57.9219C60 57.5312 59.8438 57.2188 59.5312 56.9844ZM24.375 45.5C20.625 45.5 17.1484 44.6016 13.9453 42.8047C10.8203 40.9297 8.32031 38.4297 6.44531 35.3047C4.64844 32.1016 3.75 28.625 3.75 24.875C3.75 21.125 4.64844 17.6875 6.44531 14.5625C8.32031 11.3594 10.8203 8.85938 13.9453 7.0625C17.1484 5.1875 20.625 4.25 24.375 4.25C28.125 4.25 31.5625 5.1875 34.6875 7.0625C37.8906 8.85938 40.3906 11.3594 42.1875 14.5625C44.0625 17.6875 45 21.125 45 24.875C45 28.625 44.0625 32.1016 42.1875 35.3047C40.3906 38.4297 37.8906 40.9297 34.6875 42.8047C31.5625 44.6016 28.125 45.5 24.375 45.5Z" fill="#359AB6"/>
</svg>
