<svg width="70" height="69" viewBox="0 0 70 69" fill="none" xmlns="http://www.w3.org/2000/svg">
<path d="M70 34.5337C70 33.9054 69.8177 33.322 69.4531 32.7834C69.0885 32.1551 68.5872 31.7063 67.9492 31.4371L54.2773 25.6478L67.9492 19.8585C68.5872 19.5893 69.0885 19.1854 69.4531 18.6468C69.8177 18.0185 70 17.3902 70 16.762C70 16.0439 69.8177 15.4156 69.4531 14.8771C69.0885 14.3385 68.5872 13.9346 67.9492 13.6654L37.1875 0.47122C35.7292 -0.157073 34.2708 -0.157073 32.8125 0.47122L2.05078 13.6654C1.41276 13.9346 0.911458 14.3385 0.546875 14.8771C0.182292 15.4156 0 16.0439 0 16.762C0 17.3902 0.182292 18.0185 0.546875 18.6468C0.911458 19.1854 1.41276 19.5893 2.05078 19.8585L15.7227 25.6478L2.05078 31.4371C1.41276 31.7063 0.911458 32.1551 0.546875 32.7834C0.182292 33.322 0 33.9054 0 34.5337C0 35.162 0.182292 35.7902 0.546875 36.4185C0.911458 36.9571 1.41276 37.361 2.05078 37.6302L15.5859 43.4195L2.05078 49.2088C1.41276 49.4781 0.911458 49.9268 0.546875 50.5551C0.182292 51.0937 0 51.722 0 52.44C0 53.0683 0.182292 53.6517 0.546875 54.1902C0.911458 54.7288 1.41276 55.1327 2.05078 55.402L32.8125 68.5961C33.5417 68.8654 34.2708 69 35 69C35.7292 69 36.4583 68.8654 37.1875 68.5961L67.9492 55.402C68.5872 55.1327 69.0885 54.7288 69.4531 54.1902C69.8177 53.6517 70 53.0683 70 52.44C70 51.722 69.8177 51.0937 69.4531 50.5551C69.0885 49.9268 68.5872 49.4781 67.9492 49.2088L54.4141 43.4195L67.9492 37.6302C68.5872 37.361 69.0885 36.9571 69.4531 36.4185C69.8177 35.7902 70 35.162 70 34.5337ZM6.15234 16.762L34.5898 4.64488C34.8633 4.46537 35.1367 4.46537 35.4102 4.64488L63.8477 16.762L35.4102 28.879C35.1367 28.9688 34.8633 28.9688 34.5898 28.879L6.15234 16.762ZM63.8477 52.3054L35.4102 64.4224C35.1367 64.602 34.8633 64.602 34.5898 64.4224L6.15234 52.3054L21.3281 45.8429L32.8125 50.8244C33.5417 51.0937 34.2708 51.2283 35 51.2283C35.7292 51.2283 36.4583 51.0937 37.1875 50.8244L48.6719 45.8429L63.8477 52.3054ZM35.4102 46.6507C35.1367 46.7405 34.8633 46.7405 34.5898 46.6507L6.15234 34.5337L21.3281 28.0712L32.8125 32.918C33.5417 33.2771 34.2708 33.4566 35 33.4566C35.7292 33.4566 36.4583 33.2771 37.1875 32.918L48.6719 28.0712L63.8477 34.5337L35.4102 46.6507Z" fill="#359AB6"/>
</svg>
