<?xml version="1.0" encoding="UTF-8"?>
<svg width="536px" height="93px" viewBox="0 0 536 93" version="1.1" xmlns="http://www.w3.org/2000/svg" xmlns:xlink="http://www.w3.org/1999/xlink">
    <!-- Generator: Sketch 50.2 (55047) - http://www.bohemiancoding.com/sketch -->
    <title>ill-simulations</title>
    <desc>Created with Sketch.</desc>
    <defs>
        <circle id="path-1" cx="412" cy="47.4140625" r="20.0212402"></circle>
    </defs>
    <g id="Page-1" stroke="none" stroke-width="1" fill="none" fill-rule="evenodd">
        <g id="Viren-Copy-3" transform="translate(-240.000000, -760.000000)">
            <g id="Simulations" transform="translate(240.000000, 696.585938)">
                <g id="ill-simulations" transform="translate(0.000000, 63.000000)">
                    <path d="M225.5,10.5 L225.5,9.5 L230.5,9.5 L230.5,10.5 L225.5,10.5 Z M235.5,10.5 L235.5,9.5 L240.5,9.5 L240.5,10.5 L235.5,10.5 Z M245.5,10.5 L245.5,9.5 L250.5,9.5 L250.5,10.5 L245.5,10.5 Z M255.5,10.5 L255.5,9.5 L260.5,9.5 L260.5,10.5 L255.5,10.5 Z M265.5,10.5 L265.5,9.5 L270.5,9.5 L270.5,10.5 L265.5,10.5 Z M275.5,10.5 L275.5,9.5 L280.5,9.5 L280.5,10.5 L275.5,10.5 Z M285.5,10.5 L285.5,9.5 L290.5,9.5 L290.5,10.5 L285.5,10.5 Z M295.5,10.5 L295.5,9.5 L300.5,9.5 L300.5,10.5 L295.5,10.5 Z M305.5,10.5 L305.5,9.5 L310.5,9.5 L310.5,10.5 L305.5,10.5 Z M315.5,10.5 L315.5,9.5 L320.5,9.5 L320.5,10.5 L315.5,10.5 Z" id="Line-Copy-2" fill="#D7D7D7" fill-rule="nonzero"></path>
                    <path d="M225.5,84.5 L225.5,83.5 L230.5,83.5 L230.5,84.5 L225.5,84.5 Z M235.5,84.5 L235.5,83.5 L240.5,83.5 L240.5,84.5 L235.5,84.5 Z M245.5,84.5 L245.5,83.5 L250.5,83.5 L250.5,84.5 L245.5,84.5 Z M255.5,84.5 L255.5,83.5 L260.5,83.5 L260.5,84.5 L255.5,84.5 Z M265.5,84.5 L265.5,83.5 L270.5,83.5 L270.5,84.5 L265.5,84.5 Z M275.5,84.5 L275.5,83.5 L280.5,83.5 L280.5,84.5 L275.5,84.5 Z M285.5,84.5 L285.5,83.5 L290.5,83.5 L290.5,84.5 L285.5,84.5 Z M295.5,84.5 L295.5,83.5 L300.5,83.5 L300.5,84.5 L295.5,84.5 Z M305.5,84.5 L305.5,83.5 L310.5,83.5 L310.5,84.5 L305.5,84.5 Z M315.5,84.5 L315.5,83.5 L320.5,83.5 L320.5,84.5 L315.5,84.5 Z" id="Line-Copy-3" fill="#DBDBDB" fill-rule="nonzero"></path>
                    <path d="M130.072747,45.4946796 L129.927253,44.5053204 C131.271654,44.3076144 132.584059,44.1031171 133.865177,43.891857 L134.027883,44.8785317 C132.740986,45.0907447 131.422845,45.2961357 130.072747,45.4946796 Z M139.950278,43.8110798 L139.757245,42.8298875 C141.096605,42.5663913 142.397115,42.2943173 143.659968,42.0136731 L143.876906,42.9898585 C142.606028,43.2722861 141.297552,43.5460267 139.950278,43.8110798 Z M149.736222,41.5558975 L149.476164,40.5903046 C150.799051,40.2340183 152.073948,39.8663509 153.303144,39.4871881 L153.597903,40.4427596 C152.357081,40.8255087 151.070618,41.1965115 149.736222,41.5558975 Z M159.294942,38.4832541 L158.936857,37.549565 C160.216647,37.0587452 161.438123,36.5517496 162.606623,36.0277398 L163.015809,36.9401909 C161.830332,37.471814 160.591817,37.9858818 159.294942,38.4832541 Z M168.416939,34.1945963 L167.917944,33.3279912 C169.088055,32.6542363 170.200911,31.95495 171.274113,31.2231223 L171.837502,32.0493143 C170.743507,32.7953207 169.609183,33.5080969 168.416939,34.1945963 Z M176.647397,28.3638412 L176.000004,27.6016849 C176.923746,26.8170367 177.817153,26.0195238 178.974011,24.9573549 L179.650329,25.6939648 C178.484803,26.7640919 177.582578,27.5694763 176.647397,28.3638412 Z M184.085579,21.6842626 L183.436811,20.9232763 C184.531457,19.9900516 185.564028,19.1776429 186.62118,18.429173 L187.199019,19.2453234 C186.168021,19.9752763 185.158642,20.7694384 184.085579,21.6842626 Z M192.312162,16.252654 L191.884484,15.348723 C193.063881,14.790713 194.30832,14.2806683 195.634487,13.8151997 L195.965667,14.7587671 C194.672098,15.2127944 193.459871,15.7096364 192.312162,16.252654 Z M201.697994,13.1467846 L201.481606,12.1704771 C202.734942,11.8926886 204.052496,11.641737 205.439884,11.4174158 L205.599497,12.4045954 C204.23082,12.6258914 202.93218,12.8732405 201.697994,13.1467846 Z M211.52322,11.6522547 L211.427219,10.6568735 C212.710068,10.5331464 214.043787,10.4267806 215.430871,10.3378663 L215.494841,11.3358181 C214.118287,11.4240574 212.795236,11.5295724 211.52322,11.6522547 Z M221.457699,11.0708207 L221.431082,10.071175 C222.726582,10.03668 224.062618,10.014677 225.440539,10.0052674 L225.447367,11.0052441 C224.075961,11.0146092 222.746517,11.0365037 221.457699,11.0708207 Z" id="Path-5" fill="#D3D3D3" fill-rule="nonzero"></path>
                    <path d="M407.085393,45.507346 L406.914607,46.492654 C405.549787,46.2560852 404.234608,45.987359 402.965433,45.6866414 L403.195989,44.7135823 C404.445177,45.0095641 405.740428,45.2742186 407.085393,45.507346 Z M397.484956,43.0338707 L397.14837,43.9755235 C395.851689,43.512036 394.606077,43.0062589 393.403297,42.4571199 L393.818617,41.5474445 C394.995592,42.0848019 396.214935,42.5799125 397.484956,43.0338707 Z M388.584339,38.7181428 L388.051113,39.5641155 C386.924148,38.8537767 385.823221,38.0926148 384.724298,37.2690459 L385.324007,36.4688279 C386.401935,37.276662 387.480778,38.0225557 388.584339,38.7181428 Z M380.735457,32.6848387 L380.071091,33.4322468 C379.204812,32.6622179 378.380098,31.9079604 377.108248,30.7295498 L377.787896,29.9960113 C379.055081,31.1701004 379.875536,31.9204621 380.735457,32.6848387 Z M373.342275,25.9384924 L372.681872,26.6894037 C371.624812,25.759752 370.629674,24.9227472 369.637232,24.1343577 L370.259246,23.3513519 C371.265607,24.1507983 372.273331,24.9983895 373.342275,25.9384924 Z M365.316782,19.8214375 L364.781554,20.6661456 C363.670709,19.9622872 362.53293,19.3016021 361.355902,18.6801241 L361.822818,17.7958226 C363.023371,18.4297216 364.183918,19.1036277 365.316782,19.8214375 Z M356.32721,15.2885399 L355.963577,16.2200821 C354.760851,15.750591 353.515037,15.3126571 352.221162,14.9059777 L352.521011,13.951991 C353.836294,14.3653992 355.103382,14.8108115 356.32721,15.2885399 Z M346.658601,12.3943792 L346.442478,13.3707453 C345.18387,13.0921468 343.884178,12.8376481 342.541026,12.6074337 L342.709961,11.6218065 C344.068777,11.8547056 345.384198,12.1122845 346.658601,12.3943792 Z M336.729574,10.7880449 L336.620323,11.7820591 C335.334061,11.6406878 334.012339,11.5182269 332.653862,11.4148769 L332.729721,10.4177583 C334.099243,10.5219487 335.432094,10.6454407 336.729574,10.7880449 Z M326.725744,10.0931144 L326.692245,11.0925531 C325.393676,11.0490279 324.064956,11.0207794 322.705301,11.0079659 L322.714725,10.0080103 C324.082339,10.0208988 325.419082,10.0493179 326.725744,10.0931144 Z" id="Path-5-Copy-2" fill="#5CC1DD" fill-rule="nonzero"></path>
                    <path d="M129.946867,50.9971689 L130.053133,50.0028311 C131.413724,50.1482378 132.739376,50.3030973 134.030915,50.4673502 L133.904755,51.4593601 C132.619904,51.2959578 131.300882,51.1418727 129.946867,50.9971689 Z M139.829651,52.3177399 L139.991552,51.3309328 C141.352793,51.5542649 142.670662,51.7898852 143.946612,52.0377462 L143.75592,53.0193962 C142.489649,52.7734154 141.181374,52.5395104 139.829651,52.3177399 Z M149.590336,54.3109784 L149.834125,53.3411501 C151.181132,53.6797517 152.473306,54.0352528 153.713576,54.4077528 L153.425931,55.3654899 C152.200363,54.9974056 150.922806,54.6459257 149.590336,54.3109784 Z M159.048652,57.3106974 L159.418252,56.3815065 C160.715196,56.8973861 161.944514,57.4383249 163.113591,58.0055446 L162.677072,58.9052395 C161.530123,58.348756 160.323126,57.8176392 159.048652,57.3106974 Z M167.849531,61.8404301 L168.401276,61.0064173 C169.539773,61.7595953 170.619043,62.5516492 171.667191,63.3963964 L171.039678,64.175003 C170.01548,63.3495579 168.961429,62.5760118 167.849531,61.8404301 Z M175.448418,68.1789344 L176.154319,67.4706241 C176.565377,67.8802834 176.98259,68.3029333 177.503961,68.8362807 C177.684668,69.0211382 178.571767,69.9312814 178.819024,70.1839345 C178.889768,70.2562022 178.889768,70.2562022 178.960499,70.3283695 L178.246435,71.0284499 C178.175368,70.9559401 178.175368,70.9559401 178.104328,70.8833691 C177.85618,70.6298068 176.968816,69.7193915 176.788871,69.5353132 C176.270289,69.0048182 175.855925,68.5850554 175.448418,68.1789344 Z M182.638836,75.1782296 L183.280895,74.4115744 C184.311519,75.2747016 185.349885,76.0503276 186.44312,76.7638825 L185.896544,77.6012914 C184.76897,76.865324 183.698943,76.0660484 182.638836,75.1782296 Z M191.298676,80.4469088 L191.684526,79.5243473 C192.848202,80.0110404 194.083767,80.4565851 195.402888,80.8624458 L195.108817,81.8182294 C193.75896,81.4029118 192.49277,80.9463241 191.298676,80.4469088 Z M200.997663,83.2648428 L201.186583,82.2828504 C202.430946,82.5222469 203.736823,82.7368312 205.108351,82.9265269 L204.971345,83.9170972 C203.582722,83.725037 202.259551,83.5076109 200.997663,83.2648428 Z M210.962003,84.5559228 L211.040222,83.5589866 C212.317506,83.6592018 213.642634,83.7424911 215.017528,83.8087019 L214.969427,84.8075444 C213.584626,84.7408565 212.249466,84.6569366 210.962003,84.5559228 Z M220.998773,84.9848749 L221.011079,83.9849506 C221.825494,83.9949735 222.655045,84 223.5,84 L223.5,85 C222.650973,85 221.817322,84.9949487 220.998773,84.9848749 Z" id="Path-5-Copy" fill="#D3D3D3" fill-rule="nonzero"></path>
                    <path d="M435.804,12.9637833 L435.584,13.4257833 L435.496,14.1517833 L435.276,14.3497833 C435.188,14.9364529 434.960669,15.3104492 434.594,15.4717833 L434.44,15.5377833 L433.12,16.4617833 L432.724,16.6817833 L432.086,17.3857833 L431.69,17.3197833 L431.448,17.4957833 L431.008,17.6497833 L429.908,18.2217833 C429.82,18.1924498 429.702667,18.1264505 429.556,18.0237833 C429.453333,18.1704507 429.292001,18.2657831 429.072,18.3097833 L428.984,18.3097833 L428.544,18.6617833 L428.456,18.6177833 L428.038,18.6177833 L427.84,18.7717833 L427.004,18.7497833 L425.904,18.9257833 L425.772,18.9257833 C425.669333,18.9257833 425.544667,18.9404498 425.398,18.9697833 L424.782,18.8817833 L424.672,18.7717833 L423.792,18.6397833 L423.418,18.4637833 L422.89,18.4637833 L422.89,18.2217833 L422.472,17.7817833 L421.922,17.5397833 L421.68,16.8577833 L421.658,16.3517833 L421.526,16.1977833 L421.504,15.2077833 L421.79,14.3277833 L421.746,13.7997833 L421.856,13.6897833 L421.856,13.2717833 L422.164,12.9637833 L422.164,12.7437833 L422.296,12.5017833 L422.296,12.2817833 L422.384,12.1717833 L422.274,11.9297833 L422.626,11.6877833 L423.044,10.8077833 L423.946,9.50978331 L424.166,9.39978331 C424.21,9.32644961 424.276,9.23111723 424.364,9.11378331 L424.584,8.93778331 L424.584,8.58578331 L424.914,8.51978331 C425.134001,8.34378243 425.375999,8.21178375 425.64,8.12378331 L425.75,7.99178331 C425.882001,7.93311635 426.26333,7.85978375 426.894,7.77178331 L427.488,7.68378331 L428.192,7.77178331 L428.61,7.74978331 L429.204,7.74978331 L429.336,7.77178331 L429.402,7.79378331 L429.512,7.79378331 L429.644,7.74978331 L430.348,7.77178331 L430.304,7.90378331 L430.634,7.99178331 C430.722,7.96244983 430.766,7.90378375 430.766,7.81578331 C430.839334,7.94778397 431.000665,8.01378331 431.25,8.01378331 L431.426,8.18978331 L432.086,8.18978331 L433.56,8.82778331 L433.736,9.31178331 L433.868,9.50978331 L434.264,9.66378331 L434.858,10.6317833 L435.21,11.0717833 C435.606002,11.9957879 435.804,12.5457824 435.804,12.7217833 L435.804,12.9637833 Z M434.154,13.0957833 L434.044,12.4797833 L434.154,12.3037833 L434,11.9297833 C434.014667,11.9004498 434.022,11.8564503 434.022,11.7977833 C434.022,11.7537831 434.007333,11.7171168 433.978,11.6877833 L433.582,11.4237833 L433.45,11.0717833 L433.274,11.0057833 L433.208,10.6977833 L432.658,10.1917833 L432.328,9.92778331 L432.196,9.99378331 C431.858665,9.68578177 431.235338,9.42911767 430.326,9.22378331 C430.208666,9.22378331 430.135333,9.21645005 430.106,9.20178331 L429.996,9.26778331 L429.6,9.15778331 L429.38,9.26778331 C429.159999,9.19444961 429.028,9.15778331 428.984,9.15778331 C428.969333,9.15778331 428.914334,9.17244983 428.819,9.20178331 C428.723666,9.23111679 428.639334,9.24578331 428.566,9.24578331 C428.492666,9.24578331 428.434,9.23845005 428.39,9.22378331 C428.287333,9.41445093 428.045335,9.58311591 427.664,9.72978331 L427.378,9.68578331 L427.07,9.83978331 L426.674,9.79578331 C426.409999,10.0011177 426.102002,10.2137822 425.75,10.4337833 L425.64,10.5877833 L425.53,11.0717833 L425.024,11.2917833 L424.936,11.4017833 C424.848,11.5777842 424.730667,11.7391159 424.584,11.8857833 L424.584,12.2597833 L424.276,12.3917833 L424.21,12.4357833 L424.012,13.0957833 L423.704,13.2717833 C423.66,14.0197871 423.535334,14.5404485 423.33,14.8337833 C423.212666,14.9951175 423.146667,15.2151153 423.132,15.4937833 L423.044,15.7357833 L423.11,15.8897833 L423.176,16.2197833 L423.44,16.5057833 L423.484,16.7917833 L423.704,17.0117833 C424.114669,17.2464512 424.481332,17.3711166 424.804,17.3857833 L425.728,17.1437833 L425.926,17.3417833 L426.19,17.3417833 L426.234,17.2977833 L426.894,17.1877833 L427.598,17.2977833 C427.715334,17.1804494 427.854666,17.1217833 428.016,17.1217833 C428.353335,16.916449 428.639332,16.8137833 428.874,16.8137833 L429.336,16.5497833 L429.688,16.5277833 L429.974,16.3077833 L430.656,16.2857833 C430.714667,16.2711166 430.780666,16.2637833 430.854,16.2637833 L430.898,16.1977833 C431.000667,16.0511159 431.154666,15.9557835 431.36,15.9117833 L431.624,15.2957833 L431.8,15.4057833 L431.976,15.3177833 L432.284,15.0317833 L432.394,15.0757833 L432.768,14.8117833 L433.428,14.1517833 L433.714,14.0637833 L433.846,13.7337833 L434.022,13.6237833 L433.978,13.4257833 L434.154,13.0957833 Z M445.88,15.5157833 L445.616,16.1757833 L445.792,16.6157833 L445.704,16.7477833 L445.616,17.0997833 L445.44,17.4077833 L445.352,17.4517833 L445.308,17.8697833 L444.912,17.9137833 C444.706666,18.1044509 444.494001,18.2584494 444.274,18.3757833 L444.142,18.3537833 L443.812,18.4637833 L443.614,18.4857833 L443.196,18.6397833 L442.712,18.4197833 L442.646,18.3757833 L442.272,18.3977833 L442.36,18.4417833 L441.744,18.3537833 L441.194,18.4857833 L440.974,18.2877833 L440.512,18.3317833 L440.336,18.1997833 C440.321333,18.1997833 440.262667,18.2071166 440.16,18.2217833 L440.16,18.3537833 C440.16,18.485784 440.138,18.6177827 440.094,18.7497833 L440.16,19.1677833 L439.984,19.3877833 C440.013333,19.7104516 440.028,19.9524492 440.028,20.1137833 L439.962,20.6637833 L440.05,21.4997833 L439.874,21.7197833 L439.962,22.0497833 L439.896,22.2697833 L440.028,22.3357833 L440.028,22.6657833 C440.057333,22.7537838 440.072,22.8197831 440.072,22.8637833 C440.072,22.995784 439.991334,23.1057829 439.83,23.1937833 L439.918,23.5017833 L439.808,23.6777833 L439.764,24.5577833 C439.72,25.5844551 439.492669,26.0977833 439.082,26.0977833 C438.994,26.0977833 438.737335,26.0391172 438.312,25.9217833 L438.378,25.2617833 L438.246,24.2937833 L438.466,23.8977833 L438.488,23.4137833 L438.4,22.7537833 L438.576,22.4677833 L438.378,21.9617833 L438.532,21.6977833 L438.4,21.2577833 L438.576,20.8617833 C438.546667,20.7737829 438.491667,20.693117 438.411,20.6197833 C438.330333,20.5464496 438.29,20.4951168 438.29,20.4657833 C438.29,20.4217831 438.341333,20.3777835 438.444,20.3337833 C438.429333,20.2897831 438.422,20.2164505 438.422,20.1137833 C438.422,19.9231157 438.466,19.6737849 438.554,19.3657833 L438.422,19.1457833 L438.488,18.8597833 L438.334,18.6617833 L438.532,18.4197833 L438.444,17.7817833 L438.576,16.8797833 L438.422,16.5937833 L438.664,16.1757833 L438.4,15.9337833 L438.554,15.5157833 L438.4,15.4057833 L438.422,15.0317833 L438.554,14.5697833 L438.554,14.4817833 L438.576,14.3937833 L438.576,14.1517833 L438.598,14.0637833 L438.488,13.7117833 L438.598,13.3377833 L438.488,13.0517833 L438.576,12.7217833 L438.488,12.6337833 L438.554,12.1937833 L438.488,11.9517833 L438.532,11.7317833 L438.466,11.5777833 L437.674,11.9297833 L437.674,11.7977833 L437.52,11.8197833 L437.278,12.0397833 L437.08,12.0397833 L436.816,12.3917833 L436.596,12.3037833 L436.486,12.5237833 C435.76733,12.0984479 435.408,11.7611179 435.408,11.5117833 C435.408,11.3357824 435.473999,11.1891172 435.606,11.0717833 L435.584,10.7417833 C435.994669,10.5071155 436.383332,10.3824501 436.75,10.3677833 L436.904,10.2137833 L437.608,9.92778331 L437.762,9.77378331 L438.378,9.81778331 L438.488,9.77378331 L438.686,9.00378331 L439.214,9.11378331 L439.566,9.68578331 L439.764,9.48778331 L440.16,9.77378331 C440.350668,9.77378331 440.533999,9.81044961 440.71,9.88378331 L440.82,10.0817833 L440.974,10.0157833 L441.15,10.1477833 C441.252667,10.1477833 441.333333,10.1551166 441.392,10.1697833 L441.37,10.3017833 L441.854,10.1477833 L442.096,10.4117833 L442.514,10.5437833 L442.8,10.8957833 L443.328,11.2257833 L443.35,11.2697833 L443.768,11.4017833 L443.768,11.5337833 C443.885334,11.6217838 443.973333,11.7391159 444.032,11.8857833 L444.208,11.9957833 L444.34,12.2377833 L444.604,12.2377833 L444.604,12.6777833 L444.758,12.8317833 L444.802,12.9857833 L445.022,13.0297833 C445.051333,13.3671183 445.146666,13.6531155 445.308,13.8877833 L445.308,14.0417833 L445.528,14.2617833 L445.484,14.6137833 L445.66,15.0097833 L445.726,15.4717833 L445.88,15.5157833 Z M443.487388,17.1163955 C443.492177,17.1199874 443.490381,17.1217833 443.482,17.1217833 L443.487388,17.1163955 Z M443.487388,17.1163955 L443.9,16.7037833 L443.944,16.3957833 L444.054,16.3517833 L443.988,16.1757833 L444.142,15.9997833 L444.23,15.8457833 L444.208,15.7357833 L444.23,15.6477833 L444.098,15.2517833 L444.186,15.0537833 L444.098,14.8777833 L444.076,14.6577833 L443.9,14.3057833 L443.812,14.0637833 L443.482,13.4917833 L443.218,13.2717833 L443.064,12.8977833 L442.866,12.8097833 L442.514,12.3477833 L442.162,12.3917833 L441.898,12.0397833 L441.678,12.0837833 L441.524,11.7977833 L441.436,11.7757833 L441.128,11.7757833 L440.908,11.8857833 L440.732,11.7097833 L440.512,11.7537833 L440.424,11.5997833 L440.028,11.5337833 L440.05,11.7977833 L440.006,12.2157833 L440.094,12.4577833 L440.402,12.7437833 L440.16,13.2717833 L440.182,13.6017833 L440.072,14.2617833 C440.116,14.5404514 440.203999,14.7751157 440.336,14.9657833 L440.248,15.2077833 C440.262667,15.2224501 440.27,15.2371166 440.27,15.2517833 C440.27,15.2957835 440.211334,15.3617829 440.094,15.4497833 L440.248,15.6477833 L440.138,15.9117833 L440.094,16.1977833 L440.16,16.5057833 L440.138,16.7917833 L440.6,16.7917833 C440.658667,16.7624498 440.739333,16.7477833 440.842,16.7477833 C440.974001,16.7477833 441.091333,16.7917829 441.194,16.8797833 C441.208667,16.8797833 441.238,16.8724501 441.282,16.8577833 L441.348,16.8577833 C441.392,16.8577833 441.472666,16.8724498 441.59,16.9017833 C441.678,16.8577831 441.758666,16.8357833 441.832,16.8357833 C441.949334,16.8357833 442.059333,16.8651164 442.162,16.9237833 L442.36,16.9237833 L442.536,16.9677833 L442.976,16.8357833 L443.328,17.0557833 C443.422286,17.0872119 443.475415,17.1074159 443.487388,17.1163955 Z M454.46,10.8737833 C454.46,11.005784 454.328001,11.1304494 454.064,11.2477833 C454.005333,11.321117 453.895334,11.3871164 453.734,11.4457833 C453.528666,11.5337838 453.382,11.6071164 453.294,11.6657833 L452.832,11.5117833 C452.597332,11.6877842 452.296669,11.7757833 451.93,11.7757833 L451.666,11.7097833 L451.468,11.8857833 L450.874,11.8857833 L450.5,12.1277833 C450.338666,12.0691164 450.184667,12.0397833 450.038,12.0397833 C449.994,12.0691168 449.891334,12.0984498 449.73,12.1277833 C449.656666,12.1277833 449.576,12.1057835 449.488,12.0617833 L449.422,12.8977833 L449.444,13.5137833 L449.378,14.2837833 L449.422,15.1197833 L449.488,15.5157833 L449.488,15.8237833 L449.796,16.4837833 C449.752,16.5277835 449.73,16.5791164 449.73,16.6377833 C449.73,16.7404505 449.891332,16.8211164 450.214,16.8797833 L450.258,17.1437833 L450.412,17.2097833 L450.676,17.3857833 L450.852,17.5177833 C450.998667,17.4884498 451.101333,17.4737833 451.16,17.4737833 C451.292001,17.4737833 451.423999,17.4957831 451.556,17.5397833 C451.614667,17.5104498 451.739332,17.4077842 451.93,17.2317833 C452.062001,17.1144494 452.186666,17.0557833 452.304,17.0557833 L452.37,17.0557833 C452.399333,17.0704501 452.421333,17.0777833 452.436,17.0777833 C452.568001,16.7991153 452.802665,16.6157838 453.14,16.5277833 C453.448002,16.5277833 453.704666,16.6231157 453.91,16.8137833 L453.91,16.9677833 C453.91,17.4664525 453.734002,17.7817827 453.382,17.9137833 C453.249999,18.2217849 452.971335,18.4197829 452.546,18.5077833 L452.282,18.7497833 L451.996,18.7497833 L451.49,18.8817833 C451.372666,18.9111168 451.204001,18.9257833 450.984,18.9257833 C450.866666,18.9257833 450.742001,18.8964503 450.61,18.8377833 L450.324,18.8377833 L449.554,18.4197833 L449.356,18.3537833 L448.894,17.7377833 L448.63,17.4517833 L448.146,16.3517833 L447.97,15.3177833 L448.014,15.0537833 L447.838,14.8117833 L447.948,14.5037833 L447.838,14.0197833 L447.992,13.8657833 L448.036,13.5797833 L447.97,13.3157833 L448.014,12.9197833 L447.926,12.5677833 L448.036,12.4577833 L448.036,12.1057833 L447.882,12.0397833 L447.464,12.1277833 L447.068,11.8417833 L447.002,11.8417833 C446.561998,11.8417833 446.342,11.607119 446.342,11.1377833 L446.342,11.0717833 L446.078,10.6537833 L446.496,10.2577833 L447.046,10.3457833 L447.332,10.3017833 L447.75,10.4117833 L448.212,10.4117833 L448.212,9.97178331 L447.926,9.35578331 L448.212,9.20178331 L448.102,8.87178331 L448.124,8.18978331 L447.948,7.90378331 C447.845333,7.74244917 447.794,7.59578397 447.794,7.46378331 C447.794,7.30244917 447.830666,7.17045049 447.904,7.06778331 L447.97,6.75978331 L448.146,6.58378331 C448.542002,6.51044961 448.805999,6.47378331 448.938,6.47378331 C449.407336,6.47378331 449.664,6.68644785 449.708,7.11178331 L449.642,7.22178331 C449.73,7.35378397 449.774,7.47844939 449.774,7.59578331 C449.774,7.61045005 449.766667,7.64711635 449.752,7.70578331 L449.708,7.83778331 L449.686,7.99178331 L449.774,8.27778331 L449.752,8.38778331 L449.796,8.69578331 L449.598,8.95978331 L449.708,9.39978331 L449.62,9.92778331 L449.796,10.1257833 L449.62,10.5217833 L450.302,10.4337833 L451.512,10.5437833 L452.48,10.3897833 L452.81,10.4117833 L452.92,10.3897833 L453.778,10.3897833 C454.232669,10.3897833 454.46,10.551115 454.46,10.8737833 Z M459.168,3.89978331 C459.168,4.07578419 459.050668,4.23711591 458.816,4.38378331 L458.816,4.42778331 C458.537332,4.76511833 458.295334,4.95578309 458.09,4.99978331 L457.76,5.39578331 L457.54,5.68178331 L457.034,5.81378331 L456.814,6.12178331 L456.462,6.29778331 L455.89,6.80378331 L455.538,6.47378331 L455.604,5.92378331 L455.846,5.52778331 C455.860667,5.32244895 455.977999,5.14645071 456.198,4.99978331 L456.198,4.91178331 L456.33,4.82378331 L456.352,4.49378331 L456.704,4.40578331 L456.704,4.20778331 L456.968,4.16378331 C457.026667,3.87044851 457.151332,3.65778397 457.342,3.52578331 L457.408,3.48178331 L457.54,3.34978331 L457.716,2.82178331 C458.684005,3.05645115 459.168,3.41578089 459.168,3.89978331 Z M461.412,15.5597833 C461.412,15.8971183 461.353334,16.1097829 461.236,16.1977833 L461.126,16.2857833 L461.016,16.5937833 L460.664,16.7037833 C460.561333,16.9384512 460.407334,17.1217827 460.202,17.2537833 L460.004,17.3197833 L459.718,17.6277833 L459.454,17.6937833 C459.351333,17.9577846 459.138668,18.0971166 458.816,18.1117833 C458.786667,18.1557835 458.720667,18.2437827 458.618,18.3757833 C458.397999,18.5224507 458.170668,18.6104498 457.936,18.6397833 L457.826,18.6617833 L457.672,18.8597833 L457.232,18.8597833 L456.88,19.1237833 L455.978,18.4637833 L455.56,17.6057833 L455.538,16.5277833 L455.45,16.2637833 L455.714,14.3277833 L455.802,14.2397833 C455.758,14.0197822 455.736,13.8071177 455.736,13.6017833 C455.736,13.4697827 455.78,13.198452 455.868,12.7877833 L455.978,12.2817833 C455.948667,12.1937829 455.89,12.0984505 455.802,11.9957833 L455.934,11.5777833 L455.978,11.0717833 L456.022,11.0057833 C455.963333,10.8737827 455.926667,10.7271175 455.912,10.5657833 C455.926667,10.5364498 455.941333,10.4961169 455.956,10.4447833 C455.970667,10.3934497 455.978,10.3531168 455.978,10.3237833 C455.934,10.1917827 455.912,10.0671172 455.912,9.94978331 C455.912,9.59778155 456.109998,9.43644983 456.506,9.46578331 L456.77,9.48778331 C456.946001,9.39978287 457.056,9.35578331 457.1,9.35578331 C457.393335,9.35578331 457.591333,9.51711503 457.694,9.83978331 L457.694,9.92778331 C457.752667,10.1037842 457.782,10.2724492 457.782,10.4337833 C457.782,10.565784 457.767333,10.6611164 457.738,10.7197833 L457.584,11.8197833 L457.738,12.1277833 C457.738,12.3917846 457.650001,12.626449 457.474,12.8317833 L457.562,13.0957833 L457.276,13.9317833 C457.246667,14.2984518 457.21,14.5771157 457.166,14.7677833 L457.166,15.3177833 L457.034,15.6257833 L457.056,15.8457833 L457.012,16.3517833 L457.056,16.7477833 L457.386,17.0117833 L457.65,16.9677833 L457.694,16.9017833 L457.87,16.9237833 L458.156,16.8357833 L458.398,16.5937833 L458.486,16.4617833 L458.64,16.4397833 L458.684,16.3297833 L458.75,16.2417833 L458.882,16.3297833 L459.102,16.1097833 L459.234,16.1317833 L459.278,15.9777833 L459.322,15.9777833 L459.388,15.8017833 L459.586,15.7137833 L460.004,15.5157833 C460.341335,15.2811155 460.671332,15.1637833 460.994,15.1637833 L461.082,15.1637833 C461.243334,15.2664505 461.353333,15.3984492 461.412,15.5597833 Z M481.212,16.1757833 C481.138666,16.3811177 481.043334,16.5351161 480.926,16.6377833 C480.882,16.7991175 480.816,16.9164496 480.728,16.9897833 C480.654666,17.1364507 480.566667,17.2391164 480.464,17.2977833 L480.376,17.4297833 C480.317333,17.5177838 480.236667,17.5617833 480.134,17.5617833 L480.024,17.7817833 L479.87,17.7817833 L479.76,17.9797833 L479.584,18.0457833 L479.452,18.1997833 L479.342,18.2877833 C479.121999,18.2877833 478.938667,18.3537827 478.792,18.4857833 C478.601332,18.559117 478.403334,18.5957833 478.198,18.5957833 C477.992666,18.5957833 477.787334,18.5444505 477.582,18.4417833 C477.347332,18.4271166 477.23,18.3904503 477.23,18.3317833 L476.922,18.2877833 L476.856,18.2217833 L476.724,17.9577833 L476.482,17.7597833 C476.320666,17.5691157 476.232667,17.3931175 476.218,17.2317833 C476.115333,17.0851159 476.012667,16.806452 475.91,16.3957833 L475.69,16.0437833 L475.69,15.8457833 L475.536,15.1857833 L475.558,14.9217833 L475.426,14.2397833 L475.492,13.6897833 L475.382,13.5357833 L475.162,14.0857833 C474.883332,14.3937849 474.718334,14.580783 474.667,14.6467833 C474.615666,14.7127836 474.553334,14.7457833 474.48,14.7457833 C474.465333,14.7457833 474.436,14.7384501 474.392,14.7237833 L474.26,14.9657833 C474.245333,14.9804501 474.238,15.0097831 474.238,15.0537833 C474.238,15.1417838 474.289333,15.1931166 474.392,15.2077833 C474.362667,15.2371168 474.289334,15.3397824 474.172,15.5157833 C474.113333,15.6331172 474.062,15.7137831 474.018,15.7577833 L473.952,15.6477833 L473.908,15.9557833 C473.717332,16.1024507 473.585334,16.3224485 473.512,16.6157833 C473.365333,16.8064509 473.138002,17.0777816 472.83,17.4297833 L472.544,17.7377833 C472.470666,17.7377833 472.434,17.7524498 472.434,17.7817833 L472.434,17.8257833 C472.346,18.0311177 472.192001,18.1924494 471.972,18.3097833 L471.708,18.6397833 L471.554,18.6397833 L471.026,18.8377833 C470.585998,18.8084498 470.314667,18.6177851 470.212,18.2657833 L470.19,18.0237833 L470.058,17.7377833 L470.058,17.4957833 L469.882,16.8577833 L469.882,16.6597833 L469.75,16.4397833 L469.838,15.7577833 C469.823333,15.6844496 469.816,15.581784 469.816,15.4497833 C469.816,15.3324494 469.823333,15.2517835 469.838,15.2077833 L469.816,15.0757833 L469.816,14.9877833 L469.706,14.7457833 L469.882,14.3277833 C469.852667,14.2104494 469.808667,14.0197846 469.75,13.7557833 L469.816,13.5577833 L469.882,12.9197833 L469.706,12.4577833 L469.75,12.0837833 L469.684,11.8857833 C469.669333,11.8417831 469.618,11.7024512 469.53,11.4677833 L469.376,11.5557833 L469.09,11.9077833 L468.826,12.1497833 L468.298,12.8097833 L468.254,13.0517833 L467.88,13.4477833 L467.726,13.7557833 L467.572,13.9317833 C467.528,14.2544516 467.366668,14.4817827 467.088,14.6137833 L467.066,14.9217833 C466.978,15.0097838 466.886334,15.1271159 466.791,15.2737833 C466.695666,15.4204507 466.629667,15.5047832 466.593,15.5267833 C466.556333,15.5487834 466.494,15.5964496 466.406,15.6697833 L466.142,16.0437833 C466.142,16.2931179 466.046668,16.4691161 465.856,16.5717833 L465.856,16.7037833 C465.768,16.8211172 465.650667,16.9384494 465.504,17.0557833 L465.482,17.0117833 L465.416,17.3197833 C465.298666,17.3197833 465.188667,17.4591153 465.086,17.7377833 L465.02,17.8257833 C465.005333,18.0604512 464.880668,18.2364494 464.646,18.3537833 L464.338,18.6397833 C464.103332,18.7571172 463.949334,18.8157833 463.876,18.8157833 C463.494665,18.8157833 463.245334,18.5004531 463.128,17.8697833 L463.04,17.3857833 C463.025333,17.3564498 463.018,17.3124503 463.018,17.2537833 C463.018,17.1511161 463.04,17.0484505 463.084,16.9457833 L462.974,16.5277833 L463.018,16.1757833 L462.974,15.8237833 C463.003333,15.5157818 463.054666,15.325117 463.128,15.2517833 C463.084,14.9437818 463.062,14.7677835 463.062,14.7237833 L463.062,14.3277833 C463.120667,14.2251161 463.194,14.0931175 463.282,13.9317833 L463.15,13.7997833 C463.120667,13.6824494 463.106,13.6164501 463.106,13.6017833 C463.106,13.4991161 463.193999,13.3231179 463.37,13.0737833 L463.216,12.6557833 L463.304,12.3917833 L463.172,11.7537833 L463.216,11.4457833 L463.106,10.9617833 L463.128,10.6317833 L462.93,10.2357833 C463.223335,9.66378045 463.538665,9.37778331 463.876,9.37778331 C464.052001,9.37778331 464.220666,9.45111591 464.382,9.59778331 L464.426,9.81778331 C464.675335,9.94978397 464.8,10.147782 464.8,10.4117833 C464.8,10.3677831 464.778,10.5217816 464.734,10.8737833 L464.646,10.8517833 L464.844,11.2257833 L464.712,11.4017833 L464.69,11.4897833 L464.822,12.5017833 L464.778,13.3597833 L464.712,13.5137833 L464.8,13.8657833 C464.844,13.9244503 464.866,13.9977829 464.866,14.0857833 C464.866,14.2031172 464.807334,14.3204494 464.69,14.4377833 C464.69,14.6431177 464.653334,14.8117827 464.58,14.9437833 L464.646,15.6037833 L464.646,15.8677833 L464.668,15.8237833 L464.8,15.6257833 L465.108,15.0757833 L465.174,15.0757833 C465.262,15.0757833 465.357333,14.9364514 465.46,14.6577833 L465.614,14.2397833 C465.643333,14.1517829 465.753332,14.0124509 465.944,13.8217833 L466.032,13.4257833 L466.296,13.0297833 L466.384,12.7217833 C466.457334,12.6777831 466.530666,12.6264503 466.604,12.5677833 L466.626,12.5017833 C466.67,12.4431164 466.831332,12.2891179 467.11,12.0397833 L467.242,11.9737833 L467.286,11.7537833 L467.396,11.6877833 C467.469334,11.3797818 467.652665,11.1744505 467.946,11.0717833 L467.858,11.0057833 L467.946,10.9617833 C467.931333,10.9471166 467.924,10.9251168 467.924,10.8957833 C467.924,10.8664498 467.938667,10.8224503 467.968,10.7637833 L468.32,10.6097833 L468.386,10.2577833 L468.628,10.2577833 C468.628,10.2431166 468.642667,10.1917838 468.672,10.1037833 L469.112,9.75178331 C469.317334,9.69311635 469.456666,9.66378331 469.53,9.66378331 C469.706001,9.66378331 469.947998,9.71511613 470.256,9.81778331 L470.476,10.1257833 L470.564,10.1697833 L470.674,10.4337833 L470.982,10.8517833 L470.982,11.1377833 L471.18,11.3577833 L471.18,11.6877833 C471.341334,12.0397851 471.422,12.3404487 471.422,12.5897833 L471.356,12.8537833 L471.488,13.2277833 L471.246,13.4697833 L471.334,13.9537833 L471.312,14.0857833 L471.29,14.1957833 C471.260667,14.3424507 471.246,14.4524496 471.246,14.5257833 C471.246,14.599117 471.282666,14.7457822 471.356,14.9657833 L471.29,15.2077833 L471.356,15.5157833 L471.29,15.5817833 C471.319333,15.7871177 471.363333,16.1317809 471.422,16.6157833 L471.4,16.7037833 L472.104,15.9337833 L472.324,15.5157833 C472.382667,15.4277829 472.477999,15.2884509 472.61,15.0977833 L472.61,15.0537833 C472.668667,14.8191155 472.763999,14.6577838 472.896,14.5697833 C472.896,14.4817829 472.969333,14.371784 473.116,14.2397833 L473.292,14.1297833 C473.350667,13.8804487 473.504665,13.6751175 473.754,13.5137833 L473.864,13.2057833 L474.062,12.9417833 L474.282,12.7217833 C474.414001,12.6191161 474.516666,12.4577844 474.59,12.2377833 L474.766,11.9737833 L474.854,11.6437833 L475.096,11.5117833 L475.338,11.2037833 L475.58,10.6757833 C475.521333,10.6757833 475.492,10.6611168 475.492,10.6317833 L475.536,10.5437833 L475.69,10.4117833 L475.866,10.0597833 C476.115335,9.97178287 476.254667,9.92778331 476.284,9.92778331 L476.372,9.97178331 L476.768,9.99378331 L477.12,10.1477833 L477.428,10.4997833 L477.494,10.8077833 L477.472,11.0497833 L477.362,11.1377833 L477.12,11.5997833 L477.032,12.1057833 C477.105334,12.179117 477.142,12.3111157 477.142,12.5017833 C477.083333,12.575117 477.054,12.6704494 477.054,12.7877833 L476.966,12.9637833 C476.995333,13.037117 477.01,13.1544492 477.01,13.3157833 C477.01,13.447784 477.002667,13.5431164 476.988,13.6017833 L476.9,13.7117833 L476.988,13.8657833 L476.834,14.0637833 C476.922,14.0637833 476.966,14.1591157 476.966,14.3497833 C476.995333,14.4377838 477.01,14.4964498 477.01,14.5257833 C477.01,14.5697835 476.995333,14.6211164 476.966,14.6797833 C476.995333,14.8264507 477.01,14.9657827 477.01,15.0977833 L477.01,15.1417833 C477.01,15.1711168 477.105332,15.4717805 477.296,16.0437833 L477.34,16.2637833 L477.582,16.5277833 L477.714,16.8357833 L477.846,16.9017833 L477.934,17.0337833 L478.044,17.0557833 L478.242,17.0997833 L478.352,17.0777833 L478.418,17.0777833 C478.564667,17.0777833 478.740666,17.0191172 478.946,16.9017833 C479.004667,16.7551159 479.158665,16.6011175 479.408,16.4397833 C479.422667,16.3664496 479.510666,16.2271177 479.672,16.0217833 L480.046,15.7577833 L480.178,15.4937833 C480.295334,15.4204496 480.419999,15.3837833 480.552,15.3837833 C480.713334,15.3837833 480.889332,15.4277829 481.08,15.5157833 C481.168,15.6624507 481.212,15.8824485 481.212,16.1757833 Z M488.889989,9.11375885 C488.889992,9.11376701 488.889996,9.11377516 488.89,9.11378331 C488.89,9.11253771 488.890006,9.11128622 488.890018,9.11002886 L488.889989,9.11375885 Z M488.890018,9.11002886 C488.890421,9.06687084 488.897748,9.01678946 488.912,8.95978331 L488.912,8.87178331 L489.374,9.28978331 L489.792,9.37778331 L490.584,9.17978331 L490.87,9.72978331 L491.2,9.86178331 L490.98,10.1477833 L491.156,10.6757833 L490.87,11.0057833 L490.76,11.4677833 L490.694,11.5777833 L490.738,11.6877833 C490.738,11.8931177 490.686667,12.0471161 490.584,12.1497833 L490.54,12.2157833 L490.54,12.3037833 C490.584,12.4064505 490.606,12.5017829 490.606,12.5897833 C490.606,12.663117 490.598667,12.7144498 490.584,12.7437833 L490.606,12.8317833 L490.518,13.0737833 L490.584,13.3377833 L490.408,13.5137833 L490.474,13.8217833 L490.606,13.9757833 L490.408,14.1517833 L490.408,14.5037833 L490.254,14.8557833 L490.364,15.2077833 L490.232,15.3837833 L490.452,15.5377833 L490.144,16.0437833 L490.122,16.1097833 L490.342,16.1537833 L490.188,16.6597833 L490.188,16.7477833 C490.188,16.8504505 490.180667,16.9311164 490.166,16.9897833 L490.188,17.0557833 L490.54,17.0997833 L490.826,17.5397833 L490.672,17.8697833 L490.914,17.8477833 C491.002,18.0237842 491.053333,18.1777827 491.068,18.3097833 L490.738,18.6397833 C490.635333,18.7424505 490.488668,18.8451161 490.298,18.9477833 L489.924,19.1457833 L489.814,19.0357833 L489.594,19.1677833 L488.912,18.3757833 L488.912,18.0017833 C488.824,17.7084485 488.78,17.4371179 488.78,17.1877833 L488.78,17.0557833 L488.648,15.7577833 L488.824,14.8337833 L488.692,14.3057833 L488.318,14.9217833 L488.12,15.4937833 L487.944,15.5817833 L487.636,16.0657833 L487.086,16.5717833 L486.932,16.8357833 L486.448,17.2537833 L486.338,17.5397833 L485.634,17.9797833 L484.886,18.8157833 L484.468,18.9037833 L484.182,19.1237833 C483.815332,19.1091166 483.536668,18.9697846 483.346,18.7057833 C482.685997,18.383115 482.341333,17.9211197 482.312,17.3197833 L482.422,17.2537833 L482.4,17.1217833 L482.378,16.8577833 L482.246,16.5717833 L482.378,16.2637833 L482.422,15.8017833 L482.576,15.0757833 L482.576,14.9877833 C482.561333,14.9584498 482.554,14.9291168 482.554,14.8997833 C482.554,14.8411164 482.568667,14.7677838 482.598,14.6797833 C482.583333,14.6504498 482.576,14.5917838 482.576,14.5037833 C482.576,14.4011161 482.62,14.2324512 482.708,13.9977833 L482.862,13.9317833 C482.774,13.8584496 482.73,13.7777838 482.73,13.6897833 C482.73,13.6311164 482.737333,13.5871168 482.752,13.5577833 C482.737333,13.5137831 482.73,13.4624503 482.73,13.4037833 C482.73,13.2277824 482.817999,13.0957838 482.994,13.0077833 C483.038,12.8611159 483.118666,12.7144507 483.236,12.5677833 L483.126,12.3917833 L483.39,12.0617833 L483.39,11.9737833 C483.39,11.6951153 483.485332,11.4384512 483.676,11.2037833 L483.654,10.8077833 L483.742,10.7197833 L483.742,10.6537833 C483.727333,10.6244498 483.72,10.6024501 483.72,10.5877833 C483.72,10.4997829 483.749333,10.4264503 483.808,10.3677833 L483.808,10.2357833 C483.866667,10.0891159 484.020665,9.86911811 484.27,9.57578331 C484.519335,9.28244851 484.702666,9.02578441 484.82,8.80578331 L484.93,8.91578331 L485.172,8.80578331 L485.282,8.76178331 L486.008,8.43178331 L487.702,8.51978331 L487.702,8.67378331 L488.23,8.78378331 C488.567323,8.78378331 488.787317,8.89377406 488.889989,9.11375885 L488.890018,9.11002886 Z M489.11,11.0057833 L489.022,10.8517833 L488.846,10.8077833 L488.164,10.2577833 L487.724,10.1917833 L487.372,10.1917833 L487.328,10.1477833 L487.152,10.2137833 L486.954,10.1037833 L486.382,10.1037833 L486.448,10.1917833 L485.942,10.3677833 L485.854,10.4777833 L485.788,10.4997833 C485.523999,10.7197844 485.340667,10.9031159 485.238,11.0497833 L485.084,11.5777833 L484.996,11.7757833 L485.216,12.0837833 L484.842,12.3697833 L484.886,12.4577833 C484.724666,12.7364514 484.644,13.007782 484.644,13.2717833 L484.468,13.4917833 L484.468,13.8877833 L484.292,14.0857833 L484.248,14.2837833 L484.182,14.3277833 L484.182,14.6357833 L484.116,14.7457833 C484.116,14.9217842 484.101333,15.0611161 484.072,15.1637833 L484.116,15.2737833 L483.918,15.6917833 L484.006,15.8237833 L483.852,16.0437833 L484.006,16.4617833 L483.764,16.7697833 L483.808,17.1877833 L483.808,17.2537833 L483.896,17.2977833 L484.006,17.2757833 C484.079334,17.2024496 484.152666,17.1364503 484.226,17.0777833 L484.182,16.9017833 L484.49,16.8577833 L484.556,16.7037833 L485.854,15.6477833 L485.986,15.6037833 L486.14,15.2297833 C486.228,15.2004498 486.352666,15.1417838 486.514,15.0537833 L486.646,14.7017833 L486.822,14.7017833 L486.756,14.3277833 L487.064,14.2837833 C487.093333,14.2251164 487.141,14.1517838 487.207,14.0637833 C487.273,13.9757829 487.342666,13.895117 487.416,13.8217833 L488.538,12.3257833 L488.714,11.9957833 L488.692,11.9077833 L488.846,11.6657833 L488.89,11.4237833 L489.088,11.2477833 L489.11,11.0057833 Z M499.89,16.3737833 C499.89,16.5351175 499.831334,16.6671161 499.714,16.7697833 C499.596666,16.9457842 499.406001,17.1291157 499.142,17.3197833 L498.922,17.4737833 L498.724,17.7377833 L498.526,17.8257833 L498.218,18.0237833 L497.998,18.0457833 L497.91,18.1337833 C497.616665,18.2217838 497.389334,18.368449 497.228,18.5737833 C497.125333,18.647117 497.03,18.6837833 496.942,18.6837833 C496.883333,18.6837833 496.832,18.6764501 496.788,18.6617833 C496.538665,18.8084507 496.216002,18.8817833 495.82,18.8817833 C495.482665,18.8817833 495.262667,18.8524503 495.16,18.7937833 L494.764,18.5737833 L494.632,18.3537833 L494.632,18.2877833 C494.632,18.0971157 494.551334,17.9431172 494.39,17.8257833 L494.302,17.3857833 L494.126,17.1877833 L494.016,16.3737833 L493.994,15.8897833 L494.016,15.5377833 L494.06,15.4057833 C494.016,15.3177829 493.994,15.2224505 493.994,15.1197833 C494.067334,14.5037802 494.104,14.1151175 494.104,13.9537833 L493.906,13.5577833 L494.104,13.2277833 L494.17,12.6777833 L494.126,12.3037833 L494.258,11.9737833 L494.126,11.5337833 L494.324,11.2257833 L494.346,11.0277833 L494.346,10.2577833 L494.412,10.1037833 L494.39,9.17978331 L494.456,8.23378331 L494.368,8.05778331 L494.346,7.39778331 L494.412,6.80378331 L494.346,6.58378331 L494.478,5.26378331 C495.094003,5.11711591 495.365334,5.04378331 495.292,5.04378331 C495.526668,5.04378331 495.717333,5.16844873 495.864,5.41778331 L495.908,5.59378331 L496.238,5.92378331 L496.062,6.38578331 L496.106,6.47378331 C496.076667,6.75245137 496.04,6.93578287 495.996,7.02378331 L496.04,7.48578331 L496.15,7.90378331 L495.996,8.36578331 C495.996,8.61511789 495.959334,8.84244895 495.886,9.04778331 C495.886,9.12111701 495.871333,9.23844917 495.842,9.39978331 L495.82,9.53178331 L496.018,9.77378331 L495.93,10.0157833 C495.959333,10.1331172 495.974,10.2137831 495.974,10.2577833 C495.974,10.3457838 495.944667,10.4631159 495.886,10.6097833 L495.93,10.8077833 L495.798,11.5117833 L495.798,11.9737833 L495.644,12.4357833 L495.732,12.8537833 L495.644,13.8217833 L495.71,13.9317833 L495.6,14.4377833 L495.556,15.0537833 C495.526667,15.1417838 495.512,15.1931166 495.512,15.2077833 C495.512,15.4571179 495.504667,15.6624492 495.49,15.8237833 L495.6,16.1317833 L495.556,16.4617833 L495.688,16.7477833 L495.666,16.8577833 C495.754,16.931117 495.834666,17.0484492 495.908,17.2097833 L496.106,17.2097833 L496.392,17.2977833 L496.524,17.1217833 L496.722,17.0997833 C496.81,17.0704498 496.876,17.0557833 496.92,17.0557833 L496.986,17.0557833 C497.132667,17.0264498 497.25,16.9531172 497.338,16.8357833 L497.47,16.7697833 C497.572667,16.6084492 497.741332,16.4984503 497.976,16.4397833 C498.049334,16.3811164 498.188666,16.2637842 498.394,16.0877833 C498.394,15.882449 498.518665,15.7284505 498.768,15.6257833 C498.988001,15.6257833 499.134666,15.589117 499.208,15.5157833 C499.501335,15.5597835 499.688333,15.6367828 499.769,15.7467833 C499.849667,15.8567839 499.89,16.0657818 499.89,16.3737833 Z" id="Optimal" fill="#44D6FF"></path>
                    <g id="Group-9" transform="translate(0.000000, 37.000000)">
                        <rect id="Rectangle-8" fill="#DDDDDD" opacity="0.798063859" x="0" y="9.4140625" width="147" height="1"></rect>
                        <rect id="Rectangle-3-Copy-2" fill="#EAEAEA" x="133.821899" y="9.4140625" width="401.178101" height="1"></rect>
                        <polygon id="Path-2-Copy" fill="#EAEAEA" fill-rule="nonzero" transform="translate(529.646447, 10.750000) rotate(-180.000000) translate(-529.646447, -10.750000) " points="535.207107 19.7928932 533.792893 21.2071068 523.585786 11 534.292893 0.292893219 535.707107 1.70710678 526.414214 11"></polygon>
                    </g>
                    <rect id="Rectangle-12" fill="#C9E3E7" x="215" y="0.4140625" width="18" height="18" rx="9"></rect>
                    <rect id="Rectangle-12-Copy-7" fill="#C9E3E7" x="118" y="37.4140625" width="18" height="18" rx="9"></rect>
                    <rect id="Rectangle-12-Copy-2" fill="#C9E3E7" x="215" y="38.4140625" width="18" height="18" rx="9"></rect>
                    <g id="Oval-4" opacity="0.200669643">
                        <circle stroke="#FFFFFF" stroke-width="5" stroke-linejoin="square" fill="#41CFF6" fill-rule="evenodd" cx="412" cy="47.4140625" r="17.5212402"></circle>
                        <use stroke-opacity="0.529947917" stroke="#41CFF6" stroke-width="4" xlink:href="#path-1"></use>
                    </g>
                    <rect id="Rectangle-12-Copy-3" fill="#C9E3E7" x="215" y="75.4140625" width="18" height="18" rx="9"></rect>
                    <rect id="Rectangle-12-Copy-5" fill="#C9E3E7" x="309" y="38.4140625" width="18" height="18" rx="9"></rect>
                    <rect id="Rectangle-12-Copy-4" fill="#C9E3E7" x="309" y="75.4140625" width="18" height="18" rx="9"></rect>
                    <rect id="Rectangle-12-Copy" fill="#44D6FF" x="308" y="0.4140625" width="18" height="18" rx="9"></rect>
                    <rect id="Rectangle-12-Copy-6" fill="#7A9CA2" x="403" y="38.4140625" width="18" height="18" rx="9"></rect>
                </g>
            </g>
        </g>
    </g>
</svg>