<?xml version="1.0" encoding="UTF-8"?>
<svg width="515px" height="138px" viewBox="0 0 515 138" version="1.1" xmlns="http://www.w3.org/2000/svg" xmlns:xlink="http://www.w3.org/1999/xlink">
    <!-- Generator: Sketch 50.2 (55047) - http://www.bohemiancoding.com/sketch -->
    <title>ill-simulations</title>
    <desc>Created with Sketch.</desc>
    <defs>
        <rect id="path-1" x="237" y="34.4140625" width="18" height="18"></rect>
        <filter x="-83.3%" y="-83.3%" width="266.7%" height="266.7%" filterUnits="objectBoundingBox" id="filter-2">
            <feOffset dx="0" dy="0" in="SourceAlpha" result="shadowOffsetOuter1"></feOffset>
            <feGaussianBlur stdDeviation="5" in="shadowOffsetOuter1" result="shadowBlurOuter1"></feGaussianBlur>
            <feColorMatrix values="0 0 0 0 0   0 0 0 0 0   0 0 0 0 0  0 0 0 0.127887228 0" type="matrix" in="shadowBlurOuter1"></feColorMatrix>
        </filter>
        <rect id="path-3" x="140" y="71.4140625" width="18" height="18"></rect>
        <filter x="-83.3%" y="-83.3%" width="266.7%" height="266.7%" filterUnits="objectBoundingBox" id="filter-4">
            <feOffset dx="0" dy="0" in="SourceAlpha" result="shadowOffsetOuter1"></feOffset>
            <feGaussianBlur stdDeviation="5" in="shadowOffsetOuter1" result="shadowBlurOuter1"></feGaussianBlur>
            <feColorMatrix values="0 0 0 0 0   0 0 0 0 0   0 0 0 0 0  0 0 0 0.127887228 0" type="matrix" in="shadowBlurOuter1"></feColorMatrix>
        </filter>
        <rect id="path-5" x="237" y="72.4140625" width="18" height="18"></rect>
        <filter x="-83.3%" y="-83.3%" width="266.7%" height="266.7%" filterUnits="objectBoundingBox" id="filter-6">
            <feOffset dx="0" dy="0" in="SourceAlpha" result="shadowOffsetOuter1"></feOffset>
            <feGaussianBlur stdDeviation="5" in="shadowOffsetOuter1" result="shadowBlurOuter1"></feGaussianBlur>
            <feColorMatrix values="0 0 0 0 0   0 0 0 0 0   0 0 0 0 0  0 0 0 0.127887228 0" type="matrix" in="shadowBlurOuter1"></feColorMatrix>
        </filter>
        <rect id="path-7" x="237" y="109.414062" width="18" height="18"></rect>
        <filter x="-83.3%" y="-83.3%" width="266.7%" height="266.7%" filterUnits="objectBoundingBox" id="filter-8">
            <feOffset dx="0" dy="0" in="SourceAlpha" result="shadowOffsetOuter1"></feOffset>
            <feGaussianBlur stdDeviation="5" in="shadowOffsetOuter1" result="shadowBlurOuter1"></feGaussianBlur>
            <feColorMatrix values="0 0 0 0 0   0 0 0 0 0   0 0 0 0 0  0 0 0 0.127887228 0" type="matrix" in="shadowBlurOuter1"></feColorMatrix>
        </filter>
        <rect id="path-9" x="331" y="72.4140625" width="18" height="18"></rect>
        <filter x="-83.3%" y="-83.3%" width="266.7%" height="266.7%" filterUnits="objectBoundingBox" id="filter-10">
            <feOffset dx="0" dy="0" in="SourceAlpha" result="shadowOffsetOuter1"></feOffset>
            <feGaussianBlur stdDeviation="5" in="shadowOffsetOuter1" result="shadowBlurOuter1"></feGaussianBlur>
            <feColorMatrix values="0 0 0 0 0   0 0 0 0 0   0 0 0 0 0  0 0 0 0.127887228 0" type="matrix" in="shadowBlurOuter1"></feColorMatrix>
        </filter>
        <rect id="path-11" x="331" y="109.414062" width="18" height="18"></rect>
        <filter x="-83.3%" y="-83.3%" width="266.7%" height="266.7%" filterUnits="objectBoundingBox" id="filter-12">
            <feOffset dx="0" dy="0" in="SourceAlpha" result="shadowOffsetOuter1"></feOffset>
            <feGaussianBlur stdDeviation="5" in="shadowOffsetOuter1" result="shadowBlurOuter1"></feGaussianBlur>
            <feColorMatrix values="0 0 0 0 0   0 0 0 0 0   0 0 0 0 0  0 0 0 0.127887228 0" type="matrix" in="shadowBlurOuter1"></feColorMatrix>
        </filter>
    </defs>
    <g id="Page-1" stroke="none" stroke-width="1" fill="none" fill-rule="evenodd">
        <g id="Viren-Copy-2" transform="translate(0.000000, -695.000000)">
            <g id="Simulations" transform="translate(-21.000000, 666.585938)">
                <g id="ill-simulations" transform="translate(0.000000, 29.000000)">
                    <rect id="Rectangle-8" fill="#DDDDDD" opacity="0.798063859" x="0" y="80.4140625" width="147" height="1"></rect>
                    <path d="M247.5,44.5 L247.5,43.5 L252.5,43.5 L252.5,44.5 L247.5,44.5 Z M257.5,44.5 L257.5,43.5 L262.5,43.5 L262.5,44.5 L257.5,44.5 Z M267.5,44.5 L267.5,43.5 L272.5,43.5 L272.5,44.5 L267.5,44.5 Z M277.5,44.5 L277.5,43.5 L282.5,43.5 L282.5,44.5 L277.5,44.5 Z M287.5,44.5 L287.5,43.5 L292.5,43.5 L292.5,44.5 L287.5,44.5 Z M297.5,44.5 L297.5,43.5 L302.5,43.5 L302.5,44.5 L297.5,44.5 Z M307.5,44.5 L307.5,43.5 L312.5,43.5 L312.5,44.5 L307.5,44.5 Z M317.5,44.5 L317.5,43.5 L322.5,43.5 L322.5,44.5 L317.5,44.5 Z M327.5,44.5 L327.5,43.5 L332.5,43.5 L332.5,44.5 L327.5,44.5 Z M337.5,44.5 L337.5,43.5 L342.5,43.5 L342.5,44.5 L337.5,44.5 Z" id="Line-Copy-2" fill="#D7D7D7" fill-rule="nonzero"></path>
                    <path d="M247.5,118.5 L247.5,117.5 L252.5,117.5 L252.5,118.5 L247.5,118.5 Z M257.5,118.5 L257.5,117.5 L262.5,117.5 L262.5,118.5 L257.5,118.5 Z M267.5,118.5 L267.5,117.5 L272.5,117.5 L272.5,118.5 L267.5,118.5 Z M277.5,118.5 L277.5,117.5 L282.5,117.5 L282.5,118.5 L277.5,118.5 Z M287.5,118.5 L287.5,117.5 L292.5,117.5 L292.5,118.5 L287.5,118.5 Z M297.5,118.5 L297.5,117.5 L302.5,117.5 L302.5,118.5 L297.5,118.5 Z M307.5,118.5 L307.5,117.5 L312.5,117.5 L312.5,118.5 L307.5,118.5 Z M317.5,118.5 L317.5,117.5 L322.5,117.5 L322.5,118.5 L317.5,118.5 Z M327.5,118.5 L327.5,117.5 L332.5,117.5 L332.5,118.5 L327.5,118.5 Z M337.5,118.5 L337.5,117.5 L342.5,117.5 L342.5,118.5 L337.5,118.5 Z" id="Line-Copy-3" fill="#DBDBDB" fill-rule="nonzero"></path>
                    <rect id="Rectangle-3-Copy-2" fill="#EAEAEA" x="153" y="80.4140625" width="382" height="1"></rect>
                    <path d="M152.072747,79.4946796 L151.927253,78.5053204 C153.271654,78.3076144 154.584059,78.1031171 155.865177,77.891857 L156.027883,78.8785317 C154.740986,79.0907447 153.422845,79.2961357 152.072747,79.4946796 Z M161.950278,77.8110798 L161.757245,76.8298875 C163.096605,76.5663913 164.397115,76.2943173 165.659968,76.0136731 L165.876906,76.9898585 C164.606028,77.2722861 163.297552,77.5460267 161.950278,77.8110798 Z M171.736222,75.5558975 L171.476164,74.5903046 C172.799051,74.2340183 174.073948,73.8663509 175.303144,73.4871881 L175.597903,74.4427596 C174.357081,74.8255087 173.070618,75.1965115 171.736222,75.5558975 Z M181.294942,72.4832541 L180.936857,71.549565 C182.216647,71.0587452 183.438123,70.5517496 184.606623,70.0277398 L185.015809,70.9401909 C183.830332,71.471814 182.591817,71.9858818 181.294942,72.4832541 Z M190.416939,68.1945963 L189.917944,67.3279912 C191.088055,66.6542363 192.200911,65.95495 193.274113,65.2231223 L193.837502,66.0493143 C192.743507,66.7953207 191.609183,67.5080969 190.416939,68.1945963 Z M198.647397,62.3638412 L198.000004,61.6016849 C198.923746,60.8170367 199.817153,60.0195238 200.974011,58.9573549 L201.650329,59.6939648 C200.484803,60.7640919 199.582578,61.5694763 198.647397,62.3638412 Z M206.085579,55.6842626 L205.436811,54.9232763 C206.531457,53.9900516 207.564028,53.1776429 208.62118,52.429173 L209.199019,53.2453234 C208.168021,53.9752763 207.158642,54.7694384 206.085579,55.6842626 Z M214.312162,50.252654 L213.884484,49.348723 C215.063881,48.790713 216.30832,48.2806683 217.634487,47.8151997 L217.965667,48.7587671 C216.672098,49.2127944 215.459871,49.7096364 214.312162,50.252654 Z M223.697994,47.1467846 L223.481606,46.1704771 C224.734942,45.8926886 226.052496,45.641737 227.439884,45.4174158 L227.599497,46.4045954 C226.23082,46.6258914 224.93218,46.8732405 223.697994,47.1467846 Z M233.52322,45.6522547 L233.427219,44.6568735 C234.710068,44.5331464 236.043787,44.4267806 237.430871,44.3378663 L237.494841,45.3358181 C236.118287,45.4240574 234.795236,45.5295724 233.52322,45.6522547 Z M243.457699,45.0708207 L243.431082,44.071175 C244.726582,44.03668 246.062618,44.014677 247.440539,44.0052674 L247.447367,45.0052441 C246.075961,45.0146092 244.746517,45.0365037 243.457699,45.0708207 Z" id="Path-5" fill="#D3D3D3" fill-rule="nonzero"></path>
                    <path d="M429.085393,79.507346 L428.914607,80.492654 C427.549787,80.2560852 426.234608,79.987359 424.965433,79.6866414 L425.195989,78.7135823 C426.445177,79.0095641 427.740428,79.2742186 429.085393,79.507346 Z M419.484956,77.0338707 L419.14837,77.9755235 C417.851689,77.512036 416.606077,77.0062589 415.403297,76.4571199 L415.818617,75.5474445 C416.995592,76.0848019 418.214935,76.5799125 419.484956,77.0338707 Z M410.584339,72.7181428 L410.051113,73.5641155 C408.924148,72.8537767 407.823221,72.0926148 406.724298,71.2690459 L407.324007,70.4688279 C408.401935,71.276662 409.480778,72.0225557 410.584339,72.7181428 Z M402.735457,66.6848387 L402.071091,67.4322468 C401.204812,66.6622179 400.380098,65.9079604 399.108248,64.7295498 L399.787896,63.9960113 C401.055081,65.1701004 401.875536,65.9204621 402.735457,66.6848387 Z M395.342275,59.9384924 L394.681872,60.6894037 C393.624812,59.759752 392.629674,58.9227472 391.637232,58.1343577 L392.259246,57.3513519 C393.265607,58.1507983 394.273331,58.9983895 395.342275,59.9384924 Z M387.316782,53.8214375 L386.781554,54.6661456 C385.670709,53.9622872 384.53293,53.3016021 383.355902,52.6801241 L383.822818,51.7958226 C385.023371,52.4297216 386.183918,53.1036277 387.316782,53.8214375 Z M378.32721,49.2885399 L377.963577,50.2200821 C376.760851,49.750591 375.515037,49.3126571 374.221162,48.9059777 L374.521011,47.951991 C375.836294,48.3653992 377.103382,48.8108115 378.32721,49.2885399 Z M368.658601,46.3943792 L368.442478,47.3707453 C367.18387,47.0921468 365.884178,46.8376481 364.541026,46.6074337 L364.709961,45.6218065 C366.068777,45.8547056 367.384198,46.1122845 368.658601,46.3943792 Z M358.729574,44.7880449 L358.620323,45.7820591 C357.334061,45.6406878 356.012339,45.5182269 354.653862,45.4148769 L354.729721,44.4177583 C356.099243,44.5219487 357.432094,44.6454407 358.729574,44.7880449 Z M348.725744,44.0931144 L348.692245,45.0925531 C347.393676,45.0490279 346.064956,45.0207794 344.705301,45.0079659 L344.714725,44.0080103 C346.082339,44.0208988 347.419082,44.0493179 348.725744,44.0931144 Z" id="Path-5-Copy-2" fill="#5CC1DD" fill-rule="nonzero"></path>
                    <path d="M151.946867,84.9971689 L152.053133,84.0028311 C153.413724,84.1482378 154.739376,84.3030973 156.030915,84.4673502 L155.904755,85.4593601 C154.619904,85.2959578 153.300882,85.1418727 151.946867,84.9971689 Z M161.829651,86.3177399 L161.991552,85.3309328 C163.352793,85.5542649 164.670662,85.7898852 165.946612,86.0377462 L165.75592,87.0193962 C164.489649,86.7734154 163.181374,86.5395104 161.829651,86.3177399 Z M171.590336,88.3109784 L171.834125,87.3411501 C173.181132,87.6797517 174.473306,88.0352528 175.713576,88.4077528 L175.425931,89.3654899 C174.200363,88.9974056 172.922806,88.6459257 171.590336,88.3109784 Z M181.048652,91.3106974 L181.418252,90.3815065 C182.715196,90.8973861 183.944514,91.4383249 185.113591,92.0055446 L184.677072,92.9052395 C183.530123,92.348756 182.323126,91.8176392 181.048652,91.3106974 Z M189.849531,95.8404301 L190.401276,95.0064173 C191.539773,95.7595953 192.619043,96.5516492 193.667191,97.3963964 L193.039678,98.175003 C192.01548,97.3495579 190.961429,96.5760118 189.849531,95.8404301 Z M197.448418,102.178934 L198.154319,101.470624 C198.565377,101.880283 198.98259,102.302933 199.503961,102.836281 C199.684668,103.021138 200.571767,103.931281 200.819024,104.183935 C200.889768,104.256202 200.889768,104.256202 200.960499,104.328369 L200.246435,105.02845 C200.175368,104.95594 200.175368,104.95594 200.104328,104.883369 C199.85618,104.629807 198.968816,103.719392 198.788871,103.535313 C198.270289,103.004818 197.855925,102.585055 197.448418,102.178934 Z M204.638836,109.17823 L205.280895,108.411574 C206.311519,109.274702 207.349885,110.050328 208.44312,110.763883 L207.896544,111.601291 C206.76897,110.865324 205.698943,110.066048 204.638836,109.17823 Z M213.298676,114.446909 L213.684526,113.524347 C214.848202,114.01104 216.083767,114.456585 217.402888,114.862446 L217.108817,115.818229 C215.75896,115.402912 214.49277,114.946324 213.298676,114.446909 Z M222.997663,117.264843 L223.186583,116.28285 C224.430946,116.522247 225.736823,116.736831 227.108351,116.926527 L226.971345,117.917097 C225.582722,117.725037 224.259551,117.507611 222.997663,117.264843 Z M232.962003,118.555923 L233.040222,117.558987 C234.317506,117.659202 235.642634,117.742491 237.017528,117.808702 L236.969427,118.807544 C235.584626,118.740856 234.249466,118.656937 232.962003,118.555923 Z M242.998773,118.984875 L243.011079,117.984951 C243.825494,117.994974 244.655045,118 245.5,118 L245.5,119 C244.650973,119 243.817322,118.994949 242.998773,118.984875 Z" id="Path-5-Copy" fill="#D3D3D3" fill-rule="nonzero"></path>
                    <path d="M457.804,46.9637833 L457.584,47.4257833 L457.496,48.1517833 L457.276,48.3497833 C457.188,48.9364529 456.960668,49.3104492 456.594,49.4717833 L456.44,49.5377833 L455.12,50.4617833 L454.724,50.6817833 L454.086,51.3857833 L453.69,51.3197833 L453.448,51.4957833 L453.008,51.6497833 L451.908,52.2217833 C451.82,52.1924498 451.702667,52.1264505 451.556,52.0237833 C451.453333,52.1704507 451.292001,52.2657831 451.072,52.3097833 L450.984,52.3097833 L450.544,52.6617833 L450.456,52.6177833 L450.038,52.6177833 L449.84,52.7717833 L449.004,52.7497833 L447.904,52.9257833 L447.772,52.9257833 C447.669333,52.9257833 447.544667,52.9404498 447.398,52.9697833 L446.782,52.8817833 L446.672,52.7717833 L445.792,52.6397833 L445.418,52.4637833 L444.89,52.4637833 L444.89,52.2217833 L444.472,51.7817833 L443.922,51.5397833 L443.68,50.8577833 L443.658,50.3517833 L443.526,50.1977833 L443.504,49.2077833 L443.79,48.3277833 L443.746,47.7997833 L443.856,47.6897833 L443.856,47.2717833 L444.164,46.9637833 L444.164,46.7437833 L444.296,46.5017833 L444.296,46.2817833 L444.384,46.1717833 L444.274,45.9297833 L444.626,45.6877833 L445.044,44.8077833 L445.946,43.5097833 L446.166,43.3997833 C446.21,43.3264496 446.276,43.2311172 446.364,43.1137833 L446.584,42.9377833 L446.584,42.5857833 L446.914,42.5197833 C447.134001,42.3437824 447.375999,42.2117838 447.64,42.1237833 L447.75,41.9917833 C447.882001,41.9331164 448.26333,41.8597838 448.894,41.7717833 L449.488,41.6837833 L450.192,41.7717833 L450.61,41.7497833 L451.204,41.7497833 L451.336,41.7717833 L451.402,41.7937833 L451.512,41.7937833 L451.644,41.7497833 L452.348,41.7717833 L452.304,41.9037833 L452.634,41.9917833 C452.722,41.9624498 452.766,41.9037838 452.766,41.8157833 C452.839334,41.947784 453.000665,42.0137833 453.25,42.0137833 L453.426,42.1897833 L454.086,42.1897833 L455.56,42.8277833 L455.736,43.3117833 L455.868,43.5097833 L456.264,43.6637833 L456.858,44.6317833 L457.21,45.0717833 C457.606002,45.9957879 457.804,46.5457824 457.804,46.7217833 L457.804,46.9637833 Z M456.154,47.0957833 L456.044,46.4797833 L456.154,46.3037833 L456,45.9297833 C456.014667,45.9004498 456.022,45.8564503 456.022,45.7977833 C456.022,45.7537831 456.007333,45.7171168 455.978,45.6877833 L455.582,45.4237833 L455.45,45.0717833 L455.274,45.0057833 L455.208,44.6977833 L454.658,44.1917833 L454.328,43.9277833 L454.196,43.9937833 C453.858665,43.6857818 453.235338,43.4291177 452.326,43.2237833 C452.208666,43.2237833 452.135333,43.2164501 452.106,43.2017833 L451.996,43.2677833 L451.6,43.1577833 L451.38,43.2677833 C451.159999,43.1944496 451.028,43.1577833 450.984,43.1577833 C450.969333,43.1577833 450.914334,43.1724498 450.819,43.2017833 C450.723666,43.2311168 450.639334,43.2457833 450.566,43.2457833 C450.492666,43.2457833 450.434,43.2384501 450.39,43.2237833 C450.287333,43.4144509 450.045335,43.5831159 449.664,43.7297833 L449.378,43.6857833 L449.07,43.8397833 L448.674,43.7957833 C448.409999,44.0011177 448.102002,44.2137822 447.75,44.4337833 L447.64,44.5877833 L447.53,45.0717833 L447.024,45.2917833 L446.936,45.4017833 C446.848,45.5777842 446.730667,45.7391159 446.584,45.8857833 L446.584,46.2597833 L446.276,46.3917833 L446.21,46.4357833 L446.012,47.0957833 L445.704,47.2717833 C445.66,48.0197871 445.535334,48.5404485 445.33,48.8337833 C445.212666,48.9951175 445.146667,49.2151153 445.132,49.4937833 L445.044,49.7357833 L445.11,49.8897833 L445.176,50.2197833 L445.44,50.5057833 L445.484,50.7917833 L445.704,51.0117833 C446.114669,51.2464512 446.481332,51.3711166 446.804,51.3857833 L447.728,51.1437833 L447.926,51.3417833 L448.19,51.3417833 L448.234,51.2977833 L448.894,51.1877833 L449.598,51.2977833 C449.715334,51.1804494 449.854666,51.1217833 450.016,51.1217833 C450.353335,50.916449 450.639332,50.8137833 450.874,50.8137833 L451.336,50.5497833 L451.688,50.5277833 L451.974,50.3077833 L452.656,50.2857833 C452.714667,50.2711166 452.780666,50.2637833 452.854,50.2637833 L452.898,50.1977833 C453.000667,50.0511159 453.154666,49.9557835 453.36,49.9117833 L453.624,49.2957833 L453.8,49.4057833 L453.976,49.3177833 L454.284,49.0317833 L454.394,49.0757833 L454.768,48.8117833 L455.428,48.1517833 L455.714,48.0637833 L455.846,47.7337833 L456.022,47.6237833 L455.978,47.4257833 L456.154,47.0957833 Z M467.88,49.5157833 L467.616,50.1757833 L467.792,50.6157833 L467.704,50.7477833 L467.616,51.0997833 L467.44,51.4077833 L467.352,51.4517833 L467.308,51.8697833 L466.912,51.9137833 C466.706666,52.1044509 466.494001,52.2584494 466.274,52.3757833 L466.142,52.3537833 L465.812,52.4637833 L465.614,52.4857833 L465.196,52.6397833 L464.712,52.4197833 L464.646,52.3757833 L464.272,52.3977833 L464.36,52.4417833 L463.744,52.3537833 L463.194,52.4857833 L462.974,52.2877833 L462.512,52.3317833 L462.336,52.1997833 C462.321333,52.1997833 462.262667,52.2071166 462.16,52.2217833 L462.16,52.3537833 C462.16,52.485784 462.138,52.6177827 462.094,52.7497833 L462.16,53.1677833 L461.984,53.3877833 C462.013333,53.7104516 462.028,53.9524492 462.028,54.1137833 L461.962,54.6637833 L462.05,55.4997833 L461.874,55.7197833 L461.962,56.0497833 L461.896,56.2697833 L462.028,56.3357833 L462.028,56.6657833 C462.057333,56.7537838 462.072,56.8197831 462.072,56.8637833 C462.072,56.995784 461.991334,57.1057829 461.83,57.1937833 L461.918,57.5017833 L461.808,57.6777833 L461.764,58.5577833 C461.72,59.5844551 461.492669,60.0977833 461.082,60.0977833 C460.994,60.0977833 460.737335,60.0391172 460.312,59.9217833 L460.378,59.2617833 L460.246,58.2937833 L460.466,57.8977833 L460.488,57.4137833 L460.4,56.7537833 L460.576,56.4677833 L460.378,55.9617833 L460.532,55.6977833 L460.4,55.2577833 L460.576,54.8617833 C460.546667,54.7737829 460.491667,54.693117 460.411,54.6197833 C460.330333,54.5464496 460.29,54.4951168 460.29,54.4657833 C460.29,54.4217831 460.341333,54.3777835 460.444,54.3337833 C460.429333,54.2897831 460.422,54.2164505 460.422,54.1137833 C460.422,53.9231157 460.466,53.6737849 460.554,53.3657833 L460.422,53.1457833 L460.488,52.8597833 L460.334,52.6617833 L460.532,52.4197833 L460.444,51.7817833 L460.576,50.8797833 L460.422,50.5937833 L460.664,50.1757833 L460.4,49.9337833 L460.554,49.5157833 L460.4,49.4057833 L460.422,49.0317833 L460.554,48.5697833 L460.554,48.4817833 L460.576,48.3937833 L460.576,48.1517833 L460.598,48.0637833 L460.488,47.7117833 L460.598,47.3377833 L460.488,47.0517833 L460.576,46.7217833 L460.488,46.6337833 L460.554,46.1937833 L460.488,45.9517833 L460.532,45.7317833 L460.466,45.5777833 L459.674,45.9297833 L459.674,45.7977833 L459.52,45.8197833 L459.278,46.0397833 L459.08,46.0397833 L458.816,46.3917833 L458.596,46.3037833 L458.486,46.5237833 C457.76733,46.0984479 457.408,45.7611179 457.408,45.5117833 C457.408,45.3357824 457.473999,45.1891172 457.606,45.0717833 L457.584,44.7417833 C457.994669,44.5071155 458.383331,44.3824501 458.75,44.3677833 L458.904,44.2137833 L459.608,43.9277833 L459.762,43.7737833 L460.378,43.8177833 L460.488,43.7737833 L460.686,43.0037833 L461.214,43.1137833 L461.566,43.6857833 L461.764,43.4877833 L462.16,43.7737833 C462.350668,43.7737833 462.533999,43.8104496 462.71,43.8837833 L462.82,44.0817833 L462.974,44.0157833 L463.15,44.1477833 C463.252667,44.1477833 463.333333,44.1551166 463.392,44.1697833 L463.37,44.3017833 L463.854,44.1477833 L464.096,44.4117833 L464.514,44.5437833 L464.8,44.8957833 L465.328,45.2257833 L465.35,45.2697833 L465.768,45.4017833 L465.768,45.5337833 C465.885334,45.6217838 465.973333,45.7391159 466.032,45.8857833 L466.208,45.9957833 L466.34,46.2377833 L466.604,46.2377833 L466.604,46.6777833 L466.758,46.8317833 L466.802,46.9857833 L467.022,47.0297833 C467.051333,47.3671183 467.146666,47.6531155 467.308,47.8877833 L467.308,48.0417833 L467.528,48.2617833 L467.484,48.6137833 L467.66,49.0097833 L467.726,49.4717833 L467.88,49.5157833 Z M465.487388,51.1163955 C465.492177,51.1199874 465.490381,51.1217833 465.482,51.1217833 L465.487388,51.1163955 Z M465.487388,51.1163955 L465.9,50.7037833 L465.944,50.3957833 L466.054,50.3517833 L465.988,50.1757833 L466.142,49.9997833 L466.23,49.8457833 L466.208,49.7357833 L466.23,49.6477833 L466.098,49.2517833 L466.186,49.0537833 L466.098,48.8777833 L466.076,48.6577833 L465.9,48.3057833 L465.812,48.0637833 L465.482,47.4917833 L465.218,47.2717833 L465.064,46.8977833 L464.866,46.8097833 L464.514,46.3477833 L464.162,46.3917833 L463.898,46.0397833 L463.678,46.0837833 L463.524,45.7977833 L463.436,45.7757833 L463.128,45.7757833 L462.908,45.8857833 L462.732,45.7097833 L462.512,45.7537833 L462.424,45.5997833 L462.028,45.5337833 L462.05,45.7977833 L462.006,46.2157833 L462.094,46.4577833 L462.402,46.7437833 L462.16,47.2717833 L462.182,47.6017833 L462.072,48.2617833 C462.116,48.5404514 462.203999,48.7751157 462.336,48.9657833 L462.248,49.2077833 C462.262667,49.2224501 462.27,49.2371166 462.27,49.2517833 C462.27,49.2957835 462.211334,49.3617829 462.094,49.4497833 L462.248,49.6477833 L462.138,49.9117833 L462.094,50.1977833 L462.16,50.5057833 L462.138,50.7917833 L462.6,50.7917833 C462.658667,50.7624498 462.739333,50.7477833 462.842,50.7477833 C462.974001,50.7477833 463.091333,50.7917829 463.194,50.8797833 C463.208667,50.8797833 463.238,50.8724501 463.282,50.8577833 L463.348,50.8577833 C463.392,50.8577833 463.472666,50.8724498 463.59,50.9017833 C463.678,50.8577831 463.758666,50.8357833 463.832,50.8357833 C463.949334,50.8357833 464.059333,50.8651164 464.162,50.9237833 L464.36,50.9237833 L464.536,50.9677833 L464.976,50.8357833 L465.328,51.0557833 C465.422286,51.0872119 465.475415,51.1074159 465.487388,51.1163955 Z M476.46,44.8737833 C476.46,45.005784 476.328001,45.1304494 476.064,45.2477833 C476.005333,45.321117 475.895334,45.3871164 475.734,45.4457833 C475.528666,45.5337838 475.382,45.6071164 475.294,45.6657833 L474.832,45.5117833 C474.597332,45.6877842 474.296669,45.7757833 473.93,45.7757833 L473.666,45.7097833 L473.468,45.8857833 L472.874,45.8857833 L472.5,46.1277833 C472.338666,46.0691164 472.184667,46.0397833 472.038,46.0397833 C471.994,46.0691168 471.891334,46.0984498 471.73,46.1277833 C471.656666,46.1277833 471.576,46.1057835 471.488,46.0617833 L471.422,46.8977833 L471.444,47.5137833 L471.378,48.2837833 L471.422,49.1197833 L471.488,49.5157833 L471.488,49.8237833 L471.796,50.4837833 C471.752,50.5277835 471.73,50.5791164 471.73,50.6377833 C471.73,50.7404505 471.891332,50.8211164 472.214,50.8797833 L472.258,51.1437833 L472.412,51.2097833 L472.676,51.3857833 L472.852,51.5177833 C472.998667,51.4884498 473.101333,51.4737833 473.16,51.4737833 C473.292001,51.4737833 473.423999,51.4957831 473.556,51.5397833 C473.614667,51.5104498 473.739332,51.4077842 473.93,51.2317833 C474.062001,51.1144494 474.186666,51.0557833 474.304,51.0557833 L474.37,51.0557833 C474.399333,51.0704501 474.421333,51.0777833 474.436,51.0777833 C474.568001,50.7991153 474.802665,50.6157838 475.14,50.5277833 C475.448002,50.5277833 475.704666,50.6231157 475.91,50.8137833 L475.91,50.9677833 C475.91,51.4664525 475.734002,51.7817827 475.382,51.9137833 C475.249999,52.2217849 474.971335,52.4197829 474.546,52.5077833 L474.282,52.7497833 L473.996,52.7497833 L473.49,52.8817833 C473.372666,52.9111168 473.204001,52.9257833 472.984,52.9257833 C472.866666,52.9257833 472.742001,52.8964503 472.61,52.8377833 L472.324,52.8377833 L471.554,52.4197833 L471.356,52.3537833 L470.894,51.7377833 L470.63,51.4517833 L470.146,50.3517833 L469.97,49.3177833 L470.014,49.0537833 L469.838,48.8117833 L469.948,48.5037833 L469.838,48.0197833 L469.992,47.8657833 L470.036,47.5797833 L469.97,47.3157833 L470.014,46.9197833 L469.926,46.5677833 L470.036,46.4577833 L470.036,46.1057833 L469.882,46.0397833 L469.464,46.1277833 L469.068,45.8417833 L469.002,45.8417833 C468.561998,45.8417833 468.342,45.607119 468.342,45.1377833 L468.342,45.0717833 L468.078,44.6537833 L468.496,44.2577833 L469.046,44.3457833 L469.332,44.3017833 L469.75,44.4117833 L470.212,44.4117833 L470.212,43.9717833 L469.926,43.3557833 L470.212,43.2017833 L470.102,42.8717833 L470.124,42.1897833 L469.948,41.9037833 C469.845333,41.7424492 469.794,41.595784 469.794,41.4637833 C469.794,41.3024492 469.830666,41.1704505 469.904,41.0677833 L469.97,40.7597833 L470.146,40.5837833 C470.542002,40.5104496 470.805999,40.4737833 470.938,40.4737833 C471.407336,40.4737833 471.664,40.6864479 471.708,41.1117833 L471.642,41.2217833 C471.73,41.353784 471.774,41.4784494 471.774,41.5957833 C471.774,41.6104501 471.766667,41.6471164 471.752,41.7057833 L471.708,41.8377833 L471.686,41.9917833 L471.774,42.2777833 L471.752,42.3877833 L471.796,42.6957833 L471.598,42.9597833 L471.708,43.3997833 L471.62,43.9277833 L471.796,44.1257833 L471.62,44.5217833 L472.302,44.4337833 L473.512,44.5437833 L474.48,44.3897833 L474.81,44.4117833 L474.92,44.3897833 L475.778,44.3897833 C476.232669,44.3897833 476.46,44.551115 476.46,44.8737833 Z M481.168,37.8997833 C481.168,38.0757842 481.050668,38.2371159 480.816,38.3837833 L480.816,38.4277833 C480.537332,38.7651183 480.295334,38.9557831 480.09,38.9997833 L479.76,39.3957833 L479.54,39.6817833 L479.034,39.8137833 L478.814,40.1217833 L478.462,40.2977833 L477.89,40.8037833 L477.538,40.4737833 L477.604,39.9237833 L477.846,39.5277833 C477.860667,39.322449 477.977999,39.1464507 478.198,38.9997833 L478.198,38.9117833 L478.33,38.8237833 L478.352,38.4937833 L478.704,38.4057833 L478.704,38.2077833 L478.968,38.1637833 C479.026667,37.8704485 479.151332,37.657784 479.342,37.5257833 L479.408,37.4817833 L479.54,37.3497833 L479.716,36.8217833 C480.684005,37.0564512 481.168,37.4157809 481.168,37.8997833 Z M483.412,49.5597833 C483.412,49.8971183 483.353334,50.1097829 483.236,50.1977833 L483.126,50.2857833 L483.016,50.5937833 L482.664,50.7037833 C482.561333,50.9384512 482.407334,51.1217827 482.202,51.2537833 L482.004,51.3197833 L481.718,51.6277833 L481.454,51.6937833 C481.351333,51.9577846 481.138668,52.0971166 480.816,52.1117833 C480.786667,52.1557835 480.720667,52.2437827 480.618,52.3757833 C480.397999,52.5224507 480.170668,52.6104498 479.936,52.6397833 L479.826,52.6617833 L479.672,52.8597833 L479.232,52.8597833 L478.88,53.1237833 L477.978,52.4637833 L477.56,51.6057833 L477.538,50.5277833 L477.45,50.2637833 L477.714,48.3277833 L477.802,48.2397833 C477.758,48.0197822 477.736,47.8071177 477.736,47.6017833 C477.736,47.4697827 477.78,47.198452 477.868,46.7877833 L477.978,46.2817833 C477.948667,46.1937829 477.89,46.0984505 477.802,45.9957833 L477.934,45.5777833 L477.978,45.0717833 L478.022,45.0057833 C477.963333,44.8737827 477.926667,44.7271175 477.912,44.5657833 C477.926667,44.5364498 477.941333,44.4961169 477.956,44.4447833 C477.970667,44.3934497 477.978,44.3531168 477.978,44.3237833 C477.934,44.1917827 477.912,44.0671172 477.912,43.9497833 C477.912,43.5977816 478.109998,43.4364498 478.506,43.4657833 L478.77,43.4877833 C478.946001,43.3997829 479.056,43.3557833 479.1,43.3557833 C479.393335,43.3557833 479.591333,43.517115 479.694,43.8397833 L479.694,43.9277833 C479.752667,44.1037842 479.782,44.2724492 479.782,44.4337833 C479.782,44.565784 479.767333,44.6611164 479.738,44.7197833 L479.584,45.8197833 L479.738,46.1277833 C479.738,46.3917846 479.650001,46.626449 479.474,46.8317833 L479.562,47.0957833 L479.276,47.9317833 C479.246667,48.2984518 479.21,48.5771157 479.166,48.7677833 L479.166,49.3177833 L479.034,49.6257833 L479.056,49.8457833 L479.012,50.3517833 L479.056,50.7477833 L479.386,51.0117833 L479.65,50.9677833 L479.694,50.9017833 L479.87,50.9237833 L480.156,50.8357833 L480.398,50.5937833 L480.486,50.4617833 L480.64,50.4397833 L480.684,50.3297833 L480.75,50.2417833 L480.882,50.3297833 L481.102,50.1097833 L481.234,50.1317833 L481.278,49.9777833 L481.322,49.9777833 L481.388,49.8017833 L481.586,49.7137833 L482.004,49.5157833 C482.341335,49.2811155 482.671332,49.1637833 482.994,49.1637833 L483.082,49.1637833 C483.243334,49.2664505 483.353333,49.3984492 483.412,49.5597833 Z M503.212,50.1757833 C503.138666,50.3811177 503.043334,50.5351161 502.926,50.6377833 C502.882,50.7991175 502.816,50.9164496 502.728,50.9897833 C502.654666,51.1364507 502.566667,51.2391164 502.464,51.2977833 L502.376,51.4297833 C502.317333,51.5177838 502.236667,51.5617833 502.134,51.5617833 L502.024,51.7817833 L501.87,51.7817833 L501.76,51.9797833 L501.584,52.0457833 L501.452,52.1997833 L501.342,52.2877833 C501.121999,52.2877833 500.938667,52.3537827 500.792,52.4857833 C500.601332,52.559117 500.403334,52.5957833 500.198,52.5957833 C499.992666,52.5957833 499.787334,52.5444505 499.582,52.4417833 C499.347332,52.4271166 499.23,52.3904503 499.23,52.3317833 L498.922,52.2877833 L498.856,52.2217833 L498.724,51.9577833 L498.482,51.7597833 C498.320666,51.5691157 498.232667,51.3931175 498.218,51.2317833 C498.115333,51.0851159 498.012667,50.806452 497.91,50.3957833 L497.69,50.0437833 L497.69,49.8457833 L497.536,49.1857833 L497.558,48.9217833 L497.426,48.2397833 L497.492,47.6897833 L497.382,47.5357833 L497.162,48.0857833 C496.883332,48.3937849 496.718334,48.580783 496.667,48.6467833 C496.615666,48.7127836 496.553334,48.7457833 496.48,48.7457833 C496.465333,48.7457833 496.436,48.7384501 496.392,48.7237833 L496.26,48.9657833 C496.245333,48.9804501 496.238,49.0097831 496.238,49.0537833 C496.238,49.1417838 496.289333,49.1931166 496.392,49.2077833 C496.362667,49.2371168 496.289334,49.3397824 496.172,49.5157833 C496.113333,49.6331172 496.062,49.7137831 496.018,49.7577833 L495.952,49.6477833 L495.908,49.9557833 C495.717332,50.1024507 495.585334,50.3224485 495.512,50.6157833 C495.365333,50.8064509 495.138002,51.0777816 494.83,51.4297833 L494.544,51.7377833 C494.470666,51.7377833 494.434,51.7524498 494.434,51.7817833 L494.434,51.8257833 C494.346,52.0311177 494.192001,52.1924494 493.972,52.3097833 L493.708,52.6397833 L493.554,52.6397833 L493.026,52.8377833 C492.585998,52.8084498 492.314667,52.6177851 492.212,52.2657833 L492.19,52.0237833 L492.058,51.7377833 L492.058,51.4957833 L491.882,50.8577833 L491.882,50.6597833 L491.75,50.4397833 L491.838,49.7577833 C491.823333,49.6844496 491.816,49.581784 491.816,49.4497833 C491.816,49.3324494 491.823333,49.2517835 491.838,49.2077833 L491.816,49.0757833 L491.816,48.9877833 L491.706,48.7457833 L491.882,48.3277833 C491.852667,48.2104494 491.808667,48.0197846 491.75,47.7557833 L491.816,47.5577833 L491.882,46.9197833 L491.706,46.4577833 L491.75,46.0837833 L491.684,45.8857833 C491.669333,45.8417831 491.618,45.7024512 491.53,45.4677833 L491.376,45.5557833 L491.09,45.9077833 L490.826,46.1497833 L490.298,46.8097833 L490.254,47.0517833 L489.88,47.4477833 L489.726,47.7557833 L489.572,47.9317833 C489.528,48.2544516 489.366668,48.4817827 489.088,48.6137833 L489.066,48.9217833 C488.978,49.0097838 488.886334,49.1271159 488.791,49.2737833 C488.695666,49.4204507 488.629667,49.5047832 488.593,49.5267833 C488.556333,49.5487834 488.494,49.5964496 488.406,49.6697833 L488.142,50.0437833 C488.142,50.2931179 488.046668,50.4691161 487.856,50.5717833 L487.856,50.7037833 C487.768,50.8211172 487.650667,50.9384494 487.504,51.0557833 L487.482,51.0117833 L487.416,51.3197833 C487.298666,51.3197833 487.188667,51.4591153 487.086,51.7377833 L487.02,51.8257833 C487.005333,52.0604512 486.880668,52.2364494 486.646,52.3537833 L486.338,52.6397833 C486.103332,52.7571172 485.949334,52.8157833 485.876,52.8157833 C485.494665,52.8157833 485.245334,52.5004531 485.128,51.8697833 L485.04,51.3857833 C485.025333,51.3564498 485.018,51.3124503 485.018,51.2537833 C485.018,51.1511161 485.04,51.0484505 485.084,50.9457833 L484.974,50.5277833 L485.018,50.1757833 L484.974,49.8237833 C485.003333,49.5157818 485.054666,49.325117 485.128,49.2517833 C485.084,48.9437818 485.062,48.7677835 485.062,48.7237833 L485.062,48.3277833 C485.120667,48.2251161 485.194,48.0931175 485.282,47.9317833 L485.15,47.7997833 C485.120667,47.6824494 485.106,47.6164501 485.106,47.6017833 C485.106,47.4991161 485.193999,47.3231179 485.37,47.0737833 L485.216,46.6557833 L485.304,46.3917833 L485.172,45.7537833 L485.216,45.4457833 L485.106,44.9617833 L485.128,44.6317833 L484.93,44.2357833 C485.223335,43.6637805 485.538665,43.3777833 485.876,43.3777833 C486.052001,43.3777833 486.220666,43.4511159 486.382,43.5977833 L486.426,43.8177833 C486.675335,43.949784 486.8,44.147782 486.8,44.4117833 C486.8,44.3677831 486.778,44.5217816 486.734,44.8737833 L486.646,44.8517833 L486.844,45.2257833 L486.712,45.4017833 L486.69,45.4897833 L486.822,46.5017833 L486.778,47.3597833 L486.712,47.5137833 L486.8,47.8657833 C486.844,47.9244503 486.866,47.9977829 486.866,48.0857833 C486.866,48.2031172 486.807334,48.3204494 486.69,48.4377833 C486.69,48.6431177 486.653334,48.8117827 486.58,48.9437833 L486.646,49.6037833 L486.646,49.8677833 L486.668,49.8237833 L486.8,49.6257833 L487.108,49.0757833 L487.174,49.0757833 C487.262,49.0757833 487.357333,48.9364514 487.46,48.6577833 L487.614,48.2397833 C487.643333,48.1517829 487.753332,48.0124509 487.944,47.8217833 L488.032,47.4257833 L488.296,47.0297833 L488.384,46.7217833 C488.457334,46.6777831 488.530666,46.6264503 488.604,46.5677833 L488.626,46.5017833 C488.67,46.4431164 488.831332,46.2891179 489.11,46.0397833 L489.242,45.9737833 L489.286,45.7537833 L489.396,45.6877833 C489.469334,45.3797818 489.652665,45.1744505 489.946,45.0717833 L489.858,45.0057833 L489.946,44.9617833 C489.931333,44.9471166 489.924,44.9251168 489.924,44.8957833 C489.924,44.8664498 489.938667,44.8224503 489.968,44.7637833 L490.32,44.6097833 L490.386,44.2577833 L490.628,44.2577833 C490.628,44.2431166 490.642667,44.1917838 490.672,44.1037833 L491.112,43.7517833 C491.317334,43.6931164 491.456666,43.6637833 491.53,43.6637833 C491.706001,43.6637833 491.947998,43.7151161 492.256,43.8177833 L492.476,44.1257833 L492.564,44.1697833 L492.674,44.4337833 L492.982,44.8517833 L492.982,45.1377833 L493.18,45.3577833 L493.18,45.6877833 C493.341334,46.0397851 493.422,46.3404487 493.422,46.5897833 L493.356,46.8537833 L493.488,47.2277833 L493.246,47.4697833 L493.334,47.9537833 L493.312,48.0857833 L493.29,48.1957833 C493.260667,48.3424507 493.246,48.4524496 493.246,48.5257833 C493.246,48.599117 493.282666,48.7457822 493.356,48.9657833 L493.29,49.2077833 L493.356,49.5157833 L493.29,49.5817833 C493.319333,49.7871177 493.363333,50.1317809 493.422,50.6157833 L493.4,50.7037833 L494.104,49.9337833 L494.324,49.5157833 C494.382667,49.4277829 494.477999,49.2884509 494.61,49.0977833 L494.61,49.0537833 C494.668667,48.8191155 494.763999,48.6577838 494.896,48.5697833 C494.896,48.4817829 494.969333,48.371784 495.116,48.2397833 L495.292,48.1297833 C495.350667,47.8804487 495.504665,47.6751175 495.754,47.5137833 L495.864,47.2057833 L496.062,46.9417833 L496.282,46.7217833 C496.414001,46.6191161 496.516666,46.4577844 496.59,46.2377833 L496.766,45.9737833 L496.854,45.6437833 L497.096,45.5117833 L497.338,45.2037833 L497.58,44.6757833 C497.521333,44.6757833 497.492,44.6611168 497.492,44.6317833 L497.536,44.5437833 L497.69,44.4117833 L497.866,44.0597833 C498.115335,43.9717829 498.254667,43.9277833 498.284,43.9277833 L498.372,43.9717833 L498.768,43.9937833 L499.12,44.1477833 L499.428,44.4997833 L499.494,44.8077833 L499.472,45.0497833 L499.362,45.1377833 L499.12,45.5997833 L499.032,46.1057833 C499.105334,46.179117 499.142,46.3111157 499.142,46.5017833 C499.083333,46.575117 499.054,46.6704494 499.054,46.7877833 L498.966,46.9637833 C498.995333,47.037117 499.01,47.1544492 499.01,47.3157833 C499.01,47.447784 499.002667,47.5431164 498.988,47.6017833 L498.9,47.7117833 L498.988,47.8657833 L498.834,48.0637833 C498.922,48.0637833 498.966,48.1591157 498.966,48.3497833 C498.995333,48.4377838 499.01,48.4964498 499.01,48.5257833 C499.01,48.5697835 498.995333,48.6211164 498.966,48.6797833 C498.995333,48.8264507 499.01,48.9657827 499.01,49.0977833 L499.01,49.1417833 C499.01,49.1711168 499.105332,49.4717805 499.296,50.0437833 L499.34,50.2637833 L499.582,50.5277833 L499.714,50.8357833 L499.846,50.9017833 L499.934,51.0337833 L500.044,51.0557833 L500.242,51.0997833 L500.352,51.0777833 L500.418,51.0777833 C500.564667,51.0777833 500.740666,51.0191172 500.946,50.9017833 C501.004667,50.7551159 501.158665,50.6011175 501.408,50.4397833 C501.422667,50.3664496 501.510666,50.2271177 501.672,50.0217833 L502.046,49.7577833 L502.178,49.4937833 C502.295334,49.4204496 502.419999,49.3837833 502.552,49.3837833 C502.713334,49.3837833 502.889332,49.4277829 503.08,49.5157833 C503.168,49.6624507 503.212,49.8824485 503.212,50.1757833 Z M510.889989,43.1137589 C510.889992,43.113767 510.889996,43.1137752 510.89,43.1137833 C510.89,43.1125377 510.890006,43.1112862 510.890018,43.1100289 L510.889989,43.1137589 Z M510.890018,43.1100289 C510.890421,43.0668708 510.897748,43.0167895 510.912,42.9597833 L510.912,42.8717833 L511.374,43.2897833 L511.792,43.3777833 L512.584,43.1797833 L512.87,43.7297833 L513.2,43.8617833 L512.98,44.1477833 L513.156,44.6757833 L512.87,45.0057833 L512.76,45.4677833 L512.694,45.5777833 L512.738,45.6877833 C512.738,45.8931177 512.686667,46.0471161 512.584,46.1497833 L512.54,46.2157833 L512.54,46.3037833 C512.584,46.4064505 512.606,46.5017829 512.606,46.5897833 C512.606,46.663117 512.598667,46.7144498 512.584,46.7437833 L512.606,46.8317833 L512.518,47.0737833 L512.584,47.3377833 L512.408,47.5137833 L512.474,47.8217833 L512.606,47.9757833 L512.408,48.1517833 L512.408,48.5037833 L512.254,48.8557833 L512.364,49.2077833 L512.232,49.3837833 L512.452,49.5377833 L512.144,50.0437833 L512.122,50.1097833 L512.342,50.1537833 L512.188,50.6597833 L512.188,50.7477833 C512.188,50.8504505 512.180667,50.9311164 512.166,50.9897833 L512.188,51.0557833 L512.54,51.0997833 L512.826,51.5397833 L512.672,51.8697833 L512.914,51.8477833 C513.002,52.0237842 513.053333,52.1777827 513.068,52.3097833 L512.738,52.6397833 C512.635333,52.7424505 512.488668,52.8451161 512.298,52.9477833 L511.924,53.1457833 L511.814,53.0357833 L511.594,53.1677833 L510.912,52.3757833 L510.912,52.0017833 C510.824,51.7084485 510.78,51.4371179 510.78,51.1877833 L510.78,51.0557833 L510.648,49.7577833 L510.824,48.8337833 L510.692,48.3057833 L510.318,48.9217833 L510.12,49.4937833 L509.944,49.5817833 L509.636,50.0657833 L509.086,50.5717833 L508.932,50.8357833 L508.448,51.2537833 L508.338,51.5397833 L507.634,51.9797833 L506.886,52.8157833 L506.468,52.9037833 L506.182,53.1237833 C505.815332,53.1091166 505.536668,52.9697846 505.346,52.7057833 C504.685997,52.383115 504.341333,51.9211197 504.312,51.3197833 L504.422,51.2537833 L504.4,51.1217833 L504.378,50.8577833 L504.246,50.5717833 L504.378,50.2637833 L504.422,49.8017833 L504.576,49.0757833 L504.576,48.9877833 C504.561333,48.9584498 504.554,48.9291168 504.554,48.8997833 C504.554,48.8411164 504.568667,48.7677838 504.598,48.6797833 C504.583333,48.6504498 504.576,48.5917838 504.576,48.5037833 C504.576,48.4011161 504.62,48.2324512 504.708,47.9977833 L504.862,47.9317833 C504.774,47.8584496 504.73,47.7777838 504.73,47.6897833 C504.73,47.6311164 504.737333,47.5871168 504.752,47.5577833 C504.737333,47.5137831 504.73,47.4624503 504.73,47.4037833 C504.73,47.2277824 504.817999,47.0957838 504.994,47.0077833 C505.038,46.8611159 505.118666,46.7144507 505.236,46.5677833 L505.126,46.3917833 L505.39,46.0617833 L505.39,45.9737833 C505.39,45.6951153 505.485332,45.4384512 505.676,45.2037833 L505.654,44.8077833 L505.742,44.7197833 L505.742,44.6537833 C505.727333,44.6244498 505.72,44.6024501 505.72,44.5877833 C505.72,44.4997829 505.749333,44.4264503 505.808,44.3677833 L505.808,44.2357833 C505.866667,44.0891159 506.020665,43.8691181 506.27,43.5757833 C506.519335,43.2824485 506.702666,43.0257844 506.82,42.8057833 L506.93,42.9157833 L507.172,42.8057833 L507.282,42.7617833 L508.008,42.4317833 L509.702,42.5197833 L509.702,42.6737833 L510.23,42.7837833 C510.567323,42.7837833 510.787317,42.8937741 510.889989,43.1137589 L510.890018,43.1100289 Z M511.11,45.0057833 L511.022,44.8517833 L510.846,44.8077833 L510.164,44.2577833 L509.724,44.1917833 L509.372,44.1917833 L509.328,44.1477833 L509.152,44.2137833 L508.954,44.1037833 L508.382,44.1037833 L508.448,44.1917833 L507.942,44.3677833 L507.854,44.4777833 L507.788,44.4997833 C507.523999,44.7197844 507.340667,44.9031159 507.238,45.0497833 L507.084,45.5777833 L506.996,45.7757833 L507.216,46.0837833 L506.842,46.3697833 L506.886,46.4577833 C506.724666,46.7364514 506.644,47.007782 506.644,47.2717833 L506.468,47.4917833 L506.468,47.8877833 L506.292,48.0857833 L506.248,48.2837833 L506.182,48.3277833 L506.182,48.6357833 L506.116,48.7457833 C506.116,48.9217842 506.101333,49.0611161 506.072,49.1637833 L506.116,49.2737833 L505.918,49.6917833 L506.006,49.8237833 L505.852,50.0437833 L506.006,50.4617833 L505.764,50.7697833 L505.808,51.1877833 L505.808,51.2537833 L505.896,51.2977833 L506.006,51.2757833 C506.079334,51.2024496 506.152666,51.1364503 506.226,51.0777833 L506.182,50.9017833 L506.49,50.8577833 L506.556,50.7037833 L507.854,49.6477833 L507.986,49.6037833 L508.14,49.2297833 C508.228,49.2004498 508.352666,49.1417838 508.514,49.0537833 L508.646,48.7017833 L508.822,48.7017833 L508.756,48.3277833 L509.064,48.2837833 C509.093333,48.2251164 509.141,48.1517838 509.207,48.0637833 C509.273,47.9757829 509.342666,47.895117 509.416,47.8217833 L510.538,46.3257833 L510.714,45.9957833 L510.692,45.9077833 L510.846,45.6657833 L510.89,45.4237833 L511.088,45.2477833 L511.11,45.0057833 Z M521.89,50.3737833 C521.89,50.5351175 521.831334,50.6671161 521.714,50.7697833 C521.596666,50.9457842 521.406001,51.1291157 521.142,51.3197833 L520.922,51.4737833 L520.724,51.7377833 L520.526,51.8257833 L520.218,52.0237833 L519.998,52.0457833 L519.91,52.1337833 C519.616665,52.2217838 519.389334,52.368449 519.228,52.5737833 C519.125333,52.647117 519.03,52.6837833 518.942,52.6837833 C518.883333,52.6837833 518.832,52.6764501 518.788,52.6617833 C518.538665,52.8084507 518.216002,52.8817833 517.82,52.8817833 C517.482665,52.8817833 517.262667,52.8524503 517.16,52.7937833 L516.764,52.5737833 L516.632,52.3537833 L516.632,52.2877833 C516.632,52.0971157 516.551334,51.9431172 516.39,51.8257833 L516.302,51.3857833 L516.126,51.1877833 L516.016,50.3737833 L515.994,49.8897833 L516.016,49.5377833 L516.06,49.4057833 C516.016,49.3177829 515.994,49.2224505 515.994,49.1197833 C516.067334,48.5037802 516.104,48.1151175 516.104,47.9537833 L515.906,47.5577833 L516.104,47.2277833 L516.17,46.6777833 L516.126,46.3037833 L516.258,45.9737833 L516.126,45.5337833 L516.324,45.2257833 L516.346,45.0277833 L516.346,44.2577833 L516.412,44.1037833 L516.39,43.1797833 L516.456,42.2337833 L516.368,42.0577833 L516.346,41.3977833 L516.412,40.8037833 L516.346,40.5837833 L516.478,39.2637833 C517.094003,39.1171159 517.365334,39.0437833 517.292,39.0437833 C517.526668,39.0437833 517.717333,39.1684487 517.864,39.4177833 L517.908,39.5937833 L518.238,39.9237833 L518.062,40.3857833 L518.106,40.4737833 C518.076667,40.7524514 518.04,40.9357829 517.996,41.0237833 L518.04,41.4857833 L518.15,41.9037833 L517.996,42.3657833 C517.996,42.6151179 517.959334,42.842449 517.886,43.0477833 C517.886,43.121117 517.871333,43.2384492 517.842,43.3997833 L517.82,43.5317833 L518.018,43.7737833 L517.93,44.0157833 C517.959333,44.1331172 517.974,44.2137831 517.974,44.2577833 C517.974,44.3457838 517.944667,44.4631159 517.886,44.6097833 L517.93,44.8077833 L517.798,45.5117833 L517.798,45.9737833 L517.644,46.4357833 L517.732,46.8537833 L517.644,47.8217833 L517.71,47.9317833 L517.6,48.4377833 L517.556,49.0537833 C517.526667,49.1417838 517.512,49.1931166 517.512,49.2077833 C517.512,49.4571179 517.504667,49.6624492 517.49,49.8237833 L517.6,50.1317833 L517.556,50.4617833 L517.688,50.7477833 L517.666,50.8577833 C517.754,50.931117 517.834666,51.0484492 517.908,51.2097833 L518.106,51.2097833 L518.392,51.2977833 L518.524,51.1217833 L518.722,51.0997833 C518.81,51.0704498 518.876,51.0557833 518.92,51.0557833 L518.986,51.0557833 C519.132667,51.0264498 519.25,50.9531172 519.338,50.8357833 L519.47,50.7697833 C519.572667,50.6084492 519.741332,50.4984503 519.976,50.4397833 C520.049334,50.3811164 520.188666,50.2637842 520.394,50.0877833 C520.394,49.882449 520.518665,49.7284505 520.768,49.6257833 C520.988001,49.6257833 521.134666,49.589117 521.208,49.5157833 C521.501335,49.5597835 521.688333,49.6367828 521.769,49.7467833 C521.849667,49.8567839 521.89,50.0657818 521.89,50.3737833 Z" id="Optimal" fill="#44D6FF"></path>
                    <polygon id="Path-2-Copy" fill="#EAEAEA" fill-rule="nonzero" transform="translate(529.646447, 81.750000) rotate(-180.000000) translate(-529.646447, -81.750000) " points="535.207107 90.7928932 533.792893 92.2071068 523.585786 82 534.292893 71.2928932 535.707107 72.7071068 526.414214 82"></polygon>
                    <path d="M250.984,10.096 C251.896,10.688 253.256,11.04 254.456,11.04 C256.216,11.04 256.968,10.304 256.968,9.152 C256.968,6.16 251.304,7.52 251.304,3.584 C251.304,1.616 252.632,0.512 254.84,0.512 C255.88,0.512 256.808,0.752 257.576,1.264 C257.8,1.632 257.944,2.32 257.864,2.816 C257.048,2.208 256.024,1.824 254.92,1.824 C253.496,1.824 252.776,2.448 252.776,3.392 C252.776,6.176 258.424,4.944 258.424,8.96 C258.424,11.536 256.584,12.368 254.44,12.368 C253.176,12.368 252.04,12.08 251.272,11.648 C251.016,11.248 250.92,10.576 250.984,10.096 Z M260.52,11.92 L260.52,4.368 C260.664,4.288 260.888,4.256 261.224,4.256 C261.56,4.256 261.768,4.288 261.912,4.368 L261.912,11.92 C261.768,12 261.56,12.032 261.224,12.032 C260.888,12.032 260.664,12 260.52,11.92 Z M261.224,0.624 C261.784,0.624 262.152,0.944 262.152,1.536 C262.152,2.16 261.784,2.496 261.224,2.496 C260.616,2.496 260.296,2.176 260.296,1.552 C260.296,0.976 260.68,0.624 261.224,0.624 Z M266.024,6.496 L266.024,11.92 C265.88,12 265.672,12.032 265.336,12.032 C265,12.032 264.776,12 264.632,11.92 L264.632,4.384 C264.904,4.24 265.32,4.16 265.768,4.16 L265.864,5.36 L265.928,5.36 C266.28,4.656 267,3.968 268.52,3.968 C269.544,3.968 270.488,4.256 270.936,5.408 L271,5.408 C271.32,4.704 272.088,3.968 273.656,3.968 C274.936,3.968 276.328,4.416 276.328,7.008 L276.328,11.92 C276.184,12 275.976,12.032 275.64,12.032 C275.304,12.032 275.08,12 274.936,11.92 L274.936,7.28 C274.936,6.048 274.536,5.264 273.256,5.264 C272.104,5.264 271.512,5.84 271.16,6.512 C271.176,6.608 271.192,6.944 271.192,7.216 L271.192,11.92 C271.048,12 270.84,12.032 270.504,12.032 C270.168,12.032 269.944,12 269.8,11.92 L269.8,7.296 C269.8,6.064 269.4,5.264 268.12,5.264 C267,5.264 266.344,5.856 266.024,6.496 Z M284.168,11.12 L284.104,11.12 C283.816,11.664 283.112,12.32 281.544,12.32 C280.264,12.32 278.856,11.856 278.856,9.264 L278.856,4.48 C279.192,4.304 279.656,4.192 280.248,4.192 L280.248,8.992 C280.248,10.288 280.648,11.008 281.96,11.008 C283,11.008 283.688,10.544 284.04,10 L284.04,4.368 C284.184,4.288 284.408,4.256 284.744,4.256 C285.08,4.256 285.288,4.288 285.432,4.368 L285.432,11.904 C285.176,12.064 284.792,12.128 284.36,12.128 L284.168,11.12 Z M290.904,12.032 C290.632,12.208 290.216,12.32 289.752,12.32 C288.664,12.32 288.12,11.696 288.12,10.416 L288.12,0.544 C288.44,0.352 288.92,0.24 289.512,0.24 L289.512,10.16 C289.512,10.864 289.768,11.04 290.232,11.04 C290.616,11.04 290.968,10.912 291.208,10.72 C291.24,11.184 291.128,11.744 290.904,12.032 Z M297.016,11.376 L296.952,11.376 C296.488,11.984 295.752,12.32 294.696,12.32 C293.32,12.32 292.12,11.664 292.12,9.92 C292.12,8.048 293.512,7.28 295.32,7.28 C295.848,7.28 296.456,7.344 296.92,7.536 L296.92,7.12 C296.92,5.792 296.408,5.232 295.16,5.232 C294.248,5.232 293.384,5.52 292.712,5.936 C292.6,5.536 292.648,4.912 292.872,4.544 C293.416,4.224 294.36,3.968 295.416,3.968 C297.32,3.968 298.296,4.784 298.296,6.976 L298.296,10.464 C298.296,10.928 298.536,11.056 298.856,11.056 C299.16,11.056 299.448,10.944 299.608,10.832 C299.64,11.248 299.544,11.744 299.336,12.032 C299.064,12.192 298.712,12.32 298.28,12.32 C297.56,12.32 297.144,11.968 297.016,11.376 Z M296.92,10.224 L296.92,8.656 C296.52,8.512 296.072,8.416 295.528,8.416 C294.2,8.416 293.512,9.008 293.512,9.856 C293.512,10.688 294.184,11.056 295.048,11.056 C295.736,11.056 296.504,10.832 296.92,10.224 Z M300.232,4.288 L301.224,4.288 L301.224,2.528 C301.56,2.256 302.088,2.112 302.616,2.096 L302.616,4.288 L304.968,4.288 C305.032,4.416 305.064,4.624 305.064,4.912 C305.064,5.2 305.032,5.424 304.968,5.552 L302.616,5.552 L302.616,9.664 C302.616,10.528 302.84,11.024 303.8,11.024 C304.28,11.024 304.856,10.848 305.336,10.448 C305.4,10.944 305.24,11.584 305,11.872 C304.584,12.16 304.072,12.32 303.384,12.32 C301.848,12.32 301.224,11.52 301.224,9.84 L301.224,5.552 L300.04,5.552 C300.04,5.072 300.104,4.624 300.232,4.288 Z M307,11.92 L307,4.368 C307.144,4.288 307.368,4.256 307.704,4.256 C308.04,4.256 308.248,4.288 308.392,4.368 L308.392,11.92 C308.248,12 308.04,12.032 307.704,12.032 C307.368,12.032 307.144,12 307,11.92 Z M307.704,0.624 C308.264,0.624 308.632,0.944 308.632,1.536 C308.632,2.16 308.264,2.496 307.704,2.496 C307.096,2.496 306.776,2.176 306.776,1.552 C306.776,0.976 307.16,0.624 307.704,0.624 Z M314.2,3.968 C316.424,3.968 317.848,5.392 317.848,8.032 C317.848,10.816 316.456,12.32 314.2,12.32 C311.832,12.32 310.536,10.88 310.536,8.032 C310.536,5.472 311.976,3.968 314.2,3.968 Z M311.96,8.032 C311.96,9.968 312.712,11.104 314.2,11.104 C315.688,11.104 316.424,9.952 316.424,8.032 C316.424,6.272 315.608,5.184 314.2,5.184 C312.696,5.184 311.96,6.288 311.96,8.032 Z M321.384,6.496 L321.384,11.92 C321.24,12 321.032,12.032 320.696,12.032 C320.36,12.032 320.136,12 319.992,11.92 L319.992,4.384 C320.264,4.24 320.68,4.16 321.128,4.16 L321.224,5.36 L321.288,5.36 C321.64,4.624 322.44,3.968 323.944,3.968 C325.208,3.968 326.632,4.416 326.632,7.008 L326.632,11.92 C326.488,12 326.28,12.032 325.944,12.032 C325.608,12.032 325.384,12 325.24,11.92 L325.24,7.28 C325.24,6.048 324.84,5.264 323.512,5.264 C322.376,5.264 321.72,5.856 321.384,6.496 Z M328.696,10.352 C329.32,10.816 330.376,11.104 331.224,11.104 C332.264,11.104 332.856,10.688 332.856,10 C332.856,8.192 328.984,8.864 328.984,6.224 C328.984,4.752 329.896,3.968 331.56,3.968 C332.296,3.968 333.048,4.128 333.64,4.528 C333.848,4.848 333.96,5.52 333.896,5.92 C333.272,5.424 332.488,5.168 331.704,5.168 C330.776,5.168 330.392,5.52 330.392,6.08 C330.392,7.728 334.264,7.104 334.264,9.824 C334.264,11.632 332.936,12.32 331.256,12.32 C330.44,12.32 329.544,12.16 328.952,11.808 C328.712,11.456 328.632,10.752 328.696,10.352 Z" id="Simulations" fill="#54624F"></path>
                    <g id="Rectangle-12">
                        <use fill="black" fill-opacity="1" filter="url(#filter-2)" xlink:href="#path-1"></use>
                        <use fill="#C9E3E7" fill-rule="evenodd" xlink:href="#path-1"></use>
                    </g>
                    <g id="Rectangle-12-Copy-7">
                        <use fill="black" fill-opacity="1" filter="url(#filter-4)" xlink:href="#path-3"></use>
                        <use fill="#C9E3E7" fill-rule="evenodd" xlink:href="#path-3"></use>
                    </g>
                    <g id="Rectangle-12-Copy-2">
                        <use fill="black" fill-opacity="1" filter="url(#filter-6)" xlink:href="#path-5"></use>
                        <use fill="#C9E3E7" fill-rule="evenodd" xlink:href="#path-5"></use>
                    </g>
                    <g id="Rectangle-12-Copy-3">
                        <use fill="black" fill-opacity="1" filter="url(#filter-8)" xlink:href="#path-7"></use>
                        <use fill="#C9E3E7" fill-rule="evenodd" xlink:href="#path-7"></use>
                    </g>
                    <g id="Rectangle-12-Copy-5">
                        <use fill="black" fill-opacity="1" filter="url(#filter-10)" xlink:href="#path-9"></use>
                        <use fill="#C9E3E7" fill-rule="evenodd" xlink:href="#path-9"></use>
                    </g>
                    <g id="Rectangle-12-Copy-4">
                        <use fill="black" fill-opacity="1" filter="url(#filter-12)" xlink:href="#path-11"></use>
                        <use fill="#C9E3E7" fill-rule="evenodd" xlink:href="#path-11"></use>
                    </g>
                    <rect id="Rectangle-12-Copy" fill="#44D6FF" x="330" y="34.4140625" width="18" height="18"></rect>
                    <path d="M445.66677,68.9759457 C434.81321,64.0060136 413.106091,72.9518915 420.506245,86.3707083 C427.906399,99.7895252 440.733334,97.8015523 443.693395,94.819593 C446.653457,91.8376337 458.493704,73.4488847 432.839836,65" id="Path-11" stroke="#44D6FF" stroke-width="2" style="mix-blend-mode: multiply;"></path>
                    <rect id="Rectangle-12-Copy-6" fill="#C9E3E7" x="425" y="72.4140625" width="18" height="18"></rect>
                </g>
            </g>
        </g>
    </g>
</svg>