<?xml version="1.0" encoding="UTF-8"?>
<svg width="568px" height="97px" viewBox="0 0 568 97" version="1.1" xmlns="http://www.w3.org/2000/svg" xmlns:xlink="http://www.w3.org/1999/xlink">
    <!-- Generator: Sketch 50.2 (55047) - http://www.bohemiancoding.com/sketch -->
    <title>Icon-art Speed</title>
    <desc>Created with Sketch.</desc>
    <defs></defs>
    <g id="Page-1" stroke="none" stroke-width="1" fill="none" fill-rule="evenodd">
        <g id="Viren-Copy-3" transform="translate(-1179.000000, -1174.000000)">
            <g id="Speed" transform="translate(557.000000, 1096.000000)">
                <g id="Icon-art-Speed" transform="translate(622.000000, 78.000000)">
                    <g id="Cogs" transform="translate(74.000000, 0.000000)" fill-rule="nonzero">
                        <g id="Group" transform="translate(29.000000, 3.000000)" fill="#41CFF6">
                            <path d="M39.2247751,16.7382692 L34.5284453,16.7382692 C34.2792161,15.9453478 33.9616928,15.1790345 33.58031,14.4464248 L36.900114,11.1275077 C37.9821768,10.044558 37.9821768,8.28310174 36.900114,7.20192592 L34.798961,5.1007729 C33.7506018,4.05241373 31.9208515,4.0515268 30.8724923,5.1007729 L27.5526883,8.42057693 C26.8200786,8.03830722 26.0537653,7.72167082 25.2617308,7.47244161 L25.2617308,2.77611184 C25.2617308,1.24525911 24.0164717,0 22.485619,0 L19.5134941,0 C17.9826414,0 16.7373823,1.24525911 16.7373823,2.77611184 L16.7373823,7.47155467 C15.9444609,7.72078388 15.1781476,8.03830722 14.4455379,8.41968999 L11.1266208,5.09988597 C10.0773747,4.05063986 8.24851121,4.05063986 7.20103898,5.09988597 L5.1007729,7.20103898 C4.57570638,7.72521857 4.28656502,8.42323774 4.28656502,9.16471681 C4.28656502,9.90619589 4.57570638,10.6033281 5.09988597,11.1275077 L8.41880306,14.4473117 C8.03742028,15.1799214 7.71989695,15.9462347 7.47155467,16.7382692 L2.77611184,16.7382692 C1.24525911,16.7382692 0,17.9835283 0,19.514381 L0,22.4865059 C0,24.0173586 1.24525911,25.2626177 2.77611184,25.2626177 L7.47155467,25.2626177 C7.72078388,26.0546522 8.03742028,26.8209655 8.41880306,27.5535752 L5.09988597,30.8733792 C4.57570638,31.3975588 4.28656502,32.0946911 4.28656502,32.8361701 C4.28656502,33.5776492 4.57570638,34.2747814 5.09988597,34.798961 L7.20103898,36.900114 C8.25028509,37.9493601 10.0782616,37.9493601 11.1275077,36.900114 L14.4464248,33.58031 C15.1790345,33.9625797 15.9462347,34.2792161 16.7382692,34.5275584 L16.7382692,39.2238882 C16.7382692,40.7547409 17.9835283,42 19.514381,42 L22.4865059,42 C24.0173586,42 25.2626177,40.7547409 25.2626177,39.2238882 L25.2626177,34.5284453 C26.0546522,34.2801031 26.8209655,33.9625797 27.5535752,33.5811969 L30.8724923,36.901001 C31.9217384,37.9502471 33.7514888,37.9493601 34.798961,36.901001 L36.900114,34.799848 C37.9821768,33.7177852 37.9821768,31.9563289 36.900114,30.8742662 L33.58031,27.5544621 C33.9625797,26.8218524 34.2792161,26.0555391 34.5284453,25.2635047 L39.2238882,25.2635047 C40.7547409,25.2635047 42,24.0182456 42,22.4873928 L42,19.515268 C42,17.9835283 40.7547409,16.7382692 39.2247751,16.7382692 Z M40.2261266,22.4865059 C40.2261266,23.0390674 39.7764497,23.4887444 39.2238882,23.4887444 L33.860582,23.4887444 C33.4579127,23.4887444 33.1049119,23.7610339 33.0029142,24.1512861 C32.7155467,25.2466529 32.2827216,26.2932382 31.7159691,27.261773 C31.5119736,27.6094522 31.5687376,28.0520336 31.8543312,28.3367403 L35.6450986,32.1275077 C36.0362377,32.5186468 36.0362377,33.1545804 35.6450986,33.5448325 L33.5430587,35.6459856 C33.1661106,36.0247075 32.5053427,36.0247075 32.1257338,35.6459856 L28.3349664,31.8543312 C28.0502597,31.5696245 27.6076783,31.5119736 27.2599992,31.7159691 C26.2914643,32.2836086 25.244879,32.7164337 24.1503991,33.0029142 C23.760147,33.1049119 23.4878574,33.4570258 23.4878574,33.860582 L23.4878574,39.2238882 C23.4878574,39.7764497 23.0381805,40.2261266 22.485619,40.2261266 L19.5134941,40.2261266 C18.9609326,40.2261266 18.5112556,39.7764497 18.5112556,39.2238882 L18.5112556,33.860582 C18.5112556,33.4570258 18.2389661,33.104025 17.8487139,33.0029142 C16.7533471,32.7164337 15.7076488,32.2836086 14.7391139,31.7159691 C14.5998648,31.6343709 14.4446509,31.5944588 14.2912109,31.5944588 C14.0614943,31.5944588 13.8344385,31.6831524 13.6632597,31.8543312 L9.87249229,35.6459856 C9.49377033,36.0247075 8.83388943,36.0247075 8.45516746,35.6459856 L6.35401444,33.5439456 C6.16509693,33.3550281 6.0604384,33.1031381 6.0604384,32.8361701 C6.0604384,32.5683152 6.16509693,32.3164252 6.35401444,32.1275077 L10.1447819,28.3367403 C10.4303755,28.0520336 10.4871394,27.6094522 10.283144,27.261773 C9.7155045,26.2923512 9.28267939,25.2457659 8.99619884,24.1512861 C8.89420112,23.7610339 8.54120032,23.4887444 8.13853106,23.4887444 L2.77611184,23.4887444 C2.22355028,23.4887444 1.77387338,23.0390674 1.77387338,22.4865059 L1.77387338,19.514381 C1.77387338,18.9618195 2.22355028,18.5121426 2.77611184,18.5121426 L8.139418,18.5121426 C8.54297419,18.5121426 8.89508806,18.239853 8.99708578,17.8496009 C9.28445327,16.7542341 9.71639143,15.7076488 10.2840309,14.7391139 C10.4880264,14.3905478 10.4312624,13.9488533 10.1456688,13.6641466 L6.35490138,9.87337923 C6.16598387,9.68446171 6.06132534,9.43168476 6.06132534,9.16471681 C6.06132534,8.89686193 6.16598387,8.64585885 6.35490138,8.4560544 L8.45694134,6.35490138 C8.83477637,5.97617941 9.4955442,5.97617941 9.87426617,6.35490138 L13.6650336,10.1465557 C13.9497403,10.4330363 14.3932086,10.4889133 14.7400008,10.2849179 C15.7076488,9.71816531 16.7542341,9.2853402 17.8504878,8.99797272 C18.24074,8.895975 18.5130295,8.54297419 18.5130295,8.14030494 L18.5130295,2.77611184 C18.5130295,2.22355028 18.9627064,1.77387338 19.515268,1.77387338 L22.4873928,1.77387338 C23.0399544,1.77387338 23.4896313,2.22355028 23.4896313,2.77611184 L23.4896313,8.139418 C23.4896313,8.54297419 23.7619209,8.89508806 24.152173,8.99708578 C25.2475398,9.28445327 26.2941251,9.71639143 27.26266,10.2840309 C27.6103391,10.4889133 28.0529206,10.4312624 28.3376272,10.1456688 L32.1292816,6.35401444 C32.5071166,5.97529248 33.1678844,5.97617941 33.5466064,6.35401444 L35.6477594,8.45516746 C36.0380116,8.84541961 36.0380116,9.48135321 35.6477594,9.87249229 L31.8561051,13.6632597 C31.5705115,13.9488533 31.5137475,14.3905478 31.717743,14.738227 C32.2844955,15.7058749 32.7173206,16.7524602 33.0046881,17.8487139 C33.1066858,18.2389661 33.4596866,18.5112556 33.8623559,18.5112556 L39.225662,18.5112556 C39.7782236,18.5112556 40.2279005,18.9609326 40.2279005,19.5134941 L40.2279005,22.4865059 L40.2261266,22.4865059 Z" id="Shape"></path>
                            <path d="M20.5,12 C19.0805656,12 17.6751157,12.3574991 16.4357326,13.0331637 C16.0118252,13.263921 15.8553728,13.7953622 16.0869923,14.2184174 C16.3186118,14.6414726 16.8482776,14.7996812 17.2730591,14.5671757 C18.2563496,14.03049 19.3724936,13.7472878 20.500874,13.7472878 C24.2242674,13.7472878 27.2528021,16.7759782 27.2528021,20.499563 C27.2528021,24.2231477 24.2242674,27.2518381 20.500874,27.2518381 C16.7774807,27.2518381 13.748946,24.2231477 13.748946,20.499563 C13.748946,19.4655252 13.9761954,18.4734434 14.4245758,17.5521621 C14.6352185,17.1177438 14.4551671,16.5950434 14.0207712,16.3835159 C13.5863753,16.1719883 13.0637018,16.3520489 12.8521851,16.7873413 C12.2875578,17.9489948 12,19.1980565 12,20.499563 C12,25.1863849 15.813419,29 20.5,29 C25.186581,29 29,25.1863849 29,20.499563 C29,15.812741 25.187455,12 20.5,12 Z" id="Shape"></path>
                        </g>
                        <g id="Group-Copy" transform="translate(54.000000, 39.000000)" fill="#000000" opacity="0.232868304">
                            <path d="M28.0176965,11.9559066 L24.6631752,11.9559066 C24.4851544,11.3895341 24.258352,10.8421675 23.9859357,10.3188749 L26.3572243,7.94821979 C27.1301263,7.17468429 27.1301263,5.91650125 26.3572243,5.1442328 L24.8564007,3.64340922 C24.1075727,2.89458124 22.8006082,2.89394771 22.0517802,3.64340922 L19.6804916,6.01469781 C19.157199,5.74164801 18.6098323,5.51547916 18.0440934,5.33745829 L18.0440934,1.98293703 C18.0440934,0.889470794 17.1546226,0 16.0611564,0 L13.9382101,0 C12.8447438,0 11.955273,0.889470794 11.955273,1.98293703 L11.955273,5.33682477 C11.3889006,5.51484563 10.841534,5.74164801 10.3182413,6.01406428 L7.94758627,3.64277569 C7.19812476,2.89331419 5.89179372,2.89331419 5.14359927,3.64277569 L3.64340922,5.14359927 C3.2683617,5.51801326 3.06183216,6.01659839 3.06183216,6.5462263 C3.06183216,7.0758542 3.2683617,7.5738058 3.64277569,7.94821979 L6.01343076,10.3195084 C5.74101449,10.842801 5.5142121,11.3901677 5.33682477,11.9559066 L1.98293703,11.9559066 C0.889470794,11.9559066 0,12.8453774 0,13.9388436 L0,16.0617899 C0,17.1552562 0.889470794,18.044727 1.98293703,18.044727 L5.33682477,18.044727 C5.51484563,18.6104659 5.74101449,19.1578325 6.01343076,19.6811251 L3.64277569,22.0524137 C3.2683617,22.4268277 3.06183216,22.9247793 3.06183216,23.4544072 C3.06183216,23.9840351 3.2683617,24.4819867 3.64277569,24.8564007 L5.14359927,26.3572243 C5.89306078,27.1066858 7.19875829,27.1066858 7.94821979,26.3572243 L10.3188749,23.9859357 C10.8421675,24.2589855 11.3901677,24.4851544 11.9559066,24.6625417 L11.9559066,28.017063 C11.9559066,29.1105292 12.8453774,30 13.9388436,30 L16.0617899,30 C17.1552562,30 18.044727,29.1105292 18.044727,28.017063 L18.044727,24.6631752 C18.6104659,24.4857879 19.1578325,24.2589855 19.6811251,23.9865692 L22.0517802,26.3578578 C22.8012417,27.1073193 24.1082063,27.1066858 24.8564007,26.3578578 L26.3572243,24.8570343 C27.1301263,24.0841323 27.1301263,22.8259492 26.3572243,22.0530473 L23.9859357,19.6817587 C24.2589855,19.158466 24.4851544,18.6110994 24.6631752,18.0453605 L28.017063,18.0453605 C29.1105292,18.0453605 30,17.1558897 30,16.0624234 L30,13.9394771 C30,12.8453774 29.1105292,11.9559066 28.0176965,11.9559066 Z M28.7329476,16.0617899 C28.7329476,16.4564767 28.4117498,16.7776745 28.017063,16.7776745 L24.18613,16.7776745 C23.8985091,16.7776745 23.6463657,16.9721671 23.5735102,17.2509186 C23.3682477,18.0333235 23.0590869,18.7808844 22.6542636,19.472695 C22.5085526,19.7210373 22.5490983,20.0371669 22.7530937,20.2405288 L25.4607847,22.9482198 C25.7401698,23.2276048 25.7401698,23.6818431 25.4607847,23.9605947 L23.9593276,25.4614183 C23.690079,25.7319339 23.218102,25.7319339 22.9469527,25.4614183 L20.2392617,22.7530937 C20.0358998,22.5497318 19.7197702,22.5085526 19.471428,22.6542636 C18.7796174,23.0597204 18.0320564,23.3688812 17.2502851,23.5735102 C16.9715336,23.6463657 16.777041,23.8978756 16.777041,24.18613 L16.777041,28.017063 C16.777041,28.4117498 16.4558432,28.7329476 16.0611564,28.7329476 L13.9382101,28.7329476 C13.5435233,28.7329476 13.2223255,28.4117498 13.2223255,28.017063 L13.2223255,24.18613 C13.2223255,23.8978756 13.0278329,23.6457321 12.7490814,23.5735102 C11.9666765,23.3688812 11.2197491,23.0597204 10.5279385,22.6542636 C10.4284749,22.5959792 10.3176078,22.5674705 10.2080078,22.5674705 C10.0439245,22.5674705 9.88174177,22.6308232 9.75947122,22.7530937 L7.05178021,25.4614183 C6.78126452,25.7319339 6.30992102,25.7319339 6.03940533,25.4614183 L4.53858175,23.9599611 C4.40364066,23.8250201 4.32888457,23.6450986 4.32888457,23.4544072 C4.32888457,23.2630823 4.40364066,23.0831609 4.53858175,22.9482198 L7.24627275,20.2405288 C7.45026819,20.0371669 7.49081387,19.7210373 7.34510284,19.472695 C6.93964607,18.7802509 6.63048528,18.03269 6.42585632,17.2509186 C6.3530008,16.9721671 6.10085737,16.7776745 5.81323647,16.7776745 L1.98293703,16.7776745 C1.5882502,16.7776745 1.26705241,16.4564767 1.26705241,16.0617899 L1.26705241,13.9388436 C1.26705241,13.5441568 1.5882502,13.222959 1.98293703,13.222959 L5.81387,13.222959 C6.10212442,13.222959 6.35363433,13.0284664 6.42648984,12.7497149 C6.63175233,11.96731 6.9402796,11.2197491 7.34573637,10.5279385 C7.4914474,10.2789627 7.45090172,9.96346666 7.24690628,9.76010474 L4.53921527,7.05241373 C4.40427419,6.91747265 4.3295181,6.73691768 4.3295181,6.5462263 C4.3295181,6.35490138 4.40427419,6.17561346 4.53921527,6.04003886 L6.04067238,4.53921527 C6.31055455,4.26869958 6.78253157,4.26869958 7.05304726,4.53921527 L9.76073827,7.24753981 C9.96410018,7.45216877 10.2808633,7.49208092 10.528572,7.34636989 C11.2197491,6.94154665 11.96731,6.63238586 12.7503484,6.42712337 C13.0291,6.35426785 13.2235925,6.10212442 13.2235925,5.81450353 L13.2235925,1.98293703 C13.2235925,1.5882502 13.5447903,1.26705241 13.9394771,1.26705241 L16.0624234,1.26705241 C16.4571103,1.26705241 16.7783081,1.5882502 16.7783081,1.98293703 L16.7783081,5.81387 C16.7783081,6.10212442 16.9728006,6.35363433 17.2515521,6.42648984 C18.033957,6.63175233 18.7815179,6.9402796 19.4733285,7.34573637 C19.7216708,7.49208092 20.0378004,7.45090172 20.2411623,7.24690628 L22.9494868,4.53858175 C23.219369,4.26806606 23.691346,4.26869958 23.9618617,4.53858175 L25.4626853,6.03940533 C25.7414368,6.31815686 25.7414368,6.77239515 25.4626853,7.05178021 L22.7543608,9.75947122 C22.5503653,9.96346666 22.5098197,10.2789627 22.6555307,10.527305 C23.0603539,11.2184821 23.3695147,11.966043 23.5747772,12.7490814 C23.6476327,13.0278329 23.8997762,13.2223255 24.1873971,13.2223255 L28.01833,13.2223255 C28.4130169,13.2223255 28.7342146,13.5435233 28.7342146,13.9382101 L28.7342146,16.0617899 L28.7329476,16.0617899 Z" id="Shape"></path>
                            <path d="M15,9 C13.9980463,9 13.005964,9.25235231 12.1311054,9.72929199 C11.8318766,9.89217955 11.7214396,10.2673145 11.8849357,10.5659417 C12.0484319,10.8645689 12.4223136,10.9762456 12.7221594,10.812124 C13.4162468,10.4332871 14.2041131,10.2333796 15.000617,10.2333796 C17.6288946,10.2333796 19.7666838,12.3712787 19.7666838,14.9996915 C19.7666838,17.6281043 17.6288946,19.7660034 15.000617,19.7660034 C12.3723393,19.7660034 10.2345501,17.6281043 10.2345501,14.9996915 C10.2345501,14.2697825 10.3949614,13.5694894 10.7114653,12.9191732 C10.8601542,12.6125251 10.7330591,12.2435601 10.4264267,12.0942465 C10.1197943,11.9449329 9.75084833,12.0720346 9.60154242,12.3792997 C9.20298201,13.1992905 9,14.080981 9,14.9996915 C9,18.3080364 11.6918252,21 15,21 C18.3081748,21 21,18.3080364 21,14.9996915 C21,11.6913466 18.3087918,9 15,9 Z" id="Shape"></path>
                        </g>
                        <g id="Group-Copy-3" transform="translate(59.000000, 82.000000) rotate(-30.000000) translate(-59.000000, -82.000000) translate(44.000000, 67.000000)" fill="#000000" opacity="0.232868304">
                            <path d="M28.0176965,11.9559066 L24.6631752,11.9559066 C24.4851544,11.3895341 24.258352,10.8421675 23.9859357,10.3188749 L26.3572243,7.94821979 C27.1301263,7.17468429 27.1301263,5.91650125 26.3572243,5.1442328 L24.8564007,3.64340922 C24.1075727,2.89458124 22.8006082,2.89394771 22.0517802,3.64340922 L19.6804916,6.01469781 C19.157199,5.74164801 18.6098323,5.51547916 18.0440934,5.33745829 L18.0440934,1.98293703 C18.0440934,0.889470794 17.1546226,0 16.0611564,0 L13.9382101,0 C12.8447438,0 11.955273,0.889470794 11.955273,1.98293703 L11.955273,5.33682477 C11.3889006,5.51484563 10.841534,5.74164801 10.3182413,6.01406428 L7.94758627,3.64277569 C7.19812476,2.89331419 5.89179372,2.89331419 5.14359927,3.64277569 L3.64340922,5.14359927 C3.2683617,5.51801326 3.06183216,6.01659839 3.06183216,6.5462263 C3.06183216,7.0758542 3.2683617,7.5738058 3.64277569,7.94821979 L6.01343076,10.3195084 C5.74101449,10.842801 5.5142121,11.3901677 5.33682477,11.9559066 L1.98293703,11.9559066 C0.889470794,11.9559066 0,12.8453774 0,13.9388436 L0,16.0617899 C0,17.1552562 0.889470794,18.044727 1.98293703,18.044727 L5.33682477,18.044727 C5.51484563,18.6104659 5.74101449,19.1578325 6.01343076,19.6811251 L3.64277569,22.0524137 C3.2683617,22.4268277 3.06183216,22.9247793 3.06183216,23.4544072 C3.06183216,23.9840351 3.2683617,24.4819867 3.64277569,24.8564007 L5.14359927,26.3572243 C5.89306078,27.1066858 7.19875829,27.1066858 7.94821979,26.3572243 L10.3188749,23.9859357 C10.8421675,24.2589855 11.3901677,24.4851544 11.9559066,24.6625417 L11.9559066,28.017063 C11.9559066,29.1105292 12.8453774,30 13.9388436,30 L16.0617899,30 C17.1552562,30 18.044727,29.1105292 18.044727,28.017063 L18.044727,24.6631752 C18.6104659,24.4857879 19.1578325,24.2589855 19.6811251,23.9865692 L22.0517802,26.3578578 C22.8012417,27.1073193 24.1082063,27.1066858 24.8564007,26.3578578 L26.3572243,24.8570343 C27.1301263,24.0841323 27.1301263,22.8259492 26.3572243,22.0530473 L23.9859357,19.6817587 C24.2589855,19.158466 24.4851544,18.6110994 24.6631752,18.0453605 L28.017063,18.0453605 C29.1105292,18.0453605 30,17.1558897 30,16.0624234 L30,13.9394771 C30,12.8453774 29.1105292,11.9559066 28.0176965,11.9559066 Z M28.7329476,16.0617899 C28.7329476,16.4564767 28.4117498,16.7776745 28.017063,16.7776745 L24.18613,16.7776745 C23.8985091,16.7776745 23.6463657,16.9721671 23.5735102,17.2509186 C23.3682477,18.0333235 23.0590869,18.7808844 22.6542636,19.472695 C22.5085526,19.7210373 22.5490983,20.0371669 22.7530937,20.2405288 L25.4607847,22.9482198 C25.7401698,23.2276048 25.7401698,23.6818431 25.4607847,23.9605947 L23.9593276,25.4614183 C23.690079,25.7319339 23.218102,25.7319339 22.9469527,25.4614183 L20.2392617,22.7530937 C20.0358998,22.5497318 19.7197702,22.5085526 19.471428,22.6542636 C18.7796174,23.0597204 18.0320564,23.3688812 17.2502851,23.5735102 C16.9715336,23.6463657 16.777041,23.8978756 16.777041,24.18613 L16.777041,28.017063 C16.777041,28.4117498 16.4558432,28.7329476 16.0611564,28.7329476 L13.9382101,28.7329476 C13.5435233,28.7329476 13.2223255,28.4117498 13.2223255,28.017063 L13.2223255,24.18613 C13.2223255,23.8978756 13.0278329,23.6457321 12.7490814,23.5735102 C11.9666765,23.3688812 11.2197491,23.0597204 10.5279385,22.6542636 C10.4284749,22.5959792 10.3176078,22.5674705 10.2080078,22.5674705 C10.0439245,22.5674705 9.88174177,22.6308232 9.75947122,22.7530937 L7.05178021,25.4614183 C6.78126452,25.7319339 6.30992102,25.7319339 6.03940533,25.4614183 L4.53858175,23.9599611 C4.40364066,23.8250201 4.32888457,23.6450986 4.32888457,23.4544072 C4.32888457,23.2630823 4.40364066,23.0831609 4.53858175,22.9482198 L7.24627275,20.2405288 C7.45026819,20.0371669 7.49081387,19.7210373 7.34510284,19.472695 C6.93964607,18.7802509 6.63048528,18.03269 6.42585632,17.2509186 C6.3530008,16.9721671 6.10085737,16.7776745 5.81323647,16.7776745 L1.98293703,16.7776745 C1.5882502,16.7776745 1.26705241,16.4564767 1.26705241,16.0617899 L1.26705241,13.9388436 C1.26705241,13.5441568 1.5882502,13.222959 1.98293703,13.222959 L5.81387,13.222959 C6.10212442,13.222959 6.35363433,13.0284664 6.42648984,12.7497149 C6.63175233,11.96731 6.9402796,11.2197491 7.34573637,10.5279385 C7.4914474,10.2789627 7.45090172,9.96346666 7.24690628,9.76010474 L4.53921527,7.05241373 C4.40427419,6.91747265 4.3295181,6.73691768 4.3295181,6.5462263 C4.3295181,6.35490138 4.40427419,6.17561346 4.53921527,6.04003886 L6.04067238,4.53921527 C6.31055455,4.26869958 6.78253157,4.26869958 7.05304726,4.53921527 L9.76073827,7.24753981 C9.96410018,7.45216877 10.2808633,7.49208092 10.528572,7.34636989 C11.2197491,6.94154665 11.96731,6.63238586 12.7503484,6.42712337 C13.0291,6.35426785 13.2235925,6.10212442 13.2235925,5.81450353 L13.2235925,1.98293703 C13.2235925,1.5882502 13.5447903,1.26705241 13.9394771,1.26705241 L16.0624234,1.26705241 C16.4571103,1.26705241 16.7783081,1.5882502 16.7783081,1.98293703 L16.7783081,5.81387 C16.7783081,6.10212442 16.9728006,6.35363433 17.2515521,6.42648984 C18.033957,6.63175233 18.7815179,6.9402796 19.4733285,7.34573637 C19.7216708,7.49208092 20.0378004,7.45090172 20.2411623,7.24690628 L22.9494868,4.53858175 C23.219369,4.26806606 23.691346,4.26869958 23.9618617,4.53858175 L25.4626853,6.03940533 C25.7414368,6.31815686 25.7414368,6.77239515 25.4626853,7.05178021 L22.7543608,9.75947122 C22.5503653,9.96346666 22.5098197,10.2789627 22.6555307,10.527305 C23.0603539,11.2184821 23.3695147,11.966043 23.5747772,12.7490814 C23.6476327,13.0278329 23.8997762,13.2223255 24.1873971,13.2223255 L28.01833,13.2223255 C28.4130169,13.2223255 28.7342146,13.5435233 28.7342146,13.9382101 L28.7342146,16.0617899 L28.7329476,16.0617899 Z" id="Shape"></path>
                            <path d="M15,9 C13.9980463,9 13.005964,9.25235231 12.1311054,9.72929199 C11.8318766,9.89217955 11.7214396,10.2673145 11.8849357,10.5659417 C12.0484319,10.8645689 12.4223136,10.9762456 12.7221594,10.812124 C13.4162468,10.4332871 14.2041131,10.2333796 15.000617,10.2333796 C17.6288946,10.2333796 19.7666838,12.3712787 19.7666838,14.9996915 C19.7666838,17.6281043 17.6288946,19.7660034 15.000617,19.7660034 C12.3723393,19.7660034 10.2345501,17.6281043 10.2345501,14.9996915 C10.2345501,14.2697825 10.3949614,13.5694894 10.7114653,12.9191732 C10.8601542,12.6125251 10.7330591,12.2435601 10.4264267,12.0942465 C10.1197943,11.9449329 9.75084833,12.0720346 9.60154242,12.3792997 C9.20298201,13.1992905 9,14.080981 9,14.9996915 C9,18.3080364 11.6918252,21 15,21 C18.3081748,21 21,18.3080364 21,14.9996915 C21,11.6913466 18.3087918,9 15,9 Z" id="Shape"></path>
                        </g>
                        <g id="Group-Copy-2" fill="#000000" opacity="0.232868304">
                            <path d="M28.0176965,11.9559066 L24.6631752,11.9559066 C24.4851544,11.3895341 24.258352,10.8421675 23.9859357,10.3188749 L26.3572243,7.94821979 C27.1301263,7.17468429 27.1301263,5.91650125 26.3572243,5.1442328 L24.8564007,3.64340922 C24.1075727,2.89458124 22.8006082,2.89394771 22.0517802,3.64340922 L19.6804916,6.01469781 C19.157199,5.74164801 18.6098323,5.51547916 18.0440934,5.33745829 L18.0440934,1.98293703 C18.0440934,0.889470794 17.1546226,0 16.0611564,0 L13.9382101,0 C12.8447438,0 11.955273,0.889470794 11.955273,1.98293703 L11.955273,5.33682477 C11.3889006,5.51484563 10.841534,5.74164801 10.3182413,6.01406428 L7.94758627,3.64277569 C7.19812476,2.89331419 5.89179372,2.89331419 5.14359927,3.64277569 L3.64340922,5.14359927 C3.2683617,5.51801326 3.06183216,6.01659839 3.06183216,6.5462263 C3.06183216,7.0758542 3.2683617,7.5738058 3.64277569,7.94821979 L6.01343076,10.3195084 C5.74101449,10.842801 5.5142121,11.3901677 5.33682477,11.9559066 L1.98293703,11.9559066 C0.889470794,11.9559066 0,12.8453774 0,13.9388436 L0,16.0617899 C0,17.1552562 0.889470794,18.044727 1.98293703,18.044727 L5.33682477,18.044727 C5.51484563,18.6104659 5.74101449,19.1578325 6.01343076,19.6811251 L3.64277569,22.0524137 C3.2683617,22.4268277 3.06183216,22.9247793 3.06183216,23.4544072 C3.06183216,23.9840351 3.2683617,24.4819867 3.64277569,24.8564007 L5.14359927,26.3572243 C5.89306078,27.1066858 7.19875829,27.1066858 7.94821979,26.3572243 L10.3188749,23.9859357 C10.8421675,24.2589855 11.3901677,24.4851544 11.9559066,24.6625417 L11.9559066,28.017063 C11.9559066,29.1105292 12.8453774,30 13.9388436,30 L16.0617899,30 C17.1552562,30 18.044727,29.1105292 18.044727,28.017063 L18.044727,24.6631752 C18.6104659,24.4857879 19.1578325,24.2589855 19.6811251,23.9865692 L22.0517802,26.3578578 C22.8012417,27.1073193 24.1082063,27.1066858 24.8564007,26.3578578 L26.3572243,24.8570343 C27.1301263,24.0841323 27.1301263,22.8259492 26.3572243,22.0530473 L23.9859357,19.6817587 C24.2589855,19.158466 24.4851544,18.6110994 24.6631752,18.0453605 L28.017063,18.0453605 C29.1105292,18.0453605 30,17.1558897 30,16.0624234 L30,13.9394771 C30,12.8453774 29.1105292,11.9559066 28.0176965,11.9559066 Z M28.7329476,16.0617899 C28.7329476,16.4564767 28.4117498,16.7776745 28.017063,16.7776745 L24.18613,16.7776745 C23.8985091,16.7776745 23.6463657,16.9721671 23.5735102,17.2509186 C23.3682477,18.0333235 23.0590869,18.7808844 22.6542636,19.472695 C22.5085526,19.7210373 22.5490983,20.0371669 22.7530937,20.2405288 L25.4607847,22.9482198 C25.7401698,23.2276048 25.7401698,23.6818431 25.4607847,23.9605947 L23.9593276,25.4614183 C23.690079,25.7319339 23.218102,25.7319339 22.9469527,25.4614183 L20.2392617,22.7530937 C20.0358998,22.5497318 19.7197702,22.5085526 19.471428,22.6542636 C18.7796174,23.0597204 18.0320564,23.3688812 17.2502851,23.5735102 C16.9715336,23.6463657 16.777041,23.8978756 16.777041,24.18613 L16.777041,28.017063 C16.777041,28.4117498 16.4558432,28.7329476 16.0611564,28.7329476 L13.9382101,28.7329476 C13.5435233,28.7329476 13.2223255,28.4117498 13.2223255,28.017063 L13.2223255,24.18613 C13.2223255,23.8978756 13.0278329,23.6457321 12.7490814,23.5735102 C11.9666765,23.3688812 11.2197491,23.0597204 10.5279385,22.6542636 C10.4284749,22.5959792 10.3176078,22.5674705 10.2080078,22.5674705 C10.0439245,22.5674705 9.88174177,22.6308232 9.75947122,22.7530937 L7.05178021,25.4614183 C6.78126452,25.7319339 6.30992102,25.7319339 6.03940533,25.4614183 L4.53858175,23.9599611 C4.40364066,23.8250201 4.32888457,23.6450986 4.32888457,23.4544072 C4.32888457,23.2630823 4.40364066,23.0831609 4.53858175,22.9482198 L7.24627275,20.2405288 C7.45026819,20.0371669 7.49081387,19.7210373 7.34510284,19.472695 C6.93964607,18.7802509 6.63048528,18.03269 6.42585632,17.2509186 C6.3530008,16.9721671 6.10085737,16.7776745 5.81323647,16.7776745 L1.98293703,16.7776745 C1.5882502,16.7776745 1.26705241,16.4564767 1.26705241,16.0617899 L1.26705241,13.9388436 C1.26705241,13.5441568 1.5882502,13.222959 1.98293703,13.222959 L5.81387,13.222959 C6.10212442,13.222959 6.35363433,13.0284664 6.42648984,12.7497149 C6.63175233,11.96731 6.9402796,11.2197491 7.34573637,10.5279385 C7.4914474,10.2789627 7.45090172,9.96346666 7.24690628,9.76010474 L4.53921527,7.05241373 C4.40427419,6.91747265 4.3295181,6.73691768 4.3295181,6.5462263 C4.3295181,6.35490138 4.40427419,6.17561346 4.53921527,6.04003886 L6.04067238,4.53921527 C6.31055455,4.26869958 6.78253157,4.26869958 7.05304726,4.53921527 L9.76073827,7.24753981 C9.96410018,7.45216877 10.2808633,7.49208092 10.528572,7.34636989 C11.2197491,6.94154665 11.96731,6.63238586 12.7503484,6.42712337 C13.0291,6.35426785 13.2235925,6.10212442 13.2235925,5.81450353 L13.2235925,1.98293703 C13.2235925,1.5882502 13.5447903,1.26705241 13.9394771,1.26705241 L16.0624234,1.26705241 C16.4571103,1.26705241 16.7783081,1.5882502 16.7783081,1.98293703 L16.7783081,5.81387 C16.7783081,6.10212442 16.9728006,6.35363433 17.2515521,6.42648984 C18.033957,6.63175233 18.7815179,6.9402796 19.4733285,7.34573637 C19.7216708,7.49208092 20.0378004,7.45090172 20.2411623,7.24690628 L22.9494868,4.53858175 C23.219369,4.26806606 23.691346,4.26869958 23.9618617,4.53858175 L25.4626853,6.03940533 C25.7414368,6.31815686 25.7414368,6.77239515 25.4626853,7.05178021 L22.7543608,9.75947122 C22.5503653,9.96346666 22.5098197,10.2789627 22.6555307,10.527305 C23.0603539,11.2184821 23.3695147,11.966043 23.5747772,12.7490814 C23.6476327,13.0278329 23.8997762,13.2223255 24.1873971,13.2223255 L28.01833,13.2223255 C28.4130169,13.2223255 28.7342146,13.5435233 28.7342146,13.9382101 L28.7342146,16.0617899 L28.7329476,16.0617899 Z" id="Shape"></path>
                            <path d="M15,9 C13.9980463,9 13.005964,9.25235231 12.1311054,9.72929199 C11.8318766,9.89217955 11.7214396,10.2673145 11.8849357,10.5659417 C12.0484319,10.8645689 12.4223136,10.9762456 12.7221594,10.812124 C13.4162468,10.4332871 14.2041131,10.2333796 15.000617,10.2333796 C17.6288946,10.2333796 19.7666838,12.3712787 19.7666838,14.9996915 C19.7666838,17.6281043 17.6288946,19.7660034 15.000617,19.7660034 C12.3723393,19.7660034 10.2345501,17.6281043 10.2345501,14.9996915 C10.2345501,14.2697825 10.3949614,13.5694894 10.7114653,12.9191732 C10.8601542,12.6125251 10.7330591,12.2435601 10.4264267,12.0942465 C10.1197943,11.9449329 9.75084833,12.0720346 9.60154242,12.3792997 C9.20298201,13.1992905 9,14.080981 9,14.9996915 C9,18.3080364 11.6918252,21 15,21 C18.3081748,21 21,18.3080364 21,14.9996915 C21,11.6913466 18.3087918,9 15,9 Z" id="Shape"></path>
                        </g>
                    </g>
                    <g id="Group-3" transform="translate(163.000000, 3.000000)">
                        <rect id="Rectangle-6-Copy-2" fill="#41CFF6" x="20" y="30" width="90" height="1"></rect>
                        <rect id="Rectangle-6-Copy-5" fill="#EAEAEA" x="40" y="40" width="171" height="1"></rect>
                        <rect id="Rectangle-6-Copy" fill="#41CFF6" x="10" y="10" width="395" height="1"></rect>
                        <rect id="Rectangle-6-Copy-3" fill="#EAEAEA" x="0" y="0" width="200" height="1"></rect>
                        <rect id="Rectangle-6-Copy-4" fill="#EAEAEA" x="20" y="20" width="180" height="1"></rect>
                        <rect id="Rectangle-6-Copy-11" fill="#EAEAEA" x="53" y="50" width="30" height="1"></rect>
                        <rect id="Rectangle-6-Copy-10" fill="#EAEAEA" x="10" y="90" width="140" height="1"></rect>
                        <rect id="Rectangle-6-Copy-8" fill="#EAEAEA" x="34" y="70" width="40" height="1"></rect>
                        <rect id="Rectangle-6-Copy-7" fill="#41CFF6" x="50" y="60" width="280" height="1"></rect>
                        <rect id="Rectangle-6-Copy-6" fill="#EAEAEA" x="10" y="80" width="350" height="1"></rect>
                    </g>
                    <g id="cloud-with-down-arrow" transform="translate(0.000000, 33.000000)" fill="#EAEAEA" fill-rule="nonzero">
                        <path d="M108.902523,37.0220571 C108.886654,36.8517207 108.859451,36.6836554 108.839049,36.5155901 C108.782376,36.0386481 108.712102,35.5685195 108.623692,35.1029333 C108.591956,34.9462237 108.557952,34.7895142 108.523948,34.6328047 C108.415136,34.13088 108.288189,33.6380399 108.143107,33.1520132 C108.113637,33.0566248 108.086434,32.9612364 108.056964,32.8681192 C106.322775,27.3628455 102.29447,22.8591501 96.9626895,20.5584726 C96.6385209,20.4176611 96.3030177,20.29729 95.9720483,20.1723766 C95.7770938,20.0996997 95.586673,20.0247517 95.3894516,19.9566171 C94.958738,19.8112634 94.5212237,19.6840788 94.0791756,19.5682501 C92.2475095,9.8045654 83.6831105,2.42559088 73.6996236,2.42559088 C72.7225839,2.42559088 71.7568787,2.50735238 70.8002412,2.64362153 C70.4012645,2.70040034 70.0181561,2.80033105 69.6259801,2.87755023 C69.0977892,2.9842944 68.5718653,3.08876742 68.057276,3.23639233 C67.5449535,3.38174609 67.0530333,3.56570945 66.5565792,3.7496728 C66.2029407,3.88139965 65.8493022,4.01085534 65.5024645,4.16302256 C64.9221346,4.41512049 64.3644739,4.69901455 63.813614,5.00334899 C63.6912006,5.07148356 63.5619866,5.11917777 63.4418402,5.18958349 C59.0326935,1.83054893 53.648774,0 48.1016368,0 C41.0265998,0 34.2235925,2.99565017 29.4336044,8.21702979 C26.5568912,11.3534914 24.5348044,15.1099777 23.5078926,19.1912387 C23.2902689,19.1526291 23.0681114,19.1367311 22.8482208,19.1049349 C22.5988603,19.0663254 22.3563006,19.0277158 22.1069401,19.0027331 C21.4155315,18.9300562 20.719589,18.882362 20.0213797,18.882362 C8.98151114,18.882362 0,27.8806683 0,38.941181 C0,50.0016937 8.98151114,59 20.0213797,59 L43.9101138,59 C45.16145,59 46.1770272,57.9847948 46.1770272,56.7288475 C46.1770272,55.4729001 45.16145,54.457695 43.9101138,54.457695 L20.0213797,54.457695 C11.4796498,54.4554238 4.53382692,47.4966125 4.53382692,38.941181 C4.53382692,30.3857495 11.4796498,23.424667 20.0213797,23.424667 C20.7399913,23.424667 21.4518021,23.4859881 22.1590791,23.5836477 C22.3313645,23.6063592 22.4991161,23.6449688 22.6714015,23.6744938 C23.235863,23.7721534 23.7957906,23.8970667 24.3466506,24.0583186 C27.5384647,24.9804065 30.3698397,26.8972592 32.4327309,29.6589807 C32.8770459,30.2562938 33.5593869,30.5697128 34.2507955,30.5697128 C34.7223135,30.5697128 35.1983653,30.4220879 35.6064097,30.1177535 C36.6083855,29.3682732 36.8146746,27.9442605 36.0643263,26.9404111 C33.9062247,24.049234 31.0861843,21.8825545 27.9057047,20.519863 C28.7331281,17.0904227 30.3585051,13.9176226 32.770501,11.287628 C36.7035959,6.99969205 42.2915375,4.54003387 48.0993698,4.54003387 C52.2047501,4.54003387 56.1945178,5.7823543 59.5971549,8.04896451 C57.4798577,10.0612056 55.7615373,12.5344907 54.6303475,15.3893294 C54.1678972,16.5544307 54.7346255,17.8739703 55.8998191,18.3372854 C56.1741156,18.4463007 56.4574798,18.4985372 56.7363101,18.4985372 C57.6385417,18.4985372 58.4909012,17.9557318 58.8445397,17.06544 C60.0278685,14.0811456 62.0250192,11.6260297 64.5140902,9.87497113 C67.2683901,7.96266071 70.4239336,6.96562476 73.6996236,6.96562476 C80.9900173,6.96562476 87.2988374,12.0234814 89.1237028,18.8891755 C84.6012104,18.882362 80.4391573,20.2745785 76.9481106,22.9091154 C75.9484017,23.6654092 75.7489133,25.0894218 76.5015286,26.0887289 C77.2564108,27.0925783 78.6754986,27.2901686 79.6752075,26.536146 C82.3751014,24.4989222 85.5941185,23.4223959 88.9831541,23.4223959 C89.8377805,23.4223959 90.6697377,23.5086997 91.4858266,23.6449688 C92.4129942,23.7994072 93.2970904,24.0333359 94.1494499,24.3308569 C95.0834183,24.6692586 95.8428343,25.0212872 96.5682466,25.4278235 C96.6861261,25.493687 96.7994717,25.568635 96.9173512,25.6390407 C97.5430194,26.0115097 98.1369507,26.4225883 98.6991452,26.8745477 C98.8714307,27.0153592 99.0369153,27.1652552 99.2024,27.3128801 C99.6399143,27.6967049 100.050226,28.1077835 100.440135,28.5393025 C100.607886,28.725537 100.784706,28.9026869 100.94339,29.098006 C101.360502,29.604473 101.732275,30.1450073 102.08138,30.7037108 C102.217395,30.9194703 102.355677,31.137501 102.480357,31.3600739 C102.81586,31.9619293 103.115093,32.5864963 103.368987,33.2337747 C103.446062,33.4290938 103.516336,33.6266841 103.584344,33.8242744 C103.82917,34.532874 104.037726,35.2596428 104.180542,36.0091231 C104.205478,36.1363076 104.21908,36.2703056 104.239482,36.3997613 C104.375497,37.228732 104.466173,38.0736007 104.466173,38.941181 C104.466173,47.4966125 97.5203502,54.457695 88.9786203,54.457695 L43.9101138,54.457695 C42.6587775,54.457695 46.1770272,55.4729001 46.1770272,56.7288475 L43.9101138,59 L88.9786203,59 C100.018489,59 109,50.0016937 109,38.941181 C109,38.2939025 108.961462,37.6534375 108.902523,37.0220571 Z" id="Shape"></path>
                    </g>
                </g>
            </g>
        </g>
    </g>
</svg>