<?xml version="1.0" encoding="UTF-8"?>
<svg width="573px" height="239px" viewBox="0 0 573 239" version="1.1" xmlns="http://www.w3.org/2000/svg" xmlns:xlink="http://www.w3.org/1999/xlink">
    <!-- Generator: Sketch 50.2 (55047) - http://www.bohemiancoding.com/sketch -->
    <title>4 - Graph</title>
    <desc>Created with Sketch.</desc>
    <defs>
        <linearGradient x1="50%" y1="0%" x2="50%" y2="100%" id="linearGradient-1">
            <stop stop-color="#41CFF6" offset="0%"></stop>
            <stop stop-color="#87FB85" stop-opacity="0" offset="100%"></stop>
        </linearGradient>
        <linearGradient x1="50%" y1="0%" x2="50%" y2="100%" id="linearGradient-2">
            <stop stop-color="#AAAAAA" offset="0%"></stop>
            <stop stop-color="#FFFFFF" stop-opacity="0" offset="100%"></stop>
        </linearGradient>
    </defs>
    <g id="Page-1" stroke="none" stroke-width="1" fill="none" fill-rule="evenodd">
        <g id="Viren-Copy-3" transform="translate(-234.000000, -1529.000000)">
            <g id="Cost-" transform="translate(234.000000, 1529.000000)">
                <g id="4---Graph">
                    <path d="M304.024,106.92 L304.024,95.976 C304.92,95.8 305.944,95.72 307,95.72 C309.992,95.72 311.784,96.856 311.784,99.432 C311.784,102.04 309.96,103.176 307.464,103.176 C306.872,103.176 305.912,103.112 305.48,103.048 L305.48,106.92 C305.336,107 305.112,107.032 304.76,107.032 C304.408,107.032 304.168,107 304.024,106.92 Z M307.016,97 C306.488,97 305.96,97.032 305.48,97.128 L305.48,101.752 C305.912,101.832 306.664,101.896 307.256,101.896 C309.192,101.896 310.296,101.24 310.296,99.544 C310.296,97.72 309.032,97 307.016,97 Z M317.48,106.376 L317.416,106.376 C316.952,106.984 316.216,107.32 315.16,107.32 C313.784,107.32 312.584,106.664 312.584,104.92 C312.584,103.048 313.976,102.28 315.784,102.28 C316.312,102.28 316.92,102.344 317.384,102.536 L317.384,102.12 C317.384,100.792 316.872,100.232 315.624,100.232 C314.712,100.232 313.848,100.52 313.176,100.936 C313.064,100.536 313.112,99.912 313.336,99.544 C313.88,99.224 314.824,98.968 315.88,98.968 C317.784,98.968 318.76,99.784 318.76,101.976 L318.76,105.464 C318.76,105.928 319,106.056 319.32,106.056 C319.624,106.056 319.912,105.944 320.072,105.832 C320.104,106.248 320.008,106.744 319.8,107.032 C319.528,107.192 319.176,107.32 318.744,107.32 C318.024,107.32 317.608,106.968 317.48,106.376 Z M317.384,105.224 L317.384,103.656 C316.984,103.512 316.536,103.416 315.992,103.416 C314.664,103.416 313.976,104.008 313.976,104.856 C313.976,105.688 314.648,106.056 315.512,106.056 C316.2,106.056 316.968,105.832 317.384,105.224 Z M324.008,106.328 L324.072,106.328 C324.168,105.672 324.312,105.016 324.488,104.52 L326.264,99.32 C326.376,99.272 326.536,99.224 326.824,99.224 C327.208,99.224 327.448,99.304 327.624,99.416 L326.408,102.84 C325.832,104.472 325.144,106.376 324.472,107.64 C323.608,109.272 322.552,110.28 320.776,110.856 C320.424,110.584 320.216,110.2 320.168,109.72 C321.704,109.288 322.648,108.344 323.224,107.256 L320.152,99.416 C320.328,99.304 320.632,99.224 321,99.224 C321.288,99.224 321.464,99.272 321.56,99.32 L323.544,104.52 C323.72,104.984 323.896,105.688 324.008,106.328 Z M337.496,95.432 L332.04,109.832 C331.56,109.832 331.064,109.608 330.856,109.352 L336.28,95.144 C336.776,95.144 337.176,95.224 337.496,95.432 Z M347.432,106.12 L347.368,106.12 C347.08,106.664 346.376,107.32 344.808,107.32 C343.528,107.32 342.12,106.856 342.12,104.264 L342.12,99.48 C342.456,99.304 342.92,99.192 343.512,99.192 L343.512,103.992 C343.512,105.288 343.912,106.008 345.224,106.008 C346.264,106.008 346.952,105.544 347.304,105 L347.304,99.368 C347.448,99.288 347.672,99.256 348.008,99.256 C348.344,99.256 348.552,99.288 348.696,99.368 L348.696,106.904 C348.44,107.064 348.056,107.128 347.624,107.128 L347.432,106.12 Z M350.856,105.352 C351.48,105.816 352.536,106.104 353.384,106.104 C354.424,106.104 355.016,105.688 355.016,105 C355.016,103.192 351.144,103.864 351.144,101.224 C351.144,99.752 352.056,98.968 353.72,98.968 C354.456,98.968 355.208,99.128 355.8,99.528 C356.008,99.848 356.12,100.52 356.056,100.92 C355.432,100.424 354.648,100.168 353.864,100.168 C352.936,100.168 352.552,100.52 352.552,101.08 C352.552,102.728 356.424,102.104 356.424,104.824 C356.424,106.632 355.096,107.32 353.416,107.32 C352.6,107.32 351.704,107.16 351.112,106.808 C350.872,106.456 350.792,105.752 350.856,105.352 Z M364.616,103.576 L359.352,103.576 C359.416,105.32 360.504,106.056 362.232,106.056 C363.208,106.056 364.024,105.816 364.648,105.448 C364.696,105.896 364.52,106.488 364.296,106.744 C363.8,107.048 362.968,107.32 361.912,107.32 C359.336,107.32 357.912,105.72 357.912,103.224 C357.912,100.744 359.352,98.968 361.72,98.968 C363.832,98.968 364.808,100.344 364.808,102.28 C364.808,102.76 364.744,103.192 364.616,103.576 Z M359.368,102.408 L363.432,102.408 C363.544,101.352 363.208,100.168 361.656,100.168 C360.296,100.168 359.48,101.064 359.368,102.408 Z" id="Pay-/-use" fill="#000000"></path>
                    <path d="M309.944,124.84 L309.144,122.376 L305.096,122.376 L304.296,124.84 C304.024,125 303.592,125.064 303.048,125.064 C302.44,125.064 302.088,124.984 301.832,124.84 L305.704,113.672 C306.04,113.576 306.568,113.512 307.144,113.512 C307.736,113.512 308.264,113.576 308.6,113.672 L312.44,124.84 C312.216,124.984 311.8,125.064 311.192,125.064 C310.584,125.064 310.216,124.984 309.944,124.84 Z M305.688,120.408 L308.52,120.408 L307.912,118.52 C307.592,117.528 307.352,116.36 307.176,115.24 L307.048,115.24 C306.872,116.408 306.584,117.608 306.28,118.568 L305.688,120.408 Z M316.552,123.272 L316.68,123.272 C316.792,122.568 316.952,121.864 317.144,121.208 L318.36,117.08 C318.536,117.016 318.808,116.936 319.32,116.936 C319.976,116.936 320.424,117.064 320.712,117.256 L318.184,124.84 C317.336,125.08 316.152,125.16 315.016,125.16 L312.392,117.256 C312.68,117.064 313.128,116.936 313.8,116.936 C314.28,116.936 314.616,117.016 314.76,117.08 L316.056,121.208 C316.264,121.88 316.424,122.536 316.552,123.272 Z M328.552,121.768 L323.688,121.768 C323.784,122.888 324.584,123.432 326.168,123.432 C327.192,123.432 328.088,123.208 328.664,122.952 C328.712,123.56 328.456,124.344 328.088,124.76 C327.56,125.064 326.664,125.32 325.56,125.32 C322.76,125.32 321.272,123.704 321.272,121.112 C321.272,118.44 322.872,116.712 325.384,116.712 C327.72,116.712 328.792,118.152 328.792,120.264 C328.792,120.776 328.696,121.352 328.552,121.768 Z M323.624,120.088 L326.616,120.088 C326.744,119.256 326.44,118.44 325.288,118.44 C324.296,118.44 323.688,119.08 323.624,120.088 Z M332.744,118.344 C332.968,117.464 333.48,116.712 334.792,116.712 C335.096,116.712 335.352,116.76 335.544,116.856 C335.768,117.256 335.88,117.704 335.88,118.312 C335.88,118.776 335.816,119.064 335.736,119.288 C335.432,119.112 335.128,119.016 334.632,119.016 C333.816,119.016 333.208,119.576 332.904,120.408 L332.904,124.872 C332.696,124.984 332.312,125.064 331.752,125.064 C331.192,125.064 330.808,124.984 330.584,124.872 L330.584,117.24 C331.016,117 331.688,116.872 332.456,116.872 L332.616,118.344 L332.744,118.344 Z M341.144,124.168 L341.016,124.168 C340.664,124.872 339.912,125.32 338.808,125.32 C337.4,125.32 336.184,124.616 336.184,122.76 C336.184,120.808 337.592,120.056 339.448,120.056 C339.976,120.056 340.44,120.12 340.904,120.264 L340.904,120.04 C340.904,119.064 340.424,118.712 339.368,118.712 C338.44,118.712 337.528,118.968 336.808,119.384 C336.616,118.76 336.696,117.768 337.064,117.24 C337.64,116.92 338.632,116.712 339.816,116.712 C342.12,116.712 343.224,117.528 343.224,119.896 L343.224,122.664 C343.224,123.16 343.448,123.272 343.768,123.272 C344.04,123.272 344.296,123.192 344.456,123.08 C344.52,123.72 344.328,124.504 344.04,124.952 C343.704,125.176 343.256,125.32 342.712,125.32 C341.784,125.32 341.304,124.92 341.144,124.168 Z M340.952,122.888 L340.952,121.8 C340.632,121.672 340.28,121.608 339.896,121.608 C338.968,121.608 338.504,121.992 338.504,122.6 C338.504,123.224 338.968,123.448 339.608,123.448 C340.12,123.448 340.632,123.288 340.952,122.888 Z M346.344,122.168 L346.344,122.056 C345.592,121.576 345.304,120.68 345.304,119.704 C345.304,117.72 346.76,116.712 348.776,116.712 C349.496,116.712 350.088,116.84 350.552,117.032 L352.856,117.032 C353.064,117.512 353.144,118.152 353.144,118.728 L351.992,118.728 L351.992,118.808 C352.136,118.952 352.232,119.336 352.232,119.8 C352.232,121.64 350.936,122.696 348.824,122.696 C348.456,122.696 348.088,122.632 347.928,122.568 C347.752,122.68 347.656,122.904 347.656,123.096 C347.656,123.544 348.2,123.64 349.256,123.64 C351.544,123.64 353.176,124.088 353.176,126.2 C353.176,128.36 351.512,129.224 348.824,129.224 C346.392,129.224 344.84,128.536 344.84,126.664 C344.84,125.704 345.352,125.016 346.072,124.84 L346.072,124.728 C345.624,124.504 345.416,124.072 345.416,123.528 C345.416,122.808 345.816,122.312 346.344,122.168 Z M348.92,125.496 C348.312,125.496 347.912,125.464 347.544,125.352 C347.192,125.56 347,125.912 347,126.312 C347,127.192 347.88,127.432 349.016,127.432 C350.296,127.432 351.016,127.096 351.016,126.328 C351.016,125.736 350.584,125.496 348.92,125.496 Z M347.432,119.704 C347.432,120.52 347.88,121 348.776,121 C349.656,121 350.104,120.504 350.104,119.704 C350.104,118.888 349.64,118.408 348.776,118.408 C347.88,118.408 347.432,118.904 347.432,119.704 Z M361.288,121.768 L356.424,121.768 C356.52,122.888 357.32,123.432 358.904,123.432 C359.928,123.432 360.824,123.208 361.4,122.952 C361.448,123.56 361.192,124.344 360.824,124.76 C360.296,125.064 359.4,125.32 358.296,125.32 C355.496,125.32 354.008,123.704 354.008,121.112 C354.008,118.44 355.608,116.712 358.12,116.712 C360.456,116.712 361.528,118.152 361.528,120.264 C361.528,120.776 361.432,121.352 361.288,121.768 Z M356.36,120.088 L359.352,120.088 C359.48,119.256 359.176,118.44 358.024,118.44 C357.032,118.44 356.424,119.08 356.36,120.088 Z M368.28,120.968 C368.28,122.568 369.208,123.256 370.648,123.256 C371.416,123.256 372.088,123.08 372.664,122.792 C372.76,123.432 372.472,124.424 372.04,124.872 C371.512,125.128 370.808,125.32 369.896,125.32 C367.304,125.32 365.896,123.736 365.896,121.128 C365.896,118.152 367.688,116.712 370.12,116.712 C370.904,116.712 371.608,116.856 372.072,117.144 C372.424,117.592 372.6,118.552 372.488,119.208 C371.912,118.872 371.384,118.712 370.648,118.712 C369.208,118.712 368.28,119.352 368.28,120.968 Z M377.848,116.712 C380.264,116.712 381.832,118.168 381.832,120.888 C381.832,123.768 380.312,125.32 377.848,125.32 C375.272,125.32 373.864,123.848 373.864,120.888 C373.864,118.264 375.48,116.712 377.848,116.712 Z M376.248,120.904 C376.248,122.488 376.792,123.416 377.848,123.416 C378.952,123.416 379.448,122.488 379.448,120.904 C379.448,119.496 378.872,118.616 377.848,118.616 C376.776,118.616 376.248,119.496 376.248,120.904 Z M383.112,122.808 C383.768,123.224 384.936,123.528 385.816,123.528 C386.632,123.528 386.952,123.272 386.952,122.792 C386.952,121.528 383.304,122.152 383.304,119.304 C383.304,117.672 384.344,116.712 386.28,116.712 C387.08,116.712 387.928,116.872 388.552,117.256 C388.84,117.72 389.016,118.6 388.936,119.224 C388.216,118.776 387.32,118.488 386.536,118.488 C385.848,118.488 385.64,118.712 385.64,119.096 C385.64,120.28 389.304,119.688 389.304,122.52 C389.304,124.568 387.88,125.32 385.896,125.32 C385.064,125.32 384.152,125.192 383.464,124.872 C383.128,124.328 383,123.352 383.112,122.808 Z M393.608,117.032 L395.736,117.032 C395.832,117.224 395.88,117.624 395.88,118.024 C395.88,118.424 395.832,118.824 395.736,119.016 L393.608,119.016 L393.608,122.024 C393.608,122.792 393.832,123.192 394.696,123.192 C395.176,123.192 395.656,123.096 396.152,122.76 C396.232,123.432 395.976,124.376 395.656,124.792 C395.192,125.128 394.632,125.32 393.832,125.32 C391.864,125.32 391.288,124.136 391.288,122.376 L391.288,119.016 L390.056,119.016 C390.056,118.328 390.168,117.544 390.376,117.032 L391.288,117.032 L391.288,115.304 C391.864,114.888 392.712,114.68 393.608,114.664 L393.608,117.032 Z" id="Average-cost" fill="#41CFF6"></path>
                    <path d="M196.5,30.856 L196.5,19.752 C197.364,19.56 198.676,19.448 199.876,19.448 C203.108,19.448 205.044,20.552 205.044,23.368 C205.044,26.232 203.076,27.48 200.628,27.48 C200.116,27.48 199.316,27.432 198.916,27.368 L198.916,30.856 C198.692,30.984 198.292,31.064 197.716,31.064 C197.156,31.064 196.74,30.984 196.5,30.856 Z M200.052,21.512 C199.652,21.512 199.252,21.544 198.9,21.608 L198.9,25.32 C199.236,25.384 199.828,25.432 200.308,25.432 C201.732,25.432 202.596,24.872 202.596,23.512 C202.596,22.104 201.684,21.512 200.052,21.512 Z M212.852,27.768 L207.988,27.768 C208.084,28.888 208.884,29.432 210.468,29.432 C211.492,29.432 212.388,29.208 212.964,28.952 C213.012,29.56 212.756,30.344 212.388,30.76 C211.86,31.064 210.964,31.32 209.86,31.32 C207.06,31.32 205.572,29.704 205.572,27.112 C205.572,24.44 207.172,22.712 209.684,22.712 C212.02,22.712 213.092,24.152 213.092,26.264 C213.092,26.776 212.996,27.352 212.852,27.768 Z M207.924,26.088 L210.916,26.088 C211.044,25.256 210.74,24.44 209.588,24.44 C208.596,24.44 207.988,25.08 207.924,26.088 Z M219.204,30.168 L219.076,30.168 C218.724,30.872 217.972,31.32 216.868,31.32 C215.46,31.32 214.244,30.616 214.244,28.76 C214.244,26.808 215.652,26.056 217.508,26.056 C218.036,26.056 218.5,26.12 218.964,26.264 L218.964,26.04 C218.964,25.064 218.484,24.712 217.428,24.712 C216.5,24.712 215.588,24.968 214.868,25.384 C214.676,24.76 214.756,23.768 215.124,23.24 C215.7,22.92 216.692,22.712 217.876,22.712 C220.18,22.712 221.284,23.528 221.284,25.896 L221.284,28.664 C221.284,29.16 221.508,29.272 221.828,29.272 C222.1,29.272 222.356,29.192 222.516,29.08 C222.58,29.72 222.388,30.504 222.1,30.952 C221.764,31.176 221.316,31.32 220.772,31.32 C219.844,31.32 219.364,30.92 219.204,30.168 Z M219.012,28.888 L219.012,27.8 C218.692,27.672 218.34,27.608 217.956,27.608 C217.028,27.608 216.564,27.992 216.564,28.6 C216.564,29.224 217.028,29.448 217.668,29.448 C218.18,29.448 218.692,29.288 219.012,28.888 Z M226.004,25.736 L226.804,25.736 L228.692,23.064 C228.868,23 229.252,22.936 229.62,22.936 C230.276,22.936 230.868,23.064 231.124,23.24 L228.692,26.616 C229.508,28.04 230.404,29.464 231.524,30.872 C231.3,31.016 230.804,31.08 230.26,31.08 C229.652,31.08 229.044,31 228.772,30.872 C227.988,29.848 227.364,28.856 226.708,27.64 L226.004,27.64 L226.004,30.872 C225.796,30.984 225.412,31.064 224.852,31.064 C224.292,31.064 223.908,30.984 223.684,30.872 L223.684,19.528 C224.228,19.224 224.98,19.064 226.004,19.064 L226.004,25.736 Z M237.764,26.968 C237.764,28.568 238.692,29.256 240.132,29.256 C240.9,29.256 241.572,29.08 242.148,28.792 C242.244,29.432 241.956,30.424 241.524,30.872 C240.996,31.128 240.292,31.32 239.38,31.32 C236.788,31.32 235.38,29.736 235.38,27.128 C235.38,24.152 237.172,22.712 239.604,22.712 C240.388,22.712 241.092,22.856 241.556,23.144 C241.908,23.592 242.084,24.552 241.972,25.208 C241.396,24.872 240.868,24.712 240.132,24.712 C238.692,24.712 237.764,25.352 237.764,26.968 Z M247.332,22.712 C249.748,22.712 251.316,24.168 251.316,26.888 C251.316,29.768 249.796,31.32 247.332,31.32 C244.756,31.32 243.348,29.848 243.348,26.888 C243.348,24.264 244.964,22.712 247.332,22.712 Z M245.732,26.904 C245.732,28.488 246.276,29.416 247.332,29.416 C248.436,29.416 248.932,28.488 248.932,26.904 C248.932,25.496 248.356,24.616 247.332,24.616 C246.26,24.616 245.732,25.496 245.732,26.904 Z M252.596,28.808 C253.252,29.224 254.42,29.528 255.3,29.528 C256.116,29.528 256.436,29.272 256.436,28.792 C256.436,27.528 252.788,28.152 252.788,25.304 C252.788,23.672 253.828,22.712 255.764,22.712 C256.564,22.712 257.412,22.872 258.036,23.256 C258.324,23.72 258.5,24.6 258.42,25.224 C257.7,24.776 256.804,24.488 256.02,24.488 C255.332,24.488 255.124,24.712 255.124,25.096 C255.124,26.28 258.788,25.688 258.788,28.52 C258.788,30.568 257.364,31.32 255.38,31.32 C254.548,31.32 253.636,31.192 252.948,30.872 C252.612,30.328 252.484,29.352 252.596,28.808 Z M263.092,23.032 L265.22,23.032 C265.316,23.224 265.364,23.624 265.364,24.024 C265.364,24.424 265.316,24.824 265.22,25.016 L263.092,25.016 L263.092,28.024 C263.092,28.792 263.316,29.192 264.18,29.192 C264.66,29.192 265.14,29.096 265.636,28.76 C265.716,29.432 265.46,30.376 265.14,30.792 C264.676,31.128 264.116,31.32 263.316,31.32 C261.348,31.32 260.772,30.136 260.772,28.376 L260.772,25.016 L259.54,25.016 C259.54,24.328 259.652,23.544 259.86,23.032 L260.772,23.032 L260.772,21.304 C261.348,20.888 262.196,20.68 263.092,20.664 L263.092,23.032 Z" id="Peak-cost" fill="#DDDDDD"></path>
                    <g id="Cost-arrow" transform="translate(338.000000, 73.000000) rotate(-180.000000) translate(-338.000000, -73.000000) translate(333.000000, 63.000000)"></g>
                    <path d="M61,165.5 C88,165.5 90.4883357,132 121,132 C151.511664,132 153.782572,158 182,158 C210.217428,158 210.734256,114 237.5,114 C264.265744,114 263.754924,161.5 291.75,161.5 C319.745076,161.5 318.121339,151 346,151 C373.878661,151 373.99745,163.5 402.5,163.5 C431.00255,163.5 430.871007,132 460,132 C489.128993,132 490.5,170 519,170 C538,170 555.833333,163.588477 572.5,150.765432 L572.5,239 L11.5,239 L11.5,172.5 C26.5,167.833333 43,165.5 61,165.5 Z" id="Path-4-Copy" fill="url(#linearGradient-1)" opacity="0.159307065"></path>
                    <path d="M11.6455808,172.978337 L11.3544192,172.021663 C26.7364115,167.340187 43.4520339,165 61.5,165 C67.2861266,165 72.1681783,163.50438 76.7405339,160.586573 C80.3142098,158.306064 83.1546305,155.686846 88.0612567,150.502895 C88.3423248,150.205941 89.357464,149.13096 89.5698968,148.906395 C95.0087958,143.156874 98.1773728,140.257267 102.363827,137.653543 C107.821104,134.259443 113.814457,132.5 121,132.5 C128.162272,132.5 134.150053,133.847661 139.649447,136.454438 C143.851679,138.446346 146.961133,140.595984 152.670349,145.107707 C152.807405,145.216016 153.484473,145.751448 153.673833,145.901051 C164.543603,154.488702 170.79437,157.5 182,157.5 C188.418478,157.5 193.655535,155.185472 198.389522,150.684516 C202.02759,147.225532 204.63789,143.545102 209.619081,135.487094 L210.163877,134.605581 C215.030553,126.732829 217.556462,123.15346 221.070593,119.765464 C225.697014,115.305102 230.802272,113 237,113 C243.230193,113 248.353198,115.507296 252.987056,120.353804 C256.499041,124.026955 259.001982,127.875885 263.887871,136.44462 L264.348352,137.252333 C269.326923,145.983608 271.8994,149.922563 275.508157,153.652324 C280.205193,158.506854 285.393212,161 291.75,161 C303.346655,161 308.99531,159.696903 318.986337,155.784425 C329.098505,151.824507 334.832934,150.5 346.5,150.5 C358.090923,150.5 363.962582,152.070507 374.243333,156.691601 C384.783992,161.429509 390.691433,163 402.5,163 C408.954089,163 414.221091,161.439285 418.999797,158.404768 C422.649192,156.087373 425.205373,153.697663 430.418092,148.154962 L430.650855,147.907455 C435.987514,142.232974 438.636385,139.761814 442.468088,137.342829 C447.527899,134.148528 453.141317,132.5 460,132.5 C466.876847,132.5 472.583159,134.558121 477.802986,138.539962 C481.749215,141.550264 484.515818,144.624701 490.127382,151.689002 C490.257109,151.852319 490.257109,151.852319 490.386799,152.015589 C495.864313,158.911052 498.548926,161.899103 502.316486,164.787711 C507.239176,168.561963 512.568573,170.5 519,170.5 C537.886534,170.5 555.613577,164.126691 572.195107,151.369149 L572.804893,152.161715 C556.053089,165.050263 538.113466,171.5 519,171.5 C512.340473,171.5 506.799669,169.485085 501.708035,165.581303 C497.853389,162.625925 495.132407,159.597395 489.603783,152.63759 C489.474065,152.474285 489.474065,152.474285 489.344362,152.310998 C483.784337,145.311581 481.054659,142.278176 477.196477,139.335038 C472.145589,135.482069 466.650137,133.5 460,133.5 C453.331711,133.5 447.903127,135.094247 443.001917,138.188421 C439.264627,140.547803 436.659177,142.978455 431.379313,148.592545 L431.14655,148.840052 C425.877481,154.44267 423.278679,156.872226 419.535858,159.248947 C414.598372,162.38429 409.145778,164 402.5,164 C390.530446,164 384.492238,162.394744 374.061053,157.706048 C363.670679,153.035676 357.929243,151.5 346.5,151.5 C334.973825,151.5 329.356244,152.797518 319.391254,156.699801 C309.253016,160.669927 303.487425,162 291.75,162 C285.103587,162 279.664593,159.386245 274.789488,154.347676 C271.102166,150.536716 268.500395,146.552906 263.479649,137.747667 L263.019169,136.939954 C258.174662,128.443793 255.699841,124.638106 252.26427,121.044876 C247.808025,116.384131 242.936674,114 237,114 C231.077041,114 226.214,116.195737 221.764662,120.485373 C218.331378,123.795423 215.836785,127.330416 211.014477,135.131394 L210.469682,136.012906 C205.443145,144.144269 202.800045,147.870947 199.078567,151.409234 C194.167125,156.07891 188.688951,158.5 182,158.5 C175.632503,158.5 170.254401,157.256181 165.234062,154.837639 C161.373323,152.977734 158.435583,150.937499 153.05391,146.685714 C152.86432,146.535929 152.187186,146.000445 152.050328,145.892293 C146.397258,141.424939 143.335743,139.308442 139.221119,137.358062 C133.855581,134.814734 128.0141,133.5 121,133.5 C114.003736,133.5 108.192823,135.205885 102.891956,138.502707 C98.799256,141.048122 95.6792951,143.90324 90.2963549,149.593605 C90.0843565,149.817711 89.0690884,150.892829 88.7875231,151.190308 C83.8273022,156.430883 80.9412165,159.09221 77.2784753,161.429555 C72.5491335,164.447541 67.4815479,166 61.5,166 C43.5479661,166 26.9302551,168.32648 11.6455808,172.978337 Z" id="Path-4" fill="#41CFF6" fill-rule="nonzero"></path>
                    <path d="M49,146.5 L49,145.5 L54,145.5 L54,146.5 L49,146.5 Z M63,146.5 L63,145.5 L68,145.5 L68,146.5 L63,146.5 Z M77,146.5 L77,145.5 L82,145.5 L82,146.5 L77,146.5 Z M91,146.5 L91,145.5 L96,145.5 L96,146.5 L91,146.5 Z M105,146.5 L105,145.5 L110,145.5 L110,146.5 L105,146.5 Z M119,146.5 L119,145.5 L124,145.5 L124,146.5 L119,146.5 Z M133,146.5 L133,145.5 L138,145.5 L138,146.5 L133,146.5 Z M147,146.5 L147,145.5 L152,145.5 L152,146.5 L147,146.5 Z M161,146.5 L161,145.5 L166,145.5 L166,146.5 L161,146.5 Z M175,146.5 L175,145.5 L180,145.5 L180,146.5 L175,146.5 Z M189,146.5 L189,145.5 L194,145.5 L194,146.5 L189,146.5 Z M203,146.5 L203,145.5 L208,145.5 L208,146.5 L203,146.5 Z M217,146.5 L217,145.5 L222,145.5 L222,146.5 L217,146.5 Z M231,146.5 L231,145.5 L236,145.5 L236,146.5 L231,146.5 Z M245,146.5 L245,145.5 L250,145.5 L250,146.5 L245,146.5 Z M259,146.5 L259,145.5 L264,145.5 L264,146.5 L259,146.5 Z M273,146.5 L273,145.5 L278,145.5 L278,146.5 L273,146.5 Z M287,146.5 L287,145.5 L292,145.5 L292,146.5 L287,146.5 Z M301,146.5 L301,145.5 L306,145.5 L306,146.5 L301,146.5 Z M315,146.5 L315,145.5 L320,145.5 L320,146.5 L315,146.5 Z M329,146.5 L329,145.5 L334,145.5 L334,146.5 L329,146.5 Z M343,146.5 L343,145.5 L348,145.5 L348,146.5 L343,146.5 Z M357,146.5 L357,145.5 L362,145.5 L362,146.5 L357,146.5 Z M371,146.5 L371,145.5 L376,145.5 L376,146.5 L371,146.5 Z M385,146.5 L385,145.5 L390,145.5 L390,146.5 L385,146.5 Z M399,146.5 L399,145.5 L404,145.5 L404,146.5 L399,146.5 Z M413,146.5 L413,145.5 L418,145.5 L418,146.5 L413,146.5 Z M427,146.5 L427,145.5 L432,145.5 L432,146.5 L427,146.5 Z M441,146.5 L441,145.5 L446,145.5 L446,146.5 L441,146.5 Z M455,146.5 L455,145.5 L460,145.5 L460,146.5 L455,146.5 Z M469,146.5 L469,145.5 L474,145.5 L474,146.5 L469,146.5 Z M483,146.5 L483,145.5 L488,145.5 L488,146.5 L483,146.5 Z M497,146.5 L497,145.5 L502,145.5 L502,146.5 L497,146.5 Z M511,146.5 L511,145.5 L516,145.5 L516,146.5 L511,146.5 Z M525,146.5 L525,145.5 L530,145.5 L530,146.5 L525,146.5 Z M539,146.5 L539,145.5 L544,145.5 L544,146.5 L539,146.5 Z" id="Line-3" fill="#000000" fill-rule="nonzero"></path>
                    <g id="Bas-peak">
                        <path d="M0.5,204 L0.5,203 C17.1674297,203 31.5196958,192.234853 44.8766,171.510383 C55.3714529,155.22665 64.0723006,135.550392 76.7821202,101.823681 C77.3407012,100.341433 84.7176303,80.6112295 86.8650915,74.9755691 C96.3905626,49.9775293 103.315274,34.4142856 110.865554,22.4176705 C120.181408,7.6157401 129.754622,9.10453619e-13 140.5,9.09494702e-13 C153.411736,9.08337388e-13 164.742558,11.1074406 175.694886,32.4592978 C184.094981,48.8355085 190.875051,67.2940245 202.600483,103.345353 C202.972673,104.489699 203.353731,105.662561 203.855305,107.20728 C203.852469,107.198549 204.829203,110.206994 205.107579,111.064114 C206.126582,114.201628 206.872623,116.493749 207.607763,118.743178 C217.426509,148.787213 223.73865,165.784071 230.869061,179.6784 C239.806543,197.09399 248.747803,206 258.5,206 L258.5,207 C248.254411,207 239.07296,197.854745 229.979377,180.134975 C222.816845,166.178057 216.492333,149.147889 206.657237,119.053822 C205.92187,116.803698 205.17566,114.511058 204.156484,111.373011 C203.878088,110.515832 202.901338,107.507334 202.904187,107.51611 C202.40266,105.971533 202.021648,104.798811 201.649517,103.654647 C189.941055,67.6554948 183.172264,49.227686 174.805114,32.9157022 C164.00794,11.8663231 152.923085,1 140.5,1 C130.17714,1 120.863644,8.4091277 111.711887,22.9503249 C104.207072,34.8747011 97.3025621,50.3925413 87.7995493,75.3316431 C85.6534213,80.9638045 78.2774392,100.691476 77.7178798,102.176319 C64.983761,135.96751 56.2623573,155.690254 45.71715,172.052117 C32.1949563,193.033049 17.5736417,204 0.5,204 Z" id="Path-12" fill="#EAEAEA" fill-rule="nonzero"></path>
                        <path d="M0.5,203.5 C73,203.5 86,0.5 140.5,0.5 C195,0.5 211,206.5 258.5,206.5" id="Path-12-Copy" fill="url(#linearGradient-2)" opacity="0.0804129464"></path>
                    </g>
                </g>
            </g>
        </g>
    </g>
</svg>