<?xml version="1.0" encoding="UTF-8"?>
<svg width="687px" height="141px" viewBox="0 0 687 141" version="1.1" xmlns="http://www.w3.org/2000/svg" xmlns:xlink="http://www.w3.org/1999/xlink">
    <!-- Generator: Sketch 50.2 (55047) - http://www.bohemiancoding.com/sketch -->
    <title>viren/ payroll</title>
    <desc>Created with Sketch.</desc>
    <defs></defs>
    <g id="Page-1" stroke="none" stroke-width="1" fill="none" fill-rule="evenodd">
        <g id="viren/-payroll">
            <path d="M83.5751563,104.114375 L83.5751563,36.634375 C85.5351562,35.654375 88.8951563,34.954375 93.7951563,34.954375 C98.6951562,34.954375 102.055156,35.654375 103.875156,36.634375 L103.875156,104.114375 C102.055156,105.094375 98.6951562,105.794375 93.7951563,105.794375 C88.8951563,105.794375 85.5351562,105.094375 83.5751563,104.114375 Z M136.655156,46.994375 C138.615156,39.294375 143.095156,32.714375 154.575156,32.714375 C157.235156,32.714375 159.475156,33.134375 161.155156,33.974375 C163.115156,37.474375 161.655156,39 159,43 C156.899277,46.1647446 155.84,53 151.5,53 C144.36,53 140.715156,57.774375 138.055156,65.054375 L138.055156,104.114375 C136.235156,105.094375 132.875156,105.794375 127.975156,105.794375 C123.075156,105.794375 119.715156,105.094375 117.755156,104.114375 L117.755156,37.334375 C121.535156,35.234375 127.415156,34.114375 134.135156,34.114375 L135.535156,46.994375 L136.655156,46.994375 Z M221.855156,76.954375 L179.295156,76.954375 C180.135156,86.754375 187.135156,91.514375 200.995156,91.514375 C209.955156,91.514375 217.795156,89.554375 222.835156,87.314375 C223.255156,92.634375 221.015156,99.494375 217.795156,103.134375 C213.175156,105.794375 205.335156,108.034375 195.675156,108.034375 C171.175156,108.034375 158.155156,93.894375 158.155156,71.214375 C158.155156,47.834375 172.155156,32.714375 194.135156,32.714375 C214.575156,32.714375 223.955156,45.314375 223.955156,63.794375 C223.955156,68.274375 223.115156,73.314375 221.855156,76.954375 Z M178.735156,62.254375 L204.915156,62.254375 C206.035156,54.974375 203.375156,47.834375 193.295156,47.834375 C184.615156,47.834375 179.295156,53.434375 178.735156,62.254375 Z M294.707476,43.2798389 L307.078531,0.445062971 L310.921469,1.55493703 L270.921469,140.054937 L267.078531,138.945063 L277.575156,102.600496 L277.575156,63.234375 C277.575156,55.954375 275.055156,51.334375 266.795156,51.334375 C259.515156,51.334375 255.455156,54.974375 252.935156,59.314375 C252.935156,59.314375 252.935156,74.2477083 252.935156,104.114375 C251.115156,105.094375 247.755156,105.794375 242.855156,105.794375 C237.955156,105.794375 234.595156,105.094375 232.635156,104.114375 L232.635156,37.334375 C236.415156,35.234375 242.435156,34.114375 249.155156,34.114375 L250.275156,45.594375 L251.395156,45.594375 C254.755156,38.314375 261.895156,32.714375 274.635156,32.714375 C281.994011,32.714375 290.290414,34.5225025 294.707469,43.2798678 Z M35.255943,75.8971718 L27.755943,104.88673 C25.5853143,104.62891 24.1194146,103.570069 23.3582438,101.710206 C18.3086074,87.0854178 10.7341529,65.4815685 0.634880129,36.8986585 C3.24367274,35.1594634 7.30179458,34 13.3889773,34 C17.736965,34 20.7805564,34.7246646 22.0849527,35.3043963 L33.8245195,71.6970904 C34.1121352,72.4971446 34.5892764,73.8971718 35.255943,75.8971718 Z M35,105 C36.0145305,98.6229514 41.9407631,77.6393402 43.6799582,71.6970904 L54.6948603,35.3043963 C56.2891225,34.7246646 58.7529822,34 63.3908357,34 C69.3330855,34 73.3912074,35.1594634 76,36.8986585 L53.5,104 C50.8333333,105.333333 47.8333333,106 44.5,106 C41.1666667,106 38,105.666667 35,105 Z M84.0373251,23.5998774 L90.0654598,6.80937941 C92.0935864,6.53446425 94.9320441,4.71582031 99.7058225,4.71582031 C104.479601,4.71582031 108.188039,6.53446425 109.842542,6.80937941 L103.814407,23.5998774 C101.922674,23.8747926 98.0614759,25.5747266 93.2876975,25.5747266 C88.5139191,25.5747266 85.8282212,23.8747926 84.0373251,23.5998774 Z" id="Viren" fill="#293B53"></path>
            <path d="M339.88,97.28 L339.88,41.76 C344.2,40.8 350.76,40.24 356.76,40.24 C372.92,40.24 382.6,45.76 382.6,59.84 C382.6,74.16 372.76,80.4 360.52,80.4 C357.96,80.4 353.96,80.16 351.96,79.84 L351.96,97.28 C350.84,97.92 348.84,98.32 345.96,98.32 C343.16,98.32 341.08,97.92 339.88,97.28 Z M357.64,50.56 C355.64,50.56 353.64,50.72 351.88,51.04 L351.88,69.6 C353.56,69.92 356.52,70.16 358.92,70.16 C366.04,70.16 370.36,67.36 370.36,60.56 C370.36,53.52 365.8,50.56 357.64,50.56 Z M420.92,97.2 L416.92,84.88 L396.68,84.88 L392.68,97.2 C391.32,98 389.16,98.32 386.44,98.32 C383.4,98.32 381.64,97.92 380.36,97.2 L399.72,41.36 C401.4,40.88 404.04,40.56 406.92,40.56 C409.88,40.56 412.52,40.88 414.2,41.36 L433.4,97.2 C432.28,97.92 430.2,98.32 427.16,98.32 C424.12,98.32 422.28,97.92 420.92,97.2 Z M399.64,75.04 L413.8,75.04 L410.76,65.6 C409.16,60.64 407.96,54.8 407.08,49.2 L406.44,49.2 C405.56,55.04 404.12,61.04 402.6,65.84 L399.64,75.04 Z M447.48,78.88 L429.24,41.92 C430.36,41.2 432.52,40.8 435.64,40.8 C438.6,40.8 440.68,41.2 442.04,41.92 L449.48,56.48 C451.08,59.6 452.92,65.12 453.8,69.6 L454.44,69.6 C455.08,65.28 456.68,59.68 458.28,56.48 L465.64,41.92 C467,41.12 469.08,40.8 471.88,40.8 C474.92,40.8 476.6,41.2 477.88,41.92 L459.56,78.72 L459.56,97.28 C458.44,97.92 456.44,98.32 453.56,98.32 C450.76,98.32 448.68,97.92 447.48,97.28 L447.48,78.88 Z M485.56,97.28 L485.56,41.76 C489.8,40.8 496.36,40.24 502.28,40.24 C518.28,40.24 527.88,45.52 527.88,58.96 C527.88,67.2 524.36,72.64 518.84,75.6 L532.2,97.2 C531.16,97.92 528.92,98.32 525.8,98.32 C522.28,98.32 519.96,97.92 518.28,97.2 L507.16,78.48 L505.88,78.48 C503.16,78.48 499.56,78.24 497.64,77.92 L497.64,97.28 C496.52,97.92 494.52,98.32 491.64,98.32 C488.84,98.32 486.76,97.92 485.56,97.28 Z M503.16,50.56 C501.24,50.56 499.32,50.72 497.56,51.04 L497.56,67.76 C499.16,68.08 502.12,68.32 504.44,68.32 C511.4,68.32 515.64,65.84 515.64,59.6 C515.64,53.2 511.16,50.56 503.16,50.56 Z M564.2,39.28 C580.36,39.28 591.24,49.52 591.24,68.96 C591.24,89.04 580.6,99.84 564.2,99.84 C546.76,99.84 537.08,89.68 537.08,68.96 C537.08,50.32 548.44,39.28 564.2,39.28 Z M549.56,68.96 C549.56,82 554.92,89.28 564.2,89.28 C573.72,89.28 578.76,82 578.76,68.96 C578.76,56.96 573,49.76 564.2,49.76 C554.68,49.76 549.56,56.8 549.56,68.96 Z M638.92,98 L602.2,98 L602.2,41.84 C603.4,41.2 605.48,40.8 608.28,40.8 C611.16,40.8 613.16,41.2 614.28,41.84 L614.28,87.28 L638.92,87.28 C639.4,88.32 639.8,90.4 639.8,92.56 C639.8,94.8 639.4,96.96 638.92,98 Z M685.56,98 L648.84,98 L648.84,41.84 C650.04,41.2 652.12,40.8 654.92,40.8 C657.8,40.8 659.8,41.2 660.92,41.84 L660.92,87.28 L685.56,87.28 C686.04,88.32 686.44,90.4 686.44,92.56 C686.44,94.8 686.04,96.96 685.56,98 Z" id="PAYROLL" fill="#41CFF6"></path>
        </g>
    </g>
</svg>