<?xml version="1.0" encoding="UTF-8"?>
<svg width="73px" height="13px" viewBox="0 0 73 13" version="1.1" xmlns="http://www.w3.org/2000/svg" xmlns:xlink="http://www.w3.org/1999/xlink">
    <!-- Generator: Sketch 50.2 (55047) - http://www.bohemiancoding.com/sketch -->
    <title>PAYROLL</title>
    <desc>Created with Sketch.</desc>
    <defs></defs>
    <g id="Page-1" stroke="none" stroke-width="1" fill="none" fill-rule="evenodd">
        <g id="Desktop-HD-Copy-13" transform="translate(-846.000000, -2284.000000)" fill="#41CFF6">
            <g id="animated-illustrating-copy-4" transform="translate(337.000000, 2242.000000)">
                <path d="M509.94832,53.856 L509.94832,42.752 C510.81232,42.56 512.12432,42.448 513.32432,42.448 C516.55632,42.448 518.49232,43.552 518.49232,46.368 C518.49232,49.232 516.52432,50.48 514.07632,50.48 C513.56432,50.48 512.76432,50.432 512.36432,50.368 L512.36432,53.856 C512.14032,53.984 511.74032,54.064 511.16432,54.064 C510.60432,54.064 510.18832,53.984 509.94832,53.856 Z M513.50032,44.512 C513.10032,44.512 512.70032,44.544 512.34832,44.608 L512.34832,48.32 C512.68432,48.384 513.27632,48.432 513.75632,48.432 C515.18032,48.432 516.04432,47.872 516.04432,46.512 C516.04432,45.104 515.13232,44.512 513.50032,44.512 Z M527.10032,53.84 L526.30032,51.376 L522.25232,51.376 L521.45232,53.84 C521.18032,54 520.74832,54.064 520.20432,54.064 C519.59632,54.064 519.24432,53.984 518.98832,53.84 L522.86032,42.672 C523.19632,42.576 523.72432,42.512 524.30032,42.512 C524.89232,42.512 525.42032,42.576 525.75632,42.672 L529.59632,53.84 C529.37232,53.984 528.95632,54.064 528.34832,54.064 C527.74032,54.064 527.37232,53.984 527.10032,53.84 Z M522.84432,49.408 L525.67632,49.408 L525.06832,47.52 C524.74832,46.528 524.50832,45.36 524.33232,44.24 L524.20432,44.24 C524.02832,45.408 523.74032,46.608 523.43632,47.568 L522.84432,49.408 Z M533.66032,50.176 L530.01232,42.784 C530.23632,42.64 530.66832,42.56 531.29232,42.56 C531.88432,42.56 532.30032,42.64 532.57232,42.784 L534.06032,45.696 C534.38032,46.32 534.74832,47.424 534.92432,48.32 L535.05232,48.32 C535.18032,47.456 535.50032,46.336 535.82032,45.696 L537.29232,42.784 C537.56432,42.624 537.98032,42.56 538.54032,42.56 C539.14832,42.56 539.48432,42.64 539.74032,42.784 L536.07632,50.144 L536.07632,53.856 C535.85232,53.984 535.45232,54.064 534.87632,54.064 C534.31632,54.064 533.90032,53.984 533.66032,53.856 L533.66032,50.176 Z M541.27632,53.856 L541.27632,42.752 C542.12432,42.56 543.43632,42.448 544.62032,42.448 C547.82032,42.448 549.74032,43.504 549.74032,46.192 C549.74032,47.84 549.03632,48.928 547.93232,49.52 L550.60432,53.84 C550.39632,53.984 549.94832,54.064 549.32432,54.064 C548.62032,54.064 548.15632,53.984 547.82032,53.84 L545.59632,50.096 L545.34032,50.096 C544.79632,50.096 544.07632,50.048 543.69232,49.984 L543.69232,53.856 C543.46832,53.984 543.06832,54.064 542.49232,54.064 C541.93232,54.064 541.51632,53.984 541.27632,53.856 Z M544.79632,44.512 C544.41232,44.512 544.02832,44.544 543.67632,44.608 L543.67632,47.952 C543.99632,48.016 544.58832,48.064 545.05232,48.064 C546.44432,48.064 547.29232,47.568 547.29232,46.32 C547.29232,45.04 546.39632,44.512 544.79632,44.512 Z M557.14832,42.256 C560.38032,42.256 562.55632,44.304 562.55632,48.192 C562.55632,52.208 560.42832,54.368 557.14832,54.368 C553.66032,54.368 551.72432,52.336 551.72432,48.192 C551.72432,44.464 553.99632,42.256 557.14832,42.256 Z M554.22032,48.192 C554.22032,50.8 555.29232,52.256 557.14832,52.256 C559.05232,52.256 560.06032,50.8 560.06032,48.192 C560.06032,45.792 558.90832,44.352 557.14832,44.352 C555.24432,44.352 554.22032,45.76 554.22032,48.192 Z M572.09232,54 L564.74832,54 L564.74832,42.768 C564.98832,42.64 565.40432,42.56 565.96432,42.56 C566.54032,42.56 566.94032,42.64 567.16432,42.768 L567.16432,51.856 L572.09232,51.856 C572.18832,52.064 572.26832,52.48 572.26832,52.912 C572.26832,53.36 572.18832,53.792 572.09232,54 Z M581.42032,54 L574.07632,54 L574.07632,42.768 C574.31632,42.64 574.73232,42.56 575.29232,42.56 C575.86832,42.56 576.26832,42.64 576.49232,42.768 L576.49232,51.856 L581.42032,51.856 C581.51632,52.064 581.59632,52.48 581.59632,52.912 C581.59632,53.36 581.51632,53.792 581.42032,54 Z" id="PAYROLL"></path>
            </g>
        </g>
    </g>
</svg>