<?xml version="1.0" encoding="UTF-8"?>
<svg width="88px" height="26px" viewBox="0 0 88 26" version="1.1" xmlns="http://www.w3.org/2000/svg" xmlns:xlink="http://www.w3.org/1999/xlink">
    <!-- Generator: Sketch 50.2 (55047) - http://www.bohemiancoding.com/sketch -->
    <title>Group 3</title>
    <desc>Created with Sketch.</desc>
    <defs></defs>
    <g id="Page-1" stroke="none" stroke-width="1" fill="none" fill-rule="evenodd">
        <g id="Desktop-HD-Copy-13" transform="translate(-836.000000, -1892.000000)">
            <g id="animated-illustrating-copy-3" transform="translate(325.687500, 1853.238281)">
                <g id="Group-3" transform="translate(511.000000, 39.000000)">
                    <path d="M66.8433203,17.3226562 L66.0933203,15.0126562 L62.2983203,15.0126562 L61.5483203,17.3226562 C61.2933203,17.4726562 60.8883203,17.5326562 60.3783203,17.5326562 C59.8083203,17.5326562 59.4783203,17.4576562 59.2383203,17.3226562 L62.8683203,6.85265625 C63.1833203,6.76265625 63.6783203,6.70265625 64.2183203,6.70265625 C64.7733203,6.70265625 65.2683203,6.76265625 65.5833203,6.85265625 L69.1833203,17.3226562 C68.9733203,17.4576562 68.5833203,17.5326562 68.0133203,17.5326562 C67.4433203,17.5326562 67.0983203,17.4576562 66.8433203,17.3226562 Z M62.8533203,13.1676562 L65.5083203,13.1676562 L64.9383203,11.3976562 C64.6383203,10.4676562 64.4133203,9.37265625 64.2483203,8.32265625 L64.1283203,8.32265625 C63.9633203,9.41765625 63.6933203,10.5426562 63.4083203,11.4426562 L62.8533203,13.1676562 Z M72.3633203,11.0676562 L72.4833203,11.0676562 C72.8883203,10.0926562 73.8033203,9.70265625 74.8233203,9.70265625 C76.7883203,9.70265625 77.7483203,11.2476562 77.7483203,13.4676562 C77.7483203,16.1826562 76.3233203,17.7726562 74.0733203,17.7726562 C73.5333203,17.7726562 73.0083203,17.6826562 72.6483203,17.5026562 L72.6483203,20.9676562 C72.4533203,21.0726562 72.0933203,21.1476562 71.5683203,21.1476562 C71.0433203,21.1476562 70.6833203,21.0726562 70.4733203,20.9676562 L70.4733203,10.1976562 C70.9083203,9.97265625 71.5833203,9.85265625 72.2433203,9.85265625 L72.3633203,11.0676562 Z M72.6183203,12.3126562 L72.6183203,15.6726562 C72.8733203,15.7776562 73.2333203,15.8526562 73.6083203,15.8526562 C74.9583203,15.8526562 75.5133203,14.9526562 75.5133203,13.6176562 C75.5133203,12.2376562 74.9433203,11.6376562 73.9833203,11.6376562 C73.3233203,11.6376562 72.8883203,11.9526562 72.6183203,12.3126562 Z M81.2883203,11.0676562 L81.4083203,11.0676562 C81.8133203,10.0926562 82.7283203,9.70265625 83.7483203,9.70265625 C85.7133203,9.70265625 86.6733203,11.2476562 86.6733203,13.4676562 C86.6733203,16.1826562 85.2483203,17.7726562 82.9983203,17.7726562 C82.4583203,17.7726562 81.9333203,17.6826562 81.5733203,17.5026562 L81.5733203,20.9676562 C81.3783203,21.0726562 81.0183203,21.1476562 80.4933203,21.1476562 C79.9683203,21.1476562 79.6083203,21.0726562 79.3983203,20.9676562 L79.3983203,10.1976562 C79.8333203,9.97265625 80.5083203,9.85265625 81.1683203,9.85265625 L81.2883203,11.0676562 Z M81.5433203,12.3126562 L81.5433203,15.6726562 C81.7983203,15.7776562 82.1583203,15.8526562 82.5333203,15.8526562 C83.8833203,15.8526562 84.4383203,14.9526562 84.4383203,13.6176562 C84.4383203,12.2376562 83.8683203,11.6376562 82.9083203,11.6376562 C82.2483203,11.6376562 81.8133203,11.9526562 81.5433203,12.3126562 Z" id="App" fill="#41CFF6"></path>
                    <path d="M14.9629622,18.6376904 L14.9629622,6.59384309 C15.3127835,6.41893244 15.9124772,6.29399627 16.7870304,6.29399627 C17.6615836,6.29399627 18.2612773,6.41893244 18.5861113,6.59384309 L18.5861113,18.6376904 C18.2612773,18.812601 17.6615836,18.9375372 16.7870304,18.9375372 C15.9124772,18.9375372 15.3127835,18.812601 14.9629622,18.6376904 Z M24.4366939,8.44289848 C24.7865152,7.06860055 25.5861067,5.89420051 27.63506,5.89420051 C27.7612549,5.89420051 27.8821534,5.89949689 27.9972863,5.91008966 C27.9972863,5.91008966 27.0862053,9.51478393 27.0862053,9.51478393 C25.8118563,9.51478393 25.1613237,10.3669156 24.6865663,11.6662518 L24.6865663,18.6376904 C24.3617322,18.812601 23.7620386,18.9375372 22.8874853,18.9375372 C22.0129321,18.9375372 21.4132385,18.812601 21.0634172,18.6376904 L21.0634172,6.71877926 C21.7380725,6.34397074 22.7875364,6.14407286 23.9869237,6.14407286 L24.236796,8.44289848 L24.4366939,8.44289848 Z M39.6432112,13.7901668 L32.0470918,13.7901668 C32.1970152,15.5392732 33.4463769,16.3888392 35.9201132,16.3888392 C37.5192962,16.3888392 38.9185814,16.0390179 39.8181219,15.6392222 C39.8930836,16.5887371 39.4932878,17.8131116 38.9185814,18.4627797 C38.0940026,18.9375372 36.6947175,19.3373329 34.9705983,19.3373329 C30.5978321,19.3373329 28.2740193,16.8136222 28.2740193,12.7656901 C28.2740193,8.59282189 30.7727428,5.89420051 34.6957387,5.89420051 C38.343875,5.89420051 40.0180197,8.14305166 40.0180197,11.4413667 C40.0180197,12.2409582 39.8680963,13.1404987 39.6432112,13.7901668 Z M31.9471428,11.1665071 L36.6197558,11.1665071 C36.8196537,9.86717087 36.3448962,8.59282189 34.5458153,8.59282189 C32.9966067,8.59282189 32.0470918,9.59231129 31.9471428,11.1665071 Z M52.9520832,8.57377098 L55.3893411,0.134765625 L56.0752298,0.332856224 L48.9360198,25.0523709 L48.2501311,24.8542803 L50.0021386,18.7879544 C49.8379387,18.7446398 49.7002101,18.69373 49.5881307,18.6376904 L49.5881307,11.3414177 C49.5881307,10.0420815 49.1383605,9.21750276 47.6641136,9.21750276 C46.3647774,9.21750276 45.6401476,9.86717087 45.1903774,10.6417752 L45.1903774,18.6376904 C44.8655433,18.812601 44.2658497,18.9375372 43.3912965,18.9375372 C42.5167432,18.9375372 41.9170496,18.812601 41.5672283,18.6376904 L41.5672283,6.71877926 C42.2418836,6.34397074 43.3163348,6.14407286 44.515722,6.14407286 L44.7156199,8.19302613 L44.9155178,8.19302613 C45.5152114,6.89368991 46.7895604,5.89420051 49.0633988,5.89420051 C50.5746405,5.89420051 52.3074214,6.3214546 52.9520832,8.57377098 Z M6.33893697,13.6014769 L5.0003351,18.7755404 C4.61292075,18.7295247 4.35128659,18.5405424 4.21543264,18.2085937 C3.31417227,15.5983578 1.96228173,11.7424974 0.159761007,6.64101246 C0.625378965,6.33060049 1.34967357,6.12365918 2.43611547,6.12365918 C3.2121454,6.12365918 3.75536635,6.2529975 3.98817533,6.35646816 L6.08345613,12.8518453 C6.13478986,12.9946392 6.21995014,13.2445164 6.33893697,13.6014769 Z M6.2932562,18.7957569 C6.47432985,17.6575797 7.53204534,13.9124195 7.84245731,12.8518453 L9.80839979,6.35646816 C10.0929441,6.2529975 10.5326944,6.12365918 11.3604597,6.12365918 C12.4210339,6.12365918 13.1453285,6.33060049 13.6109464,6.64101246 L9.59514082,18.6172767 C9.11919349,18.8552503 8.58375274,18.9742372 7.98881857,18.9742372 C7.3938844,18.9742372 6.82869695,18.9147438 6.2932562,18.7957569 Z M15.0454502,4.2674427 L16.1213532,1.27067042 C16.4833338,1.22160349 16.9899424,0.897011463 17.8419676,0.897011463 C18.6939927,0.897011463 19.3558757,1.22160349 19.6511717,1.27067042 L18.5752688,4.2674427 C18.2376318,4.31650962 17.5484842,4.61991427 16.696459,4.61991427 C15.8444339,4.61991427 15.3650898,4.31650962 15.0454502,4.2674427 Z" id="Viren-Copy" fill="#0D3742"></path>
                </g>
            </g>
        </g>
    </g>
</svg>