<?xml version="1.0" encoding="UTF-8"?>
<svg width="311px" height="140px" viewBox="0 0 311 140" version="1.1" xmlns="http://www.w3.org/2000/svg" xmlns:xlink="http://www.w3.org/1999/xlink">
    <!-- Generator: Sketch 53.2 (72643) - https://sketchapp.com -->
    <title>Shape</title>
    <desc>Created with Sketch.</desc>
    <g id="Page-1" stroke="none" stroke-width="1" fill="none" fill-rule="evenodd">
        <g id="viren" fill="#226375">
            <path d="M82.9403,103.669 L82.9403,36.1893 C84.9003,35.2093 88.2603,34.5093 93.1603,34.5093 C98.0603,34.5093 101.42,35.2093 103.24,36.1893 L103.24,103.669 C101.42,104.649 98.0603,105.349 93.1603,105.349 C88.2603,105.349 84.9003,104.649 82.9403,103.669 Z M136.02,46.5493 C137.98,38.8493 142.46,32.2693 153.94,32.2693 C156.6,32.2693 158.84,32.6893 160.52,33.5293 C162.48,37.0293 161.02,38.5549 158.365,42.5549 C156.264,45.7197 155.205,52.5549 150.865,52.5549 C143.725,52.5549 140.08,57.3293 137.42,64.6093 L137.42,103.669 C135.6,104.649 132.24,105.349 127.34,105.349 C122.44,105.349 119.08,104.649 117.12,103.669 L117.12,36.8893 C120.9,34.7893 126.78,33.6693 133.5,33.6693 L134.9,46.5493 L136.02,46.5493 Z M221.22,76.5093 L178.66,76.5093 C179.5,86.3093 186.5,91.0693 200.36,91.0693 C209.32,91.0693 217.16,89.1093 222.2,86.8693 C222.62,92.1893 220.38,99.0493 217.16,102.689 C212.54,105.349 204.7,107.589 195.04,107.589 C170.54,107.589 157.52,93.4493 157.52,70.7693 C157.52,47.3893 171.52,32.2693 193.5,32.2693 C213.94,32.2693 223.32,44.8693 223.32,63.3493 C223.32,67.8293 222.48,72.8693 221.22,76.5093 Z M178.1,61.8093 L204.28,61.8093 C205.4,54.5293 202.74,47.3893 192.66,47.3893 C183.98,47.3893 178.66,52.9893 178.1,61.8093 Z M294.073,42.8348 L306.444,0 L310.287,1.10987 L270.287,139.61 L266.444,138.5 L276.94,102.155 L276.94,62.7893 C276.94,55.5093 274.42,50.8893 266.16,50.8893 C258.88,50.8893 254.82,54.5293 252.3,58.8693 C252.3,58.8693 252.3,73.8026 252.3,103.669 C250.48,104.649 247.12,105.349 242.22,105.349 C237.32,105.349 233.96,104.649 232,103.669 L232,36.8893 C235.78,34.7893 241.8,33.6693 248.52,33.6693 L249.64,45.1493 L250.76,45.1493 C254.12,37.8693 261.26,32.2693 274,32.2693 C281.359,32.2693 289.656,34.0774 294.073,42.8348 L294.073,42.8348 Z M34.6211,75.4521 L27.1211,104.442 C24.9504,104.184 23.4845,103.125 22.7234,101.265 C17.6737,86.6404 10.0993,65.0365 0,36.4536 C2.60879,34.7144 6.66691,33.5549 12.7541,33.5549 C17.1021,33.5549 20.1457,34.2796 21.4501,34.8593 L33.1896,71.252 C33.4773,72.0521 33.9544,73.4521 34.6211,75.4521 Z M34.3651,104.555 C35.3797,98.1779 41.3059,77.1943 43.0451,71.252 L54.06,34.8593 C55.6542,34.2796 58.1181,33.5549 62.756,33.5549 C68.6982,33.5549 72.7563,34.7144 75.3651,36.4536 L52.8651,103.555 C50.1985,104.888 47.1985,105.555 43.8651,105.555 C40.5318,105.555 37.3651,105.222 34.3651,104.555 Z M83.4024,23.1548 L89.4306,6.36432 C91.4587,6.0894 94.2972,4.27076 99.0709,4.27076 C103.845,4.27076 107.553,6.0894 109.208,6.36432 L103.18,23.1548 C101.288,23.4297 97.4266,25.1297 92.6528,25.1297 C87.879,25.1297 85.1933,23.4297 83.4024,23.1548 Z" id="Shape"></path>
        </g>
    </g>
</svg>