<?xml version="1.0" encoding="UTF-8"?>
<svg width="92px" height="42px" viewBox="0 0 92 42" version="1.1" xmlns="http://www.w3.org/2000/svg" xmlns:xlink="http://www.w3.org/1999/xlink">
    <!-- Generator: Sketch 50.2 (55047) - http://www.bohemiancoding.com/sketch -->
    <title>Viren</title>
    <desc>Created with Sketch.</desc>
    <defs></defs>
    <g id="Page-1" stroke="none" stroke-width="1" fill="none" fill-rule="evenodd">
        <g id="Viren-Copy-2" transform="translate(-174.000000, -30.000000)" fill="#0D3742">
            <path d="M198.838893,60.796289 L198.838893,41.2756694 C199.405882,40.9921749 200.377863,40.7896789 201.795335,40.7896789 C203.212807,40.7896789 204.184788,40.9921749 204.711278,41.2756694 L204.711278,60.796289 C204.184788,61.0797835 203.212807,61.2822796 201.795335,61.2822796 C200.377863,61.2822796 199.405882,61.0797835 198.838893,60.796289 Z M214.193879,44.272611 C214.760868,42.0451544 216.056843,40.1416915 219.377778,40.1416915 C219.582314,40.1416915 219.778266,40.1502758 219.964873,40.1674446 C219.964873,40.1674446 218.488197,46.0099187 218.488197,46.0099187 C216.422737,46.0099187 215.368356,47.3910502 214.598871,49.4970092 L214.598871,60.796289 C214.072382,61.0797835 213.1004,61.2822796 211.682928,61.2822796 C210.265456,61.2822796 209.293475,61.0797835 208.726486,60.796289 L208.726486,41.4781654 C209.819964,40.8706773 211.520931,40.5466836 213.464893,40.5466836 L213.869885,44.272611 L214.193879,44.272611 Z M238.840542,52.9394421 L226.528782,52.9394421 C226.771777,55.7743869 228.796737,57.1513601 232.806159,57.1513601 C235.398109,57.1513601 237.666065,56.5843711 239.124036,55.9363837 C239.245534,57.4753537 238.597547,59.4598151 237.666065,60.5127946 C236.329591,61.2822796 234.061635,61.9302669 231.267189,61.9302669 C224.179827,61.9302669 220.413401,57.8398466 220.413401,51.2789745 C220.413401,44.5156063 224.463322,40.1416915 230.821698,40.1416915 C236.734583,40.1416915 239.44803,43.7866205 239.44803,49.1325163 C239.44803,50.428491 239.205035,51.8864626 238.840542,52.9394421 Z M226.366785,48.687025 L233.940137,48.687025 C234.264131,46.581066 233.494646,44.5156063 230.578703,44.5156063 C228.067752,44.5156063 226.528782,46.1355747 226.366785,48.687025 Z M260.411509,44.4847286 L264.361806,30.8068224 L265.473492,31.1278868 L253.902289,71.1931776 L252.790603,70.8721132 L255.63025,61.0398364 C255.364116,60.9696323 255.140885,60.8871179 254.959228,60.796289 L254.959228,48.9705195 C254.959228,46.8645605 254.230242,45.5280865 251.840788,45.5280865 C249.73483,45.5280865 248.560352,46.581066 247.831367,47.8365415 L247.831367,60.796289 C247.304877,61.0797835 246.332896,61.2822796 244.915423,61.2822796 C243.497951,61.2822796 242.52597,61.0797835 241.958981,60.796289 L241.958981,41.4781654 C243.05246,40.8706773 244.793926,40.5466836 246.737888,40.5466836 L247.061882,43.8676189 L247.385875,43.8676189 C248.357856,41.7616599 250.423316,40.1416915 254.108744,40.1416915 C256.558159,40.1416915 259.366643,40.8341832 260.411509,44.4847286 Z M184.861107,52.6336143 L182.691506,61.0197159 C182.063587,60.9451337 181.639531,60.6388321 181.41934,60.1008109 C179.95858,55.870151 177.767442,49.6205878 174.845923,41.3521213 C175.600595,40.8490068 176.774529,40.5135972 178.535429,40.5135972 C179.793216,40.5135972 180.673666,40.7232282 181.051002,40.890933 L184.447025,51.4186144 C184.530226,51.6500542 184.668253,52.0550541 184.861107,52.6336143 Z M184.787068,61.0524827 C185.080551,59.2077296 186.794892,53.1375889 187.298007,51.4186144 L190.484398,40.890933 C190.945587,40.7232282 191.658332,40.5135972 192.999971,40.5135972 C194.718945,40.5135972 195.892879,40.8490068 196.647551,41.3521213 L190.138749,60.7632026 C189.367336,61.1489094 188.499495,61.3417628 187.535228,61.3417628 C186.570961,61.3417628 185.654908,61.2453361 184.787068,61.0524827 Z M198.972589,37.5050489 L200.716408,32.6478923 C201.303105,32.5683649 202.124214,32.0422674 203.505173,32.0422674 C204.886132,32.0422674 205.958909,32.5683649 206.437524,32.6478923 L204.693705,37.5050489 C204.146464,37.5845764 203.029496,38.0763334 201.648537,38.0763334 C200.267578,38.0763334 199.490659,37.5845764 198.972589,37.5050489 Z" id="Viren"></path>
        </g>
    </g>
</svg>