<svg width="1227" height="441" viewBox="0 0 1227 441" fill="none" xmlns="http://www.w3.org/2000/svg">
<path fill-rule="evenodd" clip-rule="evenodd" d="M442.807 170L441.371 170L441.371 155.636L439.907 155.636C437.146 155.636 434.907 153.398 434.907 150.636L434.907 149.173L416.953 149.173C414.573 149.173 412.644 147.244 412.644 144.864L412.644 126.909L411.18 126.909C408.418 126.909 406.18 124.671 406.18 121.909L406.18 120.446L388.225 120.446C385.845 120.446 383.916 118.516 383.916 116.136L383.916 98.1819L382.453 98.1819C379.691 98.1819 377.453 95.9433 377.453 93.1819L377.453 88.8182C377.453 86.0568 379.691 83.8182 382.453 83.8182L386.816 83.8182C389.578 83.8182 391.816 86.0568 391.816 88.8182L391.816 93.1819C391.816 95.9433 389.578 98.1819 386.816 98.1819L385.353 98.1819L385.353 116.136C385.353 117.723 386.639 119.009 388.225 119.009L406.18 119.009L406.18 117.546C406.18 114.784 408.418 112.546 411.18 112.546L415.544 112.546C418.305 112.546 420.544 114.784 420.544 117.546L420.544 119.009L437.78 119.009C439.366 119.009 440.653 117.723 440.653 116.136L440.653 98.1819L439.907 98.1819C437.146 98.1819 434.907 95.9433 434.907 93.1819L434.907 91.7183L416.953 91.7183C414.573 91.7183 412.644 89.789 412.644 87.4092L412.644 69.4546L411.18 69.4546C408.418 69.4546 406.18 67.216 406.18 64.4546L406.18 60.091C406.18 57.3295 408.418 55.091 411.18 55.091L412.644 55.091L412.644 50.6641C412.644 48.2843 414.573 46.3551 416.953 46.3551L438.498 46.3551C440.085 46.3551 441.371 45.0689 441.371 43.4823L441.371 40.0092L441.371 26.3637L439.907 26.3637C437.146 26.3637 434.907 24.1251 434.907 21.3637L434.907 17.0001C434.907 14.2386 437.146 12.0001 439.907 12.0001L444.271 12.0001C447.032 12.0001 449.271 14.2386 449.271 17.0001L449.271 21.3637C449.271 24.1251 447.032 26.3637 444.271 26.3637L442.807 26.3637L442.807 40.0092L442.807 43.4823L442.807 43.4881L442.807 43.6001C442.807 45.1866 444.093 46.4728 445.68 46.4728L467.225 46.4728C469.605 46.4728 471.534 48.402 471.534 50.7819L471.534 55.091L472.998 55.091C475.759 55.091 477.998 57.3296 477.998 60.091L477.998 64.4546C477.998 67.216 475.759 69.4546 472.998 69.4546L471.534 69.4546L471.534 87.4092C471.534 89.789 469.605 91.7183 467.225 91.7183L449.271 91.7183L449.271 93.1819C449.271 95.9433 447.032 98.1819 444.271 98.1819L442.089 98.1819L442.089 116.136C442.089 118.516 440.16 120.446 437.78 120.446L420.544 120.446L420.544 121.909C420.544 124.671 418.305 126.909 415.544 126.909L414.08 126.909L414.08 144.864C414.08 146.45 415.366 147.736 416.953 147.736L434.907 147.736L434.907 146.273C434.907 143.511 437.146 141.273 439.907 141.273L444.271 141.273C447.032 141.273 449.271 143.511 449.271 146.273L449.271 147.736L467.225 147.736C468.812 147.736 470.098 146.45 470.098 144.864L470.098 126.909L468.634 126.909C465.873 126.909 463.634 124.671 463.634 121.909L463.634 117.546C463.634 114.784 465.873 112.546 468.634 112.546L472.998 112.546C475.759 112.546 477.998 114.784 477.998 117.546L477.998 121.909C477.998 124.671 475.759 126.909 472.998 126.909L471.534 126.909L471.534 144.864C471.534 147.244 469.605 149.173 467.225 149.173L449.271 149.173L449.271 150.636C449.271 153.398 447.032 155.636 444.271 155.636L442.807 155.636L442.807 170ZM449.271 90.2819L467.225 90.2819C468.812 90.2819 470.098 88.9957 470.098 87.4092L470.098 69.4546L468.634 69.4546C465.873 69.4546 463.634 67.216 463.634 64.4546L463.634 60.091C463.634 57.3296 465.873 55.091 468.634 55.091L470.098 55.091L470.098 50.7819C470.098 49.1953 468.812 47.9092 467.225 47.9092L445.68 47.9092C444.155 47.9092 442.816 47.1175 442.05 45.9229C441.273 47.0515 439.972 47.7914 438.498 47.7914L416.953 47.7914C415.366 47.7914 414.08 49.0776 414.08 50.6641L414.08 55.091L415.544 55.091C418.305 55.091 420.544 57.3296 420.544 60.091L420.544 64.4546C420.544 67.216 418.305 69.4546 415.544 69.4546L414.08 69.4546L414.08 87.4092C414.08 88.9957 415.366 90.2819 416.953 90.2819L434.907 90.2819L434.907 88.8182C434.907 86.0568 437.146 83.8182 439.907 83.8182L444.271 83.8182C447.032 83.8182 449.271 86.0568 449.271 88.8183L449.271 90.2819Z" fill="black" fill-opacity="0.1"/>
<path fill-rule="evenodd" clip-rule="evenodd" d="M823.807 440L822.371 440L822.371 425.636L820.907 425.636C818.146 425.636 815.907 423.398 815.907 420.636L815.907 419.173L797.953 419.173C795.573 419.173 793.644 417.244 793.644 414.864L793.644 396.909L792.18 396.909C789.418 396.909 787.18 394.671 787.18 391.909L787.18 390.446L769.225 390.446C766.845 390.446 764.916 388.516 764.916 386.136L764.916 368.182L763.453 368.182C760.691 368.182 758.453 365.943 758.453 363.182L758.453 358.818C758.453 356.057 760.691 353.818 763.453 353.818L767.816 353.818C770.578 353.818 772.816 356.057 772.816 358.818L772.816 363.182C772.816 365.943 770.578 368.182 767.816 368.182L766.353 368.182L766.353 386.136C766.353 387.723 767.639 389.009 769.225 389.009L787.18 389.009L787.18 387.546C787.18 384.784 789.418 382.546 792.18 382.546L796.544 382.546C799.305 382.546 801.544 384.784 801.544 387.546L801.544 389.009L818.78 389.009C820.366 389.009 821.653 387.723 821.653 386.136L821.653 368.182L820.907 368.182C818.146 368.182 815.907 365.943 815.907 363.182L815.907 361.718L797.953 361.718C795.573 361.718 793.644 359.789 793.644 357.409L793.644 339.455L792.18 339.455C789.418 339.455 787.18 337.216 787.18 334.455L787.18 330.091C787.18 327.33 789.418 325.091 792.18 325.091L793.644 325.091L793.644 320.664C793.644 318.284 795.573 316.355 797.953 316.355L819.498 316.355C821.085 316.355 822.371 315.069 822.371 313.482L822.371 310.009L822.371 296.364L820.907 296.364C818.146 296.364 815.907 294.125 815.907 291.364L815.907 287C815.907 284.239 818.146 282 820.907 282L825.271 282C828.032 282 830.271 284.239 830.271 287L830.271 291.364C830.271 294.125 828.032 296.364 825.271 296.364L823.807 296.364L823.807 310.009L823.807 313.482L823.807 313.488L823.807 313.6C823.807 315.187 825.093 316.473 826.68 316.473L848.225 316.473C850.605 316.473 852.534 318.402 852.534 320.782L852.534 325.091L853.998 325.091C856.759 325.091 858.998 327.33 858.998 330.091L858.998 334.455C858.998 337.216 856.759 339.455 853.998 339.455L852.534 339.455L852.534 357.409C852.534 359.789 850.605 361.718 848.225 361.718L830.271 361.718L830.271 363.182C830.271 365.943 828.032 368.182 825.271 368.182L823.089 368.182L823.089 386.136C823.089 388.516 821.16 390.446 818.78 390.446L801.544 390.446L801.544 391.909C801.544 394.671 799.305 396.909 796.544 396.909L795.08 396.909L795.08 414.864C795.08 416.45 796.366 417.736 797.953 417.736L815.907 417.736L815.907 416.273C815.907 413.511 818.146 411.273 820.907 411.273L825.271 411.273C828.032 411.273 830.271 413.511 830.271 416.273L830.271 417.736L848.225 417.736C849.812 417.736 851.098 416.45 851.098 414.864L851.098 396.909L849.634 396.909C846.873 396.909 844.634 394.671 844.634 391.909L844.634 387.546C844.634 384.784 846.873 382.546 849.634 382.546L853.998 382.546C856.759 382.546 858.998 384.784 858.998 387.546L858.998 391.909C858.998 394.671 856.759 396.909 853.998 396.909L852.534 396.909L852.534 414.864C852.534 417.244 850.605 419.173 848.225 419.173L830.271 419.173L830.271 420.636C830.271 423.398 828.032 425.636 825.271 425.636L823.807 425.636L823.807 440ZM830.271 360.282L848.225 360.282C849.812 360.282 851.098 358.996 851.098 357.409L851.098 339.455L849.634 339.455C846.873 339.455 844.634 337.216 844.634 334.455L844.634 330.091C844.634 327.33 846.873 325.091 849.634 325.091L851.098 325.091L851.098 320.782C851.098 319.195 849.812 317.909 848.225 317.909L826.68 317.909C825.155 317.909 823.816 317.118 823.05 315.923C822.273 317.052 820.972 317.791 819.498 317.791L797.953 317.791C796.366 317.791 795.08 319.078 795.08 320.664L795.08 325.091L796.544 325.091C799.305 325.091 801.544 327.33 801.544 330.091L801.544 334.455C801.544 337.216 799.305 339.455 796.544 339.455L795.08 339.455L795.08 357.409C795.08 358.996 796.366 360.282 797.953 360.282L815.907 360.282L815.907 358.818C815.907 356.057 818.146 353.818 820.907 353.818L825.271 353.818C828.032 353.818 830.271 356.057 830.271 358.818L830.271 360.282Z" fill="black" fill-opacity="0.1"/>
<path fill-rule="evenodd" clip-rule="evenodd" d="M705.191 51.9999H706.627V66.3635H708.091C710.852 66.3635 713.091 68.6021 713.091 71.3635V72.8271H731.045C733.425 72.8271 735.355 74.7564 735.355 77.1362V95.0908H736.818C739.58 95.0908 741.818 97.3293 741.818 100.091V101.554H759.773C762.153 101.554 764.082 103.484 764.082 105.863V123.818H765.545C768.307 123.818 770.545 126.057 770.545 128.818V133.182C770.545 135.943 768.307 138.182 765.545 138.182H761.182C758.42 138.182 756.182 135.943 756.182 133.182V128.818C756.182 126.057 758.42 123.818 761.182 123.818H762.645V105.863C762.645 104.277 761.359 102.991 759.773 102.991H741.818V104.454C741.818 107.216 739.58 109.454 736.818 109.454H732.455C729.693 109.454 727.455 107.216 727.455 104.454V102.991H710.218C708.632 102.991 707.345 104.277 707.345 105.863V123.818H708.091C710.852 123.818 713.091 126.057 713.091 128.818V130.282H731.045C733.425 130.282 735.355 132.211 735.355 134.591V152.545H736.818C739.58 152.545 741.818 154.784 741.818 157.545V161.909C741.818 164.67 739.58 166.909 736.818 166.909H735.355V171.336C735.355 173.716 733.425 175.645 731.045 175.645H709.5C707.913 175.645 706.627 176.931 706.627 178.518V181.991V195.636H708.091C710.852 195.636 713.091 197.875 713.091 200.636V205C713.091 207.761 710.852 210 708.091 210H703.727C700.966 210 698.727 207.761 698.727 205V200.636C698.727 197.875 700.966 195.636 703.727 195.636H705.191L705.191 181.991V178.518L705.191 178.512V178.4C705.191 176.813 703.905 175.527 702.318 175.527H680.773C678.393 175.527 676.464 173.598 676.464 171.218V166.909H675C672.239 166.909 670 164.67 670 161.909V157.545C670 154.784 672.239 152.545 675 152.545H676.464V134.591C676.464 132.211 678.393 130.282 680.773 130.282H698.727V128.818C698.727 126.057 700.966 123.818 703.727 123.818H705.909V105.863C705.909 103.484 707.838 101.554 710.218 101.554H727.455V100.091C727.455 97.3293 729.693 95.0908 732.455 95.0908H733.918V77.1362C733.918 75.5497 732.632 74.2635 731.045 74.2635H713.091V75.7271C713.091 78.4886 710.852 80.7271 708.091 80.7271H703.727C700.966 80.7271 698.727 78.4886 698.727 75.7271V74.2635H680.773C679.186 74.2635 677.9 75.5497 677.9 77.1362V95.0908H679.364C682.125 95.0908 684.364 97.3293 684.364 100.091V104.454C684.364 107.216 682.125 109.454 679.364 109.454H675C672.239 109.454 670 107.216 670 104.454V100.091C670 97.3293 672.239 95.0908 675 95.0908H676.464V77.1362C676.464 74.7564 678.393 72.8271 680.773 72.8271H698.727V71.3635C698.727 68.6021 700.966 66.3635 703.727 66.3635H705.191V51.9999ZM698.727 131.718H680.773C679.186 131.718 677.9 133.004 677.9 134.591V152.545H679.364C682.125 152.545 684.364 154.784 684.364 157.545V161.909C684.364 164.67 682.125 166.909 679.364 166.909H677.9V171.218C677.9 172.805 679.186 174.091 680.773 174.091H702.318C703.843 174.091 705.182 174.882 705.948 176.077C706.725 174.948 708.026 174.209 709.5 174.209H731.045C732.632 174.209 733.918 172.922 733.918 171.336V166.909H732.455C729.693 166.909 727.455 164.67 727.455 161.909V157.545C727.455 154.784 729.693 152.545 732.455 152.545H733.918V134.591C733.918 133.004 732.632 131.718 731.045 131.718H713.091V133.182C713.091 135.943 710.852 138.182 708.091 138.182H703.727C700.966 138.182 698.727 135.943 698.727 133.182V131.718Z" fill="black" fill-opacity="0.1"/>
<path fill-rule="evenodd" clip-rule="evenodd" d="M763.627 137H762.191V151.364H760.727C757.966 151.364 755.727 153.602 755.727 156.364V160.727C755.727 163.489 757.966 165.727 760.727 165.727H765.091C767.852 165.727 770.091 163.489 770.091 160.727V159.264H788.045C789.632 159.264 790.918 160.55 790.918 162.136V180.091H789.455C786.693 180.091 784.455 182.329 784.455 185.091V186.554H767.218C764.838 186.554 762.909 188.484 762.909 190.864V208.818H760.727C757.966 208.818 755.727 211.057 755.727 213.818V215.282H737.773C735.393 215.282 733.464 217.211 733.464 219.591V237.545H732C729.239 237.545 727 239.784 727 242.545V246.909C727 249.67 729.239 251.909 732 251.909H733.464V256.218C733.464 258.598 735.393 260.527 737.773 260.527H759.318C760.905 260.527 762.191 261.813 762.191 263.4V263.512L762.191 263.518V266.991L762.191 280.636H760.727C757.966 280.636 755.727 282.875 755.727 285.636V290C755.727 292.761 757.966 295 760.727 295H765.091C767.852 295 770.091 292.761 770.091 290V285.636C770.091 282.875 767.852 280.636 765.091 280.636H763.627V266.991V263.518C763.627 261.931 764.913 260.645 766.5 260.645H788.045C790.425 260.645 792.355 258.716 792.355 256.336V251.909H793.818C796.58 251.909 798.818 249.67 798.818 246.909V242.545C798.818 239.784 796.58 237.545 793.818 237.545H792.355V219.591C792.355 217.211 790.425 215.282 788.045 215.282H770.091V213.818C770.091 211.057 767.852 208.818 765.091 208.818H764.345V190.864C764.345 189.277 765.632 187.991 767.218 187.991H784.455V189.454C784.455 192.216 786.693 194.454 789.455 194.454H793.818C796.58 194.454 798.818 192.216 798.818 189.454V187.991H816.773C818.359 187.991 819.645 189.277 819.645 190.864V208.818H818.182C815.42 208.818 813.182 211.057 813.182 213.818V218.182C813.182 220.943 815.42 223.182 818.182 223.182H822.545C825.307 223.182 827.545 220.943 827.545 218.182V213.818C827.545 211.057 825.307 208.818 822.545 208.818H821.082V190.864C821.082 188.484 819.153 186.554 816.773 186.554H798.818V185.091C798.818 182.329 796.58 180.091 793.818 180.091H792.355V162.136C792.355 159.756 790.425 157.827 788.045 157.827H770.091V156.364C770.091 153.602 767.852 151.364 765.091 151.364H763.627V137ZM734.9 237.545H736.364C739.125 237.545 741.364 239.784 741.364 242.545V246.909C741.364 249.67 739.125 251.909 736.364 251.909H734.9V256.218C734.9 257.805 736.186 259.091 737.773 259.091H759.318C760.843 259.091 762.182 259.882 762.948 261.077C763.725 259.948 765.026 259.209 766.5 259.209H788.045C789.632 259.209 790.918 257.922 790.918 256.336V251.909H789.455C786.693 251.909 784.455 249.67 784.455 246.909V242.545C784.455 239.784 786.693 237.545 789.455 237.545H790.918V219.591C790.918 218.004 789.632 216.718 788.045 216.718H770.091V218.182C770.091 220.943 767.852 223.182 765.091 223.182H760.727C757.966 223.182 755.727 220.943 755.727 218.182V216.718H737.773C736.186 216.718 734.9 218.004 734.9 219.591V237.545ZM727 185.091C727 182.329 729.239 180.091 732 180.091H736.364C739.125 180.091 741.364 182.329 741.364 185.091V189.454C741.364 192.216 739.125 194.454 736.364 194.454H732C729.239 194.454 727 192.216 727 189.454V185.091Z" fill="black" fill-opacity="0.1"/>
<path fill-rule="evenodd" clip-rule="evenodd" d="M385.346 375L383.91 375L383.91 360.636L382.446 360.636C379.685 360.636 377.446 358.398 377.446 355.636L377.446 354.173L359.492 354.173C357.112 354.173 355.183 352.243 355.183 349.864L355.183 331.909L353.719 331.909C350.958 331.909 348.719 329.67 348.719 326.909L348.719 325.445L330.764 325.445C328.385 325.445 326.455 323.516 326.455 321.136L326.455 303.182L324.992 303.182C322.23 303.182 319.992 300.943 319.992 298.182L319.992 293.818C319.992 291.057 322.23 288.818 324.992 288.818L329.355 288.818C332.117 288.818 334.355 291.057 334.355 293.818L334.355 298.182C334.355 300.943 332.117 303.182 329.355 303.182L327.892 303.182L327.892 321.136C327.892 322.723 329.178 324.009 330.764 324.009L348.719 324.009L348.719 322.545C348.719 319.784 350.957 317.545 353.719 317.545L358.083 317.545C360.844 317.545 363.083 319.784 363.083 322.545L363.083 324.009L380.319 324.009C381.905 324.009 383.192 322.723 383.192 321.136L383.192 303.182L382.446 303.182C379.685 303.182 377.446 300.943 377.446 298.182L377.446 296.718L359.492 296.718C357.112 296.718 355.183 294.789 355.183 292.409L355.183 274.454L353.719 274.454C350.957 274.454 348.719 272.216 348.719 269.454L348.719 265.091C348.719 262.329 350.957 260.091 353.719 260.091L355.183 260.091L355.183 255.664C355.183 253.284 357.112 251.355 359.492 251.355L381.037 251.355C382.624 251.355 383.91 250.069 383.91 248.482L383.91 245.009L383.91 231.364L382.446 231.364C379.685 231.364 377.446 229.125 377.446 226.364L377.446 222C377.446 219.238 379.685 217 382.446 217L386.81 217C389.571 217 391.81 219.238 391.81 222L391.81 226.364C391.81 229.125 389.571 231.364 386.81 231.364L385.346 231.364L385.346 245.009L385.346 248.482L385.346 248.488L385.346 248.6C385.346 250.186 386.632 251.473 388.219 251.473L409.764 251.473C412.144 251.473 414.073 253.402 414.073 255.782L414.073 260.091L415.537 260.091C418.299 260.091 420.537 262.329 420.537 265.091L420.537 269.454C420.537 272.216 418.299 274.454 415.537 274.454L414.073 274.454L414.073 292.409C414.073 294.789 412.144 296.718 409.764 296.718L391.81 296.718L391.81 298.182C391.81 300.943 389.571 303.182 386.81 303.182L384.628 303.182L384.628 321.136C384.628 323.516 382.699 325.445 380.319 325.445L363.083 325.445L363.083 326.909C363.083 329.67 360.844 331.909 358.083 331.909L356.619 331.909L356.619 349.864C356.619 351.45 357.905 352.736 359.492 352.736L377.446 352.736L377.446 351.273C377.446 348.511 379.685 346.273 382.446 346.273L386.81 346.273C389.571 346.273 391.81 348.511 391.81 351.273L391.81 352.736L409.764 352.736C411.351 352.736 412.637 351.45 412.637 349.864L412.637 331.909L411.173 331.909C408.412 331.909 406.173 329.67 406.173 326.909L406.173 322.545C406.173 319.784 408.412 317.545 411.173 317.545L415.537 317.545C418.299 317.545 420.537 319.784 420.537 322.545L420.537 326.909C420.537 329.67 418.299 331.909 415.537 331.909L414.073 331.909L414.073 349.864C414.073 352.243 412.144 354.173 409.764 354.173L391.81 354.173L391.81 355.636C391.81 358.398 389.571 360.636 386.81 360.636L385.346 360.636L385.346 375ZM391.81 295.282L409.764 295.282C411.351 295.282 412.637 293.996 412.637 292.409L412.637 274.454L411.173 274.454C408.412 274.454 406.173 272.216 406.173 269.454L406.173 265.091C406.173 262.329 408.412 260.091 411.173 260.091L412.637 260.091L412.637 255.782C412.637 254.195 411.351 252.909 409.764 252.909L388.219 252.909C386.694 252.909 385.355 252.117 384.589 250.923C383.812 252.051 382.511 252.791 381.037 252.791L359.492 252.791C357.905 252.791 356.619 254.077 356.619 255.664L356.619 260.091L358.083 260.091C360.844 260.091 363.083 262.329 363.083 265.091L363.083 269.454C363.083 272.216 360.844 274.454 358.083 274.454L356.619 274.454L356.619 292.409C356.619 293.996 357.905 295.282 359.492 295.282L377.446 295.282L377.446 293.818C377.446 291.057 379.685 288.818 382.446 288.818L386.81 288.818C389.571 288.818 391.81 291.057 391.81 293.818L391.81 295.282Z" fill="black" fill-opacity="0.1"/>
<g filter="url(#filter0_d)">
<path fill-rule="evenodd" clip-rule="evenodd" d="M425.357 193.53C435.988 178.568 449.77 168.133 466.701 162.227C467.489 144.114 472.607 127.576 482.058 112.613C491.508 97.2568 504.108 85.2472 519.858 76.5845C535.609 67.5281 552.54 62.9999 570.653 62.9999C587.978 62.9999 604.122 66.9374 619.085 74.8126C634.048 82.6877 646.255 93.5161 655.705 107.298C664.761 102.966 674.211 100.801 684.055 100.801C695.868 100.801 706.893 103.754 717.131 109.66C727.369 115.566 735.441 123.639 741.347 133.876C747.253 144.114 750.207 155.139 750.207 166.952C750.207 173.252 749.419 179.355 747.844 185.262C760.05 191.955 769.698 201.406 776.785 213.612C784.267 225.425 788.007 238.222 788.007 252.004C788.007 265.785 784.66 278.582 777.966 290.395C771.273 301.814 762.019 310.87 750.207 317.564C738.788 324.258 726.187 327.605 712.406 327.605H495.052C479.695 327.605 465.52 323.667 452.526 315.792C439.532 308.311 429.097 298.073 421.222 285.079C413.741 272.085 410 257.91 410 242.553C410 224.44 415.119 208.1 425.357 193.53Z" fill="#359AB6"/>
</g>
<path fill-rule="evenodd" clip-rule="evenodd" d="M616.945 127H572.723C571.066 127 569.723 128.343 569.723 130V140.4C569.723 142.057 571.066 143.4 572.723 143.4H616.945C618.602 143.4 619.945 142.057 619.945 140.4V130C619.945 128.343 618.602 127 616.945 127ZM572.723 125C569.961 125 567.723 127.238 567.723 130V140.4C567.723 143.161 569.961 145.4 572.723 145.4H616.945C619.706 145.4 621.945 143.161 621.945 140.4V130C621.945 127.238 619.706 125 616.945 125H572.723Z" fill="white"/>
<rect x="605" y="220.2" width="20.3333" height="20.4" rx="5" fill="white"/>
<rect x="645.666" y="220.2" width="20.3333" height="20.4" rx="5" fill="white"/>
<rect x="544" y="179.4" width="20.3333" height="20.4" rx="5" fill="white"/>
<rect x="544" y="220.2" width="20.3333" height="20.4" rx="5" fill="white"/>
<path fill-rule="evenodd" clip-rule="evenodd" d="M616.945 276.6H572.723C571.066 276.6 569.723 277.943 569.723 279.6V290C569.723 291.657 571.066 293 572.723 293H616.945C618.602 293 619.945 291.657 619.945 290V279.6C619.945 277.943 618.602 276.6 616.945 276.6ZM572.723 274.6C569.961 274.6 567.723 276.838 567.723 279.6V290C567.723 292.761 569.961 295 572.723 295H616.945C619.706 295 621.945 292.761 621.945 290V279.6C621.945 276.838 619.706 274.6 616.945 274.6H572.723Z" fill="white"/>
<path d="M582.686 133.25V137.511H583.782C584.044 137.511 584.229 137.562 584.338 137.665C584.451 137.764 584.508 137.895 584.508 138.058C584.508 138.217 584.451 138.348 584.338 138.451C584.229 138.55 584.044 138.6 583.782 138.6H580.505C580.244 138.6 580.056 138.55 579.943 138.451C579.834 138.348 579.779 138.216 579.779 138.053C579.779 137.893 579.834 137.764 579.943 137.665C580.056 137.562 580.244 137.511 580.505 137.511H581.601V133.25H580.505C580.244 133.25 580.056 133.201 579.943 133.101C579.834 132.999 579.779 132.866 579.779 132.703C579.779 132.54 579.834 132.409 579.943 132.31C580.056 132.207 580.244 132.156 580.505 132.156L583.782 132.161C584.044 132.161 584.229 132.211 584.338 132.31C584.451 132.409 584.508 132.54 584.508 132.703C584.508 132.866 584.451 132.999 584.338 133.101C584.229 133.201 584.044 133.25 583.782 133.25H582.686Z" fill="white"/>
<path d="M587.298 134.217V137.511H587.69C587.951 137.511 588.137 137.562 588.246 137.665C588.359 137.764 588.416 137.895 588.416 138.058C588.416 138.217 588.359 138.348 588.246 138.451C588.137 138.55 587.951 138.6 587.69 138.6H586.266C586.005 138.6 585.818 138.55 585.705 138.451C585.595 138.348 585.54 138.216 585.54 138.053C585.54 137.897 585.595 137.767 585.705 137.665C585.814 137.562 585.983 137.511 586.213 137.511V133.25H586.043C585.782 133.25 585.595 133.201 585.482 133.101C585.373 132.999 585.318 132.866 585.318 132.703C585.318 132.54 585.373 132.409 585.482 132.31C585.595 132.207 585.782 132.156 586.043 132.156L587.298 132.161L590.073 136.528V133.25H589.681C589.42 133.25 589.233 133.201 589.12 133.101C589.01 132.999 588.956 132.866 588.956 132.703C588.956 132.54 589.01 132.409 589.12 132.31C589.233 132.207 589.42 132.156 589.681 132.156L591.106 132.161C591.367 132.161 591.552 132.211 591.662 132.31C591.775 132.409 591.831 132.54 591.831 132.703C591.831 132.862 591.776 132.993 591.667 133.096C591.557 133.199 591.39 133.25 591.164 133.25V138.6H590.089L587.298 134.217Z" fill="white"/>
<path d="M594.542 136.39V137.511H595.638C595.899 137.511 596.085 137.562 596.194 137.665C596.307 137.764 596.364 137.895 596.364 138.058C596.364 138.217 596.307 138.348 596.194 138.451C596.085 138.55 595.899 138.6 595.638 138.6H593.287C593.026 138.6 592.839 138.55 592.726 138.451C592.616 138.348 592.562 138.216 592.562 138.053C592.562 137.893 592.618 137.764 592.731 137.665C592.844 137.562 593.03 137.511 593.287 137.511H593.457V133.25H593.287C593.026 133.25 592.839 133.201 592.726 133.101C592.616 132.999 592.562 132.866 592.562 132.703C592.562 132.54 592.616 132.409 592.726 132.31C592.839 132.207 593.026 132.156 593.287 132.156L595.787 132.161C596.521 132.161 597.101 132.363 597.529 132.767C597.959 133.167 598.175 133.656 598.175 134.233C598.175 134.552 598.102 134.853 597.958 135.136C597.848 135.349 597.665 135.559 597.407 135.768C597.153 135.974 596.891 136.129 596.623 136.236C596.358 136.338 596.007 136.39 595.569 136.39H594.542ZM594.542 135.301H595.548C596.021 135.301 596.395 135.194 596.671 134.982C596.95 134.766 597.089 134.507 597.089 134.206C597.089 133.951 596.976 133.728 596.75 133.537C596.528 133.346 596.208 133.25 595.792 133.25H594.542V135.301Z" fill="white"/>
<path d="M604.163 133.25V136.337C604.163 137.01 603.922 137.582 603.438 138.053C602.958 138.524 602.379 138.759 601.701 138.759C601.366 138.759 601.05 138.701 600.753 138.584C600.46 138.463 600.196 138.288 599.959 138.058C599.726 137.828 599.544 137.589 599.414 137.341C599.283 137.089 599.218 136.755 599.218 136.337V133.25C598.988 133.25 598.819 133.199 598.709 133.096C598.6 132.993 598.545 132.862 598.545 132.703C598.545 132.54 598.6 132.409 598.709 132.31C598.819 132.211 599.006 132.161 599.271 132.161L600.695 132.156C600.956 132.156 601.142 132.207 601.251 132.31C601.364 132.409 601.421 132.54 601.421 132.703C601.421 132.866 601.364 132.999 601.251 133.101C601.142 133.201 600.956 133.25 600.695 133.25H600.303V136.432C600.303 136.758 600.437 137.047 600.706 137.298C600.978 137.546 601.304 137.67 601.685 137.67C601.939 137.67 602.178 137.61 602.4 137.489C602.623 137.369 602.804 137.194 602.946 136.964C603.034 136.818 603.078 136.641 603.078 136.432V133.25H602.686C602.425 133.25 602.238 133.201 602.125 133.101C602.015 132.999 601.961 132.866 601.961 132.703C601.961 132.54 602.015 132.409 602.125 132.31C602.238 132.207 602.425 132.156 602.686 132.156L604.11 132.161C604.372 132.161 604.557 132.211 604.666 132.31C604.779 132.409 604.836 132.54 604.836 132.703C604.836 132.862 604.781 132.993 604.672 133.096C604.562 133.199 604.393 133.25 604.163 133.25Z" fill="white"/>
<path d="M608.723 133.25V137.511H609.453C609.714 137.511 609.9 137.562 610.009 137.665C610.122 137.764 610.179 137.895 610.179 138.058C610.179 138.217 610.122 138.348 610.009 138.451C609.9 138.55 609.714 138.6 609.453 138.6H606.912C606.65 138.6 606.463 138.55 606.35 138.451C606.241 138.348 606.186 138.216 606.186 138.053C606.186 137.893 606.241 137.764 606.35 137.665C606.463 137.562 606.65 137.511 606.912 137.511H607.637V133.25H606.462V134.281C606.462 134.543 606.41 134.731 606.308 134.844C606.209 134.954 606.078 135.009 605.916 135.009C605.757 135.009 605.627 134.954 605.524 134.844C605.425 134.731 605.376 134.543 605.376 134.281V132.156L610.999 132.161V134.281C610.999 134.543 610.948 134.731 610.846 134.844C610.747 134.954 610.616 135.009 610.454 135.009C610.295 135.009 610.165 134.954 610.062 134.844C609.963 134.731 609.914 134.543 609.914 134.281V133.25H608.723Z" fill="white"/>
<path d="M582.274 284.98C582.274 285.947 581.966 286.753 581.352 287.398C580.742 288.039 580.034 288.359 579.229 288.359C578.505 288.359 577.852 288.092 577.27 287.557C576.55 286.895 576.189 286.036 576.189 284.98C576.189 283.925 576.55 283.064 577.27 282.399C577.852 281.864 578.505 281.596 579.229 281.596C580.034 281.596 580.742 281.919 581.352 282.563C581.966 283.204 582.274 284.01 582.274 284.98ZM581.188 284.98C581.188 284.318 580.989 283.771 580.59 283.339C580.191 282.903 579.737 282.685 579.229 282.685C578.724 282.685 578.272 282.903 577.873 283.339C577.474 283.774 577.275 284.322 577.275 284.98C577.275 285.639 577.474 286.186 577.873 286.622C578.272 287.054 578.724 287.27 579.229 287.27C579.737 287.27 580.191 287.054 580.59 286.622C580.989 286.19 581.188 285.643 581.188 284.98Z" fill="white"/>
<path d="M588.22 282.85V285.937C588.22 286.61 587.978 287.182 587.495 287.653C587.014 288.124 586.436 288.359 585.758 288.359C585.422 288.359 585.106 288.301 584.81 288.184C584.517 288.063 584.252 287.888 584.016 287.658C583.783 287.428 583.601 287.189 583.47 286.941C583.34 286.689 583.274 286.355 583.274 285.937V282.85C583.045 282.85 582.875 282.799 582.766 282.696C582.657 282.593 582.602 282.462 582.602 282.303C582.602 282.14 582.657 282.009 582.766 281.91C582.875 281.811 583.063 281.761 583.327 281.761L584.752 281.756C585.013 281.756 585.198 281.807 585.308 281.91C585.421 282.009 585.477 282.14 585.477 282.303C585.477 282.466 585.421 282.599 585.308 282.701C585.198 282.801 585.013 282.85 584.752 282.85H584.36V286.032C584.36 286.358 584.494 286.647 584.762 286.898C585.034 287.146 585.361 287.27 585.742 287.27C585.996 287.27 586.234 287.21 586.457 287.089C586.679 286.969 586.861 286.794 587.002 286.564C587.09 286.418 587.135 286.241 587.135 286.032V282.85H586.743C586.481 282.85 586.294 282.801 586.181 282.701C586.072 282.599 586.017 282.466 586.017 282.303C586.017 282.14 586.072 282.009 586.181 281.91C586.294 281.807 586.481 281.756 586.743 281.756L588.167 281.761C588.428 281.761 588.614 281.811 588.723 281.91C588.836 282.009 588.892 282.14 588.892 282.303C588.892 282.462 588.838 282.593 588.728 282.696C588.619 282.799 588.449 282.85 588.22 282.85Z" fill="white"/>
<path d="M592.779 282.85V287.111H593.51C593.771 287.111 593.956 287.162 594.066 287.265C594.179 287.364 594.235 287.495 594.235 287.658C594.235 287.817 594.179 287.948 594.066 288.051C593.956 288.15 593.771 288.2 593.51 288.2H590.968C590.707 288.2 590.52 288.15 590.407 288.051C590.297 287.948 590.243 287.816 590.243 287.653C590.243 287.493 590.297 287.364 590.407 287.265C590.52 287.162 590.707 287.111 590.968 287.111H591.694V282.85H590.518V283.881C590.518 284.143 590.467 284.331 590.365 284.444C590.266 284.554 590.135 284.609 589.973 284.609C589.814 284.609 589.683 284.554 589.581 284.444C589.482 284.331 589.433 284.143 589.433 283.881V281.756L595.056 281.761V283.881C595.056 284.143 595.005 284.331 594.902 284.444C594.804 284.554 594.673 284.609 594.511 284.609C594.352 284.609 594.221 284.554 594.119 284.444C594.02 284.331 593.971 284.143 593.971 283.881V282.85H592.779Z" fill="white"/>
<path d="M598.138 285.99V287.111H599.234C599.495 287.111 599.68 287.162 599.79 287.265C599.903 287.364 599.959 287.495 599.959 287.658C599.959 287.817 599.903 287.948 599.79 288.051C599.68 288.15 599.495 288.2 599.234 288.2H596.883C596.622 288.2 596.435 288.15 596.322 288.051C596.212 287.948 596.157 287.816 596.157 287.653C596.157 287.493 596.214 287.364 596.327 287.265C596.44 287.162 596.625 287.111 596.883 287.111H597.052V282.85H596.883C596.622 282.85 596.435 282.801 596.322 282.701C596.212 282.599 596.157 282.466 596.157 282.303C596.157 282.14 596.212 282.009 596.322 281.91C596.435 281.807 596.622 281.756 596.883 281.756L599.382 281.761C600.116 281.761 600.697 281.963 601.124 282.367C601.555 282.767 601.77 283.256 601.77 283.833C601.77 284.152 601.698 284.453 601.553 284.736C601.444 284.949 601.26 285.159 601.002 285.368C600.748 285.574 600.487 285.729 600.219 285.836C599.954 285.938 599.603 285.99 599.165 285.99H598.138ZM598.138 284.901H599.144C599.617 284.901 599.991 284.794 600.266 284.582C600.545 284.366 600.685 284.107 600.685 283.806C600.685 283.551 600.572 283.328 600.346 283.137C600.123 282.946 599.804 282.85 599.387 282.85H598.138V284.901Z" fill="white"/>
<path d="M607.759 282.85V285.937C607.759 286.61 607.517 287.182 607.034 287.653C606.554 288.124 605.975 288.359 605.297 288.359C604.961 288.359 604.646 288.301 604.349 288.184C604.056 288.063 603.791 287.888 603.555 287.658C603.322 287.428 603.14 287.189 603.009 286.941C602.879 286.689 602.813 286.355 602.813 285.937V282.85C602.584 282.85 602.415 282.799 602.305 282.696C602.196 282.593 602.141 282.462 602.141 282.303C602.141 282.14 602.196 282.009 602.305 281.91C602.415 281.811 602.602 281.761 602.866 281.761L604.291 281.756C604.552 281.756 604.737 281.807 604.847 281.91C604.96 282.009 605.016 282.14 605.016 282.303C605.016 282.466 604.96 282.599 604.847 282.701C604.737 282.801 604.552 282.85 604.291 282.85H603.899V286.032C603.899 286.358 604.033 286.647 604.301 286.898C604.573 287.146 604.9 287.27 605.281 287.27C605.535 287.27 605.773 287.21 605.996 287.089C606.218 286.969 606.4 286.794 606.541 286.564C606.629 286.418 606.674 286.241 606.674 286.032V282.85H606.282C606.02 282.85 605.833 282.801 605.72 282.701C605.611 282.599 605.556 282.466 605.556 282.303C605.556 282.14 605.611 282.009 605.72 281.91C605.833 281.807 606.02 281.756 606.282 281.756L607.706 281.761C607.967 281.761 608.153 281.811 608.262 281.91C608.375 282.009 608.432 282.14 608.432 282.303C608.432 282.462 608.377 282.593 608.267 282.696C608.158 282.799 607.989 282.85 607.759 282.85Z" fill="white"/>
<path d="M612.318 282.85V287.111H613.049C613.31 287.111 613.495 287.162 613.605 287.265C613.718 287.364 613.774 287.495 613.774 287.658C613.774 287.817 613.718 287.948 613.605 288.051C613.495 288.15 613.31 288.2 613.049 288.2H610.507C610.246 288.2 610.059 288.15 609.946 288.051C609.837 287.948 609.782 287.816 609.782 287.653C609.782 287.493 609.837 287.364 609.946 287.265C610.059 287.162 610.246 287.111 610.507 287.111H611.233V282.85H610.057V283.881C610.057 284.143 610.006 284.331 609.904 284.444C609.805 284.554 609.674 284.609 609.512 284.609C609.353 284.609 609.222 284.554 609.12 284.444C609.021 284.331 608.972 284.143 608.972 283.881V281.756L614.595 281.761V283.881C614.595 284.143 614.544 284.331 614.442 284.444C614.343 284.554 614.212 284.609 614.05 284.609C613.891 284.609 613.76 284.554 613.658 284.444C613.559 284.331 613.51 284.143 613.51 283.881V282.85H612.318Z" fill="white"/>
<path fill-rule="evenodd" clip-rule="evenodd" d="M593.834 161.4V144.38H595.834V161.4H636.161V187.92H656.834V260.3H595.834V275.96H593.834V260.3H553.506V161.4H593.834ZM634.161 187.92V163.4H555.506V258.3H613.828V187.92H634.161ZM615.828 258.3H654.834V189.92H615.828V258.3Z" fill="white"/>
<path fill-rule="evenodd" clip-rule="evenodd" d="M1117 69C1117 66.2386 1119.24 64 1122 64H1131H1143H1152C1154.76 64 1157 66.2386 1157 69V129C1157 131.761 1154.76 134 1152 134H1122C1119.24 134 1117 131.761 1117 129V69ZM1128 67H1123C1121.34 67 1120 68.3431 1120 70V128C1120 129.657 1121.34 131 1123 131H1151C1152.66 131 1154 129.657 1154 128V70C1154 68.3431 1152.66 67 1151 67H1146C1146 68.6569 1144.66 70 1143 70H1131C1129.34 70 1128 68.6569 1128 67Z" fill="#334D53"/>
<path fill-rule="evenodd" clip-rule="evenodd" d="M1125 80.5C1125 79.6716 1125.67 79 1126.5 79H1148.5C1149.33 79 1150 79.6716 1150 80.5C1150 81.3284 1149.33 82 1148.5 82H1126.5C1125.67 82 1125 81.3284 1125 80.5ZM1125 87.5C1125 86.6716 1125.67 86 1126.5 86H1148.5C1149.33 86 1150 86.6716 1150 87.5C1150 88.3284 1149.33 89 1148.5 89H1126.5C1125.67 89 1125 88.3284 1125 87.5ZM1150 94.5C1150 93.6716 1149.33 93 1148.5 93H1126.5C1125.67 93 1125 93.6716 1125 94.5C1125 95.3284 1125.67 96 1126.5 96H1148.5C1149.33 96 1150 95.3284 1150 94.5ZM1125 101.5C1125 100.672 1125.67 100 1126.5 100H1148.5C1149.33 100 1150 100.672 1150 101.5C1150 102.328 1149.33 103 1148.5 103H1126.5C1125.67 103 1125 102.328 1125 101.5ZM1150 108.5C1150 107.672 1149.33 107 1148.5 107H1126.5C1125.67 107 1125 107.672 1125 108.5C1125 109.328 1125.67 110 1126.5 110H1148.5C1149.33 110 1150 109.328 1150 108.5ZM1125 115.5C1125 114.672 1125.67 114 1126.5 114H1148.5C1149.33 114 1150 114.672 1150 115.5C1150 116.328 1149.33 117 1148.5 117H1126.5C1125.67 117 1125 116.328 1125 115.5ZM1150 122.5C1150 121.672 1149.33 121 1148.5 121H1126.5C1125.67 121 1125 121.672 1125 122.5C1125 123.328 1125.67 124 1126.5 124H1148.5C1149.33 124 1150 123.328 1150 122.5Z" fill="#D2D2D2"/>
<path fill-rule="evenodd" clip-rule="evenodd" d="M1054 195C1054 193.343 1055.34 192 1057 192H1212C1213.66 192 1215 193.343 1215 195V275C1215 275.351 1214.94 275.687 1214.83 276H1224C1225.66 276 1227 277.343 1227 279C1227 280.657 1225.66 282 1224 282H1045C1043.34 282 1042 280.657 1042 279C1042 277.343 1043.34 276 1045 276H1054.17C1054.06 275.687 1054 275.351 1054 275V195ZM1057 198C1057 196.343 1058.34 195 1060 195H1209C1210.66 195 1212 196.343 1212 198V272C1212 273.657 1210.66 275 1209 275H1060C1058.34 275 1057 273.657 1057 272V198Z" fill="#334D53"/>
<path d="M1057 198C1057 196.343 1058.34 195 1060 195H1209C1210.66 195 1212 196.343 1212 198V272C1212 273.657 1210.66 275 1209 275H1060C1058.34 275 1057 273.657 1057 272V198Z" fill="white"/>
<path fill-rule="evenodd" clip-rule="evenodd" d="M1075 216.5C1075 215.672 1075.67 215 1076.5 215H1169.5C1170.33 215 1171 215.672 1171 216.5C1171 217.328 1170.33 218 1169.5 218H1076.5C1075.67 218 1075 217.328 1075 216.5ZM1075 223.5C1075 222.672 1075.67 222 1076.5 222H1169.5C1170.33 222 1171 222.672 1171 223.5C1171 224.328 1170.33 225 1169.5 225H1076.5C1075.67 225 1075 224.328 1075 223.5ZM1171 230.5C1171 229.672 1170.33 229 1169.5 229H1076.5C1075.67 229 1075 229.672 1075 230.5C1075 231.328 1075.67 232 1076.5 232H1169.5C1170.33 232 1171 231.328 1171 230.5ZM1075 237.5C1075 236.672 1075.67 236 1076.5 236H1169.5C1170.33 236 1171 236.672 1171 237.5C1171 238.328 1170.33 239 1169.5 239H1076.5C1075.67 239 1075 238.328 1075 237.5ZM1171 244.5C1171 243.672 1170.33 243 1169.5 243H1076.5C1075.67 243 1075 243.672 1075 244.5C1075 245.328 1075.67 246 1076.5 246H1169.5C1170.33 246 1171 245.328 1171 244.5ZM1075 251.5C1075 250.672 1075.67 250 1076.5 250H1169.5C1170.33 250 1171 250.672 1171 251.5C1171 252.328 1170.33 253 1169.5 253H1076.5C1075.67 253 1075 252.328 1075 251.5ZM1171 258.5C1171 257.672 1170.33 257 1169.5 257H1076.5C1075.67 257 1075 257.672 1075 258.5C1075 259.328 1075.67 260 1076.5 260H1169.5C1170.33 260 1171 259.328 1171 258.5Z" fill="#D2D2D2"/>
<path fill-rule="evenodd" clip-rule="evenodd" d="M1179 216.5C1179 215.672 1179.67 215 1180.5 215H1198.5C1199.33 215 1200 215.672 1200 216.5C1200 217.328 1199.33 218 1198.5 218H1180.5C1179.67 218 1179 217.328 1179 216.5ZM1179 223.5C1179 222.672 1179.67 222 1180.5 222H1198.5C1199.33 222 1200 222.672 1200 223.5C1200 224.328 1199.33 225 1198.5 225H1180.5C1179.67 225 1179 224.328 1179 223.5ZM1200 230.5C1200 229.672 1199.33 229 1198.5 229H1180.5C1179.67 229 1179 229.672 1179 230.5C1179 231.328 1179.67 232 1180.5 232H1198.5C1199.33 232 1200 231.328 1200 230.5ZM1179 237.5C1179 236.672 1179.67 236 1180.5 236H1198.5C1199.33 236 1200 236.672 1200 237.5C1200 238.328 1199.33 239 1198.5 239H1180.5C1179.67 239 1179 238.328 1179 237.5ZM1200 244.5C1200 243.672 1199.33 243 1198.5 243H1180.5C1179.67 243 1179 243.672 1179 244.5C1179 245.328 1179.67 246 1180.5 246H1198.5C1199.33 246 1200 245.328 1200 244.5ZM1179 251.5C1179 250.672 1179.67 250 1180.5 250H1198.5C1199.33 250 1200 250.672 1200 251.5C1200 252.328 1199.33 253 1198.5 253H1180.5C1179.67 253 1179 252.328 1179 251.5ZM1200 258.5C1200 257.672 1199.33 257 1198.5 257H1180.5C1179.67 257 1179 257.672 1179 258.5C1179 259.328 1179.67 260 1180.5 260H1198.5C1199.33 260 1200 259.328 1200 258.5Z" fill="#D2D2D2"/>
<circle cx="1206.5" cy="200.5" r="1.5" fill="#C4C4C4"/>
<circle cx="1201.5" cy="200.5" r="1.5" fill="#C4C4C4"/>
<circle cx="1196.5" cy="200.5" r="1.5" fill="#C4C4C4"/>
<path fill-rule="evenodd" clip-rule="evenodd" d="M963.515 239.393L971.061 246.939C971.646 247.525 971.646 248.475 971.061 249.061L963.515 256.607C962.929 257.192 961.979 257.192 961.393 256.607C960.808 256.021 960.808 255.071 961.393 254.485L966.379 249.5L849.5 249.5C848.672 249.5 848 248.828 848 248C848 247.172 848.672 246.5 849.5 246.5L966.379 246.5L961.393 241.515C960.808 240.929 960.808 239.979 961.393 239.393C961.979 238.808 962.929 238.808 963.515 239.393Z" fill="#334D53"/>
<path fill-rule="evenodd" clip-rule="evenodd" d="M1043.51 99.3934L1051.06 106.939C1051.65 107.525 1051.65 108.475 1051.06 109.061L1043.51 116.607C1042.93 117.192 1041.98 117.192 1041.39 116.607C1040.81 116.021 1040.81 115.071 1041.39 114.485L1046.38 109.5L869.5 109.5C868.672 109.5 868 108.828 868 108C868 107.172 868.672 106.5 869.5 106.5L1046.38 106.5L1041.39 101.515C1040.81 100.929 1040.81 99.9792 1041.39 99.3934C1041.98 98.8076 1042.93 98.8076 1043.51 99.3934Z" fill="#334D53"/>
<rect x="32.4824" y="184.559" width="58.4698" height="60.6908" rx="10" fill="white"/>
<path d="M146.826 212.722H92.1099V208.677H99.8613C100.847 208.677 101.646 207.88 101.646 206.899C101.646 205.917 100.847 205.12 99.8613 205.12H92.1099V201.075H97.4915C99.4964 201.075 101.381 200.297 102.799 198.884L114.534 187.19C115.299 187.57 116.146 187.772 117.026 187.772C118.521 187.772 119.927 187.192 120.985 186.138C122.042 185.084 122.625 183.683 122.625 182.193C122.625 180.703 122.042 179.302 120.985 178.248C119.927 177.195 118.521 176.614 117.026 176.614C115.53 176.614 114.124 177.195 113.067 178.248C112.009 179.302 111.427 180.703 111.427 182.193C111.427 183.069 111.63 183.914 112.011 184.676L100.275 196.37C99.5318 197.11 98.543 197.519 97.4912 197.519H92.1096V193.596C92.1096 188.424 87.8869 184.216 82.6968 184.216H78.7598V168.476C80.9743 167.732 82.5741 165.644 82.5741 163.189C82.5741 160.113 80.0624 157.61 76.9755 157.61C73.8886 157.61 71.3769 160.113 71.3769 163.189C71.3769 165.644 72.9766 167.731 75.1911 168.476V184.216H71.1314V176.492C71.1314 175.51 70.3325 174.714 69.347 174.714C68.3616 174.714 67.5627 175.51 67.5627 176.492V184.216H63.5027V155.587C63.5027 154.606 62.7038 153.809 61.7183 153.809C60.7329 153.809 59.934 154.606 59.934 155.587V184.216H55.8742V176.492C55.8742 175.51 55.0753 174.714 54.0899 174.714C53.1045 174.714 52.3055 175.51 52.3055 176.492V184.216H48.2458V178.854C48.2458 176.856 47.465 174.977 46.0472 173.565L34.3079 161.867C35.3449 159.781 34.9974 157.179 33.2561 155.444C31.073 153.268 27.5212 153.269 25.3383 155.444C23.1555 157.619 23.1555 161.158 25.3383 163.333C26.4299 164.421 27.8635 164.965 29.2972 164.965C30.1508 164.965 31.003 164.767 31.7846 164.381L43.5239 176.08C44.2676 176.82 44.6771 177.806 44.6771 178.854V184.216H40.7401C39.9443 184.216 39.1527 184.315 38.3876 184.512C37.4333 184.756 36.8588 185.726 37.1043 186.677C37.3498 187.628 38.3229 188.2 39.2772 187.955C39.7518 187.834 40.2438 187.772 40.7399 187.772H82.6968C85.9194 187.772 88.5409 190.385 88.5409 193.595V235.404C88.5409 235.898 88.4791 236.388 88.3573 236.861C88.112 237.812 88.6868 238.781 89.641 239.025C89.79 239.064 89.9394 239.082 90.0866 239.082C90.8815 239.082 91.6064 238.549 91.8134 237.746C92.0099 236.984 92.1096 236.196 92.1096 235.404V231.481H232.966V227.925H92.1096V223.879H99.8611C100.847 223.879 101.645 223.083 101.645 222.101C101.645 221.119 100.847 220.323 99.8611 220.323H92.1096V216.278H146.826C147.812 216.278 148.611 215.482 148.611 214.5C148.611 213.518 147.812 212.722 146.826 212.722ZM115.59 180.763C115.974 180.381 116.483 180.17 117.026 180.17C117.568 180.17 118.077 180.381 118.461 180.763C118.844 181.145 119.055 181.653 119.055 182.193C119.055 182.733 118.844 183.241 118.461 183.623C118.077 184.006 117.568 184.216 117.026 184.216C116.483 184.216 115.974 184.006 115.59 183.623C115.207 183.241 114.996 182.733 114.996 182.193C114.996 181.653 115.207 181.145 115.59 180.763ZM30.7323 160.819C29.941 161.607 28.6532 161.607 27.8614 160.819C27.0698 160.03 27.0698 158.747 27.8614 157.958C28.2573 157.564 28.7769 157.367 29.297 157.367C29.8168 157.367 30.3366 157.564 30.7323 157.958C31.5238 158.747 31.5238 160.03 30.7323 160.819ZM76.9755 165.212C75.8563 165.212 74.9456 164.304 74.9456 163.189C74.9456 162.074 75.8561 161.166 76.9755 161.166C78.0949 161.166 79.0054 162.074 79.0054 163.189C79.0054 164.304 78.0946 165.212 76.9755 165.212Z" fill="#334D54"/>
<path d="M98.0986 265.667C96.3573 263.932 93.7462 263.585 91.6523 264.619L79.913 252.92C79.1693 252.18 78.7598 251.194 78.7598 250.146V244.784H82.6968C83.4926 244.784 84.2839 244.685 85.0488 244.488C86.0031 244.244 86.5776 243.274 86.3321 242.323C86.0866 241.372 85.1142 240.8 84.1592 241.045C83.6848 241.166 83.1928 241.228 82.6968 241.228H40.7398C37.5173 241.228 34.8957 238.615 34.8957 235.404V193.596C34.8957 193.101 34.9576 192.611 35.0796 192.139C35.3254 191.188 34.7508 190.218 33.7966 189.973C32.8421 189.729 31.8692 190.301 31.6237 191.252C31.4267 192.014 31.327 192.802 31.327 193.596V197.519H15.5308C14.784 195.312 12.6887 193.718 10.2253 193.718C7.13814 193.718 4.62673 196.221 4.62673 199.297C4.62673 202.373 7.13838 204.876 10.2253 204.876C12.6887 204.876 14.7837 203.282 15.5308 201.075H31.3268V205.12H23.5753C22.5899 205.12 21.791 205.917 21.791 206.899C21.791 207.88 22.5899 208.677 23.5753 208.677H31.3268V212.722H2.59685C1.61141 212.722 0.8125 213.518 0.8125 214.5C0.8125 215.482 1.61141 216.278 2.59685 216.278H31.3268V220.323H23.5753C22.5899 220.323 21.791 221.12 21.791 222.102C21.791 223.083 22.5899 223.88 23.5753 223.88H31.3268V227.925H25.9452C23.9403 227.925 22.0553 228.703 20.6378 230.116L8.9025 241.81C8.13785 241.43 7.29017 241.228 6.41084 241.228C4.91531 241.228 3.50949 241.808 2.45196 242.862C1.39491 243.916 0.8125 245.317 0.8125 246.807C0.8125 248.297 1.39491 249.698 2.45244 250.752C3.50972 251.806 4.91579 252.386 6.41131 252.386C7.90684 252.386 9.31267 251.805 10.3702 250.752C11.4277 249.698 12.0101 248.297 12.0101 246.807C12.0101 245.931 11.8074 245.086 11.4265 244.324L23.1618 232.63C23.9053 231.889 24.8941 231.481 25.9459 231.481H31.3275V235.404C31.3275 240.576 35.5502 244.784 40.7403 244.784H44.6773V260.524C42.4628 261.268 40.8631 263.356 40.8631 265.811C40.8631 268.887 43.3747 271.389 46.4616 271.389C49.5486 271.389 52.0602 268.887 52.0602 265.811C52.0602 263.356 50.4605 261.268 48.246 260.524V244.784H52.3057V252.508C52.3057 253.49 53.1047 254.286 54.0901 254.286C55.0755 254.286 55.8744 253.49 55.8744 252.508V244.784H59.934V273.413C59.934 274.394 60.7329 275.191 61.7183 275.191C62.7037 275.191 63.5027 274.394 63.5027 273.413V244.784H67.5624V252.508C67.5624 253.49 68.3613 254.286 69.3468 254.286C70.3322 254.286 71.1311 253.49 71.1311 252.508V244.784H75.1909V250.146C75.1909 252.144 75.9717 254.023 77.3894 255.435L89.1288 267.133C88.0917 269.219 88.4393 271.821 90.1808 273.556C91.2721 274.644 92.706 275.188 94.1397 275.188C95.5734 275.188 97.0073 274.644 98.0986 273.556C100.281 271.381 100.281 267.842 98.0986 265.667ZM10.2253 201.319C9.10592 201.319 8.19543 200.412 8.19543 199.297C8.19543 198.181 9.10616 197.274 10.2253 197.274C11.3444 197.274 12.2552 198.182 12.2552 199.297C12.2554 200.412 11.3447 201.319 10.2253 201.319ZM7.84641 248.237C7.46289 248.619 6.95328 248.83 6.41108 248.83C5.86887 248.83 5.35926 248.619 4.97574 248.237C4.59223 247.855 4.3812 247.347 4.3812 246.807C4.3812 246.267 4.59223 245.759 4.97574 245.377C5.35926 244.994 5.86887 244.784 6.41108 244.784C6.95328 244.784 7.46289 244.994 7.84641 245.377C8.22992 245.759 8.44095 246.267 8.44095 246.807C8.44095 247.347 8.22992 247.855 7.84641 248.237ZM48.491 265.811C48.491 266.926 47.5805 267.834 46.4612 267.834C45.3418 267.834 44.4313 266.926 44.4313 265.811C44.4313 264.696 45.342 263.788 46.4612 263.788C47.5803 263.788 48.491 264.696 48.491 265.811ZM95.5753 271.042C94.7837 271.831 93.4959 271.831 92.7044 271.042C91.9128 270.253 91.9128 268.97 92.7044 268.182C93.1003 267.787 93.6201 267.59 94.1399 267.59C94.6598 267.59 95.1796 267.787 95.5753 268.182C96.3666 268.97 96.3666 270.253 95.5753 271.042Z" fill="#334D54"/>
<path d="M80.6663 209.749C80.6663 205.947 77.8751 202.726 74.0539 201.679C74.1669 201.214 74.2298 200.736 74.2298 200.247C74.2298 196.647 71.0229 193.718 67.0816 193.718C64.9466 193.718 63.0288 194.578 61.7179 195.938C60.407 194.578 58.4889 193.718 56.3541 193.718C52.4126 193.718 49.206 196.647 49.206 200.247C49.206 200.736 49.2688 201.214 49.3819 201.679C45.5607 202.725 42.7695 205.946 42.7695 209.749C42.7695 211.608 43.4295 213.361 44.6488 214.809C43.4566 216.347 42.7695 218.214 42.7695 220.202C42.7691 223.225 44.3902 226.048 47.0603 227.799C47.0603 227.8 47.0603 227.801 47.0603 227.803C47.0603 231.927 50.7482 235.282 55.2814 235.282C57.8865 235.282 60.2107 234.173 61.7179 232.448C63.2251 234.173 65.5492 235.282 68.1544 235.282C72.517 235.282 76.095 232.174 76.3581 228.264C79.0078 226.732 80.6663 224.049 80.6663 221.152C80.6663 219.02 79.7543 216.987 78.1848 215.45C79.7541 213.914 80.6663 211.88 80.6663 209.749ZM74.3511 217.023C76.0705 217.927 77.0968 219.47 77.0968 221.152C77.0968 222.405 76.5123 223.6 75.525 224.494C74.5869 222.764 72.9288 221.386 70.834 220.73C69.8943 220.436 68.8924 220.957 68.5969 221.893C68.3014 222.83 68.8244 223.828 69.7644 224.123C71.5834 224.692 72.8058 226.171 72.8058 227.803C72.8058 229.966 70.7189 231.726 68.1534 231.726C65.5883 231.726 63.5013 229.966 63.5013 227.803V216.401C63.5013 214.237 65.5883 212.478 68.1534 212.478C69.1389 212.478 69.9378 211.681 69.9378 210.699C69.9378 209.718 69.1389 208.921 68.1534 208.921C66.4276 208.921 64.825 209.409 63.5013 210.239V207.968C63.5013 206.986 62.7024 206.19 61.7169 206.19C60.7315 206.19 59.9326 206.986 59.9326 207.968V217.839C59.3321 217.463 58.6736 217.152 57.9612 216.929C57.0205 216.635 56.0194 217.156 55.7241 218.092C55.4287 219.029 55.9514 220.027 56.8914 220.322C58.7104 220.891 59.9326 222.371 59.9326 224.002V227.803C59.9326 229.966 57.8456 231.726 55.2804 231.726C52.715 231.726 50.628 229.966 50.628 227.803C50.628 226.876 51.0225 225.974 51.7386 225.265C52.4376 224.573 52.4409 223.447 51.7462 222.75C51.0515 222.054 49.9219 222.051 49.2229 222.743C48.7954 223.166 48.4273 223.629 48.1214 224.121C46.9946 223.059 46.3368 221.662 46.3368 220.201C46.3368 217.567 48.4116 215.252 51.3825 214.573C52.3429 214.354 52.9429 213.4 52.7226 212.443C52.5023 211.485 51.5447 210.888 50.5845 211.107C49.3885 211.381 48.2875 211.837 47.3111 212.436C46.678 211.644 46.337 210.716 46.337 209.749C46.3378 207.074 48.882 204.897 52.0184 204.877C52.0343 204.877 52.0503 204.879 52.066 204.879C52.4733 204.879 52.8827 204.741 53.218 204.458C53.902 203.881 54.0392 202.902 53.5801 202.165C53.5665 202.144 53.5541 202.121 53.5399 202.1C53.5325 202.089 53.5237 202.079 53.5161 202.069C53.4885 202.03 53.4602 201.992 53.4295 201.956C53.4285 201.954 53.4278 201.953 53.4269 201.952C53.1292 201.602 52.774 201.021 52.774 200.247C52.774 198.608 54.3799 197.274 56.3534 197.274C58.3269 197.274 59.9328 198.608 59.9328 200.247C59.9328 201.229 60.7317 202.025 61.7172 202.025C62.7026 202.025 63.5015 201.229 63.5015 200.247C63.5015 198.608 65.1074 197.274 67.0809 197.274C69.0544 197.274 70.6603 198.608 70.6603 200.247C70.6603 200.685 70.5452 201.059 70.3927 201.366C69.3778 201.461 68.3961 201.706 67.4642 202.098C66.5561 202.479 66.1305 203.522 66.5133 204.427C66.8961 205.331 67.9427 205.756 68.8508 205.374C69.6221 205.05 70.4519 204.884 71.3175 204.877C71.3346 204.877 71.3515 204.879 71.3686 204.879C71.3846 204.879 71.4003 204.877 71.4162 204.877C74.5526 204.897 77.0968 207.074 77.0968 209.749C77.0968 211.43 76.0705 212.973 74.3511 213.878C73.7658 214.185 73.3994 214.791 73.3994 215.45C73.3994 216.11 73.7658 216.715 74.3511 217.023Z" fill="#334D54"/>
<path d="M83.6445 165.138C83.6445 167.373 81.8266 169.184 79.5841 169.184L74.7116 169.184C72.4691 169.184 70.6512 167.373 70.6512 165.138L70.6512 160.283C70.6512 158.048 72.4691 156.237 74.7116 156.237L79.5841 156.237C81.8266 156.237 83.6445 158.048 83.6445 160.283L83.6445 165.138Z" fill="#334D54"/>
<path d="M124.248 184.559C124.248 186.794 122.43 188.605 120.188 188.605L115.315 188.605C113.073 188.605 111.255 186.794 111.255 184.559L111.255 179.704C111.255 177.469 113.073 175.658 115.315 175.658L120.188 175.658C122.43 175.658 124.248 177.469 124.248 179.704L124.248 184.559Z" fill="#334D54"/>
<path d="M242 232.303C242 234.537 240.182 236.349 237.94 236.349L233.067 236.349C230.825 236.349 229.007 234.537 229.007 232.303L229.007 227.447C229.007 225.213 230.825 223.401 233.067 223.401L237.94 223.401C240.182 223.401 242 225.213 242 227.447L242 232.303Z" fill="#334D54"/>
<path d="M156.732 216.928C156.732 219.162 154.915 220.974 152.672 220.974L147.8 220.974C145.557 220.974 143.739 219.162 143.739 216.928L143.739 212.072C143.739 209.838 145.557 208.026 147.8 208.026L152.672 208.026C154.915 208.026 156.732 209.838 156.732 212.072L156.732 216.928Z" fill="#334D54"/>
<path d="M99.8867 271.954C99.8867 274.189 98.0688 276 95.8263 276L90.9538 276C88.7113 276 86.8934 274.189 86.8934 271.954L86.8934 267.099C86.8934 264.864 88.7113 263.053 90.9538 263.053L95.8263 263.053C98.0688 263.053 99.8867 264.864 99.8867 267.099L99.8867 271.954Z" fill="#334D54"/>
<path d="M52.7852 268.717C52.7852 270.952 50.9673 272.763 48.7248 272.763L43.8523 272.763C41.6098 272.763 39.7919 270.952 39.7919 268.717L39.7919 263.862C39.7919 261.627 41.6098 259.816 43.8523 259.816L48.7248 259.816C50.9673 259.816 52.7852 261.627 52.7852 263.862L52.7852 268.717Z" fill="#334D54"/>
<path d="M12.9941 249.296C12.9941 251.531 11.1762 253.342 8.93374 253.342L4.06126 253.342C1.81876 253.342 0.000852426 251.531 0.00085223 249.296L0.000851804 244.441C0.000851608 242.206 1.81876 240.395 4.06125 240.395L8.93374 240.395C11.1762 240.395 12.9941 242.206 12.9941 244.441L12.9941 249.296Z" fill="#334D54"/>
<path d="M16.2422 201.553C16.2422 203.787 14.4243 205.599 12.1818 205.599L7.3093 205.599C5.0668 205.599 3.2489 203.787 3.2489 201.553L3.2489 196.697C3.2489 194.463 5.0668 192.651 7.3093 192.651L12.1818 192.651C14.4243 192.651 16.2422 194.463 16.2422 196.697L16.2422 201.553Z" fill="#334D54"/>
<path d="M35.7324 161.901C35.7324 164.136 33.9145 165.947 31.672 165.947L26.7995 165.947C24.557 165.947 22.7391 164.136 22.7391 161.901L22.7391 157.046C22.7391 154.811 24.557 153 26.7995 153L31.672 153C33.9145 153 35.7324 154.811 35.7324 157.046L35.7324 161.901Z" fill="#334D54"/>
<defs>
<filter id="filter0_d" x="360" y="32.9999" width="478.007" height="364.605" filterUnits="userSpaceOnUse" color-interpolation-filters="sRGB">
<feFlood flood-opacity="0" result="BackgroundImageFix"/>
<feColorMatrix in="SourceAlpha" type="matrix" values="0 0 0 0 0 0 0 0 0 0 0 0 0 0 0 0 0 0 127 0"/>
<feOffset dy="20"/>
<feGaussianBlur stdDeviation="25"/>
<feColorMatrix type="matrix" values="0 0 0 0 0 0 0 0 0 0 0 0 0 0 0 0 0 0 0.15 0"/>
<feBlend mode="normal" in2="BackgroundImageFix" result="effect1_dropShadow"/>
<feBlend mode="normal" in="SourceGraphic" in2="effect1_dropShadow" result="shape"/>
</filter>
</defs>
</svg>
