<svg width="334" height="169" viewBox="0 0 334 169" fill="none" xmlns="http://www.w3.org/2000/svg">
<path fill-rule="evenodd" clip-rule="evenodd" d="M267.098 33.0351C267.098 31.867 268.044 30.9201 269.21 30.9201H273.013H278.084H281.887C283.054 30.9201 284 31.867 284 33.0351V58.415C284 59.583 283.054 60.53 281.887 60.53H269.21C268.044 60.53 267.098 59.583 267.098 58.415V33.0351ZM271.746 32.1891H269.633C268.933 32.1891 268.365 32.7572 268.365 33.4581V57.992C268.365 58.6928 268.933 59.261 269.633 59.261H281.465C282.165 59.261 282.732 58.6928 282.732 57.992V33.4581C282.732 32.7572 282.165 32.1891 281.465 32.1891H279.352C279.352 32.8899 278.784 33.4581 278.084 33.4581H273.013C272.313 33.4581 271.746 32.8899 271.746 32.1891Z" fill="#334D53"/>
<path fill-rule="evenodd" clip-rule="evenodd" d="M270.477 37.8996C270.477 37.5492 270.761 37.2651 271.111 37.2651H280.406C280.756 37.2651 281.04 37.5492 281.04 37.8996V37.8996C281.04 38.25 280.756 38.5341 280.406 38.5341H271.111C270.761 38.5341 270.477 38.25 270.477 37.8996V37.8996ZM270.477 40.8605C270.477 40.5101 270.761 40.226 271.112 40.226H280.407C280.757 40.226 281.041 40.5101 281.041 40.8605V40.8605C281.041 41.211 280.757 41.495 280.407 41.495H271.112C270.761 41.495 270.477 41.211 270.477 40.8605V40.8605ZM281.041 43.8216C281.041 43.4712 280.757 43.1871 280.407 43.1871H271.112C270.761 43.1871 270.477 43.4712 270.477 43.8216V43.8216C270.477 44.172 270.761 44.4561 271.112 44.4561H280.407C280.757 44.4561 281.041 44.172 281.041 43.8216V43.8216ZM270.477 46.7826C270.477 46.4321 270.761 46.1481 271.112 46.1481H280.407C280.757 46.1481 281.041 46.4321 281.041 46.7826V46.7826C281.041 47.133 280.757 47.4171 280.407 47.4171H271.112C270.761 47.4171 270.477 47.133 270.477 46.7826V46.7826ZM281.041 49.7435C281.041 49.3931 280.757 49.109 280.407 49.109H271.112C270.761 49.109 270.477 49.3931 270.477 49.7435V49.7435C270.477 50.0939 270.761 50.378 271.112 50.378H280.407C280.757 50.378 281.041 50.0939 281.041 49.7435V49.7435ZM270.477 52.7045C270.477 52.3541 270.761 52.07 271.112 52.07H280.407C280.757 52.07 281.041 52.3541 281.041 52.7045V52.7045C281.041 53.0549 280.757 53.339 280.407 53.339H271.112C270.761 53.339 270.477 53.0549 270.477 52.7045V52.7045ZM281.041 55.6655C281.041 55.3151 280.757 55.031 280.407 55.031H271.112C270.761 55.031 270.477 55.3151 270.477 55.6655V55.6655C270.477 56.0159 270.761 56.3 271.112 56.3H280.407C280.757 56.3 281.041 56.0159 281.041 55.6655V55.6655Z" fill="#D2D2D2"/>
<path fill-rule="evenodd" clip-rule="evenodd" d="M260.889 72.2632C260.889 71.5655 261.454 71 262.151 71H327.347C328.044 71 328.609 71.5655 328.609 72.2632V105.948C328.609 106.096 328.584 106.237 328.537 106.369H332.395C333.092 106.369 333.657 106.935 333.657 107.632C333.657 108.33 333.092 108.895 332.395 108.895H257.104C256.407 108.895 255.842 108.33 255.842 107.632C255.842 106.935 256.407 106.369 257.104 106.369H260.961C260.915 106.237 260.889 106.096 260.889 105.948V72.2632ZM262.151 73.5264C262.151 72.8287 262.716 72.2632 263.413 72.2632H326.085C326.782 72.2632 327.347 72.8287 327.347 73.5264V104.685C327.347 105.382 326.782 105.948 326.085 105.948H263.413C262.716 105.948 262.151 105.382 262.151 104.685V73.5264Z" fill="#334D53"/>
<path d="M262.152 73.5264C262.152 72.8287 262.717 72.2632 263.414 72.2632H326.087C326.783 72.2632 327.348 72.8287 327.348 73.5264V104.685C327.348 105.382 326.783 105.948 326.087 105.948H263.414C262.717 105.948 262.152 105.382 262.152 104.685V73.5264Z" fill="white"/>
<path fill-rule="evenodd" clip-rule="evenodd" d="M269.723 81.316C269.723 80.9672 270.005 80.6844 270.354 80.6844H309.471C309.82 80.6844 310.102 80.9672 310.102 81.316C310.102 81.6648 309.82 81.9476 309.471 81.9476H270.354C270.005 81.9476 269.723 81.6648 269.723 81.316ZM269.723 84.2634C269.723 83.9146 270.005 83.6318 270.354 83.6318H309.471C309.82 83.6318 310.102 83.9146 310.102 84.2634C310.102 84.6122 309.82 84.895 309.471 84.895H270.354C270.005 84.895 269.723 84.6122 269.723 84.2634ZM310.102 87.2108C310.102 86.862 309.82 86.5792 309.471 86.5792H270.354C270.005 86.5792 269.723 86.862 269.723 87.2108C269.723 87.5596 270.005 87.8424 270.354 87.8424H309.471C309.82 87.8424 310.102 87.5596 310.102 87.2108ZM269.723 90.1582C269.723 89.8094 270.005 89.5267 270.354 89.5267H309.471C309.82 89.5267 310.102 89.8094 310.102 90.1582C310.102 90.5071 309.82 90.7898 309.471 90.7898H270.354C270.005 90.7898 269.723 90.5071 269.723 90.1582ZM310.102 93.1057C310.102 92.7568 309.82 92.4741 309.471 92.4741H270.354C270.005 92.4741 269.723 92.7568 269.723 93.1057C269.723 93.4545 270.005 93.7373 270.354 93.7373H309.471C309.82 93.7373 310.102 93.4545 310.102 93.1057ZM269.723 96.0531C269.723 95.7043 270.005 95.4215 270.354 95.4215H309.471C309.82 95.4215 310.102 95.7043 310.102 96.0531C310.102 96.4019 309.82 96.6847 309.471 96.6847H270.354C270.005 96.6847 269.723 96.4019 269.723 96.0531ZM310.102 99.0005C310.102 98.6517 309.82 98.3689 309.471 98.3689H270.354C270.005 98.3689 269.723 98.6517 269.723 99.0005C269.723 99.3493 270.005 99.6321 270.354 99.6321H309.471C309.82 99.6321 310.102 99.3493 310.102 99.0005Z" fill="#D2D2D2"/>
<path fill-rule="evenodd" clip-rule="evenodd" d="M313.465 81.316C313.465 80.9672 313.747 80.6844 314.096 80.6844H321.667C322.015 80.6844 322.298 80.9672 322.298 81.316C322.298 81.6648 322.015 81.9476 321.667 81.9476H314.096C313.747 81.9476 313.465 81.6648 313.465 81.316ZM313.465 84.2634C313.465 83.9146 313.747 83.6318 314.096 83.6318H321.667C322.015 83.6318 322.298 83.9146 322.298 84.2634C322.298 84.6122 322.015 84.895 321.667 84.895H314.096C313.747 84.895 313.465 84.6122 313.465 84.2634ZM322.298 87.2108C322.298 86.862 322.015 86.5792 321.667 86.5792H314.096C313.747 86.5792 313.465 86.862 313.465 87.2108C313.465 87.5596 313.747 87.8424 314.096 87.8424H321.667C322.015 87.8424 322.298 87.5596 322.298 87.2108ZM313.465 90.1582C313.465 89.8094 313.747 89.5267 314.096 89.5267H321.667C322.015 89.5267 322.298 89.8094 322.298 90.1582C322.298 90.5071 322.015 90.7898 321.667 90.7898H314.096C313.747 90.7898 313.465 90.5071 313.465 90.1582ZM322.298 93.1057C322.298 92.7568 322.015 92.4741 321.667 92.4741H314.096C313.747 92.4741 313.465 92.7568 313.465 93.1057C313.465 93.4545 313.747 93.7373 314.096 93.7373H321.667C322.015 93.7373 322.298 93.4545 322.298 93.1057ZM313.465 96.0531C313.465 95.7043 313.747 95.4215 314.096 95.4215H321.667C322.015 95.4215 322.298 95.7043 322.298 96.0531C322.298 96.4019 322.015 96.6847 321.667 96.6847H314.096C313.747 96.6847 313.465 96.4019 313.465 96.0531ZM322.298 99.0005C322.298 98.6517 322.015 98.3689 321.667 98.3689H314.096C313.747 98.3689 313.465 98.6517 313.465 99.0005C313.465 99.3493 313.747 99.6321 314.096 99.6321H321.667C322.015 99.6321 322.298 99.3493 322.298 99.0005Z" fill="#D2D2D2"/>
<ellipse cx="325.033" cy="74.579" rx="0.630949" ry="0.631588" fill="#C4C4C4"/>
<ellipse cx="322.93" cy="74.579" rx="0.630929" ry="0.631588" fill="#C4C4C4"/>
<ellipse cx="320.828" cy="74.579" rx="0.630909" ry="0.631588" fill="#C4C4C4"/>
<path fill-rule="evenodd" clip-rule="evenodd" d="M250.014 91.7147L252.429 94.1328C252.617 94.3205 252.617 94.6249 252.429 94.8126L250.014 97.2307C249.826 97.4184 249.522 97.4184 249.335 97.2307C249.147 97.043 249.147 96.7386 249.335 96.5509L250.931 94.9534L239.516 94.9534C239.25 94.9534 239.035 94.7382 239.035 94.4727V94.4727C239.035 94.2072 239.25 93.992 239.516 93.992L250.931 93.992L249.335 92.3945C249.147 92.2067 249.147 91.9024 249.335 91.7147C249.522 91.527 249.826 91.527 250.014 91.7147Z" fill="#334D53"/>
<path fill-rule="evenodd" clip-rule="evenodd" d="M252.623 45.851L255.039 48.2691C255.226 48.4569 255.226 48.7612 255.039 48.9489L252.623 51.3671C252.436 51.5548 252.132 51.5548 251.944 51.3671C251.757 51.1793 251.757 50.875 251.944 50.6873L253.54 49.0897L226.918 49.0897C226.653 49.0897 226.437 48.8745 226.437 48.609V48.609C226.437 48.3436 226.653 48.1284 226.918 48.1284L253.54 48.1284L251.944 46.5308C251.757 46.3431 251.757 46.0387 251.944 45.851C252.132 45.6633 252.436 45.6633 252.623 45.851Z" fill="#334D53"/>
<path fill-rule="evenodd" clip-rule="evenodd" d="M95.6232 54.851L98.0388 57.2691C98.2263 57.4569 98.2263 57.7612 98.0388 57.9489L95.6232 60.3671C95.4357 60.5548 95.1316 60.5548 94.9441 60.3671C94.7566 60.1793 94.7566 59.875 94.9441 59.6873L96.54 58.0897L69.9182 58.0897C69.6527 58.0897 69.4375 57.8745 69.4375 57.609V57.609C69.4375 57.3436 69.6527 57.1284 69.9182 57.1284L96.54 57.1284L94.9441 55.5308C94.7566 55.3431 94.7566 55.0387 94.9441 54.851C95.1316 54.6633 95.4357 54.6633 95.6232 54.851Z" fill="#334D53"/>
<path fill-rule="evenodd" clip-rule="evenodd" d="M76.6232 104.851L79.0388 107.269C79.2263 107.457 79.2263 107.761 79.0388 107.949L76.6232 110.367C76.4357 110.555 76.1316 110.555 75.9441 110.367C75.7566 110.179 75.7566 109.875 75.9441 109.687L77.54 108.09L60.9182 108.09C60.6527 108.09 60.4375 107.874 60.4375 107.609V107.609C60.4375 107.344 60.6527 107.128 60.9182 107.128L77.54 107.128L75.9441 105.531C75.7566 105.343 75.7566 105.039 75.9441 104.851C76.1316 104.663 76.4357 104.663 76.6232 104.851Z" fill="#334D53"/>
<path fill-rule="evenodd" clip-rule="evenodd" d="M102.813 65.3943L102.265 65.3943L102.265 59.9057L102.535 59.9057C101.116 59.9037 99.9489 58.8201 99.8114 57.4359L92.9443 57.4359C92.0359 57.4359 91.2995 56.6987 91.2995 55.7893L91.2995 48.9151C90.0042 48.7865 88.974 47.7543 88.8453 46.4588L81.9783 46.4588C81.0698 46.4588 80.3334 45.7216 80.3334 44.8122L80.3334 37.938C78.9481 37.8001 77.8662 36.6287 77.8662 35.2073C77.8662 33.6932 79.0936 32.463 80.6077 32.463C82.1217 32.463 83.3491 33.6932 83.3491 35.2073C83.3491 36.6288 82.2671 37.8002 80.8817 37.938L80.8817 44.8122C80.8817 45.4185 81.3726 45.9099 81.9783 45.9099L88.8453 45.9099C88.9829 44.5244 90.1517 43.4401 91.5731 43.4401C92.9946 43.4401 94.1633 44.5244 94.301 45.9099L100.894 45.9099C101.5 45.9099 101.991 45.4185 101.991 44.8122L101.991 37.8965C100.827 37.6597 99.9308 36.6841 99.8114 35.4817L92.9443 35.4817C92.0359 35.4817 91.2995 34.7445 91.2995 33.8351L91.2995 26.9609C89.9139 26.8233 88.8317 25.6518 88.8317 24.2302C88.8317 22.8086 89.9138 21.6372 91.2992 21.4994L91.2992 19.7943C91.2992 18.8849 92.0357 18.1478 92.9441 18.1478L101.168 18.1478C101.774 18.1478 102.265 17.6563 102.265 17.05L102.265 15.7229L102.265 15.7229L102.265 10.4952C100.88 10.3574 99.7978 9.18601 99.7978 7.76451C99.7978 6.25047 101.025 5.02023 102.539 5.02023C104.053 5.02023 105.281 6.25047 105.281 7.76451C105.281 9.18603 104.199 10.3574 102.813 10.4952L102.813 17.095C102.813 17.7013 103.304 18.1927 103.91 18.1927L112.134 18.1927C113.043 18.1927 113.779 18.9299 113.779 19.8393L113.779 21.4995C115.164 21.6374 116.246 22.8087 116.246 24.2302C116.246 25.6517 115.164 26.823 113.779 26.9609L113.779 33.8351C113.779 34.7445 113.042 35.4817 112.134 35.4817L105.267 35.4817C105.129 36.8672 103.961 37.9515 102.539 37.9515L102.539 37.9515L102.539 44.8122C102.539 45.7216 101.803 46.4588 100.894 46.4588L94.301 46.4588C94.1723 47.7539 93.1426 48.7859 91.8478 48.915L91.8478 55.7893C91.8478 56.3956 92.3387 56.887 92.9443 56.887L99.8114 56.887C99.949 55.5015 101.118 54.4172 102.539 54.4172C103.961 54.4172 105.129 55.5015 105.267 56.887L112.134 56.887C112.74 56.887 113.231 56.3956 113.231 55.7893L113.231 48.9151C111.845 48.7773 110.763 47.6059 110.763 46.1844C110.763 44.6703 111.991 43.4401 113.505 43.4401C115.019 43.4401 116.246 44.6703 116.246 46.1844C116.246 47.6059 115.164 48.7772 113.779 48.9151L113.779 55.7893C113.779 56.6987 113.042 57.4359 112.134 57.4359L105.267 57.4359C105.13 58.8201 103.963 59.9037 102.543 59.9057L102.813 59.9057L102.813 65.3943ZM105.267 34.9328L112.134 34.9328C112.74 34.9328 113.231 34.4414 113.231 33.8351L113.231 26.9609C111.845 26.823 110.763 25.6517 110.763 24.2302C110.763 22.8086 111.845 21.6372 113.231 21.4994L113.231 19.8393C113.231 19.2331 112.74 18.7416 112.134 18.7416L103.91 18.7416C103.328 18.7416 102.817 18.4391 102.524 17.9825C102.228 18.4138 101.731 18.6966 101.168 18.6966L92.9441 18.6966C92.3385 18.6966 91.8475 19.1881 91.8475 19.7943L91.8475 21.4995C93.2327 21.6374 94.3145 22.8087 94.3145 24.2302C94.3145 25.6515 93.2329 26.8227 91.8478 26.9608L91.8478 33.8351C91.8478 34.4414 92.3387 34.9328 92.9443 34.9328L99.8114 34.9328C99.949 33.5473 101.118 32.463 102.539 32.463C103.961 32.463 105.129 33.5473 105.267 34.9328Z" fill="black" fill-opacity="0.05"/>
<path fill-rule="evenodd" clip-rule="evenodd" d="M248.245 168.565L247.696 168.565L247.696 163.077L247.967 163.077C246.547 163.075 245.381 161.991 245.243 160.607L238.376 160.607C237.468 160.607 236.731 159.87 236.731 158.96L236.731 152.086C235.436 151.957 234.406 150.925 234.277 149.63L227.41 149.63C226.502 149.63 225.765 148.892 225.765 147.983L225.765 141.109C224.38 140.971 223.298 139.8 223.298 138.378C223.298 136.864 224.525 135.634 226.039 135.634C227.553 135.634 228.781 136.864 228.781 138.378C228.781 139.8 227.699 140.971 226.313 141.109L226.313 147.983C226.313 148.589 226.804 149.081 227.41 149.081L234.277 149.081C234.415 147.695 235.583 146.611 237.005 146.611C238.426 146.611 239.595 147.695 239.733 149.081L246.326 149.081C246.931 149.081 247.422 148.589 247.422 147.983L247.422 141.067C246.259 140.831 245.363 139.855 245.243 138.653L238.376 138.653C237.468 138.653 236.731 137.915 236.731 137.006L236.731 130.132C235.346 129.994 234.263 128.823 234.263 127.401C234.263 125.979 235.345 124.808 236.731 124.67L236.731 122.965C236.731 122.056 237.467 121.319 238.376 121.319L246.6 121.319C247.206 121.319 247.697 120.827 247.697 120.221L247.697 118.894L247.697 118.894L247.697 113.666C246.311 113.528 245.229 112.357 245.229 110.935C245.229 109.421 246.457 108.191 247.971 108.191C249.485 108.191 250.712 109.421 250.712 110.935C250.712 112.357 249.63 113.528 248.245 113.666L248.245 120.266C248.245 120.872 248.736 121.364 249.342 121.364L257.566 121.364C258.474 121.364 259.211 122.101 259.211 123.01L259.211 124.67C260.596 124.808 261.678 125.98 261.678 127.401C261.678 128.823 260.596 129.994 259.211 130.132L259.211 137.006C259.211 137.915 258.474 138.653 257.566 138.653L250.699 138.653C250.561 140.038 249.392 141.122 247.971 141.122L247.971 141.122L247.971 147.983C247.971 148.892 247.234 149.63 246.326 149.63L239.733 149.63C239.604 150.925 238.574 151.957 237.279 152.086L237.279 158.96C237.279 159.566 237.77 160.058 238.376 160.058L245.243 160.058C245.381 158.672 246.549 157.588 247.971 157.588C249.392 157.588 250.561 158.672 250.699 160.058L257.566 160.058C258.171 160.058 258.662 159.566 258.662 158.96L258.662 152.086C257.277 151.948 256.195 150.777 256.195 149.355C256.195 147.841 257.422 146.611 258.936 146.611C260.45 146.611 261.678 147.841 261.678 149.355C261.678 150.777 260.596 151.948 259.211 152.086L259.211 158.96C259.211 159.87 258.474 160.607 257.566 160.607L250.699 160.607C250.561 161.991 249.394 163.075 247.975 163.077L248.245 163.077L248.245 168.565ZM250.699 138.104L257.566 138.104C258.171 138.104 258.662 137.612 258.662 137.006L258.662 130.132C257.277 129.994 256.195 128.823 256.195 127.401C256.195 125.979 257.277 124.808 258.662 124.67L258.662 123.01C258.662 122.404 258.171 121.912 257.566 121.912L249.342 121.912C248.76 121.912 248.248 121.61 247.956 121.153C247.659 121.585 247.163 121.867 246.6 121.867L238.376 121.867C237.77 121.867 237.279 122.359 237.279 122.965L237.279 124.67C238.664 124.808 239.746 125.98 239.746 127.401C239.746 128.822 238.665 129.994 237.279 130.132L237.279 137.006C237.279 137.612 237.77 138.104 238.376 138.104L245.243 138.104C245.381 136.718 246.549 135.634 247.971 135.634C249.392 135.634 250.561 136.718 250.699 138.104Z" fill="black" fill-opacity="0.05"/>
<path fill-rule="evenodd" clip-rule="evenodd" d="M202.966 20.3047H203.515V25.7932H202.966V20.3047ZM193.646 28.8119H200.514C200.651 30.1975 201.82 31.2818 203.242 31.2818C204.663 31.2818 205.832 30.1975 205.969 28.8119H212.837C213.442 28.8119 213.933 29.3034 213.933 29.9097V36.7838C212.637 36.9122 211.607 37.9445 211.478 39.2402H204.883C203.975 39.2402 203.239 39.9774 203.239 40.8868V47.7474C201.819 47.749 200.651 48.8327 200.514 50.2173H193.646C192.738 50.2173 192.002 50.9545 192.002 51.8638V58.738C190.616 58.8753 189.533 60.0469 189.533 61.4688C189.533 62.8908 190.616 64.0625 192.002 64.1997V65.8597C192.002 66.769 192.738 67.5062 193.647 67.5062H201.871C202.462 67.5062 202.945 67.9751 202.967 68.5618C202.965 68.5906 202.964 68.6197 202.964 68.6489V69.9761H202.968V75.2038C201.582 75.3416 200.5 76.5129 200.5 77.9345C200.5 79.4485 201.728 80.6788 203.242 80.6788C204.756 80.6788 205.983 79.4485 205.983 77.9345C205.983 76.513 204.901 75.3417 203.516 75.2038V68.6039C203.516 68.5929 203.516 68.5819 203.515 68.5709C203.555 68.001 204.03 67.5512 204.609 67.5512H212.834C213.742 67.5512 214.478 66.814 214.478 65.9046V64.1997C215.865 64.0628 216.948 62.891 216.948 61.4688C216.948 60.0477 215.866 58.8765 214.481 58.7382V51.8638C214.481 50.9545 213.745 50.2173 212.837 50.2173H205.969C205.85 49.0138 204.952 48.0375 203.787 47.8018V40.8868C203.787 40.2805 204.278 39.7891 204.883 39.7891H211.478C211.616 41.1746 212.785 42.2589 214.206 42.2589C215.628 42.2589 216.796 41.1746 216.934 39.7891H223.801C224.407 39.7891 224.898 40.2805 224.898 40.8868V47.7609C223.512 47.8983 222.429 49.0699 222.429 50.4917C222.429 52.0058 223.657 53.236 225.171 53.236C226.685 53.236 227.912 52.0058 227.912 50.4917C227.912 49.0706 226.831 47.8995 225.446 47.7611V40.8868C225.446 39.9774 224.71 39.2402 223.801 39.2402H216.934C216.805 37.9452 215.776 36.9133 214.481 36.784V29.9097C214.481 29.0003 213.745 28.2631 212.837 28.2631H205.969C205.832 26.8776 204.663 25.7933 203.242 25.7933C201.82 25.7933 200.651 26.8776 200.514 28.2631H193.646C192.738 28.2631 192.002 29.0003 192.002 29.9097V36.7838C190.616 36.9211 189.533 38.0927 189.533 39.5146C189.533 41.0286 190.761 42.2589 192.275 42.2589C193.789 42.2589 195.016 41.0286 195.016 39.5146C195.016 38.0935 193.935 36.9224 192.55 36.784V29.9097C192.55 29.3034 193.041 28.8119 193.646 28.8119ZM192.55 58.7382C193.935 58.8766 195.016 60.0477 195.016 61.4688C195.016 62.8898 193.935 64.0609 192.55 64.1994V65.8597C192.55 66.4659 193.041 66.9574 193.647 66.9574H201.871C202.452 66.9574 202.962 67.2589 203.255 67.714C203.552 67.2841 204.048 67.0023 204.609 67.0023H212.834C213.439 67.0023 213.93 66.5109 213.93 65.9046V64.1993C212.546 64.0606 211.465 62.8897 211.465 61.4688C211.465 60.0469 212.547 58.8754 213.933 58.738V51.8638C213.933 51.2576 213.442 50.7661 212.837 50.7661H205.969C205.832 52.1517 204.663 53.236 203.242 53.236C201.82 53.236 200.651 52.1517 200.514 50.7661H193.646C193.041 50.7661 192.55 51.2576 192.55 51.8638V58.7382Z" fill="black" fill-opacity="0.05"/>
<path fill-rule="evenodd" clip-rule="evenodd" d="M225.275 52.7844H224.726V58.273H225.275V52.7844ZM225.001 58.273C223.487 58.273 222.26 59.5032 222.26 61.0173C222.26 62.5313 223.487 63.7615 225.001 63.7615C226.423 63.7615 227.592 62.6772 227.729 61.2917H234.596C235.202 61.2917 235.693 61.7831 235.693 62.3894V69.2635C234.397 69.392 233.367 70.4243 233.238 71.72H226.643C225.735 71.72 224.998 72.4571 224.998 73.3665V80.2272C223.578 80.2287 222.411 81.3125 222.273 82.697H215.406C214.498 82.697 213.761 83.4342 213.761 84.3436V91.2178C212.375 91.3551 211.293 92.5267 211.293 93.9486C211.293 95.3706 212.376 96.5422 213.762 96.6794V98.3394C213.762 99.2487 214.498 99.9859 215.406 99.9859H223.631C224.222 99.9859 224.704 100.454 224.726 101.041C224.725 101.07 224.724 101.099 224.724 101.129V102.456H224.727V107.683C223.342 107.821 222.26 108.993 222.26 110.414C222.26 111.928 223.487 113.159 225.001 113.159C226.515 113.159 227.743 111.928 227.743 110.414C227.743 108.993 226.661 107.821 225.276 107.684V101.084C225.276 101.072 225.275 101.061 225.275 101.05C225.316 100.48 225.79 100.031 226.369 100.031H234.593C235.502 100.031 236.238 99.2938 236.238 98.3844V96.6795C237.624 96.5425 238.707 95.3708 238.707 93.9486C238.707 92.5274 237.626 91.3563 236.241 91.218V84.3436C236.241 83.4342 235.505 82.697 234.596 82.697H227.729C227.61 81.4935 226.712 80.5173 225.547 80.2815V73.3665C225.547 72.7603 226.038 72.2688 226.643 72.2688H233.238C233.376 73.6543 234.545 74.7386 235.966 74.7386C237.387 74.7386 238.556 73.6543 238.694 72.2688H245.561C246.167 72.2688 246.657 72.7603 246.657 73.3665V80.2406C245.272 80.378 244.189 81.5496 244.189 82.9714C244.189 84.4855 245.417 85.7157 246.931 85.7157C248.445 85.7157 249.672 84.4855 249.672 82.9714C249.672 81.5503 248.591 80.3792 247.206 80.2409V73.3665C247.206 72.4571 246.469 71.72 245.561 71.72H238.694C238.565 70.425 237.536 69.3931 236.241 69.2638V62.3894C236.241 61.48 235.505 60.7428 234.596 60.7428H227.729C227.592 59.3573 226.423 58.273 225.001 58.273ZM214.31 91.218C215.694 91.3564 216.776 92.5275 216.776 93.9486C216.776 95.3696 215.695 96.5407 214.31 96.6792V98.3394C214.31 98.9456 214.801 99.4371 215.406 99.4371H223.631C224.212 99.4371 224.722 99.7385 225.015 100.194C225.312 99.7638 225.807 99.4821 226.369 99.4821H234.593C235.199 99.4821 235.69 98.9906 235.69 98.3844V96.6791C234.305 96.5404 233.225 95.3694 233.225 93.9486C233.225 92.5267 234.307 91.3551 235.693 91.2178V84.3436C235.693 83.7373 235.202 83.2459 234.596 83.2459H227.729C227.592 84.6314 226.423 85.7157 225.001 85.7157C223.58 85.7157 222.411 84.6314 222.273 83.2459H215.406C214.801 83.2459 214.31 83.7373 214.31 84.3436V91.218ZM211.293 71.9944C211.293 70.4803 212.52 69.2501 214.034 69.2501C215.548 69.2501 216.776 70.4803 216.776 71.9944C216.776 73.5084 215.548 74.7386 214.034 74.7386C212.52 74.7386 211.293 73.5084 211.293 71.9944Z" fill="black" fill-opacity="0.05"/>
<path fill-rule="evenodd" clip-rule="evenodd" d="M80.8792 143.728L80.331 143.728L80.331 138.239L80.8792 138.239L80.8792 143.728ZM90.1994 135.22L83.332 135.22C83.1944 133.835 82.0256 132.75 80.6041 132.75C79.1827 132.75 78.0139 133.835 77.8763 135.22L71.0091 135.22C70.4035 135.22 69.9126 134.729 69.9126 134.123L69.9126 127.249C71.2082 127.12 72.2386 126.088 72.3674 124.792L78.9623 124.792C79.8707 124.792 80.6071 124.055 80.6071 123.146L80.6071 116.285C82.0272 116.283 83.1944 115.2 83.332 113.815L90.1994 113.815C91.1078 113.815 91.8442 113.078 91.8442 112.168L91.8442 105.294C93.23 105.157 94.3125 103.985 94.3125 102.563C94.3125 101.141 93.2298 99.9698 91.8438 99.8326L91.8438 98.1726C91.8438 97.2633 91.1074 96.5261 90.199 96.5261L81.9747 96.5261C81.3831 96.5261 80.901 96.0571 80.879 95.4703C80.8805 95.4415 80.8812 95.4125 80.8812 95.3834L80.8812 94.0562L80.8782 94.0562L80.8782 88.8286C82.2636 88.6908 83.3456 87.5194 83.3456 86.0978C83.3456 84.5838 82.1182 83.3536 80.6041 83.3536C79.0901 83.3536 77.8627 84.5838 77.8627 86.0978C77.8627 87.5193 78.9446 88.6906 80.3299 88.8285L80.3299 95.4284C80.3299 95.4393 80.33 95.4503 80.3302 95.4612C80.2903 96.0311 79.8158 96.4811 79.2364 96.4811L71.0121 96.4811C70.1037 96.4811 69.3673 97.2183 69.3673 98.1276L69.3673 99.8326C67.9811 99.9695 66.8981 101.141 66.8981 102.563C66.8981 103.985 67.9795 105.156 69.3643 105.294L69.3643 112.168C69.3643 113.078 70.1007 113.815 71.0091 113.815L77.8763 113.815C77.9959 115.019 78.8935 115.995 80.0588 116.23L80.0588 123.146C80.0588 123.752 79.5679 124.243 78.9623 124.243L72.3674 124.243C72.2297 122.858 71.0609 121.773 69.6395 121.773C68.2181 121.773 67.0493 122.858 66.9116 124.243L60.0445 124.243C59.4389 124.243 58.948 123.752 58.948 123.146L58.948 116.271C60.3338 116.134 61.4163 114.962 61.4163 113.541C61.4163 112.027 60.189 110.796 58.6749 110.796C57.1609 110.796 55.9335 112.027 55.9335 113.541C55.9335 114.962 57.0149 116.133 58.3997 116.271L58.3997 123.146C58.3997 124.055 59.1361 124.792 60.0445 124.792L66.9116 124.792C67.0403 126.087 68.0697 127.119 69.3643 127.248L69.3643 134.123C69.3643 135.032 70.1007 135.769 71.0091 135.769L77.8763 135.769C78.0139 137.155 79.1827 138.239 80.6041 138.239C82.0256 138.239 83.1943 137.155 83.332 135.769L90.1994 135.769C91.1078 135.769 91.8442 135.032 91.8442 134.123L91.8442 127.249C93.23 127.111 94.3125 125.94 94.3125 124.518C94.3125 123.004 93.0851 121.773 91.5711 121.773C90.057 121.773 88.8297 123.004 88.8297 124.518C88.8297 125.939 89.9111 127.11 91.2959 127.248L91.2959 134.123C91.2959 134.729 90.805 135.22 90.1994 135.22ZM91.2959 105.294C89.9111 105.156 88.8297 103.985 88.8297 102.563C88.8297 101.142 89.9109 99.9714 91.2955 99.8329L91.2955 98.1726C91.2955 97.5664 90.8046 97.0749 90.199 97.0749L81.9747 97.0749C81.3938 97.0749 80.8832 96.7734 80.5906 96.3182C80.2938 96.7482 79.7979 97.0299 79.2364 97.0299L71.0121 97.0299C70.4065 97.0299 69.9156 97.5214 69.9156 98.1276L69.9156 99.833C71.3 99.9717 72.3809 101.143 72.3809 102.563C72.3809 103.985 71.2984 105.157 69.9126 105.294L69.9126 112.168C69.9126 112.775 70.4035 113.266 71.0091 113.266L77.8763 113.266C78.0139 111.881 79.1827 110.796 80.6041 110.796C82.0256 110.796 83.1944 111.881 83.332 113.266L90.1994 113.266C90.805 113.266 91.2959 112.775 91.2959 112.168L91.2959 105.294Z" fill="black" fill-opacity="0.05"/>
<g filter="url(#filter0_d)">
<path fill-rule="evenodd" clip-rule="evenodd" d="M96.1509 74.3856C100.209 68.6681 105.47 64.6809 111.933 62.424C112.233 55.5029 114.187 49.1835 117.795 43.466C121.402 37.5981 126.212 33.009 132.224 29.6989C138.236 26.2383 144.699 24.508 151.613 24.508C158.226 24.508 164.389 26.0126 170.1 29.0218C175.812 32.031 180.471 36.1687 184.078 41.4348C187.535 39.7797 191.142 38.9522 194.9 38.9522C199.409 38.9522 203.618 40.0807 207.526 42.3376C211.433 44.5945 214.515 47.6789 216.769 51.5909C219.024 55.5029 220.151 59.7157 220.151 64.2296C220.151 66.6369 219.85 68.9691 219.249 71.226C223.909 73.7838 227.591 77.3948 230.296 82.0591C233.152 86.5729 234.58 91.4629 234.58 96.729C234.58 101.995 233.303 106.885 230.747 111.399C228.192 115.762 224.66 119.223 220.151 121.781C215.792 124.338 210.983 125.617 205.722 125.617H122.755C116.893 125.617 111.482 124.113 106.522 121.104C101.562 118.245 97.5788 114.333 94.5727 109.368C91.7169 104.402 90.2891 98.9859 90.2891 93.1179C90.2891 86.1968 92.243 79.9527 96.1509 74.3856Z" fill="#359AB6"/>
</g>
<path fill-rule="evenodd" clip-rule="evenodd" d="M169.493 44.8353H151.006C150.314 44.8353 149.752 45.3962 149.752 46.0882V50.4317C149.752 51.1237 150.314 51.6847 151.006 51.6847H169.493C170.185 51.6847 170.747 51.1237 170.747 50.4317V46.0882C170.747 45.3962 170.185 44.8353 169.493 44.8353ZM151.006 44C149.852 44 148.916 44.9349 148.916 46.0882V50.4317C148.916 51.585 149.852 52.52 151.006 52.52H169.493C170.647 52.52 171.583 51.585 171.583 50.4317V46.0882C171.583 44.9349 170.647 44 169.493 44H151.006Z" fill="white"/>
<rect x="164.5" y="83.76" width="8.5" height="8.52" rx="4.25" fill="white"/>
<rect x="181.5" y="83.76" width="8.5" height="8.52" rx="4.25" fill="white"/>
<rect x="139" y="66.72" width="8.5" height="8.52" rx="4.25" fill="white"/>
<rect x="139" y="83.76" width="8.5" height="8.52" rx="4.25" fill="white"/>
<path fill-rule="evenodd" clip-rule="evenodd" d="M169.493 107.315H151.006C150.314 107.315 149.752 107.876 149.752 108.568V112.912C149.752 113.604 150.314 114.165 151.006 114.165H169.493C170.185 114.165 170.747 113.604 170.747 112.912V108.568C170.747 107.876 170.185 107.315 169.493 107.315ZM151.006 106.48C149.852 106.48 148.916 107.415 148.916 108.568V112.912C148.916 114.065 149.852 115 151.006 115H169.493C170.647 115 171.583 114.065 171.583 112.912V108.568C171.583 107.415 170.647 106.48 169.493 106.48H151.006Z" fill="white"/>
<path d="M155.172 47.4457V49.2251H155.63C155.74 49.2251 155.817 49.2466 155.863 49.2895C155.91 49.3309 155.934 49.3856 155.934 49.4536C155.934 49.5202 155.91 49.5749 155.863 49.6178C155.817 49.6593 155.74 49.68 155.63 49.68H154.26C154.151 49.68 154.073 49.6593 154.026 49.6178C153.98 49.5749 153.957 49.5195 153.957 49.4514C153.957 49.3849 153.98 49.3309 154.026 49.2895C154.073 49.2466 154.151 49.2251 154.26 49.2251H154.718V47.4457H154.26C154.151 47.4457 154.073 47.425 154.026 47.3836C153.98 47.3407 153.957 47.2852 153.957 47.2171C153.957 47.1491 153.98 47.0944 154.026 47.053C154.073 47.0101 154.151 46.9886 154.26 46.9886L155.63 46.9908C155.74 46.9908 155.817 47.0115 155.863 47.053C155.91 47.0944 155.934 47.1491 155.934 47.2171C155.934 47.2852 155.91 47.3407 155.863 47.3836C155.817 47.425 155.74 47.4457 155.63 47.4457H155.172Z" fill="white"/>
<path d="M157.1 47.8495V49.2251H157.264C157.373 49.2251 157.451 49.2466 157.496 49.2895C157.544 49.3309 157.567 49.3856 157.567 49.4536C157.567 49.5202 157.544 49.5749 157.496 49.6178C157.451 49.6593 157.373 49.68 157.264 49.68H156.669C156.559 49.68 156.481 49.6593 156.434 49.6178C156.388 49.5749 156.365 49.5195 156.365 49.4514C156.365 49.3863 156.388 49.3324 156.434 49.2895C156.48 49.2466 156.551 49.2251 156.646 49.2251V47.4457H156.576C156.466 47.4457 156.388 47.425 156.341 47.3836C156.295 47.3407 156.272 47.2852 156.272 47.2171C156.272 47.1491 156.295 47.0944 156.341 47.053C156.388 47.0101 156.466 46.9886 156.576 46.9886L157.1 46.9908L158.26 48.8146V47.4457H158.096C157.987 47.4457 157.909 47.425 157.862 47.3836C157.816 47.3407 157.793 47.2852 157.793 47.2171C157.793 47.1491 157.816 47.0944 157.862 47.053C157.909 47.0101 157.987 46.9886 158.096 46.9886L158.692 46.9908C158.801 46.9908 158.878 47.0115 158.924 47.053C158.971 47.0944 158.995 47.1491 158.995 47.2171C158.995 47.2837 158.972 47.3384 158.926 47.3813C158.881 47.4242 158.811 47.4457 158.716 47.4457V49.68H158.267L157.1 47.8495Z" fill="white"/>
<path d="M160.128 48.757V49.2251H160.587C160.696 49.2251 160.773 49.2466 160.819 49.2895C160.866 49.3309 160.89 49.3856 160.89 49.4536C160.89 49.5202 160.866 49.5749 160.819 49.6178C160.773 49.6593 160.696 49.68 160.587 49.68H159.604C159.495 49.68 159.416 49.6593 159.369 49.6178C159.323 49.5749 159.301 49.5195 159.301 49.4514C159.301 49.3849 159.324 49.3309 159.371 49.2895C159.419 49.2466 159.496 49.2251 159.604 49.2251H159.675V47.4457H159.604C159.495 47.4457 159.416 47.425 159.369 47.3836C159.323 47.3407 159.301 47.2852 159.301 47.2171C159.301 47.1491 159.323 47.0944 159.369 47.053C159.416 47.0101 159.495 46.9886 159.604 46.9886L160.649 46.9908C160.956 46.9908 161.198 47.0751 161.377 47.2438C161.557 47.4109 161.647 47.615 161.647 47.8561C161.647 47.9893 161.617 48.115 161.556 48.2333C161.51 48.3221 161.434 48.4101 161.326 48.4974C161.22 48.5832 161.11 48.6482 160.998 48.6926C160.888 48.7355 160.741 48.757 160.558 48.757H160.128ZM160.128 48.3021H160.549C160.747 48.3021 160.903 48.2577 161.018 48.169C161.135 48.0788 161.193 47.9708 161.193 47.8451C161.193 47.7386 161.146 47.6454 161.051 47.5655C160.958 47.4856 160.825 47.4457 160.651 47.4457H160.128V48.3021Z" fill="white"/>
<path d="M164.15 47.4457V48.7348C164.15 49.0158 164.049 49.2547 163.847 49.4514C163.646 49.6482 163.404 49.7465 163.121 49.7465C162.981 49.7465 162.849 49.7221 162.725 49.6733C162.602 49.623 162.492 49.5498 162.393 49.4536C162.295 49.3575 162.219 49.2577 162.165 49.1541C162.11 49.0491 162.083 48.9093 162.083 48.7348V47.4457C161.987 47.4457 161.916 47.4242 161.87 47.3813C161.825 47.3384 161.802 47.2837 161.802 47.2171C161.802 47.1491 161.825 47.0944 161.87 47.053C161.916 47.0115 161.994 46.9908 162.105 46.9908L162.701 46.9886C162.81 46.9886 162.887 47.0101 162.933 47.053C162.98 47.0944 163.004 47.1491 163.004 47.2171C163.004 47.2852 162.98 47.3407 162.933 47.3836C162.887 47.425 162.81 47.4457 162.701 47.4457H162.537V48.7747C162.537 48.9108 162.593 49.0313 162.705 49.1364C162.819 49.2399 162.955 49.2917 163.114 49.2917C163.221 49.2917 163.32 49.2665 163.413 49.2162C163.506 49.166 163.582 49.0927 163.641 48.9966C163.678 48.9359 163.697 48.862 163.697 48.7747V47.4457H163.533C163.424 47.4457 163.345 47.425 163.298 47.3836C163.252 47.3407 163.23 47.2852 163.23 47.2171C163.23 47.1491 163.252 47.0944 163.298 47.053C163.345 47.0101 163.424 46.9886 163.533 46.9886L164.128 46.9908C164.237 46.9908 164.315 47.0115 164.361 47.053C164.408 47.0944 164.432 47.1491 164.432 47.2171C164.432 47.2837 164.409 47.3384 164.363 47.3813C164.317 47.4242 164.246 47.4457 164.15 47.4457Z" fill="white"/>
<path d="M166.056 47.4457V49.2251H166.362C166.471 49.2251 166.548 49.2466 166.594 49.2895C166.641 49.3309 166.665 49.3856 166.665 49.4536C166.665 49.5202 166.641 49.5749 166.594 49.6178C166.548 49.6593 166.471 49.68 166.362 49.68H165.299C165.19 49.68 165.112 49.6593 165.065 49.6178C165.019 49.5749 164.996 49.5195 164.996 49.4514C164.996 49.3849 165.019 49.3309 165.065 49.2895C165.112 49.2466 165.19 49.2251 165.299 49.2251H165.602V47.4457H165.111V47.8761C165.111 47.9856 165.09 48.064 165.047 48.1113C165.006 48.1572 164.951 48.1801 164.883 48.1801C164.817 48.1801 164.762 48.1572 164.719 48.1113C164.678 48.064 164.657 47.9856 164.657 47.8761V46.9886L167.008 46.9908V47.8761C167.008 47.9856 166.987 48.064 166.944 48.1113C166.903 48.1572 166.848 48.1801 166.78 48.1801C166.714 48.1801 166.659 48.1572 166.616 48.1113C166.575 48.064 166.554 47.9856 166.554 47.8761V47.4457H166.056Z" fill="white"/>
<path d="M154.998 110.815C154.998 111.219 154.87 111.556 154.613 111.825C154.358 112.093 154.062 112.227 153.726 112.227C153.423 112.227 153.15 112.115 152.907 111.891C152.606 111.615 152.455 111.256 152.455 110.815C152.455 110.375 152.606 110.015 152.907 109.737C153.15 109.514 153.423 109.402 153.726 109.402C154.062 109.402 154.358 109.537 154.613 109.806C154.87 110.074 154.998 110.41 154.998 110.815ZM154.545 110.815C154.545 110.539 154.461 110.31 154.295 110.13C154.128 109.948 153.938 109.857 153.726 109.857C153.515 109.857 153.326 109.948 153.159 110.13C152.992 110.312 152.909 110.54 152.909 110.815C152.909 111.091 152.992 111.319 153.159 111.501C153.326 111.681 153.515 111.772 153.726 111.772C153.938 111.772 154.128 111.681 154.295 111.501C154.461 111.321 154.545 111.092 154.545 110.815Z" fill="white"/>
<path d="M157.484 109.926V111.215C157.484 111.496 157.383 111.735 157.181 111.931C156.98 112.128 156.738 112.227 156.455 112.227C156.315 112.227 156.183 112.202 156.059 112.153C155.936 112.103 155.826 112.03 155.727 111.934C155.629 111.837 155.553 111.738 155.499 111.634C155.444 111.529 155.417 111.389 155.417 111.215V109.926C155.321 109.926 155.25 109.904 155.204 109.861C155.159 109.818 155.136 109.764 155.136 109.697C155.136 109.629 155.159 109.574 155.204 109.533C155.25 109.492 155.328 109.471 155.439 109.471L156.034 109.469C156.144 109.469 156.221 109.49 156.267 109.533C156.314 109.574 156.338 109.629 156.338 109.697C156.338 109.765 156.314 109.821 156.267 109.864C156.221 109.905 156.144 109.926 156.034 109.926H155.871V111.255C155.871 111.391 155.927 111.511 156.039 111.616C156.152 111.72 156.289 111.772 156.448 111.772C156.555 111.772 156.654 111.747 156.747 111.696C156.84 111.646 156.916 111.573 156.975 111.477C157.012 111.416 157.03 111.342 157.03 111.255V109.926H156.867C156.757 109.926 156.679 109.905 156.632 109.864C156.586 109.821 156.563 109.765 156.563 109.697C156.563 109.629 156.586 109.574 156.632 109.533C156.679 109.49 156.757 109.469 156.867 109.469L157.462 109.471C157.571 109.471 157.649 109.492 157.695 109.533C157.742 109.574 157.765 109.629 157.765 109.697C157.765 109.764 157.742 109.818 157.697 109.861C157.651 109.904 157.58 109.926 157.484 109.926Z" fill="white"/>
<path d="M159.39 109.926V111.705H159.696C159.805 111.705 159.882 111.727 159.928 111.769C159.975 111.811 159.999 111.866 159.999 111.934C159.999 112 159.975 112.055 159.928 112.098C159.882 112.139 159.805 112.16 159.696 112.16H158.633C158.524 112.16 158.446 112.139 158.398 112.098C158.353 112.055 158.33 111.999 158.33 111.931C158.33 111.865 158.353 111.811 158.398 111.769C158.446 111.727 158.524 111.705 158.633 111.705H158.936V109.926H158.445V110.356C158.445 110.466 158.424 110.544 158.381 110.591C158.339 110.637 158.285 110.66 158.217 110.66C158.151 110.66 158.096 110.637 158.053 110.591C158.012 110.544 157.991 110.466 157.991 110.356V109.469L160.342 109.471V110.356C160.342 110.466 160.321 110.544 160.278 110.591C160.236 110.637 160.182 110.66 160.114 110.66C160.048 110.66 159.993 110.637 159.95 110.591C159.909 110.544 159.888 110.466 159.888 110.356V109.926H159.39Z" fill="white"/>
<path d="M161.63 111.237V111.705H162.088C162.198 111.705 162.275 111.727 162.321 111.769C162.368 111.811 162.392 111.866 162.392 111.934C162.392 112 162.368 112.055 162.321 112.098C162.275 112.139 162.198 112.16 162.088 112.16H161.106C160.996 112.16 160.918 112.139 160.871 112.098C160.825 112.055 160.802 111.999 160.802 111.931C160.802 111.865 160.826 111.811 160.873 111.769C160.92 111.727 160.998 111.705 161.106 111.705H161.176V109.926H161.106C160.996 109.926 160.918 109.905 160.871 109.864C160.825 109.821 160.802 109.765 160.802 109.697C160.802 109.629 160.825 109.574 160.871 109.533C160.918 109.49 160.996 109.469 161.106 109.469L162.15 109.471C162.457 109.471 162.7 109.555 162.879 109.724C163.059 109.891 163.149 110.095 163.149 110.336C163.149 110.469 163.118 110.595 163.058 110.713C163.012 110.802 162.935 110.89 162.828 110.977C162.721 111.063 162.612 111.128 162.5 111.173C162.389 111.215 162.243 111.237 162.06 111.237H161.63ZM161.63 110.782H162.051C162.249 110.782 162.405 110.738 162.52 110.649C162.637 110.559 162.695 110.451 162.695 110.325C162.695 110.219 162.648 110.125 162.553 110.045C162.46 109.966 162.327 109.926 162.153 109.926H161.63V110.782Z" fill="white"/>
<path d="M165.652 109.926V111.215C165.652 111.496 165.551 111.735 165.349 111.931C165.148 112.128 164.906 112.227 164.623 112.227C164.483 112.227 164.351 112.202 164.227 112.153C164.104 112.103 163.994 112.03 163.895 111.934C163.797 111.837 163.721 111.738 163.667 111.634C163.612 111.529 163.585 111.389 163.585 111.215V109.926C163.489 109.926 163.418 109.904 163.372 109.861C163.327 109.818 163.304 109.764 163.304 109.697C163.304 109.629 163.327 109.574 163.372 109.533C163.418 109.492 163.496 109.471 163.607 109.471L164.202 109.469C164.312 109.469 164.389 109.49 164.435 109.533C164.482 109.574 164.506 109.629 164.506 109.697C164.506 109.765 164.482 109.821 164.435 109.864C164.389 109.905 164.312 109.926 164.202 109.926H164.039V111.255C164.039 111.391 164.095 111.511 164.207 111.616C164.32 111.72 164.457 111.772 164.616 111.772C164.723 111.772 164.822 111.747 164.915 111.696C165.008 111.646 165.084 111.573 165.143 111.477C165.18 111.416 165.198 111.342 165.198 111.255V109.926H165.035C164.925 109.926 164.847 109.905 164.8 109.864C164.754 109.821 164.731 109.765 164.731 109.697C164.731 109.629 164.754 109.574 164.8 109.533C164.847 109.49 164.925 109.469 165.035 109.469L165.63 109.471C165.739 109.471 165.817 109.492 165.863 109.533C165.91 109.574 165.933 109.629 165.933 109.697C165.933 109.764 165.91 109.818 165.865 109.861C165.819 109.904 165.748 109.926 165.652 109.926Z" fill="white"/>
<path d="M167.558 109.926V111.705H167.864C167.973 111.705 168.05 111.727 168.096 111.769C168.143 111.811 168.167 111.866 168.167 111.934C168.167 112 168.143 112.055 168.096 112.098C168.05 112.139 167.973 112.16 167.864 112.16H166.801C166.692 112.16 166.614 112.139 166.566 112.098C166.521 112.055 166.498 111.999 166.498 111.931C166.498 111.865 166.521 111.811 166.566 111.769C166.614 111.727 166.692 111.705 166.801 111.705H167.104V109.926H166.613V110.356C166.613 110.466 166.591 110.544 166.549 110.591C166.507 110.637 166.453 110.66 166.385 110.66C166.318 110.66 166.264 110.637 166.221 110.591C166.18 110.544 166.159 110.466 166.159 110.356V109.469L168.51 109.471V110.356C168.51 110.466 168.489 110.544 168.446 110.591C168.404 110.637 168.35 110.66 168.282 110.66C168.215 110.66 168.161 110.637 168.118 110.591C168.077 110.544 168.056 110.466 168.056 110.356V109.926H167.558Z" fill="white"/>
<path fill-rule="evenodd" clip-rule="evenodd" d="M159.831 59.2023V52.094H160.667V59.2023H177.525V70.2783H186.167V100.508H160.667V107.048H159.831V100.508H142.973V59.2023H159.831ZM176.689 70.2783V60.0376H143.809V99.6723H168.189V70.2783H176.689ZM169.025 99.6723H185.331V71.1136H169.025V99.6723Z" fill="white"/>
<rect x="15.4414" y="67.2" width="26.3429" height="27.2281" rx="10" fill="white"/>
<path d="M52.881 79.8348H42.3032V78.0199H45.7955C46.2395 78.0199 46.5994 77.6627 46.5994 77.2222C46.5994 76.7816 46.2395 76.4245 45.7955 76.4245H42.3032V74.6095H44.7278C45.6311 74.6095 46.4804 74.2605 47.119 73.6267L52.4062 68.3804C52.7507 68.5507 53.1326 68.6413 53.5288 68.6413C54.2026 68.6413 54.836 68.3809 55.3124 67.9083C55.7889 67.4355 56.0513 66.807 56.0513 66.1385C56.0513 65.4699 55.7889 64.8414 55.3124 64.3687C54.8361 63.8959 54.2026 63.6355 53.5288 63.6355C52.855 63.6355 52.2216 63.8959 51.7452 64.3685C51.2687 64.8413 51.0063 65.4698 51.0063 66.1384C51.0063 66.5315 51.0976 66.9104 51.2692 67.2523L45.982 72.4985C45.6471 72.8309 45.2016 73.0141 44.7277 73.0141H42.3031V71.254C42.3031 68.9337 40.4006 67.046 38.0623 67.046H36.2885V59.9843C37.2862 59.6504 38.0069 58.7137 38.0069 57.6125C38.0069 56.2324 36.8753 55.1096 35.4846 55.1096C34.0938 55.1096 32.9622 56.2325 32.9622 57.6125C32.9622 58.7137 33.6829 59.6503 34.6806 59.9843V67.0459H32.8516V63.5806C32.8516 63.1401 32.4916 62.7829 32.0477 62.7829C31.6037 62.7829 31.2437 63.1401 31.2437 63.5806V67.0459H29.4146V54.2022C29.4146 53.7616 29.0546 53.4045 28.6106 53.4045C28.1667 53.4045 27.8067 53.7616 27.8067 54.2022V67.0459H25.9776V63.5806C25.9776 63.1401 25.6177 62.7829 25.1737 62.7829C24.7297 62.7829 24.3698 63.1401 24.3698 63.5806V67.0459H22.5407V64.6402C22.5407 63.7439 22.1889 62.9012 21.5502 62.2675L16.2612 57.0194C16.7284 56.0834 16.5718 54.9162 15.7873 54.1376C14.8037 53.1618 13.2035 53.1619 12.22 54.1376C11.2366 55.1135 11.2366 56.7013 12.22 57.6773C12.7118 58.1651 13.3577 58.4091 14.0036 58.4091C14.3882 58.4091 14.7722 58.3205 15.1243 58.1475L20.4133 63.3957C20.7484 63.728 20.9329 64.1701 20.9329 64.6402V67.0459H19.1591C18.8006 67.0459 18.444 67.0906 18.0992 67.1786C17.6693 67.2883 17.4104 67.7232 17.5211 68.1499C17.6317 68.5767 18.0701 68.8335 18.5 68.7236C18.7139 68.6691 18.9355 68.6413 19.159 68.6413H38.0623C39.5141 68.6413 40.6952 69.8134 40.6952 71.2539V90.0109C40.6952 90.2325 40.6674 90.4523 40.6125 90.6643C40.502 91.091 40.761 91.5258 41.1909 91.6355C41.258 91.6526 41.3253 91.6608 41.3917 91.6608C41.7498 91.6608 42.0764 91.4216 42.1696 91.0614C42.2582 90.7198 42.3031 90.3663 42.3031 90.0108V88.2508H70.5792V86.6554H42.3031V84.8404H45.7954C46.2394 84.8404 46.5993 84.4832 46.5993 84.0427C46.5993 83.6021 46.2394 83.245 45.7954 83.245H42.3031V81.4302H52.881C53.325 81.4302 53.6849 81.073 53.6849 80.6325C53.6849 80.1919 53.325 79.8348 52.881 79.8348ZM52.882 65.4968C53.0548 65.3254 53.2844 65.231 53.5287 65.231C53.773 65.231 54.0026 65.3254 54.1754 65.4968C54.3481 65.6683 54.4432 65.8961 54.4432 66.1385C54.4432 66.3809 54.3481 66.6087 54.1754 66.7801C54.0026 66.9516 53.773 67.0459 53.5287 67.0459C53.2844 67.0459 53.0548 66.9516 52.882 66.7801C52.7092 66.6087 52.6141 66.3809 52.6141 66.1385C52.6141 65.8961 52.7092 65.6681 52.882 65.4968ZM14.6502 56.5492C14.2937 56.9029 13.7135 56.903 13.3568 56.5491C13.0001 56.1953 13.0001 55.6195 13.3568 55.2658C13.5351 55.0888 13.7692 55.0004 14.0035 55.0004C14.2377 55.0004 14.472 55.0889 14.6502 55.2658C15.0068 55.6196 15.0068 56.1954 14.6502 56.5492ZM35.4846 58.52C34.9803 58.52 34.57 58.1128 34.57 57.6125C34.57 57.1122 34.9802 56.705 35.4846 56.705C35.9889 56.705 36.3991 57.1122 36.3991 57.6125C36.3991 58.1128 35.9888 58.52 35.4846 58.52Z" fill="#334D54"/>
<path d="M45.0011 103.588C44.2166 102.809 43.0402 102.654 42.0968 103.117L36.8078 97.8693C36.4727 97.5369 36.2882 97.0949 36.2882 96.6248V94.219H38.062C38.4205 94.219 38.777 94.1744 39.1216 94.0864C39.5516 93.9766 39.8104 93.5417 39.6998 93.115C39.5892 92.6884 39.1511 92.4316 38.7209 92.5413C38.5071 92.5959 38.2855 92.6235 38.062 92.6235H19.1587C17.7069 92.6235 16.5257 91.4515 16.5257 90.0109V71.254C16.5257 71.0323 16.5536 70.8123 16.6086 70.6003C16.7193 70.1737 16.4605 69.7388 16.0305 69.629C15.6005 69.5191 15.1622 69.776 15.0516 70.2026C14.9628 70.5444 14.9179 70.8982 14.9179 71.254V73.0141H7.80107C7.46461 72.0241 6.52059 71.3089 5.41075 71.3089C4.01987 71.3089 2.88838 72.4316 2.88838 73.8118C2.88838 75.1919 4.01997 76.3146 5.41075 76.3146C6.52059 76.3146 7.4645 75.5995 7.80107 74.6095H14.9178V76.4245H11.4255C10.9815 76.4245 10.6215 76.7816 10.6215 77.2222C10.6215 77.6627 10.9815 78.0199 11.4255 78.0199H14.9178V79.8348H1.97384C1.52986 79.8348 1.16992 80.1919 1.16992 80.6325C1.16992 81.073 1.52986 81.4302 1.97384 81.4302H14.9178V83.2451H11.4255C10.9815 83.2451 10.6215 83.6022 10.6215 84.0428C10.6215 84.4833 10.9815 84.8405 11.4255 84.8405H14.9178V86.6555H12.4932C11.5899 86.6555 10.7406 87.0045 10.102 87.6383L4.81478 92.8845C4.47028 92.7143 4.08836 92.6236 3.69219 92.6236C3.0184 92.6236 2.38502 92.884 1.90856 93.3567C1.43232 93.8294 1.16992 94.458 1.16992 95.1265C1.16992 95.795 1.43232 96.4236 1.90878 96.8963C2.38513 97.3691 3.01861 97.6293 3.6924 97.6293C4.3662 97.6293 4.99958 97.369 5.47603 96.8963C5.95249 96.4236 6.21489 95.7951 6.21489 95.1265C6.21489 94.7334 6.12356 94.3544 5.95195 94.0126L11.2392 88.7663C11.5741 88.4339 12.0196 88.2508 12.4935 88.2508H14.9181V90.0108C14.9181 92.3312 16.8206 94.2188 19.1589 94.2188H20.9327V101.28C19.935 101.614 19.2143 102.551 19.2143 103.652C19.2143 105.032 20.3459 106.155 21.7366 106.155C23.1274 106.155 24.259 105.032 24.259 103.652C24.259 102.551 23.5383 101.614 22.5405 101.28V94.2188H24.3696V97.6841C24.3696 98.1247 24.7296 98.4818 25.1735 98.4818C25.6175 98.4818 25.9775 98.1247 25.9775 97.6841V94.2188H27.8064V107.063C27.8064 107.503 28.1664 107.86 28.6103 107.86C29.0543 107.86 29.4143 107.503 29.4143 107.063V94.219H31.2433V97.6843C31.2433 98.1249 31.6033 98.482 32.0473 98.482C32.4912 98.482 32.8512 98.1249 32.8512 97.6843V94.219H34.6803V96.6248C34.6803 97.5211 35.0321 98.3638 35.6708 98.9974L40.9598 104.246C40.4926 105.182 40.6492 106.349 41.4338 107.127C41.9255 107.615 42.5715 107.859 43.2174 107.859C43.8634 107.859 44.5094 107.615 45.0011 107.127C45.9845 106.151 45.9845 104.564 45.0011 103.588ZM5.41075 74.7192C4.90643 74.7192 4.49622 74.3121 4.49622 73.8118C4.49622 73.3113 4.90654 72.9043 5.41075 72.9043C5.91497 72.9043 6.32529 73.3114 6.32529 73.8118C6.3254 74.3122 5.91508 74.7192 5.41075 74.7192ZM4.33897 95.7682C4.16618 95.9396 3.93658 96.034 3.6923 96.034C3.44801 96.034 3.21841 95.9396 3.04563 95.7682C2.87284 95.5967 2.77776 95.3689 2.77776 95.1265C2.77776 94.8841 2.87284 94.6563 3.04563 94.4848C3.21841 94.3134 3.44801 94.219 3.6923 94.219C3.93658 94.219 4.16618 94.3134 4.33897 94.4848C4.51176 94.6563 4.60684 94.8841 4.60684 95.1265C4.60684 95.3689 4.51176 95.5968 4.33897 95.7682ZM22.651 103.652C22.651 104.153 22.2407 104.56 21.7364 104.56C21.2321 104.56 20.8219 104.153 20.8219 103.652C20.8219 103.152 21.2322 102.745 21.7364 102.745C22.2406 102.745 22.651 103.152 22.651 103.652ZM43.8642 105.999C43.5076 106.353 42.9274 106.353 42.5708 105.999C42.2142 105.645 42.2142 105.07 42.5708 104.716C42.7491 104.539 42.9833 104.451 43.2176 104.451C43.4518 104.451 43.686 104.539 43.8642 104.716C44.2207 105.07 44.2207 105.645 43.8642 105.999Z" fill="#334D54"/>
<path d="M37.1482 78.5012C37.1482 76.7952 35.8906 75.3501 34.1691 74.8805C34.22 74.6719 34.2483 74.4574 34.2483 74.2382C34.2483 72.623 32.8035 71.3089 31.0278 71.3089C30.0659 71.3089 29.2018 71.6949 28.6112 72.305C28.0206 71.6949 27.1564 71.3089 26.1946 71.3089C24.4188 71.3089 22.9741 72.623 22.9741 74.2382C22.9741 74.4574 23.0024 74.6719 23.0533 74.8805C21.3318 75.3499 20.0742 76.7951 20.0742 78.5012C20.0742 79.3349 20.3716 80.1215 20.9209 80.7712C20.3838 81.4611 20.0742 82.2987 20.0742 83.1904C20.074 84.5467 20.8044 85.8132 22.0074 86.5987C22.0074 86.5994 22.0074 86.6 22.0074 86.6006C22.0074 88.4509 23.6689 89.9562 25.7113 89.9562C26.885 89.9562 27.9321 89.4585 28.6112 88.6844C29.2902 89.4585 30.3374 89.9562 31.5111 89.9562C33.4766 89.9562 35.0886 88.5618 35.2072 86.8077C36.4009 86.1204 37.1482 84.9165 37.1482 83.6166C37.1482 82.6604 36.7373 81.7483 36.0302 81.0589C36.7372 80.3695 37.1482 79.4572 37.1482 78.5012ZM34.3029 81.7643C35.0776 82.1699 35.54 82.8624 35.54 83.6166C35.54 84.1789 35.2766 84.7153 34.8318 85.1164C34.4092 84.3399 33.6622 83.7217 32.7184 83.4275C32.295 83.2955 31.8436 83.5292 31.7105 83.9494C31.5773 84.3697 31.8129 84.8175 32.2364 84.9495C33.056 85.2051 33.6067 85.8687 33.6067 86.6007C33.6067 87.5713 32.6665 88.3609 31.5107 88.3609C30.3549 88.3609 29.4147 87.5713 29.4147 86.6007V81.4852C29.4147 80.5146 30.3549 79.7251 31.5107 79.7251C31.9546 79.7251 32.3146 79.368 32.3146 78.9274C32.3146 78.4869 31.9546 78.1298 31.5107 78.1298C30.7331 78.1298 30.0111 78.3484 29.4147 78.7208V77.7019C29.4147 77.2613 29.0547 76.9042 28.6108 76.9042C28.1668 76.9042 27.8068 77.2613 27.8068 77.7019V82.1304C27.5363 81.9619 27.2396 81.8224 26.9187 81.7224C26.4948 81.5903 26.0438 81.824 25.9108 82.2442C25.7776 82.6645 26.0131 83.1123 26.4366 83.2444C27.2562 83.4999 27.8068 84.1635 27.8068 84.8955V86.6006C27.8068 87.5712 26.8666 88.3608 25.7109 88.3608C24.555 88.3608 23.6148 87.5712 23.6148 86.6006C23.6148 86.1847 23.7925 85.7803 24.1151 85.4621C24.4301 85.1515 24.4316 84.6464 24.1186 84.3339C23.8056 84.0214 23.2966 84.0199 22.9817 84.3305C22.7891 84.5206 22.6233 84.7282 22.4854 84.9489C21.9778 84.4724 21.6814 83.8455 21.6814 83.1902C21.6814 82.0084 22.6162 80.9701 23.9547 80.6654C24.3874 80.5669 24.6577 80.1389 24.5585 79.7095C24.4592 79.28 24.0278 79.0119 23.5952 79.1104C23.0563 79.233 22.5603 79.4378 22.1204 79.7065C21.8351 79.3511 21.6815 78.9348 21.6815 78.5009C21.6818 77.3011 22.8281 76.3243 24.2412 76.3151C24.2484 76.3153 24.2556 76.3162 24.2626 76.3162C24.4461 76.3162 24.6306 76.2542 24.7816 76.1273C25.0898 75.8684 25.1517 75.4292 24.9448 75.0987C24.9387 75.0889 24.9331 75.0789 24.9267 75.0695C24.9233 75.0647 24.9194 75.0601 24.916 75.0553C24.9035 75.038 24.8908 75.021 24.8769 75.0046C24.8765 75.0041 24.8762 75.0035 24.8758 75.0031C24.7417 74.8458 24.5816 74.5854 24.5816 74.2381C24.5816 73.5026 25.3052 72.9042 26.1943 72.9042C27.0834 72.9042 27.8069 73.5026 27.8069 74.2381C27.8069 74.6786 28.1669 75.0358 28.6109 75.0358C29.0548 75.0358 29.4148 74.6786 29.4148 74.2381C29.4148 73.5026 30.1383 72.9042 31.0274 72.9042C31.9166 72.9042 32.6401 73.5026 32.6401 74.2381C32.6401 74.4346 32.5882 74.6022 32.5195 74.7401C32.0623 74.7829 31.62 74.8926 31.2001 75.0683C30.791 75.2394 30.5992 75.7073 30.7717 76.1133C30.9442 76.5192 31.4157 76.7096 31.8248 76.5384C32.1723 76.393 32.5462 76.3182 32.9362 76.3153C32.9439 76.3155 32.9515 76.3162 32.9592 76.3162C32.9664 76.3162 32.9735 76.3153 32.9806 76.3151C34.3937 76.3242 35.54 77.3011 35.54 78.5009C35.54 79.2551 35.0776 79.9475 34.3029 80.3533C34.0392 80.4914 33.8742 80.7629 33.8742 81.0588C33.8742 81.3547 34.0392 81.6262 34.3029 81.7643Z" fill="#334D54"/>
<path d="M38.4902 58.487C38.4902 59.4895 37.6712 60.3022 36.6609 60.3022L34.4656 60.3022C33.4553 60.3022 32.6363 59.4895 32.6363 58.487L32.6363 56.3087C32.6363 55.3062 33.4553 54.4935 34.4656 54.4935L36.6609 54.4935C37.6712 54.4935 38.4902 55.3062 38.4902 56.3087L38.4902 58.487Z" fill="#334D54"/>
<path d="M56.7852 67.2C56.7852 68.2025 55.9661 69.0152 54.9558 69.0152L52.7605 69.0152C51.7502 69.0152 50.9312 68.2025 50.9312 67.2L50.9312 65.0217C50.9312 64.0192 51.7502 63.2065 52.7605 63.2065L54.9558 63.2065C55.9661 63.2065 56.7852 64.0192 56.7852 65.0217L56.7852 67.2Z" fill="#334D54"/>
<path d="M74.6484 88.6194C74.6484 89.6219 73.8294 90.4346 72.8191 90.4346L70.6238 90.4346C69.6135 90.4346 68.7945 89.6219 68.7945 88.6194L68.7945 86.4412C68.7945 85.4387 69.6135 84.626 70.6238 84.626L72.8191 84.626C73.8294 84.626 74.6484 85.4387 74.6484 86.4412L74.6484 88.6194Z" fill="#334D54"/>
<path d="M57.3418 81.7216C57.3418 82.7241 56.5228 83.5368 55.5124 83.5368L53.3172 83.5368C52.3069 83.5368 51.4878 82.7241 51.4878 81.7216L51.4878 79.5434C51.4878 78.5408 52.3069 77.7281 53.3172 77.7281L55.5124 77.7281C56.5228 77.7281 57.3418 78.5408 57.3418 79.5434L57.3418 81.7216Z" fill="#334D54"/>
<path d="M45.8066 106.408C45.8066 107.411 44.9876 108.224 43.9773 108.224L41.782 108.224C40.7717 108.224 39.9527 107.411 39.9527 106.408L39.9527 104.23C39.9527 103.228 40.7717 102.415 41.782 102.415L43.9773 102.415C44.9876 102.415 45.8066 103.228 45.8066 104.23L45.8066 106.408Z" fill="#334D54"/>
<path d="M24.5879 104.956C24.5879 105.959 23.7689 106.771 22.7585 106.771L20.5633 106.771C19.5529 106.771 18.7339 105.959 18.7339 104.956L18.7339 102.778C18.7339 101.775 19.5529 100.963 20.5633 100.963L22.7585 100.963C23.7689 100.963 24.5879 101.775 24.5879 102.778L24.5879 104.956Z" fill="#334D54"/>
<path d="M6.6582 96.2433C6.6582 97.2458 5.83917 98.0585 4.82883 98.0585L2.63359 98.0585C1.62326 98.0585 0.804223 97.2458 0.804223 96.2433L0.804223 94.065C0.804222 93.0625 1.62326 92.2498 2.63359 92.2498L4.82883 92.2498C5.83917 92.2498 6.6582 93.0625 6.6582 94.065L6.6582 96.2433Z" fill="#334D54"/>
<path d="M8.12109 74.8238C8.12109 75.8263 7.30206 76.639 6.29172 76.639L4.09648 76.639C3.08615 76.639 2.26711 75.8263 2.26711 74.8238L2.26711 72.6456C2.26711 71.6431 3.08615 70.8304 4.09648 70.8304L6.29172 70.8304C7.30206 70.8304 8.12109 71.6431 8.12109 72.6456L8.12109 74.8238Z" fill="#334D54"/>
<path d="M16.9023 57.0348C16.9023 58.0373 16.0833 58.85 15.073 58.85L12.8777 58.85C11.8674 58.85 11.0484 58.0373 11.0484 57.0348L11.0484 54.8566C11.0484 53.854 11.8674 53.0413 12.8777 53.0413L15.073 53.0413C16.0833 53.0413 16.9023 53.854 16.9023 54.8566L16.9023 57.0348Z" fill="#334D54"/>
<defs>
<filter id="filter0_d" x="70.2891" y="9.50801" width="184.291" height="141.109" filterUnits="userSpaceOnUse" color-interpolation-filters="sRGB">
<feFlood flood-opacity="0" result="BackgroundImageFix"/>
<feColorMatrix in="SourceAlpha" type="matrix" values="0 0 0 0 0 0 0 0 0 0 0 0 0 0 0 0 0 0 127 0"/>
<feOffset dy="5"/>
<feGaussianBlur stdDeviation="10"/>
<feColorMatrix type="matrix" values="0 0 0 0 0 0 0 0 0 0 0 0 0 0 0 0 0 0 0.15 0"/>
<feBlend mode="normal" in2="BackgroundImageFix" result="effect1_dropShadow"/>
<feBlend mode="normal" in="SourceGraphic" in2="effect1_dropShadow" result="shape"/>
</filter>
</defs>
</svg>
