<?xml version="1.0" encoding="UTF-8"?>
<svg width="28px" height="28px" viewBox="0 0 28 28" version="1.1" xmlns="http://www.w3.org/2000/svg" xmlns:xlink="http://www.w3.org/1999/xlink">
    <!-- Generator: Sketch 50.2 (55047) - http://www.bohemiancoding.com/sketch -->
    <title>icon-gear</title>
    <desc>Created with Sketch.</desc>
    <defs></defs>
    <g id="Page-1" stroke="none" stroke-width="1" fill="none" fill-rule="evenodd">
        <g id="icon-gear" fill="#41CFF6" fill-rule="nonzero">
            <path d="M25.541714,11.285966 L22.4836388,11.285966 C22.32135,10.7696451 22.1145907,10.2706504 21.8662484,9.7936022 L24.0279812,7.63244687 C24.7325802,6.92727033 24.7325802,5.78027555 24.0279812,5.07625409 L22.6597886,3.70806142 C21.9771361,3.02540894 20.7856707,3.0248314 20.1030182,3.70806142 L17.9412854,5.86979428 C17.4642372,5.62087447 16.9652425,5.41469263 16.4494991,5.25240384 L16.4494991,2.19432864 C16.4494991,1.1974943 15.6386327,0.386627907 14.6417984,0.386627907 L12.7064613,0.386627907 C11.709627,0.386627907 10.8987606,1.1974943 10.8987606,2.19432864 L10.8987606,5.2518263 C10.3824397,5.41411508 9.88344495,5.62087447 9.40639677,5.86921674 L7.24524145,3.70748389 C6.56201143,3.02425386 5.37112358,3.02425386 4.68904864,3.70748389 L3.32143352,5.07567655 C2.97952974,5.41700279 2.79125164,5.8715269 2.79125164,6.35435048 C2.79125164,6.83717407 2.97952974,7.29112062 3.32085598,7.63244687 L5.48201129,9.79417971 C5.23366902,10.2712279 5.02690964,10.7702226 4.86519839,11.285966 L1.80770073,11.285966 C0.810866397,11.285966 0,12.0968324 0,13.0936667 L0,15.0290038 C0,16.0258382 0.810866397,16.8367045 1.80770073,16.8367045 L4.86519839,16.8367045 C5.02748718,17.3524479 5.23366902,17.8514427 5.48201129,18.3284908 L3.32085598,20.4902237 C2.97952974,20.8315499 2.79125164,21.2854965 2.79125164,21.7683201 C2.79125164,22.2511437 2.97952974,22.7050902 3.32085598,23.0464165 L4.68904864,24.4146091 C5.37227866,25.0978391 6.56258895,25.0978391 7.24581897,24.4146091 L9.40697429,22.2528763 C9.88402247,22.5017961 10.3835947,22.7079779 10.8993381,22.8696892 L10.8993381,25.9277644 C10.8993381,26.9245987 11.7102045,27.7354651 12.7070388,27.7354651 L14.6423759,27.7354651 C15.6392103,27.7354651 16.4500766,26.9245987 16.4500766,25.9277644 L16.4500766,22.8702667 C16.96582,22.7085555 17.4648147,22.5017961 17.9418629,22.2534538 L20.1030182,24.4151867 C20.7862483,25.0984167 21.9777136,25.0978391 22.6597886,24.4151867 L24.0279812,23.046994 C24.7325802,22.342395 24.7325802,21.1954002 24.0279812,20.4908012 L21.8662484,18.3290683 C22.1151682,17.8520202 22.32135,17.3530255 22.4836388,16.8372821 L25.5411365,16.8372821 C26.5379708,16.8372821 27.3488372,16.0264157 27.3488372,15.0295814 L27.3488372,13.0942443 C27.3488372,12.0968324 26.5379708,11.285966 25.541714,11.285966 Z M26.1937569,15.0290038 C26.1937569,15.3888113 25.900944,15.6816243 25.5411365,15.6816243 L22.0487511,15.6816243 C21.7865478,15.6816243 21.5566868,15.8589291 21.4902697,16.1130468 C21.3031467,16.8263089 21.0213071,17.5078063 20.6522589,18.1384801 C20.5194247,18.3648759 20.5563873,18.6530684 20.7423552,18.8384588 L23.2107619,21.3068655 C23.4654571,21.5615607 23.4654571,21.975657 23.2107619,22.2297747 L21.8419917,23.5979674 C21.5965371,23.844577 21.1662697,23.844577 20.9190825,23.5979674 L18.4506758,21.1289831 C18.2652854,20.9435927 17.9770928,20.9060526 17.7506972,21.0388869 C17.1200233,21.4085126 16.4385259,21.6903522 15.7258413,21.8768976 C15.4717236,21.9433147 15.2944188,22.1725982 15.2944188,22.435379 L15.2944188,25.9277644 C15.2944188,26.2875719 15.0016059,26.5803848 14.6417984,26.5803848 L12.7064613,26.5803848 C12.3466538,26.5803848 12.0538409,26.2875719 12.0538409,25.9277644 L12.0538409,22.435379 C12.0538409,22.1725982 11.8765361,21.9427372 11.6224184,21.8768976 C10.9091563,21.6903522 10.2282364,21.4085126 9.59756254,21.0388869 C9.50688871,20.9857531 9.40581919,20.9597639 9.30590477,20.9597639 C9.15632187,20.9597639 9.00847158,21.0175178 8.89700632,21.1289831 L6.42859963,23.5979674 C6.18198998,23.844577 5.75230009,23.844577 5.50569044,23.5979674 L4.13749777,22.2291971 C4.01448172,22.1061811 3.94633198,21.9421597 3.94633198,21.7683201 C3.94633198,21.5939029 4.01448172,21.4298815 4.13749777,21.3068655 L6.60590449,18.8384588 C6.79187242,18.6530684 6.82883496,18.3648759 6.69600074,18.1384801 C6.32637502,17.5072287 6.04453542,16.8257313 5.85798994,16.1130468 C5.79157282,15.8589291 5.56171184,15.6816243 5.2995086,15.6816243 L1.80770073,15.6816243 C1.44789321,15.6816243 1.15508034,15.3888113 1.15508034,15.0290038 L1.15508034,13.0936667 C1.15508034,12.7338592 1.44789321,12.4410463 1.80770073,12.4410463 L5.30008614,12.4410463 C5.56286691,12.4410463 5.79215036,12.2637415 5.85856748,12.0096238 C6.0456905,11.2963617 6.32695256,10.6148643 6.69657826,9.98419045 C6.82941254,9.75721717 6.79244993,9.46960215 6.60648201,9.28421174 L4.13807532,6.81580508 C4.01505926,6.69278902 3.94690952,6.52819008 3.94690952,6.35435048 C3.94690952,6.17993335 4.01505926,6.01648948 4.13807532,5.89289589 L5.50684552,4.52470322 C5.75287764,4.27809357 6.18314506,4.27809357 6.42975472,4.52470322 L8.89816141,6.99368743 C9.08355182,7.18023294 9.37232188,7.21661796 9.59814006,7.08378375 C10.2282364,6.71473555 10.9097338,6.43289594 11.6235735,6.24577293 C11.8776912,6.17935581 12.054996,5.94949482 12.054996,5.68729159 L12.054996,2.19432864 C12.054996,1.83452111 12.3478088,1.54170825 12.7076164,1.54170825 L14.6429535,1.54170825 C15.002761,1.54170825 15.2955739,1.83452111 15.2955739,2.19432864 L15.2955739,5.68671405 C15.2955739,5.94949482 15.4728787,6.17877827 15.7269964,6.24519539 C16.4402585,6.43231841 17.1217559,6.71358047 17.7524298,7.08320617 C17.9788255,7.21661796 18.2670181,7.17907784 18.4524084,6.99310992 L20.9213927,4.52412568 C21.1674248,4.27751603 21.5976922,4.27809357 21.8443018,4.52412568 L23.2124945,5.89231835 C23.4666122,6.14643603 23.4666122,6.56053232 23.2124945,6.81522754 L20.7435103,9.28363422 C20.5575424,9.46960215 20.5205798,9.75721717 20.653414,9.98361293 C21.0224622,10.6137092 21.3043018,11.2952066 21.4914248,12.0090463 C21.5578419,12.263164 21.7877029,12.4404688 22.0499062,12.4404688 L25.5422915,12.4404688 C25.9020991,12.4404688 26.194912,12.7332817 26.194912,13.0930892 L26.194912,15.0290038 L26.1937569,15.0290038 Z" id="Shape"></path>
            <path d="M13.3488372,8.2005814 C12.4245543,8.2005814 11.5093777,8.43337151 10.7023375,8.87333915 C10.4263048,9.02359972 10.3244288,9.36965446 10.4752508,9.64513226 C10.6260728,9.92061007 10.9709715,10.0236296 11.2475734,9.87223069 C11.8878556,9.52276093 12.614647,9.3383502 13.3494063,9.3383502 C15.7739416,9.3383502 17.7460107,11.3105207 17.7460107,13.7351806 C17.7460107,16.1598404 15.7739416,18.1320109 13.3494063,18.1320109 C10.9248712,18.1320109 8.95280205,16.1598404 8.95280205,13.7351806 C8.95280205,13.0618536 9.1007784,12.4158469 9.39274703,11.8159428 C9.52990972,11.5330657 9.41266695,11.1927027 9.1298045,11.0549638 C8.84694206,10.9172249 8.50659652,11.0344737 8.36886472,11.3179199 C8.00120043,12.0743455 7.81395349,12.887688 7.81395349,13.7351806 C7.81395349,16.7870646 10.29711,19.2703488 13.3488372,19.2703488 C16.4005644,19.2703488 18.8837209,16.7870646 18.8837209,13.7351806 C18.8837209,10.6832965 16.4011335,8.2005814 13.3488372,8.2005814 Z" id="Shape"></path>
        </g>
    </g>
</svg>