<?xml version="1.0" encoding="UTF-8"?>
<svg width="1580px" height="1375px" viewBox="0 0 1580 1375" version="1.1" xmlns="http://www.w3.org/2000/svg" xmlns:xlink="http://www.w3.org/1999/xlink">
    <!-- Generator: Sketch 50.2 (55047) - http://www.bohemiancoding.com/sketch -->
    <title>Combined Shape</title>
    <desc>Created with Sketch.</desc>
    <defs></defs>
    <g id="Page-4" stroke="none" stroke-width="1" fill="none" fill-rule="evenodd" opacity="0.256752232">
        <g id="Artboard" transform="translate(-90.000000, 0.000000)" fill="#FFFFFF">
            <path d="M442.447001,537.228516 L475.447001,537.228516 L436.646776,653.667969 L403.646776,653.667969 L442.447001,537.228516 Z M680.686944,835.25 L713.686944,835.25 L674.886719,951.689453 L641.886719,951.689453 L680.686944,835.25 Z M1041.84456,1316.78027 L1074.84456,1316.78027 L1036.04433,1433.21973 L1003.04433,1433.21973 L1041.84456,1316.78027 Z M723.797511,95.1826172 L756.797511,95.1826172 L674.886719,332.37207 L641.886719,332.37207 L723.797511,95.1826172 Z M535.80251,1089.05762 L568.80251,1089.05762 L486.891718,1326.24707 L453.891718,1326.24707 L535.80251,1089.05762 Z M950.101007,803.773438 L983.101007,803.773438 L944.300781,920.212891 L911.300781,920.212891 L950.101007,803.773438 Z M164.800226,898.039062 L197.800226,898.039062 L159,1014.47852 L126,1014.47852 L164.800226,898.039062 Z M128.900113,147.458008 L161.900113,147.458008 L123.099887,263.897461 L90.0998871,263.897461 L128.900113,147.458008 Z M1439.84488,369.121094 L1472.84488,369.121094 L1434.04466,485.560547 L1401.04466,485.560547 L1439.84488,369.121094 Z M1353.55973,885.882812 L1386.55973,885.882812 L1347.7595,1002.32227 L1314.7595,1002.32227 L1353.55973,885.882812 Z M1174.02008,69.2792969 L1207.02008,69.2792969 L1168.21986,185.71875 L1135.21986,185.71875 L1174.02008,69.2792969 Z M615.30297,-287.5 L648.30297,-287.5 L482.130069,305.5 L449.130069,305.5 L615.30297,-287.5 Z M769.389433,1078.5 L802.389433,1078.5 L636.216533,1671.5 L603.216533,1671.5 L769.389433,1078.5 Z M1185.43972,772.03125 L1218.43972,772.03125 L1085,1181.74414 L1052,1181.74414 L1185.43972,772.03125 Z M1247.31472,255.964844 L1280.31472,255.964844 L1146.875,665.677734 L1113.875,665.677734 L1247.31472,255.964844 Z M644.786832,452.280273 L677.786832,452.280273 L544.347114,861.993164 L511.347114,861.993164 L644.786832,452.280273 Z M331.239943,987.858398 L364.239943,987.858398 L230.800226,1397.57129 L197.800226,1397.57129 L331.239943,987.858398 Z M1534.48438,-153.748047 L1567.48438,-153.748047 L1434.04466,255.964844 L1401.04466,255.964844 L1534.48438,-153.748047 Z M1523.43972,1078.5 L1556.43972,1078.5 L1423,1488.21289 L1390,1488.21289 L1523.43972,1078.5 Z M1689.43972,332.37207 L1722.43972,332.37207 L1589,742.084961 L1556,742.084961 L1689.43972,332.37207 Z M1005.94947,10.2072522 L1038.94445,10.7831816 L862.447576,600.792748 L829.452602,600.216818 L1005.94947,10.2072522 Z M287.005026,190.267799 L320,190.843728 L143.503131,780.853295 L110.508157,780.277365 L287.005026,190.267799 Z" id="Combined-Shape"></path>
        </g>
    </g>
</svg>